<svg id="グループ_81" data-name="グループ 81" xmlns="http://www.w3.org/2000/svg" width="20.84" height="20.84" viewBox="0 0 20.84 20.84">
  <path id="パス_27185" data-name="パス 27185" d="M14.581,7.149a1.8,1.8,0,0,0-1.031-1.03,3,3,0,0,0-1.007-.187C11.971,5.907,11.8,5.9,10.35,5.9s-1.621.007-2.193.033a3,3,0,0,0-1.008.187A1.8,1.8,0,0,0,6.119,7.15a3,3,0,0,0-.187,1.007C5.907,8.73,5.9,8.9,5.9,10.35s.007,1.621.033,2.193a3,3,0,0,0,.187,1.008,1.8,1.8,0,0,0,1.031,1.03,3,3,0,0,0,1.007.187c.572.026.744.033,2.193.033s1.621-.007,2.193-.033a3,3,0,0,0,1.008-.187,1.8,1.8,0,0,0,1.03-1.031,3,3,0,0,0,.187-1.007c.026-.572.033-.744.033-2.193s-.007-1.621-.033-2.193A3,3,0,0,0,14.581,7.149ZM10.35,13.138a2.787,2.787,0,1,1,2.787-2.787,2.787,2.787,0,0,1-2.787,2.787Zm2.9-5.033a.651.651,0,1,1,.651-.651.651.651,0,0,1-.651.651Z" transform="translate(0.07 0.07)"/>
  <ellipse id="楕円形_7" data-name="楕円形 7" cx="1.809" cy="1.809" rx="1.809" ry="1.809" transform="translate(8.611 8.611)"/>
  <path id="パス_27186" data-name="パス 27186" d="M10.82.4A10.42,10.42,0,1,0,21.24,10.82,10.42,10.42,0,0,0,10.82.4Zm5.395,12.658a3.983,3.983,0,0,1-.253,1.317,2.774,2.774,0,0,1-1.587,1.587,3.984,3.984,0,0,1-1.317.253c-.58.026-.764.033-2.238.033s-1.659-.007-2.238-.033a3.984,3.984,0,0,1-1.317-.253,2.774,2.774,0,0,1-1.587-1.587,3.983,3.983,0,0,1-.253-1.317c-.026-.58-.033-.764-.033-2.238s.007-1.659.033-2.238a3.983,3.983,0,0,1,.253-1.317A2.774,2.774,0,0,1,7.265,5.678a3.984,3.984,0,0,1,1.317-.253c.58-.026.764-.033,2.238-.033s1.659.007,2.238.033a3.983,3.983,0,0,1,1.317.253,2.774,2.774,0,0,1,1.587,1.587,3.984,3.984,0,0,1,.253,1.317c.026.58.033.764.033,2.238s-.007,1.659-.033,2.238Z" transform="translate(-0.4 -0.4)"/>
</svg>
