<svg xmlns="http://www.w3.org/2000/svg" width="255.172" height="47.9" viewBox="0 0 255.172 47.9">
  <g id="グループ_38" data-name="グループ 38" transform="translate(-160.524 -647.805)">
    <g id="グループ_33" data-name="グループ 33" transform="translate(160.524 647.805)">
      <path id="合体_2" data-name="合体 2" d="M31.749,47.794c-.069-.132-.2-.168-.235-.344l-.188.012v-.021l-.1-.025c-.01-.082-.024-.1-.12-.11l0-.041h-.021c0-.014,0-.012.008-.01s.01,0,.014-.01c.016-.074.007-.151.025-.227a1.182,1.182,0,0,0,.026-.138c0-.03.006-.06.008-.09,0-.061,0-.122,0-.183l-.012-.32a.48.48,0,0,1,.011-.226l-.023,0c-.016-.234.017-.476.013-.711s-.031-.46-.048-.688l-.019-.26c-.022-.31-.034-.612-.041-.923l0-.13a2.7,2.7,0,0,1,0-.277c0-.025,0-.056-.02-.068.016-.009.018-.031.019-.049l.007-.226.005-.148c0-.032,0-.065,0-.1.006-.148.017-.3.032-.443,0-.037.008-.073.011-.11s0-.05.006-.076l.009-.118a1.417,1.417,0,0,1,.024-.271c.01,0,.016,0,.016-.009H31.14l.032-.249c.008-.168.016-.336.036-.5a1.422,1.422,0,0,0,.05-.451c.014.007.023-.017.022-.032s.007-.039.022-.032L31.29,40c.014.006.022-.015.023-.03l0-.136c0-.019.005-.044.024-.047l.006-.1a.284.284,0,0,0,.025-.046.679.679,0,0,0,.011-.118l.023-.233h.021l0-.083h.021l.007-.145c.05-.03.1-.054.048-.115a.1.1,0,0,0,.021-.047l.131-.474.023-.082.06-.214a.148.148,0,0,1,.024-.056c.011-.014.027-.024.038-.037A.165.165,0,0,0,31.828,38a.5.5,0,0,0,.062-.183l.042-.019.024-.061.167.007.045-.061.02.022c.128.041.083.125.286.138l0,.042h.021c0,.035,0,.071,0,.1.051.031.022.3.023.361,0,.249.021.5.05.745,0,.014,0,.029.007.043.015.062.016.163.066.191l0,.063a.034.034,0,0,1,.019,0c-.005.042.039.093,0,.129a.174.174,0,0,0,.034.091c.013.019.031.034.045.052a.442.442,0,0,1,.073.221l.027.2a.121.121,0,0,0,.016.053c.006.01.015.018.021.028.02.035,0,.087.026.116.006.007.015.012.021.019a.068.068,0,0,1,.008.04c0,.121.031.24.026.36h.021l-.012.265a1.058,1.058,0,0,1,0,.127c0,.022-.027.054-.024.075a.128.128,0,0,0,.006.016.086.086,0,0,1,0,.037.546.546,0,0,0,0,.133.547.547,0,0,1,.013.181c0,.018,0,.044.014.045a2.008,2.008,0,0,0-.009.2c0,.127-.007.253-.012.379a.056.056,0,0,0-.024.061h.021l-.027.145a2.141,2.141,0,0,0-.009.646l-.006.146h-.021a.056.056,0,0,0,.018.063l-.01.229s-.027,0-.022.04h.021a1.478,1.478,0,0,0,.013.532.022.022,0,0,1-.018.03.184.184,0,0,1,.009.1,1.426,1.426,0,0,0,0,.284,2.345,2.345,0,0,0,0,.308l.006.156c.008.226.018.451.018.676h-.021l.008.271H32.88a2.027,2.027,0,0,1-.109.5l-.037.124-.028.093a1.4,1.4,0,0,1-.056.16c-.016.035-.033.069-.052.1a1.2,1.2,0,0,0-.133.3l-.017,0-.005.039c-.013-.006-.028.007-.032.02s0,.029-.007.043a.027.027,0,0,1-.043.013.637.637,0,0,0-.027.065s-.148.026-.164.031c-.035.012-.126.025-.142.061,0,.009,0,.02-.008.029s-.015.016-.024.011l0,.038-.019,0,0,.057a.033.033,0,0,1-.008.025.072.072,0,0,1-.017.008c-.033.016-.011.047-.022.07s-.021.018-.044.042a.261.261,0,0,0-.068.122Zm6.327-.084c-.035-.069-.074-.085-.075-.191H37.98l0-.083-.062,0a.64.64,0,0,0-.032-.21.439.439,0,0,0-.1-.047l-.017-.084h-.021l.032-.248h-.021a2.856,2.856,0,0,0-.009-.294c-.024-.416-.122-.824-.172-1.238-.019-.156-.031-.313-.043-.469a.939.939,0,0,1,0-.151.666.666,0,0,0,.006-.121.09.09,0,0,1,0-.063,2.375,2.375,0,0,1-.017-.277s-.021-.006-.022,0l.025-.082h-.021l.01-.229-.014-.147h.021v-.021H37.5l.023-.04h-.021l.008-.188h.021a.053.053,0,0,0-.018-.063l-.007-.292h.021c.008-.036-.017-.035-.019-.042l0-.1H37.5l.017-.374h-.021a2.176,2.176,0,0,1,.046-.561l-.018-.064h.021l0-.041h-.021c0-.036.021-.034.023-.04l.005-.1.018-.4h.021l0-.041h.021l-.012-.188h.021a1.617,1.617,0,0,1,.053-.29l.051-.22c0-.013.009-.028.023-.028l-.007-.036.073-.18c.022-.054.044-.108.069-.161.013-.028.027-.056.041-.084l.054-.107L38.031,40l.046-.089.07-.138a1.137,1.137,0,0,1,.1-.141,1.122,1.122,0,0,0,.085-.2c.021-.026.078-.02.106-.037v-.021a.49.49,0,0,1,.088-.057.561.561,0,0,1,.155,0,.057.057,0,0,1,.033.009c.011.01.011.026.02.038s.041.021.068.02a.2.2,0,0,1,.037,0c.1.015.108.183.206.2a.089.089,0,0,1,.027.006.059.059,0,0,1,.018.018.491.491,0,0,1,.073.12c.005.017,0,.031,0,.047s.022.028.023.061l.019.006a2.574,2.574,0,0,1,0,.318.615.615,0,0,0,0,.167.58.58,0,0,0,.069.1.239.239,0,0,1,.023.037.117.117,0,0,0,.014.028c.005.006.012.011.017.017a.113.113,0,0,1,.016.069.255.255,0,0,0,.043.128.134.134,0,0,1,.023.042.035.035,0,0,1-.016.041c.042,0,.091.014.107.052.006.016.006.033.013.047s.029.024.04.013v.2a.361.361,0,0,0,.027.165c.008.016.011.14-.009.139h.021l-.006.145h.021l-.008.188a.474.474,0,0,1,.03.251h-.021l0,.042h-.021l0,.1H39.56l0,.042h-.021c0,.035.037.034.04.043l.012.188s-.031.006-.022.04l.04.023,0,.083h-.021l.005.334h-.021l0,.042h-.021l0,.1H39.52c-.008.034.034.1.013.168h-.021l0,.083h.021l0,.042h.021l-.007.166H39.52l.008.271c-.008.026-.076.136-.07.164l.041.023-.009.208h-.021l0,.062h-.021c0,.038,0,.067-.026.092a.154.154,0,0,1,.031.078.323.323,0,0,1,0,.06l-.011.112a1.23,1.23,0,0,1-.026.172c-.005.021-.011.041-.018.061l-.019.063-.012.038a.438.438,0,0,0-.025.25l-.038.073a1.638,1.638,0,0,1-.007.237l-.008.1-.01.127-.009.107-.017.206a2.489,2.489,0,0,1,0,.3h-.021l.018.064h-.021l-.011.25H39.19l-.006.125h-.021l-.025.1h-.021l.018.063a.35.35,0,0,1-.05.164l-.006.146h-.021l0,.042-.043.019,0,.042h-.021l0,.1-.15.1c-.069.063-.1.138-.216.157-.018.066-.032.074-.108.078V47.71l-.251.009v.021Zm6.545-.3-.1.016V47.41H44.5l-.052-.231-.082-.025a.059.059,0,0,1-.063.018s-.005-.032-.041-.023l-.023.04-.063,0a.736.736,0,0,0-.117-.172l.024-.061H44.1l0-.1h.021c.008-.035-.018-.037-.019-.043l.015-.333H44.1l0-.062h-.021l-.017-.084h-.021l.007-.145H44.03l.131-2.413h.021l.011-.25h.021l.007-.167h.021c.038-.112.006-.295.039-.394l.014-.312h.021l.014-.312a2.713,2.713,0,0,0,.091-.462c.024-.156.069-.308.08-.466l.017,0,0-.058.019,0s.065-.342.074-.369c.042-.139.1-.273.149-.408l.015-.037a.717.717,0,0,0,.074-.184.1.1,0,0,1,.01-.039.177.177,0,0,1,.025-.025.168.168,0,0,0,.035-.079A.466.466,0,0,1,45,40.044c.009-.011.086-.134.064-.136h.021l.088-.1.084,0,.044-.06.041,0a.2.2,0,0,0,.087-.039c.057-.035.12-.07.157.009a.037.037,0,0,0,.009.016.029.029,0,0,0,.018.005l.082,0,0,.02.056.005c.017.052.115.085.123.129l.033.189h.021l0,.042.04.022,0,.042h.021c0,.023-.011.153-.048.146l-.006.139c0,.014-.01.032-.022.026l-.006.1a.037.037,0,0,0,0,.023c0,.007.014.009.021.014a.039.039,0,0,1,.013.048c.016-.006.022.019.02.035s0,.041.02.035a.057.057,0,0,0,.014.065l0,.034c.023.01.021.043.016.068s-.006.058.017.067c0,.047,0,.094-.006.141h-.021l.012.188h.021l0,.041h.021l-.007.167h.021a.667.667,0,0,1-.032.249l.014.146h-.021l0,.417H46.02c-.011.049.023.1.01.147a.561.561,0,0,0-.013.226l-.073.311a.164.164,0,0,0-.006.044c0,.054.056.1.046.154a.323.323,0,0,1-.013.037.3.3,0,0,0-.009.095,1.628,1.628,0,0,1-.059.423l.005.056c-.035.029-.029.148-.026.19-.036.006-.027.115-.04.153.013.01.012.029.01.045l-.014.129c-.006.053-.012.107-.022.159s-.017.076-.027.113l-.045.177a.11.11,0,0,0,.011.1.491.491,0,0,0-.036.15l-.021.157a1.574,1.574,0,0,0-.019.214c0,.04,0,.081,0,.122a.386.386,0,0,1-.038.143c.016.015.011.042.006.063l-.055.205a.627.627,0,0,1-.062.352.26.26,0,0,0-.027.068c0,.013-.027.191-.03.191h-.021l-.03.186h.021l.017.084H45.44a.2.2,0,0,1-.15.1c-.025.079-.05.061-.109.1l-.153.16-.043.019,0,.063-.086.058,0,.063h-.021c-.032.037-.027.046-.086.059v.021l-.04-.023c-.051.022-.069.053-.149.056Zm-20.41.059v-.021h-.023c-.028,0-.057,0-.062-.025a.04.04,0,0,1-.049-.022c0-.007,0-.014-.009-.019a.027.027,0,0,0-.019-.005h-.074a.047.047,0,0,1-.023,0c-.028-.015-.007-.065-.032-.085-.006-.005-.014-.008-.021-.012-.031-.023,0-.076-.013-.111,0-.009-.014-.017-.016-.028s.019-.018.023-.029a.323.323,0,0,0,0-.09c.062-.028.034-.068.083-.106A.1.1,0,0,0,24,46.9a.08.08,0,0,0,0-.055c0-.019,0-.042.023-.047l.005-.034c.018,0,.023-.024.025-.042l.025-.244c0-.013.007-.03.02-.029l.018-.139,0-.029c0-.012,0-.023,0-.035.008-.047.028-.087.032-.134a1.8,1.8,0,0,0-.007-.222c.009-.186.018-.373.025-.56l-.02,0,0-.121-.018,0a.04.04,0,0,1,.006-.039.113.113,0,0,0,.019-.037c0-.014-.009-.031-.022-.028l.028-.182-.018,0a.417.417,0,0,1,0-.124c0-.054,0-.109,0-.163,0-.106-.005-.212-.009-.318l-.008-.183,0-.078c-.006-.141-.012-.282-.018-.424-.047-.038-.034-.207,0-.25-.014-.005-.016-.025-.015-.04l.01-.165c0-.014-.007-.035-.02-.029l.008-.182c0-.014-.007-.033-.019-.027l.007-.185c0,.009-.016-.031-.017-.038a.428.428,0,0,1,0-.051c0-.042,0-.085,0-.127,0-.062-.005-.125-.008-.187l-.006-.115,0-.052-.02-.363,0-.07a1.829,1.829,0,0,0,0-.315h.021s.01-.266.009-.285c0-.035-.006-.07-.008-.106a.7.7,0,0,1,.019-.251.242.242,0,0,0,.011-.044.552.552,0,0,0-.018-.118.16.16,0,0,1,.023-.1c-.006-.062.041-.6.031-.6h.021l.007-.145h.021c0-.032-.012-.117.029-.13a.174.174,0,0,1,.021-.126.188.188,0,0,1,.023-.1l.011-.053a.048.048,0,0,0,.022-.023.489.489,0,0,0,.049-.11c.005-.02.007-.041.012-.061a.487.487,0,0,1,.057-.126c0-.007.011-.016.02-.013a.054.054,0,0,1,.02-.063.223.223,0,0,0,0-.056.1.1,0,0,1,.025,0l0-.062h.021l0-.063.042-.019,0-.042.044-.039.042,0,.067-.1.1.005.02.022V38.6a.19.19,0,0,1,.106-.037.259.259,0,0,1,.054.19c.018.007.052.013.064.031s-.007.059.018.079.029.01.033.023a.04.04,0,0,1,0,.015.055.055,0,0,0,.031.045c.018.009.048,0,.062.018s.011.056.028.07.1.056.079.106l.022.005c-.008.013-.015.026-.022.039a.044.044,0,0,0-.006.029c0,.01.014.018.022.013,0,.018,0,.037,0,.06a.009.009,0,0,0,.008,0c.022,0,.007.09.006.11,0,.047,0,.094-.006.14l.021,0c.006,0-.023.161.007.175.009,0,.02.007.024.016s0,.025,0,.036.013.011.021.015a.041.041,0,0,1,.017.049c.005.005.016,0,.02.014,0,.037,0,.075,0,.113l.019,0a.818.818,0,0,1-.008.206,3.71,3.71,0,0,0,0,.4l-.025.1a1.374,1.374,0,0,1,0,.437h-.021c-.008.035.018.037.019.042,0,.1-.008.193-.02.29-.005.047-.011.095-.012.143a1.812,1.812,0,0,0,.008.205l.005.062a1.127,1.127,0,0,0,.018.147l.009.043c.009.048-.013.273.021.28,0,.008,0,.1,0,.1h.021l-.025.1c.06.017.038.076.035.125a.035.035,0,0,0,0,.023.055.055,0,0,0,.019.011.04.04,0,0,1,.015.05c.014-.005.022.017.021.033l-.006.087c0,.015.005.036.02.032l0,.1c.01-.005.018.012.017.024a2.438,2.438,0,0,0,.055.648l-.013.292H25.6l-.02.437c0,.055.012.111.011.166l-.018,0,.015.06-.019,0-.016.329-.021,0a2.989,2.989,0,0,0-.014.311H25.5v.021h.021l-.013.291h.021c0,.014-.005.012-.009.01s-.009,0-.012.01l-.012.27h-.021l-.005.1h-.021s-.009.175-.01.186c-.01-.008-.02.01-.021.023l-.005.1c-.024.007-.026.04-.024.065s0,.058-.021.067l-.057.158a.9.9,0,0,1-.039.1.844.844,0,0,0-.065.185c0,.014-.013.032-.027.028l-.006.035a.052.052,0,0,0-.019.062c-.02,0-.032.022-.035.042s-.012.047-.033.044a1.287,1.287,0,0,1-.076.265l-.063.018v.021l-.041,0v.021l-.042,0-.045.061-.146-.007V47.41h-.021v.021l-.146-.006a.791.791,0,0,1-.222.061A.217.217,0,0,1,24.211,47.473ZM56.25,47.26a.149.149,0,0,0-.084.022V47.26c-.036-.039-.005-.11,0-.187l-.063-.02v-.021c-.034-.014-.039.021-.041.021l-.188-.02v-.021s-.028-.053-.031-.058-.036-.06-.034-.078.008-.034,0-.048l-.019-.007c.01-.015,0-.037-.018-.049s-.035-.02-.044-.036a.077.077,0,0,1-.007-.03l-.008-.076c0-.016-.009-.037-.026-.035-.01-.02.007-.048-.009-.063s-.018-.007-.025-.012-.01-.068-.01-.089h-.021l.019-.25a1.667,1.667,0,0,1,.058-.625v-.188h.021v-.187h.021l0-.25h.021c.014-.325.021-.645.064-.966.007-.051.014-.1.018-.152s.006-.112.007-.169l.005-.217c0-.165.007-.33.016-.5.007-.125.016-.251.028-.376.023-.236.051-.471.078-.706A.138.138,0,0,0,56,41.782a.585.585,0,0,0-.007-.1.109.109,0,0,1,.03-.091l-.012-.026a.08.08,0,0,0,.018-.076c-.006-.027-.018-.051-.023-.078,0-.006.055-.148.04-.148h.021l.018-.375H56.1l.04-.25h.021V40.6h.021l.019-.229h.021v-.084h.021v-.041h.021v-.062h.021c.005-.044,0-.146.038-.176a.063.063,0,0,0,.02-.016.045.045,0,0,0,0-.022v-.076a.038.038,0,0,0,.031-.03c0-.015,0-.031.008-.046.009-.032.04-.054.05-.087a.271.271,0,0,0,0-.062.061.061,0,0,1,.027-.053l0-.036c.021.008.024-.034.045-.042a.032.032,0,0,1,.015,0,.031.031,0,0,0,.019,0c.012-.008.008-.026.012-.039s.023-.024.036-.035.025-.03.014-.043.051-.062.063-.068V39.3c.035-.066.063-.125.145-.147.023-.1.106-.09.229-.085.022-.1.09-.089.208-.085a.557.557,0,0,0,.126.1h.063l.021.041a.18.18,0,0,0,.081.01c.036,0,.068,0,.086.03v.1h-.021a.874.874,0,0,1,.023.27h-.021l0,.292h.021v.041h.021v.062h.021a.186.186,0,0,1-.02.1l.063.041c.023.054-.037.124,0,.208h.021v.041l.042.021a.533.533,0,0,1,.023.27h-.021l.021.062h.021v.125h.021c.01.055-.058.189-.019.271l.063.041a.679.679,0,0,1,.023.333.034.034,0,0,0-.019,0,.6.6,0,0,1-.015.149c0,.013,0,.034.016.03l-.017.015a.27.27,0,0,1,.008.186.7.7,0,0,1,0,.136l-.014.157-.006.068c-.008.088-.017.177-.025.265,0,.039.019.157-.016.161a2.579,2.579,0,0,0,0,.331H57.8v.083h-.021c-.007.041.04.079.022.146h-.021v.084h-.021c-.006.035.02.035.021.041v.1l-.041.021c-.019.023,0,0-.021.021v-.021c-.035-.02-.018.03-.021.042h.062a1.767,1.767,0,0,1-.058.563v.167h-.021v.041h-.021v.167h-.021a4.292,4.292,0,0,1-.089.463L57.529,45q-.031.132-.063.263-.024.1-.048.2l-.04.164-.023.091-.012.052-.046.184c-.019.077-.038.154-.058.232l-.019.074c-.013.052-.03.106-.04.158a.034.034,0,0,1-.019,0v.042h-.021v.062H57.12l-.041.125h-.021v.042l-.042.021-.041.125-.062.042v.083h-.021c-.034.045-.029.054-.1.063a.65.65,0,0,1-.227.293l-.041.063a.3.3,0,0,1-.166.042C56.318,47.363,56.27,47.346,56.25,47.26Zm6.013.128a.2.2,0,0,0-.084-.041l-.043-.229a.18.18,0,0,1-.042-.041h-.084l-.021-.041h-.1v-.021h-.042v-.021l-.125-.02-.063-.1-.042-.021v-.063h-.021v-.062H61.57l-.021-.083h-.021V46.6l-.063-.02-.105-.145v-.042h-.021l-.022-.208a2.147,2.147,0,0,1-.007-.937c.006-.036-.02-.036-.021-.042l0-.25h.021s0-.151,0-.165.019-.006.026-.006c-.022-.074.047-.193.048-.276,0-.063-.008-.125-.007-.188a.639.639,0,0,1,.024-.169.082.082,0,0,1-.005-.069.986.986,0,0,0,.019-.273.355.355,0,0,1,0-.087c0-.016.008-.032.013-.048a.818.818,0,0,0,.019-.252l-.005-.206c0-.014,0-.034.018-.034l.012-.165a.273.273,0,0,0,0-.08.166.166,0,0,1-.011-.062c0-.026.027-.044.038-.068a.166.166,0,0,0,0-.1.979.979,0,0,1,0-.277c0-.017.031-.235.009-.222.016-.009.01-.032.005-.049-.023-.082.019-.17.007-.255-.007-.051-.033-.109,0-.149a.7.7,0,0,1-.022-.216c0-.062.036-.817.019-.816h.021l.018-.458h.021c0-.062,0-.124,0-.185.038-.018.036-.263.044-.319l.034-.234a.4.4,0,0,1,.033-.127.265.265,0,0,0,.023-.047.222.222,0,0,0,.005-.052.463.463,0,0,1,.1-.27l-.013-.056a.372.372,0,0,0,.067-.156.378.378,0,0,1,.013-.064.48.48,0,0,1,.059-.1.535.535,0,0,0,.057-.15.128.128,0,0,1,.049-.068c.033-.03.041-.022.058-.077h.021v-.062l.083-.063c.027-.047-.011-.058.041-.1V38.12l.292,0c.024.024,0,.008.042.021l.022.1h.021c.011.128.022.252.041.371a.116.116,0,0,0,.019.042l.093.146a.206.206,0,0,1,.045.132c0,.023-.014.048-.005.069s.036.03.055.044c.061.05.023.15.051.224.015.04.052.079.038.12-.005.018-.02.035-.013.052s.025.018.036.029c.037.038-.043.114,0,.15.007.006.017.01.023.017s.007.032.005.049.006.038.023.038a.722.722,0,0,0-.021.222h.021c0,.046-.019.17.018.194a.175.175,0,0,0,.024.147c-.029.041-.009.1,0,.147.017.13-.066.271-.006.388a.143.143,0,0,1,.012.028.115.115,0,0,1-.008.055.553.553,0,0,0,0,.218q.031.254.042.511a.147.147,0,0,1-.014.086.514.514,0,0,0,.02.106.741.741,0,0,1,0,.134,1.336,1.336,0,0,1-.029.213,1.958,1.958,0,0,1,.014.352c-.014.109-.019.219-.023.33l-.013.365-.014.4-.005.129c0,.121-.008.243-.015.364,0,.06-.046.747-.05.747h-.021v.125h-.021a2.99,2.99,0,0,1-.1.6c-.009.044-.018.088-.028.131s-.016.061-.024.091c-.037.14-.087.283-.112.425-.027.011-.018.037-.017.065l-.041.021-.02.1-.042.022v.041l-.083.063-.02.167h-.021l.022.125h.021v.146l.042.021v.063h.021l-.02.167h-.021v.042h-.021v.125h-.208Zm-57.806,0c-.2-.068-.474-.1-.681-.156a.638.638,0,0,1-.011-.208L3.641,47v-.021c-.023-.025-.008,0-.019-.043a.182.182,0,0,0,.172-.117c-.034-.025-.027-.014-.038-.064L3.9,46.7l.025-.083.043-.019,0-.062H4l.031-.228h.021l.024-.082.043-.019.027-.124h.021L4.186,46h.021l0-.083h.021l0-.041h.021l.063-.453a2.108,2.108,0,0,1,.066-.417.894.894,0,0,0,.038-.108.126.126,0,0,0-.021-.109c.033,0,.028-.051.031-.084,0-.05.047-.107.012-.142a.514.514,0,0,0,.039-.248l.049-.244c0-.1.022-.206.027-.307H4.58c.008-.035-.018-.036-.019-.042l.015-.333H4.6l.023-.5h.021l.017-.374h.021V42.5H4.659l0-.042H4.64c.015,0,.01-.576.007-.622.014,0,.023-.015.024-.03a.448.448,0,0,0-.012-.159c.019,0,.022-.026.02-.044s0-.044.022-.042c0-.04-.009-.081-.013-.12.07.012,0-.374,0-.42a2.868,2.868,0,0,1,.078-.789l-.016-.125h.021c.008-.043-.019-.042-.019-.042l.006-.125h.021l-.017-.084h.021l-.01-.23h.021l0-.062h.021L4.795,39.5h.021L4.8,39.3h.021l0-.042h.021l.007-.166h.021l0-.062H4.9l.006-.125.042-.019L5,38.763h.021l0-.041h.021c.034-.079,0-.172.052-.227v-.021l.1.005s.035.042.044.048.063.006.082.02a.032.032,0,0,1,.008.008c.034.043.028.173.034.23a.06.06,0,0,0,.011.036c.007.008.018.012.024.02.024.026-.007.07.008.1s.036.029.053.047c.044.046,0,.141.057.176,0,.053,0,.107,0,.16a2.668,2.668,0,0,1,0,.377.028.028,0,0,1,.018,0,.642.642,0,0,1-.023.153.045.045,0,0,0,0,.033c.006.008.016.011.023.018s0,.056.007.086.026.051.034.078c.017.056-.025.131.021.166a.251.251,0,0,0-.031.117.664.664,0,0,0,.03.108.678.678,0,0,1,0,.192.1.1,0,0,0,0,.036.146.146,0,0,0,.017.028.39.39,0,0,1,.051.158c.015.087.038.169.056.256.012.057.02.115.028.172,0,.022.006.043.009.065a7.989,7.989,0,0,1,.1,1.392l0,.521H5.833l0,.084H5.809v.021h.021l-.006.125H5.8c.007,0-.029.339-.031.366l-.012.115-.05.479c-.014.134-.028.267-.048.4-.011.071-.023.142-.035.213a4.067,4.067,0,0,0-.065.522H5.54l-.007.146H5.512l0,.1H5.487l0,.1H5.461l-.025.1H5.415l0,.041H5.392l-.051.206H5.321c-.005,0-.041.109-.051.118s-.053.035-.041.058a.054.054,0,0,0-.022.064c-.026.005-.034.038-.035.064s-.007.058-.032.066l-.006.036c-.011,0-.021.01-.021.023a.113.113,0,0,1,0,.035c-.01.025-.052.024-.062.05,0,.01,0,.021-.005.031s-.041.024-.058.042-.012.055-.029.077a.232.232,0,0,1-.034.026.035.035,0,0,0-.011.037c-.025.007-.021.021-.022.046H4.868l0,.063H4.844l0,.062-.064.039c-.055.1.059.138-.132.14a.23.23,0,0,1-.114.022A.249.249,0,0,1,4.457,47.39Zm13.356-.082-.017-.084-.083,0a.263.263,0,0,1-.016-.1.361.361,0,0,0,.072-.205A.285.285,0,0,1,17.7,46.9a.68.68,0,0,0,.062-.262.542.542,0,0,1,.02-.193.1.1,0,0,0,.01-.039c0-.013-.013-.027-.026-.024a.343.343,0,0,0,.023-.144.222.222,0,0,1,0-.1c.007-.019.021-.038.013-.056s-.035-.04,0-.045a2.494,2.494,0,0,1,.031-.32c.029-.109.049-.222.067-.333,0-.019,0-.047-.022-.043a.079.079,0,0,0,.011-.039l.03-.262.012-.106c0-.042.01-.085.014-.128.011-.114.018-.228.02-.343,0-.055,0-.11,0-.165a.645.645,0,0,0,.006-.129c-.051-.217.018-.413-.034-.627l.047-1.04c0-.222.006-.444.009-.667h-.021c-.01-.05.024-.054.025-.082h-.021L18,41.292h-.021s-.034-.519-.035-.567a.107.107,0,0,0-.018-.069.079.079,0,0,0,.013-.061l-.009-.133c-.005-.071-.009-.142-.007-.213,0-.039.063-.562.046-.562h.021l.03-.207h.021l0-.1h.021l0-.062h.021l.027-.144h.021l.035-.311s.019,0,.019,0a.775.775,0,0,0,.007-.08l.019,0,0-.037.019,0a.059.059,0,0,1,.006-.037c.008-.012.024-.017.037-.025a.064.064,0,0,0,.025-.074l.021,0s.027-.08.026-.08l.063-.018v-.021a.288.288,0,0,1,.142.09l.019.043a.651.651,0,0,1,.21.053.726.726,0,0,1,.09.192.04.04,0,0,0,.01.015c.009.007.023,0,.035,0a.082.082,0,0,1,.075.106l.021.006,0,.058a.037.037,0,0,0,0,.019.058.058,0,0,0,.017.015.058.058,0,0,1,.016.07l.021.007a.038.038,0,0,0,.011.044.164.164,0,0,1,.019.012c.029.028,0,.151,0,.19.01,0,.016.011.018.021l.037.168c0,.018.008.035.01.053s.006.066.009.1c.008.109.034.216.048.324a1.688,1.688,0,0,1,0,.322s.025,0,.019.042a.037.037,0,0,0-.023.041h.021a.41.41,0,0,0,0,.088c.006.028.03.049.032.08a.3.3,0,0,1-.01.071.244.244,0,0,0,.018.142l-.037.219-.043.253a.065.065,0,0,1-.019.042c.029.021.016.064.008.1a3.743,3.743,0,0,0,.012.442h-.021l0,.1H19.16a.035.035,0,0,0,.019.043c0,.026-.033.033-.024.082h.021l0,.083h-.021a2.524,2.524,0,0,1-.023.3l-.022.218-.015.149,0,.034-.043.423-.006.061.027.1a.827.827,0,0,0-.011.128c-.006.166-.016.328-.032.493a.723.723,0,0,0,.023.285.162.162,0,0,0-.022.069l-.01.066c-.011.069-.022.139-.035.208s-.026.139-.039.208c-.023.116-.04.229-.053.346h-.021l-.029.186h-.021a1.07,1.07,0,0,1-.05.255l-.013.046c-.03.107-.061.214-.088.322-.006.025-.012.05-.018.075l-.04.175c-.029.122-.061.243-.1.363-.005.016-.01.033-.015.05a.2.2,0,0,0,.007.176c-.011-.016-.145.153-.155.165l-.084.017-.022.041-.106.016c-.088.049-.147.125-.277.133C17.832,47.306,17.854,47.322,17.813,47.308Zm32.367-.178a.718.718,0,0,1-.114-.255c-.11.024-.035.013-.1-.047v-.021L49.84,46.8s.011-.25.011-.268l-.018-.006,0-.037-.018-.005,0-.12-.019-.006,0-.12-.018-.005,0-.037-.018-.005c-.006,0,.027-.184.028-.2a.063.063,0,0,0-.02,0l.028-.145H49.78l.024-.061c.033-.175,0-.4.046-.54.027-.082-.022-.177-.01-.23h.021a2.621,2.621,0,0,0-.006-.405.534.534,0,0,1,.02-.161,1.223,1.223,0,0,0,.024-.262.193.193,0,0,0-.008-.059.11.11,0,0,1-.009-.028c0-.027.028-.048.03-.075s-.012-.038-.02-.058,0-.048.018-.051l-.012-.041a.511.511,0,0,0,.023-.191l.02-.437h-.021l.006-.125a11.321,11.321,0,0,1,.087-1.185c.025-.165.082-.322.112-.485.037-.2.072-.411.113-.616a.084.084,0,0,1,.012-.032c.007-.01.018-.016.025-.025a.1.1,0,0,0,.018-.044l.041-.184c.019-.085.04-.246.119-.282l.032-.249.042-.019,0-.083h.021c0-.014,0-.026,0-.039.028-.012.009-.027.028-.046s.023-.01.033-.017a.05.05,0,0,0,.021-.047.141.141,0,0,0-.016-.052c.024,0,.033-.03.035-.054s.009-.052.032-.056l.005-.036.018,0,.006-.077c.025-.007.031-.039.033-.065s.007-.058.032-.065l.006-.033c.051-.021.011-.107.045-.127l.064-.039c.027-.036.034-.117.069-.143l.042,0,.023-.04.063,0v-.021a.156.156,0,0,1,.106-.037v.021l.083,0v.021l.042,0v.021a.205.205,0,0,0,.1.016c.036,0,.061,0,.1.056h.021l-.009.187h.021v.041h-.021l-.007.146H51.51L51.5,39.6h-.021l-.007.166h-.021a1.158,1.158,0,0,0,0,.4l.005.354.08.066,0,.042h.021l0,.1.041.023c.028.016.025.19.028.221l0,.023c0,.028,0,.055.007.083a.257.257,0,0,0,.062.185.07.07,0,0,1,.021.02c.014.023,0,.051-.013.076s0,.065.028.059a.609.609,0,0,0,.023.329.538.538,0,0,0-.022.155h-.021c-.01.212-.039.422-.064.633a.119.119,0,0,1-.031.082c.017.009.014.033.008.052a.851.851,0,0,0-.028.248c0,.023,0,.047,0,.069.006.084.009.169.008.253,0,.021-.045.261-.034.261h-.021l-.008.166h-.021l.017.084h.021l-.013.292H51.53l-.007.167H51.5l-.01.229h-.021l-.008.188h-.021l0,.042h-.021l.014.147a.845.845,0,0,1-.052.227l-.041.457a1.4,1.4,0,0,1-.057.2c-.02.077-.038.154-.062.23a2.757,2.757,0,0,0-.12.442c0,.018,0,.036-.007.054a.087.087,0,0,1-.01.032.269.269,0,0,1-.022.023.112.112,0,0,0-.02.056,1.761,1.761,0,0,1-.063.259.277.277,0,0,0-.152.091c-.024.029-.044.064-.079.078s-.072.006-.1.03-.035.083-.073.077c.018,0-.046.108-.046.12h-.021c-.03.03-.011.028-.064.039v.021l-.012,0A.789.789,0,0,1,50.18,47.129ZM.448,47.135c-.087-.029-.153.027-.2-.082a.66.66,0,0,1-.04-.135l0-.02-.033-.151L.158,46.7a.039.039,0,0,0-.017-.042c-.007,0-.015-.006-.019-.012a.028.028,0,0,1,0-.022l.021-.1c-.011,0-.019-.011-.022-.022-.015-.069.017-.153-.071-.173.008-.033.026-.074.01-.106s-.075-.028-.053-.083a.131.131,0,0,1,.059-.055.188.188,0,0,0,.071-.066.081.081,0,0,0-.007-.092.2.2,0,0,0,.045-.172l-.035-.006a.553.553,0,0,1,.005-.235.132.132,0,0,0,.006-.057c0-.011-.008-.021-.009-.033a.1.1,0,0,1,0-.028l.007-.052c.011-.074.022-.148.036-.222a1.824,1.824,0,0,0,.062-.451H.268l.009-.208a3.339,3.339,0,0,0,.032-.406c0-.075.005-.15.013-.224a.161.161,0,0,0-.014-.112.321.321,0,0,0,.025-.186.247.247,0,0,1-.008-.078c.006-.041.039-.082.022-.119C.34,43.322.329,43.312.328,43.3a.066.066,0,0,1,.013-.03.416.416,0,0,0,.019-.18l.01-.23c.011-.241,0-.48.009-.721v-.032l0-.147,0-.14a.266.266,0,0,0,0-.174.047.047,0,0,1,0-.021c0-.018.016-.033.021-.051a.629.629,0,0,0,.005-.11l.01-.222.02-.443H.465l.008-.187H.494L.5,40.4H.525c0-.055,0-.11.008-.164.034-.012.023-.07.025-.1l.019,0,.005-.058.019,0,.005-.058.018,0,0-.037.019,0,0-.058c.017,0,.028-.018.031-.034s0-.037.019-.046a.045.045,0,0,0,.014-.008.027.027,0,0,0,.005-.014c0-.024.023-.207.028-.207H.77l0-.083s.019,0,.019,0C.8,39.473.8,39.425.8,39.378l.02,0a.054.054,0,0,1,.029-.058A.118.118,0,0,0,.877,39.3c.024-.02,0-.06.016-.088l.018,0,.006-.1.019,0a.356.356,0,0,0,0-.06H.962l0-.083.064-.039,0-.041.064-.038v-.021l.083,0a.132.132,0,0,0,.127.055.283.283,0,0,1,.119.019v.021l.082.024c.009.073.029.109.1.13V39.1h.021V39.08A.8.8,0,0,0,1.72,38.9H1.74l0,.063a.563.563,0,0,0-.053.248l.023,0a.557.557,0,0,0,0,.058c.014,0,.022.017.023.032l0,.179c0,.019,0,.043.023.047v.058a.022.022,0,0,1,.024.013.058.058,0,0,1,0,.029c-.008.116-.106.271-.026.376a.346.346,0,0,0,.142.09l-.04.415H1.835c0,.027.031.035.017.084H1.831l-.009.187H1.8c-.031.089-.009.172-.03.207l.018.063H1.768a1.679,1.679,0,0,0,0,.521c0,.03-.014.237-.052.229a.311.311,0,0,1,.021.09c0,.017-.01.042-.026.034l-.005.119c0,.015-.014.036-.025.026A.9.9,0,0,1,1.7,42.2a.031.031,0,0,1-.007.029c-.006.005-.014.005-.02.01a.035.035,0,0,0-.01.024,2.409,2.409,0,0,1-.033.448.487.487,0,0,0,.01.275,1.3,1.3,0,0,1,0,.292.257.257,0,0,0,.039.156.6.6,0,0,0-.042.208c0,.042,0,.084,0,.126a.483.483,0,0,1-.037.164c.039.052-.016.136.021.19a1.914,1.914,0,0,0-.029.338H1.572l0,.041H1.549c0,.131,0,.263,0,.394-.037.015-.038.1-.045.142s-.009.05-.013.075l-.006.034c-.007.04-.013.08-.019.12-.009,0-.016.01-.019.019a.469.469,0,0,0-.017.1l0,.031a1.916,1.916,0,0,1-.046.387h.021l-.027.6H1.4c.034.055.049.045.057.128l-.151.118,0,.083H1.28l0,.041-.042.019,0,.042-.129.078,0,.063L1.06,47c-.067.064-.057.06-.19.054v.021l-.1,0-.023.041a.079.079,0,0,1-.043.006.044.044,0,0,0-.041.011l-.024.061a.047.047,0,0,1-.018,0A.631.631,0,0,1,.448,47.135Zm10.407-.06c-.031-.022-.033-.042-.06-.065l.007-.146-.062,0v-.021H10.72l0-.063a.417.417,0,0,0,.072-.226l-.062,0,.03-.207h.021l.024-.082h.021l-.01-.23h.021l.008-.187h.021c-.011,0,.033-.347.036-.373.014-.123.033-.247.058-.368.007-.035.012-.077-.014-.1l.025-.015a.1.1,0,0,1,0-.127c.009-.042-.02-.084-.017-.127a.344.344,0,0,1,.029-.086.075.075,0,0,0-.014-.084.069.069,0,0,0,.023-.07c0-.025-.015-.05-.017-.076A.321.321,0,0,1,11,44.306a.118.118,0,0,0-.013-.11c.009.009.025-.124.025-.137h-.021l.01-.232c0-.065-.016-.123-.012-.185a2.716,2.716,0,0,0-.012-.429.146.146,0,0,1,0-.062q-.017-.159-.029-.319c-.008-.107-.016-.213-.022-.32a3.654,3.654,0,0,1-.015-.416h-.021l.011-.25h-.021c.005,0-.01-.324-.011-.349a.293.293,0,0,1,.007-.107c-.015,0-.021-.02-.022-.034l-.018-.274c-.009-.143,0-.286-.008-.426h-.019c-.011-.048.028-.116.026-.124a.059.059,0,0,1-.018-.063h.021l-.016-.1.048-.6H10.9l0-.1h.021c0-.042.023-.054.026-.1l.019,0,0-.037.019,0,0-.056a.059.059,0,0,0,.032-.054.131.131,0,0,1,.014-.063.216.216,0,0,1,.037-.033.531.531,0,0,0,.031-.1h.021l.036-.332c.023-.059.078-.091.111-.141.046.01.037.021.041.023l.1.005v.021a.265.265,0,0,0,.1.067c.012.063.033.05.039.064l0,.1.041.022.03.252.041,0c0,.036.019.042.019.042l-.013.291h.021l0,.041h.021l0,.084h.021l-.007.146.04.023.016.1.061.045,0,.042h.021l-.013.291h.021l-.007.146h.021c-.017,0,.005.2.007.209s0,.052,0,.077a.209.209,0,0,0,.023.086.067.067,0,0,1,.015.029.379.379,0,0,1,.014.075c0,.029,0,.057,0,.085s.006.033.009.05q.011.055.021.109a.546.546,0,0,1,.012.178A.523.523,0,0,0,12,41.54l.06.045.015.125H12.1l0,.041h.021l-.007.146a.021.021,0,0,1,.019,0,.338.338,0,0,0,.02.154c.006.011.013.02.02.031a.248.248,0,0,1,.027.089c.009.052.018.1.026.156l.037.226.027.164.022.134.008.048a1.03,1.03,0,0,1,.02.213c-.006.135.007.262.013.4h-.021l-.018.4-.027.145a.031.031,0,0,1,.019,0,1.043,1.043,0,0,1,0,.121l-.02,0a1.014,1.014,0,0,0-.005.12l.017.005a.326.326,0,0,1-.024.161l.018.005-.005.14c0,.012-.008.03-.02.024a.713.713,0,0,1,.009.208h-.021c-.006.026.031.037.017.084h-.021l-.011.229h-.021l0,.083h-.021c.021,0,.009.156.006.169l-.04.178-.016.069c-.007.032-.015.063-.023.095s-.025.084-.04.125c-.026.073-.056.144-.089.214-.022.048-.047.1-.071.144l-.058.115c-.014.029-.027.075-.057.086,0,.013,0,.026,0,.039l-.042.019,0,.084-.042.019,0,.1h-.021l-.026.1a.319.319,0,0,0-.275.092l-.023.041-.062,0v.021l-.063,0v.021l-.1,0v.021l-.042,0-.023.041-.062,0v.021l-.042,0-.023.04-.042,0V47.1C10.855,47.084,10.878,47.1,10.856,47.076ZM1.932,37.89l0-.063h.021l0,.063Zm43.643-1.5a.727.727,0,0,1-.2-.114c0-.01.006-.032,0-.041s-.02-.011-.024-.016a.164.164,0,0,1-.033-.063l-.012-.032c0-.006,0-.013,0-.018a.144.144,0,0,0-.049.018V36.1l-.061-.045,0,.041H45.17c0,.033.056.063.037.106h-.021v.021l-.041,0-.172-.362-.042,0a1.471,1.471,0,0,0-.053-.211l0-.1h-.021c0-.076-.006-.151-.014-.227a.082.082,0,0,1-.012-.085.016.016,0,0,1-.019-.009.051.051,0,0,1,0-.024l.009-.2a.012.012,0,0,1-.017-.006.035.035,0,0,1,0-.02l.006-.142a.012.012,0,0,1-.017-.005.04.04,0,0,1,0-.02l.007-.142h-.021l.017-.375h-.021s.01-.23.011-.249l-.02,0v-.02a.013.013,0,0,0,.019,0,.036.036,0,0,0,0-.021v-.115a.052.052,0,0,1,.009-.081l-.023-.009c0-.173.015-.346.023-.519l-.014-.147.023-.5h-.021l.01-.208,0-.354H44.77c-.029-.12.057-.282.02-.437h-.021l.016-.354c-.049-.2.016-.4-.035-.606l.018-.4a5.028,5.028,0,0,0,0-1l0-.083h-.021l0-.062h-.021a.123.123,0,0,1,.027-.145v-.021l.1.005v-.021l.166.008,0,.022a.138.138,0,0,1,.1.015.182.182,0,0,0,.029.025.164.164,0,0,0,.034.011c.037.012.048.052.076.076a.367.367,0,0,0,.124.076s.023.072.028.082a.4.4,0,0,0,.049.066c.034.036.082.068.055.127l.022,0,0,.082a.012.012,0,0,1,.017.005.038.038,0,0,1,0,.019l-.007.143a.013.013,0,0,1,.017.006.031.031,0,0,1,0,.019l0,.122.02,0v.04l.019,0c0,.077-.005.152-.009.229,0,.037,0,.074-.005.111a.206.206,0,0,0,.022.083.308.308,0,0,1-.016.179l.023,0v.06c.017,0,.02.026.018.043q-.019.166-.034.333l.019,0v.04l.019,0v.061l.019,0c0,.1-.009.207-.013.311h.021l0,.042H45.7l0,.062h.021c0,.1.005.194.008.291a.012.012,0,0,1,.017.006.034.034,0,0,1,0,.019l-.005.122c.025,0,.019.024.02.041a.023.023,0,0,1,.018.016.067.067,0,0,1,0,.026l-.007.1a.049.049,0,0,0,0,.023c0,.011.014.01.019.02s0,.035,0,.048a.153.153,0,0,1,.013.1c0,.006.019.039.02.05a.394.394,0,0,1-.006.053c0,.051,0,.1-.007.152h.021s-.008.192-.009.207l.019,0-.005.123h-.02v.02l.019,0v.04l.019,0c.007,0-.015.342-.016.373a1.245,1.245,0,0,1,0,.563l.012.188h-.021c-.008.035.018.036.019.042l0,.1a4.353,4.353,0,0,1-.027.582c-.012.054.018.063.018.063,0,.062-.005.124-.007.186.013,0,.019.017.018.03l-.006.2c0,.009.011.026.014.035a.162.162,0,0,1,0,.042c0,.027-.006.053-.008.08,0,.067-.006.134-.009.2h.021l-.006.146h.021l0,.063h.021l-.018.4h-.021l-.027.124a.158.158,0,0,1-.1.016.032.032,0,0,0-.041-.022l-.045.06-.063.018ZM25.91,36.275a.062.062,0,0,1-.058-.01v-.021h-.021l0-.084h-.021c-.032-.043-.035-.039-.043-.035s-.014.006-.038-.01v-.021l-.1-.088c-.005.1-.02.115-.11.12-.021-.044-.032-.038-.037-.106-.111-.037-.072-.071-.118-.151l-.041-.023,0-.041-.039-.043,0-.041a.057.057,0,0,1-.021,0s0-.024-.005-.03a.139.139,0,0,0-.041-.051c-.024-.023-.047-.058-.028-.085l-.023,0a.106.106,0,0,0-.034-.087V35.4l-.019,0-.007-.037-.043-.114-.011-.056a.418.418,0,0,1-.026-.17l-.021,0v-.04l-.02,0c0-.041,0-.082.005-.124h-.021l0-.1h-.021s0-.094,0-.1a.279.279,0,0,1-.007-.148l-.02,0,.005-.185c-.018-.009-.02-.033-.019-.053l.013-.241-.017,0,0-.185a.452.452,0,0,1-.012-.1.513.513,0,0,0,0-.055c0-.019-.005-.013-.01-.024a.34.34,0,0,1-.015-.149c0-.06.01-.119.014-.179a.826.826,0,0,0,0-.087.542.542,0,0,1-.008-.072l.031-.228H24.9l.012-.27.009-.208c0-.014-.007-.013-.012-.011s-.008,0-.008-.011l.024-.061H24.9v-.021l.026-.1h-.021l.027-.6h-.021l.024-.061h-.021l.008-.188h.021c.01-.034-.019-.039-.019-.043a.27.27,0,0,0,.027-.124h-.021l.029-.186a2.346,2.346,0,0,1,.046-.54l0-.1.043-.019c0-.088.006-.176.015-.264,0-.006,0-.013,0-.019a.115.115,0,0,1,.027-.041c.037-.042.021-.108.012-.159,0-.016-.041-.154-.027-.161l.042-.019c.024-.023.024-.019.03-.015s.011.005.034,0v-.021a.335.335,0,0,1,.2.014.628.628,0,0,1,.164.1l.067.048c.023.015.058,0,.084.018a.142.142,0,0,0,.037.02.175.175,0,0,0,.032.007l.084.012a.058.058,0,0,1,.023.006c.016.008.025.042.035.058s.039.064.047.064h.021l0,.042c.126.014.207.075.2.217h-.021a.15.15,0,0,0,.016.125l.062,0v.021a.218.218,0,0,0,.1.067c0,.029.034.181.075.171l0,.123.02,0a.464.464,0,0,0,.036.124L26.5,31l-.011.054.018.005.007.038a.821.821,0,0,1,0,.191h.021l0,.062h.021l-.011.25h.021c.01.05-.025.054-.025.082h.021l0,.09c0,.029-.008.031-.022.056a.033.033,0,0,0,0,.032.2.2,0,0,0,.016.018c.014.019,0,.09-.005.114,0,.045-.007.09-.01.135a1.7,1.7,0,0,0,0,.275c0,.01,0,.021,0,.031a1.64,1.64,0,0,1,0,.27h.021a.423.423,0,0,1-.02.08.086.086,0,0,0,0,.08.075.075,0,0,1,.011.02.024.024,0,0,1-.021.028l.008.27h-.021l-.006.125h-.021c-.006.054.055.113.033.189H26.5l-.007.146c0,.014.007.012.011.01s.007,0,.009.011a1.946,1.946,0,0,1-.005.338c0,.1,0,.2-.01.3s-.023.2-.027.3l.019,0,0,.081.019,0,0,.081.019,0c0,.118-.01.235-.015.353h.021a1.047,1.047,0,0,1-.008.3c-.005.059-.011.119-.02.177,0,.022-.006.044-.011.066s-.032.034-.04.061a.131.131,0,0,1-.013.046.191.191,0,0,1-.035.028c-.011.009-.019.028-.009.038a.026.026,0,0,0-.026.015.119.119,0,0,0-.009.029c-.013.05-.058.059-.083.1s-.015.041-.039.06-.058.042-.086.063l-.023.04-.043.019c-.052.087.044.125-.111.141C25.945,36.265,25.93,36.27,25.91,36.275Zm-7.5-.2c-.045.021-.038.032-.106.037l0-.042-.141-.111c-.047-.064-.02-.1-.119-.131a.874.874,0,0,1-.032.226.069.069,0,0,1-.066-.044.248.248,0,0,0-.009-.028.024.024,0,0,0-.024-.015l0-.081-.019,0v-.04l-.019,0a.16.16,0,0,0-.009-.073.376.376,0,0,0-.04-.091.129.129,0,0,1-.023-.108.019.019,0,0,1-.019-.01.062.062,0,0,1-.007-.022l0-.032c0-.011,0-.022-.006-.034s-.008-.028-.012-.042l-.011-.037a.311.311,0,0,1-.013-.1.114.114,0,0,1-.02-.082.258.258,0,0,1-.023-.11.832.832,0,0,0,0-.1h-.021l0-.062h-.021l0-.521.024-.061h-.021a1.9,1.9,0,0,1,.045-.519l.015-.333.017-.374h.021l0-.084h-.021l.031-.228c0-.014-.008-.013-.013-.011s-.009,0-.007-.01h.021l.014-.312.059-.831h.021a.055.055,0,0,0-.018-.063l.015-.333L17.892,31c0-.03-.029-.034-.018-.084a.059.059,0,0,0,.024-.061,2.567,2.567,0,0,1-.039-.523c.084-.03.188-.063.216-.157l.1.026s.018.063.022.07a.35.35,0,0,0,.037.051.367.367,0,0,1,.037.171.289.289,0,0,1,.029.15l.021,0v.061l.019,0v.061c.013,0,.024.011.027.024s0,.027,0,.04.013.026.027.024l0,.081c.013,0,.024.011.027.024s0,.027,0,.039.013.026.027.025l.06.147.024.059c.013.033.017.088.054.1a.133.133,0,0,1,.04.017.077.077,0,0,1,.018.034,1.528,1.528,0,0,0,.067.209c.019.039.063.086.061.133l-.006.145h.021l.017.084.061.045.033.189.041.022a.274.274,0,0,1,.007.061l.01.084.035.067a.111.111,0,0,1,.019.083l.019,0-.024.123.019,0,0,.059a.229.229,0,0,1,.01.115c0,.011-.007.118-.006.118h.021l-.01.208h-.021v.021h.021a2.016,2.016,0,0,1-.072.664c0,.076-.006.152-.011.227-.015,0-.023.017-.025.032l-.027.216h-.022a.216.216,0,0,1,.016.124h-.021a3.037,3.037,0,0,0-.037.352h-.023c-.005.111-.011.222-.014.334,0-.008.015-.006.019,0a.031.031,0,0,1,0,.023.721.721,0,0,0-.03.124c0,.033,0,.067,0,.1h.021a.606.606,0,0,1,0,.178.648.648,0,0,1-.062.192l-.005.012,0,.011a.406.406,0,0,1-.128.223l-.041,0V36c-.054.042-.1.1-.172.117Zm32.922-.007c-.061-.1-.19-.058-.22-.2l-.041,0,0,.041c-.116-.032-.116-.1-.18-.175l-.081-.066,0-.083-.12-.11c-.026-.044.005-.089-.014-.146H50.66l0-.042H50.64l-.036-.126h-.021s0-.386,0-.415l-.018-.005,0-.162-.017-.006V34.49l-.017-.005c0-.048,0-.1.005-.143-.041-.167-.037-.4-.079-.567l.011-.25a1.647,1.647,0,0,1-.024-.4l.01-.229a1.929,1.929,0,0,1,.028-.718l.081-.5a4.175,4.175,0,0,0,.072-.463h.021V31.2h-.021v-.021h.021c-.012,0,.09-.861.1-.942a4.712,4.712,0,0,1,.1-.468c.019-.069.048-.134.07-.2a.294.294,0,0,0-.009-.17.382.382,0,0,1,.029-.187c.049-.008.119-.068.189-.033l.039.064.063,0,.019.043.042,0v.021a.154.154,0,0,0,.1.047c.015.072.041.055.057.127.088.012.092.047.164.07a.3.3,0,0,0,.056.145,1.646,1.646,0,0,1,.077.227,2.377,2.377,0,0,1,.1.556,2.822,2.822,0,0,1,.009.283c0,.035-.009.071-.007.105s.023.067.019.092h-.021l0,.083h.021a.1.1,0,0,0,.01.07l-.081.674c-.011.147-.04.3-.043.444-.008.37.014.74.04,1.11.013.184.014.372.037.555.01.075.014.149.018.225s.037.178.033.258l-.013.291h-.021a2.778,2.778,0,0,1-.046.376l-.018.056-.147.294a.161.161,0,0,1-.031.079l-.007.036a.132.132,0,0,1-.064.061l0,.042h-.021l-.006.125.041.022,0,.1.062,0a.314.314,0,0,1,.033.189.46.46,0,0,1-.133.015C51.456,36.074,51.392,36.069,51.335,36.066ZM1.486,36.031H1.412a1.428,1.428,0,0,0-.078-.129l-.042,0V35.88l-.061-.045-.019-.042-.063,0c0,.111.025.1.033.189l-.062,0c-.028-.05-.09-.064-.12-.109l0-.041-.061-.045,0-.041-.1-.1C.822,35.621.78,35.6.785,35.561a.035.035,0,0,0,0-.013c0-.008-.014-.01-.022-.014A.051.051,0,0,1,.739,35.5a.359.359,0,0,0-.007-.047s0-.01-.008-.011a.027.027,0,0,0-.01,0c-.013,0-.019-.017-.021-.03l-.01-.063a.053.053,0,0,0-.008-.024.133.133,0,0,0-.02-.016c-.018-.016-.013-.075-.016-.1s-.011-.031-.023-.024v-.039c-.02,0-.027-.025-.028-.045S.58,35.052.56,35.053v-.059l-.018,0V34.93l-.018,0v-.06c-.009,0-.019-.008-.019-.019s0-.02,0-.031S.5,34.8.488,34.8c0-.028,0-.055,0-.082a.013.013,0,0,1-.017,0,.041.041,0,0,1,0-.019L.456,34.55c-.017.013-.021-.021-.02-.029l0-.074-.019,0,0-.039A.012.012,0,0,1,.4,34.4a.04.04,0,0,1,0-.019l0-.1a.013.013,0,0,1-.017-.005.033.033,0,0,1,0-.02l0-.1a.012.012,0,0,1-.017,0,.035.035,0,0,1,0-.02l0-.08-.02,0,0-.082a.012.012,0,0,1-.017,0,.035.035,0,0,1,0-.02l0-.081a.012.012,0,0,1-.017,0,.032.032,0,0,1,0-.02l.005-.1-.02,0v-.061c-.026,0-.021-.011-.022-.035s0-.041,0-.062c0-.045-.008-.089-.015-.134-.016,0-.008-.054-.008-.062s-.013,0-.015,0a.028.028,0,0,1,0-.021c0-.027,0-.053,0-.08l-.018,0a.313.313,0,0,1-.018-.086c0-.036,0-.074,0-.118L.2,33.056c-.008-.007-.006-.019,0-.03S.194,33,.185,33a.021.021,0,0,1-.012-.014c0-.027,0-.054,0-.08a.015.015,0,0,0,0-.009.021.021,0,0,0-.007-.006c-.024-.018.008-.064-.015-.083L.143,32.8c-.006-.007,0-.075,0-.076l-.019,0,0-.08A.03.03,0,0,1,.1,32.607a1.355,1.355,0,0,0-.022-.179c0-.008-.012-.106-.021-.106A.384.384,0,0,0,.042,32.2a.5.5,0,0,0-.014-.146A.5.5,0,0,0,.013,31.9.628.628,0,0,0,0,31.736l.013-.291L.03,31.07a.779.779,0,0,0,.009-.187H.06l.006-.125.063-.018a1.084,1.084,0,0,1,.017-.374,4.216,4.216,0,0,1,.029-.645.716.716,0,0,1,.147-.014c.015-.056.038-.063.067-.1H.41c.018-.03-.009-.085.025-.1l.063,0a.156.156,0,0,0,.06.044,1.929,1.929,0,0,0,.065.4.594.594,0,0,0,0,.138.012.012,0,0,0,0,.008H.633s0,.007,0,.012v.029c.009,0,.019.007.02.018s0,.02,0,.03.01.022.02.018v.034s0,.006.009.006.01.008.01.014a.082.082,0,0,0,0,.02c0,.011.013,0,.018.009a.1.1,0,0,1,.015.018.276.276,0,0,1,.022.029c.007.011.02.081.022.082l.121.047a.014.014,0,0,1,0,.009l.031.18s.039,0,.045.014a.082.082,0,0,1,.005.035.055.055,0,0,0,.006.027A.023.023,0,0,0,1,30.74l0,.046A.026.026,0,0,0,1,30.8c0,.009.014.011.023.017a.037.037,0,0,1,.013.05l.022,0v.04c.013,0,.025.012.027.026.006.055.017.11.027.165l.062.024a.082.082,0,0,1,.039.064c0,.007,0,.016,0,.022s.016.005.024.009.011.027.007.042l-.019.071.02,0,0,.048a.03.03,0,0,0,0,.012c0,.008.014.009.023.013a.052.052,0,0,1,.02.061.568.568,0,0,1-.028.064.034.034,0,0,0,0,.024.014.014,0,0,0,.02.007.131.131,0,0,0,0,.051.114.114,0,0,0,.045.057c.016.013.043.024.05.044a.1.1,0,0,1,0,.039l0,.083.02,0v.04l.02,0,0,.082.02,0v.04l.02,0,0,.1.02,0v.04l.02,0-.005.112a.02.02,0,0,0,0,.012c0,.005.011.007.017.009a.041.041,0,0,1,.022.034.117.117,0,0,1,0,.042l.021,0v.039a.022.022,0,0,1,.02.013.075.075,0,0,1,.005.025l.006.1c0,.023.025.029.043.038l-.008.167h.021l.036.126H1.68l-.025.082.041.023,0,.041a.076.076,0,0,1,.018,0c.006.005,0,.023,0,.031l0,.072.005.145a.027.027,0,0,1,.026.021.184.184,0,0,1,0,.036.035.035,0,0,0,.018.03l.008,0a.02.02,0,0,1,.006.014l.006.058a.053.053,0,0,0,.006.023.018.018,0,0,0,.02.008l-.006.144.02,0,0,.083a.011.011,0,0,1,.017,0,.033.033,0,0,1,0,.019l-.008.165c.02,0,.027.01.026.028a.806.806,0,0,1-.036.2l.02,0v.041l.02,0c0,.125-.011.25-.017.374a.11.11,0,0,1,.02,0,.553.553,0,0,1,0,.082h-.02a.033.033,0,0,0,0,.021.011.011,0,0,1,.016,0,.028.028,0,0,1,0,.018l-.006.124a.012.012,0,0,1,.017.005.041.041,0,0,1,0,.02l-.005.1a.013.013,0,0,1,.018.006.035.035,0,0,1,0,.021l-.005.1c.014,0,.024.016.02.029a.125.125,0,0,1-.021.037.034.034,0,0,0,0,.039c.011-.006.018.011.018.023l0,.082c.012-.005.026.012.018.023s-.016,0-.02.006,0,.026,0,.032c0,.028,0,.057,0,.086H1.92l-.031.228H1.869l0,.062H1.845l0,.042H1.822L1.8,35.84l-.064.039,0,.062H1.707l-.088.1A.417.417,0,0,0,1.486,36.031Zm37.442-.046v-.017l-.013-.006-.051-.1-.013-.006V35.8c-.039,0-.032-.068-.037-.094a.136.136,0,0,0-.058-.078V35.6l-.062,0-.114.224-.041,0c-.025-.105-.055-.209-.081-.313a.708.708,0,0,1-.023-.116c0-.015-.005-.034-.02-.037l0-.1-.019,0c0-.1-.006-.208-.007-.312H38.37l.007-.166h-.021l.012-.271a4.553,4.553,0,0,1,.022-.937.512.512,0,0,1,.026-.1h-.021l.027-.583.012-.27h-.021l0-.417.009-.208H38.4l.01-.229H38.39l.01-.229h-.021l0-.376.03-.666h.021l.016-.354h-.021c.01-.062.02-.124.028-.185l-.018,0,.005-.164c-.018,0-.028-.022-.029-.041s0-.041-.018-.05l-.021-.046a.172.172,0,0,1-.025-.077h-.021c-.006-.042.012-.026.023-.04l0-.042.21-.032c.009.015.024.054.039.063a.1.1,0,0,0,.043,0h.018v.019l.039,0,0,.02a.03.03,0,0,1,.034.005c.009.008.016.02.025.028a.064.064,0,0,0,.06.014v.02l.04,0,0,.02c0-.016.048.019.05.022s0,.016.015.023a.1.1,0,0,0,.037,0h.019l.078.107.061.024a.144.144,0,0,1,0,.04c.013,0,.021.014.024.028l.009.041c.007.032.021.046.019.079a.139.139,0,0,0,.016.09c.006.009.014.017.02.027a.034.034,0,0,1,0,.032l.019,0V30.2l.019,0c.005.083.007.166.01.25h.021l0,.041.04.023-.008.188.04.023,0,.042h.021l-.01.208h.021l.018.084h.021c0,.118,0,.237.005.355h.019l0,.08.03.07v.141l.017,0v.06l.019,0c0,.062-.005.124-.007.187l.041.023,0,.5c.028.12-.026.313,0,.459,0,0,.027,0,.019.043h-.021l.012.188h-.021c-.006.132-.011.263-.019.394H39.5l-.017.246a.126.126,0,0,0,0,.1l-.019,0a1.168,1.168,0,0,1-.027.308l-.026.188a.411.411,0,0,0,0,.167l-.02,0-.007.1h-.019c-.006.111-.011.221-.016.332v.021h-.021a.055.055,0,0,0,.018.063c-.007.168-.013.331,0,.5h-.018l0,.038a.067.067,0,0,0-.042.055.386.386,0,0,1-.015.071.112.112,0,0,1-.021.031.329.329,0,0,1-.039.032l-.1.073a.245.245,0,0,1-.053.033.121.121,0,0,1-.077,0,.046.046,0,0,1-.044.037Zm18.458-.374V35.59c-.057-.074.008-.144-.095-.213v-.021l-.1-.005-.019-.042-.041,0c-.02-.014-.024-.066-.06-.065v.021h-.021c-.015.025-.008.083.017.084v.021l-.042,0v-.021c-.083-.058-.04-.078-.076-.17l-.024,0a.1.1,0,0,0-.032-.087l0-.057-.012-.008-.051-.1-.011-.008,0-.037-.017-.005v-.058l-.017-.005c-.012-.078-.045-.171-.061-.259l-.06-.328.022-.478a2.33,2.33,0,0,1,0-.521c0-.08.027-.16.008-.187a.7.7,0,0,0,.032-.249H56.7l.01-.228h.021c.04-.118,0-.309.04-.415.043-.128,0-.351.043-.478l.028-.624a3.181,3.181,0,0,0,.054-.727c0-.069,0-.138.01-.206,0-.011.021-.046.025-.065.009-.048.016-.1.026-.145a2.6,2.6,0,0,1,.073-.271c.024-.076.052-.151.081-.225a1.678,1.678,0,0,0,.083-.221c.012-.054,0-.109.013-.164a.022.022,0,0,1,.02,0l.009-.188a.213.213,0,0,0,.043-.04l.145.027.273.408.083,0,.018.063.1.088.036.127a.856.856,0,0,1,.152.131,1.843,1.843,0,0,1,.093.166l.011.009,0,.037.017.005v.079l.018.005V30l.017.005c-.009.054-.016.108-.027.161a.05.05,0,0,0,.021,0c0,.014,0,.012-.007.01s-.011,0-.014.01L58.2,30.5h-.021l-.014.312h-.021l-.006.125c-.057.164-.072.39-.13.557l-.036.332s-.019,0-.02,0c0,.032-.026.05-.028.077s.019.021.019.03a.6.6,0,0,1-.008.082c-.012.107-.024.214-.036.321a1.451,1.451,0,0,1-.057.159,1.432,1.432,0,0,0-.028.193c-.012.1-.029.211-.042.316-.019.152-.034.305-.054.457a2.1,2.1,0,0,1-.07.435h.021l-.028.165h.021a1.125,1.125,0,0,1-.049.165l.01.23s-.027,0-.023.041h.021l-.027.145h.021l0,.062h.021l-.006.146h.021l0,.083h.021l0,.062h.021l.032.21h.021a1.075,1.075,0,0,1-.014.312l-.086.059V35.6l-.042,0v.021a.322.322,0,0,1-.09.01A.255.255,0,0,1,57.385,35.611ZM6.426,35.4a.328.328,0,0,1-.063.018c0-.006,0-.016-.007-.021a.221.221,0,0,1-.055-.007v-.016c-.041,0-.084.014-.125.014a.1.1,0,0,1,0-.02.28.28,0,0,1-.1-.109l0-.083c-.007-.017-.027,0-.039-.064l-.041,0,.015.126h.021a.2.2,0,0,1,.016.1l-.083,0c-.069-.141-.241-.231-.275-.387-.021-.006-.047-.007-.052-.033,0-.011,0-.024-.012-.03l-.01-.005a.033.033,0,0,1-.011-.027l0-.061a.063.063,0,0,0-.005-.025.021.021,0,0,0-.02-.012V34.7a.013.013,0,0,1-.017-.007.035.035,0,0,1,0-.02l0-.058-.019,0a.619.619,0,0,0,0-.106c-.008-.031-.015-.063-.021-.094-.012-.067-.02-.134-.026-.2-.012-.141-.018-.283-.031-.423a1.752,1.752,0,0,0-.038-.244l.014-.312H5.419l.015-.333H5.413l.009-.187H5.4l.011-.25H5.392c-.01-.05.023-.053.025-.082H5.4l0-.417.014-.312c-.029-.123.03-.322,0-.459a5.139,5.139,0,0,1,.02-.9l.012-.27s-.027,0-.019-.043h.021l.007-.167H5.47l.02-.437a1.834,1.834,0,0,1,.029-.186l-.02,0V29.15c0,.012-.025-.015-.026-.018a.386.386,0,0,1-.014-.052l-.034-.121a.921.921,0,0,1,.132-.052c.024-.007.146-.049.162-.016a.023.023,0,0,1,0,.018l.041,0c0,.005,0,.013,0,.019a.014.014,0,0,0,.008.005l.045.017s.005,0,.008.009a.208.208,0,0,1,0,.025c0,.018.028.031.041.042l.04.039a.269.269,0,0,0,.122.064l0,.041.125.006V29.2a.06.06,0,0,0,.063-.018l.1.025c.024.148.144.166.174.3l.083.025s.012.049.014.055.014.035.022.052a.454.454,0,0,1,.036.117.011.011,0,0,0,0,.007l.008,0,.051,0v.02l.02,0,0,.06a.034.034,0,0,0,0,.024c.008.011.029.01.035.023s-.007.03,0,.04a.041.041,0,0,0,.013.006A.042.042,0,0,1,6.8,30l.021,0-.019.061a.035.035,0,0,0,0,.019c0,.01.038.017.038.024l-.005.125h.021l-.026.1s.029.014.018.063a.055.055,0,0,0-.024.061l.041.023-.006.125h.021c.026.109-.02.31,0,.417l-.035.312h.021c.013.057-.026.105-.026.124h.021l-.005.1h.021l-.01.229H6.84c0,.09-.008.18-.012.27a.03.03,0,0,1,.018.042H6.828c0,.035.009.07.014.106,0-.006-.012,0-.016,0a.033.033,0,0,0,0,.019l.012.146a.013.013,0,0,0-.019,0,.039.039,0,0,0,0,.021v.058a.01.01,0,0,1,.016,0,.031.031,0,0,1,0,.019l-.03.226.02,0a.052.052,0,0,1,0,.019H6.8c0,.048,0,.1-.006.145h.021L6.806,33h.021v.021c-.065.131.007.36-.045.519H6.761l-.006.125h.021l-.035.311h.021l-.006.145H6.735v.021h.021l-.006.125H6.728l0,.084h.021l0,.041h.021l-.012.27a3.545,3.545,0,0,1,.013.626c-.021.01-.038.037-.044.04l-.1.016-.023.04-.086.059c-.044.056-.027.081-.109.1Zm5.717-.012c.012,0-.017-.032-.018-.033a.543.543,0,0,1-.045-.039.523.523,0,0,1-.073-.1.887.887,0,0,1-.048-.095c-.01-.023-.019-.08-.053-.072s-.058.086-.065.121c0,.02-.01.112-.031.119a.031.031,0,0,1-.017,0c-.021-.007-.054-.011-.065-.031a.429.429,0,0,1-.021-.1l-.046-.207c0-.008-.028-.011-.034-.018a.057.057,0,0,1-.005-.046l-.02,0,0-.1-.019,0v-.061l-.019,0,0-.082-.021,0c.013,0,0-.079,0-.086a.147.147,0,0,1-.016-.027.171.171,0,0,1,0-.041l-.007-.218-.02,0,0-.1s-.013,0-.016-.005a.036.036,0,0,1,0-.019l0-.1a.011.011,0,0,1-.015,0,.026.026,0,0,1,0-.017l0-.164a.141.141,0,0,1-.012-.128c-.006.016-.022-.019-.021-.024l.01-.228a.012.012,0,0,1-.017,0,.033.033,0,0,1,0-.019c0-.061.006-.123.009-.184a.019.019,0,0,1-.019-.013.056.056,0,0,1,0-.024l.011-.194-.022,0c.008,0,.015-.324.016-.354a.012.012,0,0,1-.017,0,.037.037,0,0,1,0-.019l.011-.247c-.005,0-.013,0-.017-.006a.036.036,0,0,1,0-.02l.007-.159c-.015,0-.02-.019-.02-.033l.01-.22c-.017.005-.02-.013-.02-.025l.007-.164c-.035,0-.021-.053-.021-.079v-.108c0-.07,0-.141,0-.211l.009-.208a1.782,1.782,0,0,1,.022-.478l.009-.208s-.015-.013-.017-.017,0-.032.019-.024l.007-.145a.012.012,0,0,0,.018,0,.042.042,0,0,0,0-.02l.006-.142a.032.032,0,0,0,.015,0,.011.011,0,0,0,0-.014c-.01-.015-.033-.01-.009-.033s.019-.1.02-.142a.039.039,0,0,0-.006-.028s0,0-.005,0-.007,0-.008-.009h.021c0-.1-.006-.195-.008-.292h.02l0-.082h.02L11.5,29.4a.035.035,0,0,0,0-.019s-.012-.007-.017,0a.262.262,0,0,0,0-.054l0-.071a.531.531,0,0,1,.3-.091c.006,0,.024.043.029.049a.091.091,0,0,0,.053.032.028.028,0,0,1,.015.006c.006.007,0,.019,0,.029a.036.036,0,0,0,.02.029.145.145,0,0,1,.03.021.08.08,0,0,1,.007.069.106.106,0,0,1,.05.033.269.269,0,0,1,.085.123.032.032,0,0,0,.007.016l.009,0a.67.67,0,0,1,.117.067c.022.016.032.02.033.047a.514.514,0,0,0,.006.064.645.645,0,0,0,.03.1.323.323,0,0,1,.034.1c0,.051,0,.1-.007.152a.02.02,0,0,0,0,.013s.01.005.015.007c.027.009.034.043.033.071a.164.164,0,0,0,0,.083.014.014,0,0,0,.007.007h.01c.007,0,.01.008.013.015a.217.217,0,0,1,.007.077.022.022,0,0,0,0,.01c0,.005.009.006.015.007.055.011.07.123.079.167a2.349,2.349,0,0,1,.031.257.025.025,0,0,0,0,.011c0,.006.012.006.021.005a.036.036,0,0,1,.018,0l0,.087a.028.028,0,0,0,0,.018c.005.006.015.005.022.01a.034.034,0,0,1,.013.034.081.081,0,0,0,0,.038.013.013,0,0,1,.016.008.037.037,0,0,1,0,.019l-.005.057a.071.071,0,0,0,0,.037.112.112,0,0,0,.027.028c.025.023.015.076.015.106,0,.048,0,.1,0,.145h.024l0,.1a.011.011,0,0,1,.017,0,.032.032,0,0,1,0,.019l-.006.123.02,0,0,.082a.012.012,0,0,1,.017,0,.036.036,0,0,1,0,.02l0,.081s.014,0,.017,0a.035.035,0,0,1,0,.02l-.007.143c-.011-.007-.027.01-.02.021a.011.011,0,0,1,.016,0,.026.026,0,0,1,0,.018c0,.034,0,.069-.005.1l.021,0a.057.057,0,0,1-.024.062l.011.208h.012c.01,0,0,0,.007.01s-.006.033-.008.043l-.017.091.019,0,0,.1c0-.01.023.016.024.02a.147.147,0,0,1,0,.028c0,.02,0,.039,0,.059,0,.049,0,.1-.008.147-.008.094-.018.188-.035.28a.4.4,0,0,1-.011.049l0,.1h.021l-.028.166s.026,0,.019.042H12.7l.007.161a.323.323,0,0,1,0,.072c0,.027-.013.053-.02.079a.012.012,0,0,1,.016.006.036.036,0,0,1,0,.019l-.013.267h-.019l.016.061a.031.031,0,0,0-.029.022.1.1,0,0,0,0,.039.815.815,0,0,1,.015.2l-.027.215.018.063h-.021a.319.319,0,0,1-.025.1c-.018.026-.054.027-.063.062,0,.01,0,.02-.006.03a.086.086,0,0,1-.021.028l-.05.05-.049.049c-.016.016-.034.032-.051.047l-.016.016a.188.188,0,0,0-.055.075c0,.006,0,.008,0,.014s-.02.015-.027.021l-.05.038c-.02.015-.05.028-.05.057Zm20.515-.173-.195-.3-.042,0,0-.041a.2.2,0,0,1-.079-.108h-.021l0,.062-.042.019c-.013.034.018.039.019.042a.157.157,0,0,1-.026.1l-.041-.023-.018-.063c0-.007-.025-.011-.031-.017a.177.177,0,0,1-.021-.051c-.016-.04-.032-.081-.05-.12s-.025-.057-.038-.085c-.021-.043-.043-.087-.065-.129s-.057-.08-.058-.113l0-.079-.019,0,0-.058a.33.33,0,0,1-.034-.141c0-.036,0-.081-.032-.1a.754.754,0,0,1-.013-.185l-.019,0,0-.123-.019,0,0-.123-.019,0,.006-.185-.019,0c0-.024.013-.082-.018-.083l.014-.312H31.76l.021-.458H31.76v-.459l.01-.229h-.021l.012-.25H31.74l.007-.146h.021v-.021c.033-.154,0-.353.042-.478.009-.116.017-.232.025-.348a1.732,1.732,0,0,1,.038-.334l.024-.185a.26.26,0,0,0,.025-.1.232.232,0,0,0,.021-.127l.018,0-.01-.122.016,0c.011-.138.014-.276.021-.414h.021l0-.063h.021l.066-.539a.433.433,0,0,1,.074-.054.546.546,0,0,1,.154.025.085.085,0,0,1,.029.008c.017.009.029.043.039.059a.218.218,0,0,1,.048.086c.007.045.018.089.029.134l.024.093.023,0,0,.079.065.135c0,.041,0,.081,0,.121h.021l.017.084h.021s.013.154.015.166l.019,0,.006.058.042.114.007.037.019,0c0,.058.006.116.011.174,0,.02,0,.029.016.043s.019.006.022.011,0,.031,0,.044h.021l-.005.125.061.045-.007.145c0,.007.026.007.019.043h-.021l0,.083h.021l0,.083.041.023-.012.27-.025.562H32.87l-.007.146.022.9h-.021c-.008.036.018.036.019.043l-.015.333h-.021l-.015.333h-.021l-.006.1h-.018l0,.06h-.02v.019l.019,0-.011.248h-.018a.611.611,0,0,0,.011.226l-.021,0,.005.058a1.362,1.362,0,0,0-.022.272h-.017a2.646,2.646,0,0,1,.024.293h-.021c-.026.085.037.124.055.169l0,.062h.021a.336.336,0,0,1-.009.208h-.021l0,.083h-.021c-.025.023,0,.008-.043.019l-.005.125Zm30.422-1.455a.3.3,0,0,1-.124-.027l-.031-.23-.041-.023,0-.062h-.021c-.023-.025,0-.008-.04-.023l-.008.166a.223.223,0,0,1-.084.017v-.021h-.021l-.022-.439h-.021c-.008-.054-.035-.1-.037-.145l-.017-.005-.008-.077c-.017-.074-.036-.147-.057-.22a1.073,1.073,0,0,1,0-.14.061.061,0,0,0-.023,0l-.02-.48a3.45,3.45,0,0,1-.061-.661c-.012-.289-.029-.576-.016-.864h.021V30.5h-.021l.047-1.04h-.021l.014-.291h-.021l.011-.25h-.021V28.9c0-.049.042-.076.028-.145h-.021l.016-.353c0-.064-.033-.245-.03-.252l.064-.038,0-.042.146.006.158.195a.315.315,0,0,1,.039,0c.012.068.1.148.142.2a.711.711,0,0,1,.06.089.688.688,0,0,1,.056.207.435.435,0,0,0,.016.094c.007.015.026.014.033.032s0,.2.011.2h.021l.016.126h.021l.017.084h.021l0,.083s.019,0,.019,0a1.358,1.358,0,0,0,.059.259c.022.107.038.215.055.323.04.261.07.517.1.78l.065.341a2.292,2.292,0,0,1,.081.521l.04.023,0,.1s.021,0,.023,0c0,.032,0,.066-.005.1l.016.005,0,.243c.066.168-.021.335-.028.5,0,.049.011.306-.033.313l-.008.1-.018,0-.008.1-.018,0-.019.328-.018,0-.007.078-.017,0c0,.023,0,.037-.024.041a.263.263,0,0,0,0,.039l-.152.118v.021l-.126.015v.021a.167.167,0,0,1-.126.036Zm-35.29-7.977c0-.005-.006-.024-.01-.031a.328.328,0,0,0-.031-.048c-.012-.016-.029-.021-.043-.034a.175.175,0,0,1-.039-.074.093.093,0,0,0-.021-.036c-.011-.01-.027-.007-.041-.012-.047-.014-.046-.064-.061-.1a.047.047,0,0,0-.067-.014c-.014.009-.019.019-.012.031s.022.026.024.047a.2.2,0,0,1-.006.061l-.008.041a.028.028,0,0,1,0,.009.026.026,0,0,1-.01.008l-.045.027a.032.032,0,0,1-.014.006.039.039,0,0,1-.026-.011c-.009-.007-.019-.014-.029-.01,0-.018,0-.035,0-.06a.014.014,0,0,0-.008,0,.343.343,0,0,1-.082-.038.025.025,0,0,1-.015-.022l-.017-.107c0-.025,0-.063-.028-.079a.254.254,0,0,1-.027-.016.084.084,0,0,1-.022-.031.479.479,0,0,1-.042-.124c0-.013-.008-.03-.022-.032s-.005,0-.01-.008a.684.684,0,0,0-.031-.116.261.261,0,0,0-.013-.031.068.068,0,0,1-.008-.018.055.055,0,0,1,0-.015c0-.025,0-.048,0-.073s0-.054,0-.081a.47.47,0,0,1,0-.065.849.849,0,0,0,.019-.157h.021l.008-.188h.021l0-.1h.021a.036.036,0,0,0-.019-.043A1.1,1.1,0,0,1,27.135,24c.028-.071.038-.147.065-.219.007-.019.016-.036.022-.056a.527.527,0,0,0,.013-.077c0-.028.015-.054.021-.081s.029-.178.028-.178H27.3l.1-.788.207-.887.037-.353h.021a.056.056,0,0,0-.018-.063.055.055,0,0,1,.024-.061c0-.09.007-.18.013-.27.011.007.021-.012.022-.025l0-.1h.02l0-.061c.01.008.021-.011.021-.024l0-.1c.01.008.022-.01.022-.024l.005-.121h.02c.007-.1.01-.207.015-.311h.021l.007-.146h.021l.006-.146H27.9l.006-.125h.021l0-.041.064-.039.027-.123.085-.038.027-.124.064-.039.048-.144h.021l.023-.041.041,0v-.021a.53.53,0,0,0,.086-.059.914.914,0,0,0,.186-.014.6.6,0,0,1,.17-.012c.011.061.035.054.038.064,0,.069-.008.138-.008.207l.019,0v.06l.019,0v.042c.008-.007.021,0,.025.013s.007.023.017.028a.04.04,0,0,0,.017,0,.029.029,0,0,1,.019,0c.013.008.006.029.012.043s.028.021.041.033a.116.116,0,0,1,.02.05c.009.028.028.025.048.038s.033.049.039.049H29.1c.019.033-.009.06.017.084l.042,0,.019.042.061.024c.029.06-.023.143.012.188.023.025,0,.008.041.023a.948.948,0,0,0,.027.314v.021H29.3c-.037.164.014.369-.022.479l-.007.146h-.021l0,.083h-.021l0,.333,0,.163c0,.027,0,.054,0,.081s.006.035-.017.049c0,0-.005.008-.005.013l-.006.13c-.011-.008-.022.011-.022.024l-.008.182h-.02s-.005.055-.006.059-.02.014-.02.026l0,.077-.019,0-.006.058c-.015,0-.022.018-.023.032l-.029.238h-.02l-.006.1s-.012,0-.013,0a.035.035,0,0,0-.008.017c0,.013-.007.028-.01.041a.462.462,0,0,0-.006.11c0,.023,0,.045,0,.067s0,.073,0,.11-.01.076-.012.114a.5.5,0,0,1-.006.075c-.005.022-.013.043-.02.065a.794.794,0,0,0-.019.173,1.187,1.187,0,0,1-.038.173c-.009.038-.016.076-.028.113s-.028.061-.042.094a1.616,1.616,0,0,0-.042.173.467.467,0,0,1-.042.084.68.68,0,0,0-.035.093.557.557,0,0,1-.04.12.552.552,0,0,0-.046.143l-.051.173-.1.346-.065.039-.093.225a.263.263,0,0,0-.052.053c-.011.013-.022.027-.034.04s-.024.017-.033.028a.055.055,0,0,0-.009.02c0,.011,0,.023-.007.036s-.029.021-.042.037a.455.455,0,0,0-.056.071c-.022.038-.031.084-.07.11a.4.4,0,0,1-.079.041.061.061,0,0,0-.039.03c-.009.016-.009.032-.027.043a.067.067,0,0,1-.031.01A.017.017,0,0,1,27.791,25.787Zm9.467-.478v-.021c-.049-.05-.013-.047-.037-.106H37.2l0-.041h-.021l0-.042h-.021l0-.062h-.021l0-.062h-.021l-.017-.084-.06-.045-.016-.1h-.021l-.055-.169c-.042.01-.018,0-.042.019h-.021c.013.089.059.517-.006.583a.407.407,0,0,0-.054-.19l0-.063-.041-.023,0-.062h-.021l0-.1s-.022,0-.019-.043h.021v-.021h-.021l-.032-.21h-.021l-.012-.188h-.021l0-.042H36.66l.027-.124h-.021l.019-.416h.021l0-.084h.021l.009-.208a2.171,2.171,0,0,0,.067-.56,1.33,1.33,0,0,0-.026-.356l.01-.229h-.021l.008-.187h-.021l.015-.333a2.2,2.2,0,0,1,.005-.562H36.8l.01-.208h.021l.006-.125h.021l.008-.188h.021l0-.083h.021l0-.1h.021l0-.042h.021l0-.1h.021l0-.041.042-.019.087-.538.041,0a4.54,4.54,0,0,0,.1-.725c.052-.03.035-.057.066-.08l.041,0v-.021l.086-.059,0-.062h.021l0-.062h.021l.024-.061c.042.014.019,0,.041.022l.062.024.01.23c0,.014-.008.012-.012.009s-.009,0-.01.01h.021l-.008.187h.021l0,.063h.021l-.005.125h.021l.031.231-.022.02.041.023a.27.27,0,0,1,.056.149l.042,0a.38.38,0,0,0,.074.212l0,.041h.021l0,.041h.021l-.009.188.1.025.018.063c.042.053-.01.151.01.23h.021l.016.1c.05.014.045.024.081.045a.339.339,0,0,0-.028.166h.021l-.006.125h-.021l0,.062h-.021l.027.314h.021l0,.062h.021l-.009.208H38.2l.01.23h.021L38.2,22h.021l-.007.166h.021l-.006.125h.021l-.03.207h.021l-.007.146c0,.014.007.012.011.011s.009,0,.008.011h-.021l0,.1h-.021l-.036.332h-.021l-.047.123h-.021l0,.041H38.06l0,.041h-.021l-.051.206h-.021l-.047.123H37.9l0,.041h-.021l0,.041h-.021l0,.041h-.021l0,.083H37.8l-.025.082h-.021l0,.062h-.021l-.025.082H37.69l-.024.082-.043.019,0,.063H37.6l0,.042h-.021l-.027.145h-.021l0,.062-.064.039,0,.041h-.021l-.032.228.041.022c.033.093-.039.2-.053.248l.017.084-.064.039,0,.062h-.021c-.029.047.007.03-.045.06v.021Zm-5.165-.267A1.178,1.178,0,0,1,32,24.788c-.011.007-.013.007-.013.007s0,0-.008.012h-.021l0,.083h-.021l0,.041H31.91l-.024.061-.062,0,0-.041L31.7,24.92a2.072,2.072,0,0,0,.025-.541l.013-.291h-.021l.02-.437q.034-.541.069-1.081l.05-1.1c.033-.1,0-.282.039-.395h.021l.01-.229s.029-.006.024-.061h-.021c0-.015,0-.013.009-.01s.009,0,.012-.009l.006-.125h-.021a.057.057,0,0,1,.024-.062l-.015-.126h.021v-.021h-.021l.018-.375h-.021l0-.083a.058.058,0,0,0,.024-.061h-.021l.036-.332.041-.915a1.36,1.36,0,0,0-.011-.209l.015-.333h.021V18.1h-.021a.061.061,0,0,1,.024-.062l-.017-.084a.056.056,0,0,0,.024-.061h-.021l.011-.25a3.534,3.534,0,0,0,0-.438q.027-.353.053-.706h.021l0-.042h.021c.043-.109-.024-.191-.029-.273a.254.254,0,0,1,.211-.053c.035.04.053.039.076.037a.123.123,0,0,1,.068.011V16.2l.042,0v.021l.041,0,.038.064.124.027.039.064.207.03.117.193.126-.015v.021h.021l0,.062.041.023.058.086h.021l0,.042h.021a.161.161,0,0,1,.038.085l.062.024.049.294.081.066.1.442c.011.05-.027.055-.025.083h.021l-.007.167h-.021V18h.021l0,.042H33.7l0,.1s.024,0,.019.043a.632.632,0,0,0-.032.228h.021l-.01.229c0,.014.008.013.013.011s.009,0,.006.011H33.7l-.006.125.019.042h-.021c-.009.054.018.063.018.063l-.031.228h-.021l.006.313h-.021l-.005.1h-.021l-.006.125h-.021l-.01.229h-.021l-.006.146H33.53l.012.189h-.021l.018.063h-.021l-.007.145s-.026,0-.022.041h.021l0,.083h-.021l.014.147h-.021l-.006.125h-.021l0,.083h-.021l-.011.25H33.4v.021a.056.056,0,0,1,.018.063h-.021l-.005.1h-.021l0,.042h-.021l-.027.145H33.3l.015.125H33.29l-.005.125h-.021l.018.064h-.021l0,.042h-.021l-.048.6h-.021l-.006.125h-.021l-.007.146h-.021c-.015.049.022.058.017.084h-.021l-.005.125h-.021l.017.084h-.021l0,.1h-.021l0,.083h-.021L33,23.477h-.021l0,.041h-.021l-.012.27c0,.014.008.013.013.011s.008,0,.006.011h-.021L32.933,24l-.043.019-.029.187h-.021l-.01.208h.021l-.03.207H32.8l0,.063-.043.019,0,.041h-.021l-.025.082-.086.058-.022.041-.042,0-.044.061a.1.1,0,0,1-.064.012c-.025,0-.039-.005-.065.066l-.041,0-.023.04ZM13.777,19.879a.125.125,0,0,1-.008-.034c0-.011-.016-.023-.026-.017a.043.043,0,0,0-.019-.054.039.039,0,0,1-.016-.009.027.027,0,0,1,0-.016l0-.086-.019,0v-.04l-.019,0c.008-.034.016-.068.025-.1a3.643,3.643,0,0,1,.006-.6.513.513,0,0,0-.017-.084h.021s.049-.65.053-.705h.021s.009-.189.009-.207c.012-.111.024-.221.036-.331.011.008.022-.01.023-.024l.039-.432c.011.007.022-.012.023-.026l.006-.139.02,0s.009-.174.009-.186.026-.132.027-.145a1.675,1.675,0,0,1,.064-.263l.009-.035.049-.182c0-.012.038-.117.051-.116l0-.1c.007,0,.038-.082.045-.082l.032-.228a.175.175,0,0,0,.024-.082c.007,0,.023-.041.024-.062a.265.265,0,0,0,.026-.1h.021l0-.041h.021c.008-.057.017-.113.027-.169a.026.026,0,0,1,.006-.016.01.01,0,0,1,.016,0l.005-.061a.123.123,0,0,0,.023-.062h.02c0-.02.017-.061.024-.061l0-.039c.007,0,.022-.041.024-.061h.02c0-.019,0-.047.023-.039.052-.116.082-.249.122-.37,0,0,.022-.005.024-.007s.01-.033.012-.047.015-.031.029-.028l0-.07s0-.007.011-.009.014-.019.012-.031,0-.03.019-.033a.01.01,0,0,0,0-.007.173.173,0,0,0,0-.042.041.041,0,0,1,.017-.036c.008,0,.019,0,.026-.012s-.009-.052.025-.043a.535.535,0,0,0,.006-.107c.008-.028.021-.033.024-.068a.014.014,0,0,1,0-.009s.01,0,.014,0,0-.03.009-.036l.009,0a.018.018,0,0,0,.01-.019.11.11,0,0,1,0-.023c0-.016.018-.026.031-.036a.039.039,0,0,0,.018-.041l.02,0a.054.054,0,0,1,.012-.05c.01-.01.024-.017.03-.03a.15.15,0,0,0,.005-.03c.006-.027.032-.043.053-.058s.076-.04.077-.051l0-.042.064-.038.024-.083.043-.019.024-.061.086-.059.025-.1h.021l.045-.061.08.066v-.021c.116-.024.132-.122.256-.134a.141.141,0,0,0,.059.065c.006-.1.027-.122.131-.119v.021c.032.015.041-.019.043-.019l.124.027.039.064h.021c0,.02,0,.04,0,.06a.031.031,0,0,1,.025.023.113.113,0,0,1,0,.035.068.068,0,0,0,.029.063.047.047,0,0,1,.019.011c.006.009,0,.023,0,.034s.015.016.025.022c.026.011.017.035.034.051l.1.088,0,.083c0,.006-.039.034-.044.045-.017.034-.015.079-.031.115a.336.336,0,0,0-.042.122.071.071,0,0,1-.006.038.181.181,0,0,0-.018.058.372.372,0,0,0-.026.085.11.11,0,0,1-.005.042c0,.007-.01.013-.014.021a.11.11,0,0,0-.01.039l-.024.2c-.01-.008-.021.01-.022.024l-.006.12-.025,0,.02.1a.053.053,0,0,1,0,.029.067.067,0,0,1-.013.02.17.17,0,0,0-.035.084c0,.012,0,.025,0,.037a.3.3,0,0,1-.012.039,1.089,1.089,0,0,0-.038.238s0,.007,0,.009a.013.013,0,0,1-.007,0,.011.011,0,0,0-.007,0s0,.006,0,.01l0,.059s0,.01,0,.012h-.006a.01.01,0,0,0-.006,0,.357.357,0,0,0-.007.059c-.015,0-.021.019-.022.034l0,.07c-.011,0-.019.01-.021.022s-.011.249-.012.249-.022.027-.023.041-.023.04-.024.061a1.4,1.4,0,0,0-.032.249c-.007,0-.023.04-.024.061-.02,0-.029.165-.03.185-.022,0-.023.03-.022.047s.015.114-.022.127a.046.046,0,0,0-.023.011.032.032,0,0,0-.005.022.656.656,0,0,0,0,.081l.018,0c.012.019-.01.041-.018.062a.112.112,0,0,0-.006.033l-.011.208a.079.079,0,0,0-.021.085c-.014-.008-.025.015-.026.031l0,.111c0,.015-.007.027-.022.026,0,.015-.009.186-.01.186h-.021a1.672,1.672,0,0,1,.01.209c-.015,0-.021,0-.021.016a.193.193,0,0,1,0,.056c-.005.011-.02.008-.023.022a.159.159,0,0,0,0,.028.022.022,0,0,1-.021.023s0,0,0,.007c0,.134,0,.272-.019.405-.01-.008-.022.009-.023.022,0,.028-.019.236-.049.226,0,.027.009.053.013.08l-.017.005a.321.321,0,0,1,.018.1.026.026,0,0,1,0,.017c0,.005-.011.006-.016.011s-.007.023-.007.035-.009.028-.021.024l.009.206c-.011-.007-.021.012-.022.025,0,.061-.005.122-.008.183H15.5c0,.035-.022.035-.023.041l-.009.208h-.021c0,.1,0,.195-.014.29-.029,0-.018.064-.051.082-.013.007-.031.011-.036.026a.049.049,0,0,1,0,.012c-.007.012-.024.007-.037.01a.039.039,0,0,0-.026.03.12.12,0,0,0,0,.041l-.023,0a.041.041,0,0,1-.025.052.038.038,0,0,0-.015.006.027.027,0,0,0-.006.018v.045c0-.011-.026.011-.027.012a.2.2,0,0,0-.018.049l-.084.017s-.006-.031-.041-.023v.021a.551.551,0,0,0-.175.069.054.054,0,0,1-.059-.036l-.058-.005v-.02a.142.142,0,0,0-.106.009c-.028.014-.058.039-.088.028s-.028-.025-.041-.038-.036-.024-.051-.012-.011.019-.018.027-.046.017-.071.011l0,.02-.1-.023,0,.018c0-.009-.054.016-.058.02s-.015.034-.029.041-.062,0-.084-.005l-.121-.005,0,.02h-.06l0,.019h-.04c.006.015-.013.026-.029.031a.113.113,0,0,1-.031.005A.034.034,0,0,1,13.777,19.879Zm36.648-1,0-.041c-.088-.065-.007-.084-.183-.092-.017.027-.047.083-.107.058l-.019-.042-.062,0v-.021l-.186-.029v-.021a.525.525,0,0,1-.1.016c-.028.045-.062.07-.089.121l-.062-.024v-.021a.231.231,0,0,0-.1-.067l-.018-.063h-.021l0-.041h-.021l0-.063h-.021l0-.062h-.021l-.014-.147h-.021l-.029-.272c-.06-.217-.08-.495-.135-.715l.009-.208a3.072,3.072,0,0,1-.041-.534c-.005-.08-.026-.159-.025-.237,0-.106,0-.211,0-.317-.005-.125-.01-.25-.016-.375-.012-.267-.013-.525,0-.792h-.021l.024-.52h-.021l0-.5H49.11l.03-.207a.467.467,0,0,1-.012-.209h.021l0-.083c-.015-.168.007-.358.145-.431.072-.067.116-.007.208.009l.112-.162.147-.014v-.021a.314.314,0,0,1,.189-.012v.021a.319.319,0,0,0,.166.028s0-.026.042-.019a.056.056,0,0,0,.062.024l.023-.04c.06,0,.17,0,.208.058,0,.007.007.016.012.023a.04.04,0,0,0,.044.015l0,.017c.057,0,.072.06.1.1s.077.048.077.083c0,.006,0,.013,0,.019s.027.011.034.023,0,.017,0,.026a.081.081,0,0,0,.027.047c.012.014.021.035.011.05l.02.007v.037l.019.006a.045.045,0,0,0,0,.038.07.07,0,0,0,.014.01.058.058,0,0,1,.017.071l.021.007v.037a.655.655,0,0,0,.075.137v.071a.2.2,0,0,1,.043.065.57.57,0,0,1,.025.083l0,.018.054.221c.007.028.016.075.037.09,0,.019-.007.057.018.064l0,.073a.031.031,0,0,0,0,.022c0,.005.009.008.012.012s-.005.036.005.05.008.007.012.011,0,.033,0,.047a.1.1,0,0,0,.009.014.064.064,0,0,1,.008.02l.005.022a1.474,1.474,0,0,1,.029.249.925.925,0,0,1,.031.184c.015,0,.019.023.017.038s-.006.032,0,.045.008.007.011.012a.04.04,0,0,1,0,.024l0,.072a.027.027,0,0,0,0,.019s.009,0,.012.009a.025.025,0,0,1,0,.017c0,.02-.014.291-.014.291h.021l0,.417h-.021l.008.292h-.021c0,.014,0,.012.007.011s.011,0,.013.011c0,.071-.049.853-.059.852H51.2l.018.084H51.2l-.072.664H51.1l0,.041h-.021c0,.069-.006.137-.01.206l-.02,0,0,.079-.02,0-.005.078-.02,0-.006.12c-.02,0-.03.023-.033.043s-.013.045-.033.042a.245.245,0,0,1-.01.084c-.012.028-.041.045-.049.08,0,.019-.014.044-.032.039l0,.037-.019,0,0,.037-.021,0a.147.147,0,0,1,0,.061c-.009.03-.068.065-.093.086a.286.286,0,0,1-.144.068l0,.042c-.035,0-.048.006-.059.006A.426.426,0,0,1,50.426,18.877Zm-29.244-4.8-.019-.042a.109.109,0,0,0-.086,0,.131.131,0,0,1-.04.011v-.021L20.852,14l.006-.146-.04-.023v-.021l.043-.019.032-.708h.021l.024-.061h-.021l0-.042H20.9l0-.041h-.021c-.007-.035.022-.035.023-.041l.014-.312.041-.916h.021l.012-.271h.021l.007-.146h.021l.014-.312h.021l.01-.229H21.1l.034-.29.042,0,.027-.124h.021l.007-.146h.021l.013-.291h.021l0-.1h.021l.006-.146h.021l.038-.374H21.4l0-.062h.021l0-.062h.021l.006-.146h.021l0-.042H21.5l.05-.185h.021l0-.062h.021a.177.177,0,0,0,.047-.123c-.063-.03-.093-.042-.1-.129.023-.01.038-.037.044-.04l.062,0V8.389a.236.236,0,0,1,.084-.011c.043,0,.057,0,.067-.108l.063-.018a.032.032,0,0,0,.041.023l.045-.061c.057-.02.116.058.143.069l.249.032c-.011-.058-.025-.049-.037-.106.024-.017,0,0,.022-.02l.083.024-.025.083.126-.015V8.261a.15.15,0,0,1,.062.016.174.174,0,0,0,.1.012V8.268l.168-.013.038.085c.02.015.029.012.035.009s.016-.008.046.036h.021c.018.04-.019.063-.025.083l.141.11,0,.063.061.044v.041h.021l-.071.184-.042,0a.768.768,0,0,1-.071.184L23,9.367l-.043.019.018.063h-.021l0,.063h-.021l-.006.125h-.021L22.9,9.8h-.021l0,.062h-.021l0,.1L22.786,10l.036.126H22.8l0,.041h-.021l-.017.374H22.74l.016.125h-.021l0,.083H22.71l0,.084h-.021l-.013.291h-.021a.056.056,0,0,0,.018.063c0,.012-.031.054-.025.1,0,.014.006.013.011.011s.009,0,.008.011h-.021l0,.063h.021l-.011.25h-.021l-.007.146H22.6c0,.023.035.056.016.105H22.6l0,.041h-.021l-.017.374a2.692,2.692,0,0,1-.045.519l.015.126h-.021l-.005.1-.012.271h-.021c-.022.066.024.107.014.147h-.021l0,.083h-.021c-.025.023,0,.008-.042.019a.333.333,0,0,1-.05.185l-.043.019,0,.1h-.021v.021c-.038.018-.034.027-.085.038-.027.1-.044.1-.093.091a.275.275,0,0,0-.1,0v.021l-.083,0v-.021h-.021v.021l-.083,0V14l-.042,0v-.021l-.146-.006v-.021H21.6l-.045.06-.041,0v.021a.365.365,0,0,1-.188-.008V14l-.084.017-.024.061ZM44.788,13.4a.2.2,0,0,0-.076-.034.211.211,0,0,0-.08.014.21.21,0,0,1-.086.014.889.889,0,0,1-.187-.055.905.905,0,0,0-.517-.064c-.045.012-.092.077-.137.066-.076-.018-.06-.084-.075-.141-.008-.03-.04-.069-.041-.1-.005-.1,0-.206.01-.309-.066-.278.044-.706-.016-1.043a.056.056,0,0,1,.024-.061c0-.08,0-.161,0-.241a.321.321,0,0,0-.021-.182.57.57,0,0,0,0-.207l0-.063-.022-.124.006-.056-.036-.2-.01-.222-.009-.008a.057.057,0,0,0-.011-.063l-.01-.146-.011-.078c-.035-.061-.008-.166-.005-.233a1.157,1.157,0,0,0-.028-.159c-.008-.057-.013-.114-.017-.171a2.3,2.3,0,0,1-.014-.405V9.021a.872.872,0,0,0,.034-.234l.03-.145.025-.124a.13.13,0,0,1,.031-.062.092.092,0,0,1,.025-.081l.013-.1a.479.479,0,0,1,.1-.17.321.321,0,0,0,.055-.16,2,2,0,0,0,.1-.266l.063-.018v.021h.021c.018.035-.017.067-.024.082h.021v.021l.1.026V7.793c.058-.013.047,0,.065-.06.035,0,.158.028.17-.011l.035-.008c.093-.03.185-.061.28-.084v.021h.021l.016.1h.021l-.005.1h.021l0,.041.081.066.158.195.041,0,.039.064.042,0c.015,0,.07.094.079.109a.454.454,0,0,1,.045.121,1.12,1.12,0,0,1,.063.344l.026.106v.141l.026.007-.035.222a.07.07,0,0,1,.028.04l.034.2c0,.025-.017.07-.017.1a.723.723,0,0,0,.018.108,3.018,3.018,0,0,1,.005.435l.017.078a.151.151,0,0,1-.015.141l.034.053v.412a.385.385,0,0,1,.012.2,2.04,2.04,0,0,1-.022.224c-.029.009.006.011-.022.02l-.1,0v.021h.021c.023.029.036.033.081.046l.007.313h-.021l-.024.082.04.023a.641.641,0,0,1-.057.331l.018.063h.021c-.014.07-.025.141-.039.211s-.056.09-.035.159c.01.035.03.056.028.094s-.015.069-.02.1c-.023.146-.016.292-.049.435-.019.085-.028.148-.1.2a.316.316,0,0,1-.17.059A.167.167,0,0,1,44.788,13.4ZM38.03,9.695l-.023.041c-.059,0-.172.032-.223,0s-.07-.147-.08-.205c-.059-.367-.1-.736-.127-1.106q-.021-.281-.032-.562c0-.091-.007-.183-.009-.274a.556.556,0,0,0-.022-.235l0-.1L37.5,7.25A1.525,1.525,0,0,0,37.478,7c-.021-.1-.038-.2-.055-.295q-.051-.288-.087-.579a12.322,12.322,0,0,1-.085-1.8h.021l-.019-.042.033-.27h.021l.006-.146a1.26,1.26,0,0,0,.122-.391l.168-.013c.015-.028.062-.054.065-.059s-.044-.046-.017-.084.08-.017.126-.015v.021l.1.005.03-.207.287.037.15.019a.723.723,0,0,1,.1.034.034.034,0,0,0,.05.016,1.568,1.568,0,0,0,.344.385.142.142,0,0,0,.047.014l.082.106c-.032.075-.066.148-.093.225a1.632,1.632,0,0,1-.007.2,1.459,1.459,0,0,1-.067.2q-.07.211-.133.425-.085.292-.158.588c-.037.153-.048.313-.08.467a3.507,3.507,0,0,0-.068.823c.007.22.016.437.006.656h.021v.021h-.021c-.006.131-.031,1.562-.008,1.563h.021l-.011.25a2.312,2.312,0,0,1,.036.585h-.021v.021A1.456,1.456,0,0,0,38.03,9.695Zm-8.976-.369a.782.782,0,0,1-.251-.064l-.312-.128-.037.061a.244.244,0,0,1-.169-.086A.15.15,0,0,1,28.1,9.1a.074.074,0,0,1-.108-.014.21.21,0,0,1-.032-.119q-.036-.568-.032-1.137A7.49,7.49,0,0,1,27.9,7c.008-.283.018-.565.024-.848l-.018-.005c.012-.339.03-.678.045-1.017.007-.146.011-.29.01-.436l.009,0a1.29,1.29,0,0,0,0-.26l0-.3H28c.009-.194.014-.387.028-.58l.017,0,.008-.034a.081.081,0,0,0,.011-.039l.016-.128c.044-.017.016-.093.044-.105l.042-.019-.019-.042h.021l.024-.062.041,0a.174.174,0,0,0,.183.112l.072-.205c.1.016.1.069.162.112.016-.083.017-.115.11-.12a1.229,1.229,0,0,0,.091.187c.048.081.092.164.134.248.05.1.095.206.135.312.007.019.1.3.073.294h.019a1.434,1.434,0,0,1,.026.328c.009.158,0,.308,0,.465,0,.094.08.384-.018.441a1.2,1.2,0,0,1-.039.434,2.9,2.9,0,0,1-.019.339.607.607,0,0,0-.037.281l-.016,0-.012.1c0,.033-.03.064-.033.1a.673.673,0,0,0,0,.1c0,.066.008.133.018.2l-.006.125h-.021c-.015.05.012.051.018.063a.489.489,0,0,0-.03.186h.021a1.715,1.715,0,0,1-.009.2c-.005.03-.042.094-.008.116.007,0,.015.236.018.257l.039.3c.041.313.1.627.107.943l.016.1h-.021a.369.369,0,0,0-.027.144c0,.029-.042.035-.077.035S29.063,9.326,29.054,9.325Zm4.18-2.892-.1-.15c-.008-.013-.066.012-.076.015a.08.08,0,0,1-.078-.011l-.091-.079a.292.292,0,0,0-.154-.085.232.232,0,0,0-.038,0h-.033a.077.077,0,0,1-.061-.03l0,.019-.06.009h-.069a.23.23,0,0,1-.164-.043.208.208,0,0,1-.048-.139,1.367,1.367,0,0,0,0-.174.433.433,0,0,1-.014-.287.067.067,0,0,0,.01-.031c0-.011-.012-.022-.022-.017.013-.007.022-.1.026-.123a1.594,1.594,0,0,0,.011-.251c0-.051,0-.1.007-.151,0-.034-.009-.079.026-.1,0,0-.032-.086-.034-.1a.355.355,0,0,1,0-.124.694.694,0,0,1,0-.232l-.021,0c0-.117,0-.235,0-.352a.262.262,0,0,1,0-.052c0-.019.012-.037.016-.056a.313.313,0,0,0-.014-.1c-.005-.04-.009-.081-.013-.122-.007-.084-.011-.168-.017-.253a2.761,2.761,0,0,0-.058-.491.343.343,0,0,1,0-.079c0-.035,0-.071,0-.107a.351.351,0,0,1-.007-.168l-.02,0,.011-.058a.384.384,0,0,0-.011-.1q-.005-.051-.007-.1a.717.717,0,0,0,0-.1c0-.027-.018-.054-.022-.082L32.1,2.1a1.331,1.331,0,0,1,0-.264h-.021c0-.09-.006-.18-.008-.27l.01,0-.015-.143a2.49,2.49,0,0,1,0-.27.305.305,0,0,1-.006-.169l.017,0,.011-.038A.5.5,0,0,0,32.1.875l.024-.286h.017L32.151.53c0-.012.014-.026.018-.039a.2.2,0,0,0,0-.056c0-.038,0-.077,0-.116.021.005.078.031.1.021a.06.06,0,0,0,.021-.023l.033-.052h.059l.007-.022a.058.058,0,0,0,.062.018c.01,0,.019-.01.029-.013a.029.029,0,0,1,.03,0c.009.011,0,.031.017.038a.021.021,0,0,0,.026-.01A.087.087,0,0,0,32.566.25,1.4,1.4,0,0,1,32.6.109h.04a.038.038,0,0,1,.022-.048c.01,0,.021,0,.031-.006s.019-.014.014-.024h.038A.184.184,0,0,1,32.782,0a.192.192,0,0,1,.052,0c.026,0,.1,0,.122.025a.025.025,0,0,1,.006.01.4.4,0,0,1,.005.045c0,.015.016.03.031.026l0,.1a.062.062,0,0,1,.032.039c.005.017.007.034.011.051.009.032.033.049.05.076s.009.058.025.072.065.021.089.036a.269.269,0,0,1,.072.073.1.1,0,0,1,.014.084c.013,0,.021.014.024.027l.008.03.007.028.01.039a.764.764,0,0,1,0,.2.922.922,0,0,0,.016.311c0,.008,0,.015.006.024a.274.274,0,0,1,0,.06.222.222,0,0,0,0,.054c0,.009.011.014.014.023a.344.344,0,0,1,0,.1c0,.076,0,.151,0,.227a2.046,2.046,0,0,1,0,.312.811.811,0,0,1,.016.189l0,.1a5.555,5.555,0,0,0,.056.56,1.314,1.314,0,0,1,0,.175.089.089,0,0,1,.012.085.017.017,0,0,1,.018.025.012.012,0,0,0-.019.006.012.012,0,0,0,.014.013,1.638,1.638,0,0,1-.024.207l.019,0v.082l.018,0,0,.059a.233.233,0,0,1,.011.125.082.082,0,0,1,.011.04l.015.148a.3.3,0,0,0-.018.167c.029.03.013.081.011.117a.633.633,0,0,0-.007.157,2.967,2.967,0,0,1,.01.688,2.489,2.489,0,0,1-.019.626l-.028.287a.1.1,0,0,0-.019.084l-.02,0,0,.039h-.019l.011.1c0,.012-.022.046-.023.065s0,.055,0,.082h-.021l-.026.124Z" transform="translate(0 0)" fill="#1a1311"/>
    </g>
    <g id="グループ_35" data-name="グループ 35" transform="translate(245.37 675.472)">
      <g id="グループ_34" data-name="グループ 34">
        <path id="パス_26974" data-name="パス 26974" d="M398.738,734.712c0,3.484-2.608,6.2-5.44,7.891a5.842,5.842,0,0,1-1.8.809c-.517,0-1.214-1.124-1.214-1.484,0-.225.27-.315.45-.382,2.743-.9,6.025-3.53,6.025-6.654a3.178,3.178,0,0,0-3.417-3.462,7.445,7.445,0,0,0-4.9,2.158.748.748,0,0,1-.472.247c-.427,0-1.011-1.282-1.011-1.709,0-.337.427-.54.7-.7a11.736,11.736,0,0,1,5.756-1.821C396.557,729.609,398.738,731.52,398.738,734.712Zm-8.318-9.622a23.751,23.751,0,0,0,5.486,1.1c.314.022.472.067.472.36,0,.135-.09,1.6-.7,1.6-.585,0-4.339-.831-5.081-1.034-.832-.2-1.259-.292-1.259-.652,0-.2.27-1.461.719-1.461A1.058,1.058,0,0,1,390.42,725.09Z" transform="translate(-386.958 -723.741)" fill="#1a1311"/>
        <path id="パス_26975" data-name="パス 26975" d="M454.31,723.935c.112.045.27.112.27.27a.506.506,0,0,1-.18.315c-.247.247-.292.292-.4,1.192-.067.427-.225,1.573-.225,1.956,0,.248.2.292.427.292.36.022.787.809.787.967,0,.135-.157.27-.292.45l-.764,1.371a1.232,1.232,0,0,0-.09.562c0,.135.022.27.2.27a.229.229,0,0,0,.18-.112c.495-.517,1.551-1.506,2.113-1.978.989-.877,2.248-1.911,3.642-1.911a2.172,2.172,0,0,1,1.753.877,3.938,3.938,0,0,1,.36,1.978c0,2.226-.247,4.452-.247,6.677,0,.674-.045,1.551.562,1.551.719,0,1.754-.967,2.226-1.484a.553.553,0,0,1,.382-.247c.337,0,.809,1.349.809,1.664s-.742.832-1.012.989a5.448,5.448,0,0,1-2.968,1.236c-1.708,0-1.888-1.821-1.888-3.125,0-2.158.269-4.316.269-6.475,0-.584.022-1.551-.764-1.551-.876,0-2,1.012-2.653,1.551a28.541,28.541,0,0,0-2.9,2.81,1.078,1.078,0,0,0-.45.9v.382c0,1.146.022,2.27.067,3.417.022.607.135,2.428.135,2.833,0,.18-.022.382-1.259.382-.405,0-.81,0-.81-.45,0-.045.045-1.124.045-1.349.045-.989.09-2,.09-3.013,0-.112-.045-.27-.18-.27-.112,0-.224.157-.269.248-.674,1.011-1.281,2.046-1.866,3.125a.272.272,0,0,1-.247.18c-.337,0-1.349-.854-1.349-1.214a.878.878,0,0,1,.225-.427,55.949,55.949,0,0,0,3.574-6.025,1.359,1.359,0,0,0,.225-.719c0-.36.067-1.169.067-1.281,0-.18-.09-.315-.27-.315a1.572,1.572,0,0,0-.427.135,19.116,19.116,0,0,1-2.967.989c-.607,0-.922-1.641-.922-1.731,0-.315.4-.315.674-.337.674-.09,3.507-.629,3.867-1.1.18-.2.135-.54.157-.809.067-.9.135-2.046.135-2.945,0-.315-.022-.585-.022-.7,0-.2.067-.315.293-.315A18.39,18.39,0,0,1,454.31,723.935Z" transform="translate(-424.701 -722.878)" fill="#1a1311"/>
        <path id="パス_26976" data-name="パス 26976" d="M526.882,727.272c.18.045.427.135.427.337,0,.157-.135.248-.247.338a2.212,2.212,0,0,0-.45,1.349,54.648,54.648,0,0,0-.495,7.666c0,1.934.045,4.721,2.675,4.721a6.047,6.047,0,0,0,4.5-2.316,6.785,6.785,0,0,0,1.371-3.349c.045-.315.09-.7.382-.7.427,0,1.506.9,1.506,1.529a8.126,8.126,0,0,1-.877,2.54,7.853,7.853,0,0,1-6.744,4.272,4.647,4.647,0,0,1-3.755-1.709c-.967-1.3-1.057-3.35-1.057-4.923,0-2.788.2-5.576.427-8.363a13.091,13.091,0,0,0,.045-1.326c0-.315.022-.54.315-.54A13.957,13.957,0,0,1,526.882,727.272Z" transform="translate(-472.723 -724.867)" fill="#1a1311"/>
        <path id="パス_26977" data-name="パス 26977" d="M597.043,731.26a7.465,7.465,0,0,1,2.2,5.441,7.893,7.893,0,0,1-4.339,7.149,8.433,8.433,0,0,1-2.315.832c-.472,0-1.259-1.057-1.259-1.461,0-.247.36-.27.562-.315,3.058-.652,5.35-2.878,5.35-6.115a5.745,5.745,0,0,0-4-5.711,4.733,4.733,0,0,0-.944-.2c-.585,0-.585.495-.607.922-.2,3.327-1.012,7.486-3.193,10.117a3.871,3.871,0,0,1-2.81,1.641,3.424,3.424,0,0,1-2.877-2.023,7.179,7.179,0,0,1-.674-3.125,9.137,9.137,0,0,1,9.195-9.33A7.917,7.917,0,0,1,597.043,731.26Zm-8.408.135a7.27,7.27,0,0,0-4.609,6.925c0,.989.36,3.26,1.663,3.26,1.214,0,2.383-2.36,2.765-3.35A19.183,19.183,0,0,0,589.8,731.6c0-.247-.112-.449-.36-.449A3.387,3.387,0,0,0,588.635,731.4Z" transform="translate(-509.003 -726.292)" fill="#1a1311"/>
        <path id="パス_26978" data-name="パス 26978" d="M655.926,732.364c-.112,0-.135.09-.157.18v5.35c0,1.012.068,2.046.068,3.08,0,.675-.157.764-.922.764-.7,0-.9-.068-.9-.719,0-1.057.045-2.091.045-3.125v-4.541a.1.1,0,0,0-.09-.112c-.045,0-.067.023-.112.067a23.11,23.11,0,0,1-1.709,4.159c-.135.225-.269.495-.494.495a1.656,1.656,0,0,1-1.057-.989,1,1,0,0,1,.225-.495,32.3,32.3,0,0,0,2.878-6.5.666.666,0,0,0,.045-.225c0-.292-.224-.382-.472-.382-.607,0-1.214.022-1.686.022-.4,0-.427-.247-.427-.854,0-.562,0-.854.427-.854.472,0,1.079.045,1.709.045h.135c.45,0,.63-.18.63-.629v-1.821c0-.269-.112-.494-.4-.494a.537.537,0,0,0-.2.045,7.44,7.44,0,0,1-1.326.292c-.629,0-.809-1.079-.809-1.281,0-.337.337-.382.809-.472a22.6,22.6,0,0,0,4.744-1.574.841.841,0,0,1,.36-.157c.2,0,.517.54.832,1.034a1.683,1.683,0,0,1,.292.607.231.231,0,0,1-.247.225,1.013,1.013,0,0,1-.247-.067.656.656,0,0,0-.2-.045c-.068,0-.517.18-.877.315-.2.09-.382.157-.45.18-.427.18-.517.36-.562.832V727.1c0,.45.2.629.63.629h.068c.607,0,1.236-.045,1.686-.045.427,0,.427.292.427.854,0,.607,0,.854-.427.854-.45,0-1.079-.022-1.686-.022H656.4c-.2,0-.382.09-.382.337a.512.512,0,0,0,.068.247,16.133,16.133,0,0,0,2.293,3.08c.09.112.2.225.2.36,0,.315-.495,1.192-.854,1.192-.45,0-1.417-1.709-1.664-2.136A.152.152,0,0,0,655.926,732.364Zm4.114,4.609c-.157.045-.18.225-.224.36a28.841,28.841,0,0,1-1.169,3.3c-.09.247-.225.495-.517.495-.27,0-1.192-.225-1.192-.652a1.466,1.466,0,0,1,.18-.495,15.293,15.293,0,0,0,1.214-3.394c.045-.2.045-.405.292-.405s1.057.225,1.326.27c.157.022.4.067.4.27C660.355,736.882,660.175,736.927,660.04,736.972Zm7.734-3.147h-6.407c-.225.022-.292.135-.36.315-.09.2-.292.225-.832.225-.652,0-.9,0-.9-.45s.022-.876.022-1.3v-3.979c0-.4-.022-.787-.022-1.192,0-.742.36-.854,1.124-.854.337,0,.742.022,1.237.022h1.618c.337,0,.472-.134.472-.472v-.382c0-.315-.135-.45-.472-.45h-1.6c-.832,0-1.641.045-2.473.045-.495,0-.495-.248-.495-.787s.022-.809.472-.809c.832,0,1.664.045,2.5.045H663.1c.427,0,.607-.157.63-.585-.023-.337-.045-.584-.09-.922,0-.045-.022-.157-.022-.2,0-.225.18-.27.36-.27.292,0,.944.067,1.281.09s.652.067.652.27c0,.157-.112.2-.27.315-.225.157-.247.315-.247.7,0,.427.18.607.607.607h2.046c.832,0,1.664-.045,2.5-.045.472,0,.472.27.472.809,0,.495,0,.787-.472.787-.832,0-1.664-.045-2.5-.045h-2.2c-.337,0-.472.135-.472.45v.382c0,.337.135.472.472.472H667.5c.472,0,.877-.022,1.214-.022.742,0,1.147.112,1.147.81,0,.4-.022.831-.022,1.236v3.979c0,.427.022.854.022,1.3s-.225.45-.9.45c-.562,0-.742-.023-.832-.225C668.066,733.96,668,733.848,667.774,733.825Zm-2.518,6.025c.764,0,.989-.022,1.281-1.821.045-.315.09-.472.427-.472.292,0,1.281.112,1.281.585a7.725,7.725,0,0,1-.719,2.541c-.472.764-1.192.787-2,.787h-2.608c-1.169,0-2.091-.2-2.091-1.574,0-.292.045-.562.045-.832V737.4c0-.382-.045-.877-.067-1.259,0-.09-.023-.2-.023-.292,0-.2.157-.248.337-.248.2,0,1.3.09,1.551.112.157,0,.45,0,.45.225,0,.135-.09.18-.2.247-.27.18-.337.383-.337,1.214v1.8c0,.674.473.652,1.012.652Zm-1.529-11.263a.52.52,0,0,0-.54-.54h-1.641a.519.519,0,0,0-.539.54v.45a.519.519,0,0,0,.539.54h1.641a.52.52,0,0,0,.54-.54Zm-2.181,2.226a.519.519,0,0,0-.539.54v.54a.519.519,0,0,0,.539.54h1.641a.52.52,0,0,0,.54-.54v-.54a.52.52,0,0,0-.54-.54Zm3.417,7.014c-.247,0-.382-.247-.562-.63a17.712,17.712,0,0,0-1.214-2.113.859.859,0,0,1-.18-.382c0-.315.764-.742,1.057-.742.225,0,.54.36,1.281,1.686a6.281,6.281,0,0,1,.674,1.393C666.02,737.4,665.3,737.827,664.964,737.827Zm2.63-8.251a.519.519,0,0,0,.54-.54v-.45a.52.52,0,0,0-.54-.54h-1.686a.52.52,0,0,0-.54.54v.45a.519.519,0,0,0,.54.54Zm-2.226,2.316a.52.52,0,0,0,.54.54h1.686a.52.52,0,0,0,.54-.54v-.54a.52.52,0,0,0-.54-.54h-1.686a.52.52,0,0,0-.54.54Zm4.766,8.3c-.314,0-.4-.27-.494-.517a19.734,19.734,0,0,0-1.821-3.395.759.759,0,0,1-.2-.427c0-.36.832-.765,1.1-.765a.59.59,0,0,1,.45.314c.337.495.786,1.281,1.079,1.821a11.731,11.731,0,0,1,.989,2.2C671.236,739.872,670.4,740.187,670.134,740.187Z" transform="translate(-551.81 -721.64)" fill="#1a1311"/>
        <path id="パス_26979" data-name="パス 26979" d="M738.643,731.26a7.465,7.465,0,0,1,2.2,5.441,7.893,7.893,0,0,1-4.339,7.149,8.433,8.433,0,0,1-2.315.832c-.472,0-1.259-1.057-1.259-1.461,0-.247.36-.27.562-.315,3.058-.652,5.35-2.878,5.35-6.115a5.745,5.745,0,0,0-4-5.711,4.731,4.731,0,0,0-.944-.2c-.585,0-.585.495-.607.922-.2,3.327-1.012,7.486-3.193,10.117a3.87,3.87,0,0,1-2.81,1.641,3.424,3.424,0,0,1-2.877-2.023,7.179,7.179,0,0,1-.674-3.125,9.137,9.137,0,0,1,9.195-9.33A7.917,7.917,0,0,1,738.643,731.26Zm-8.408.135a7.27,7.27,0,0,0-4.609,6.925c0,.989.36,3.26,1.664,3.26,1.214,0,2.383-2.36,2.765-3.35A19.181,19.181,0,0,0,731.4,731.6c0-.247-.112-.449-.36-.449A3.387,3.387,0,0,0,730.235,731.4Z" transform="translate(-597.544 -726.292)" fill="#1a1311"/>
        <path id="パス_26980" data-name="パス 26980" d="M799.374,729.037c-.18,0-.225.157-.225.292v.112c0,.764.045,1.529.045,2.271,0,.719-.18.787-.944.787-.674,0-.944-.023-.944-.7,0-.787.067-1.574.067-2.361v-.112c-.022-.135-.067-.292-.247-.292a.335.335,0,0,0-.2.09A28.128,28.128,0,0,1,790,733.78a2.745,2.745,0,0,1-.877.315c-.427,0-.944-.832-.944-1.214,0-.292.247-.382.7-.562a23.611,23.611,0,0,0,6.407-3.889.335.335,0,0,0,.09-.2c0-.157-.135-.2-.27-.2h-3.664c-.877,0-1.754.045-2.63.045-.472,0-.495-.225-.495-.809,0-.607.022-.81.495-.81.877,0,1.754.045,2.63.045h5.373c.382,0,.562-.18.562-.54v-.832c0-.337-.157-.539-.517-.517-1.956.09-3.934.225-5.913.225-.337,0-.652.022-.787-.225a2.3,2.3,0,0,1-.225-.9c0-.4.18-.472.585-.472h1.012c3.125,0,9.6-.315,12.455-1.214a.559.559,0,0,1,.18-.022c.18,0,.495.4.764.764.045.067.112.135.157.2a1.062,1.062,0,0,1,.315.607.2.2,0,0,1-.2.2.732.732,0,0,1-.292-.09.834.834,0,0,0-.315-.09c-.09,0-.427.09-.54.112-1.439.247-2.877.472-4.316.652-.45.067-.585.247-.585.674v.831c0,.45.18.63.63.63h5.216c.877,0,1.754-.045,2.63-.045.495,0,.495.2.495.81s0,.809-.495.809c-.877,0-1.754-.045-2.63-.045h-3.687c-.135,0-.269.045-.269.2a.334.334,0,0,0,.09.2,24.108,24.108,0,0,0,6.273,3.912c.225.09.764.292.764.607,0,.36-.562,1.191-1.012,1.191a16.368,16.368,0,0,1-3.013-1.506,23.184,23.184,0,0,1-4.586-3.507A.277.277,0,0,0,799.374,729.037Zm-5.283,11.893c-.292,0-.427.112-.45.427a1.1,1.1,0,0,1,.022.27c0,.472-.27.472-.944.472-.7,0-.944,0-.944-.495,0-.472.045-.944.045-1.416v-4.833c0-.45-.045-.877-.045-1.326,0-.652.293-.9.922-.9.585,0,1.17.023,1.754.023h7.374c.585,0,1.057-.023,1.439-.023.854,0,1.237.112,1.237.877,0,.45-.045.9-.045,1.349v4.833c0,.472.045.944.045,1.416,0,.495-.247.495-.922.495-.7,0-.967,0-.967-.472a1.006,1.006,0,0,1,.023-.27c-.023-.315-.157-.427-.45-.427Zm8.565-5.755a.519.519,0,0,0-.539-.54h-7.959a.519.519,0,0,0-.54.54v.607a.519.519,0,0,0,.54.54h7.959a.519.519,0,0,0,.539-.54Zm-.539,4.271a.519.519,0,0,0,.539-.54v-.7a.525.525,0,0,0-.539-.562h-7.959a.526.526,0,0,0-.54.562v.7a.52.52,0,0,0,.54.54Z" transform="translate(-637.838 -721.865)" fill="#1a1311"/>
      </g>
    </g>
    <g id="グループ_37" data-name="グループ 37" transform="translate(246.943 658.481)">
      <g id="グループ_36" data-name="グループ 36">
        <path id="パス_26981" data-name="パス 26981" d="M391.156,682.3v-5.179h1.014v4.969c0,1.57,1.026,2.522,2.979,2.522s2.979-.952,2.979-2.522v-4.969h1.014V682.3c0,1.99-1.5,3.337-3.993,3.337S391.156,684.29,391.156,682.3Z" transform="translate(-391.156 -676.812)" fill="#1a1311"/>
        <path id="パス_26982" data-name="パス 26982" d="M425.634,685.341H424.62v-8.22h4.908c2.1,0,3.2.89,3.2,2.349a2.606,2.606,0,0,1-2.472,2.447c.618,2.3,1.063,2.645,1.669,2.645a2.311,2.311,0,0,0,.816-.2v.989a3.953,3.953,0,0,1-1.187.223c-1.063,0-1.558-.655-2.337-3.585h-3.585Zm3.98-4.253a1.7,1.7,0,0,0,1.879-1.57c0-.915-.7-1.446-2.2-1.446-.952,0-1.891.012-3.659.025v2.991Z" transform="translate(-412.081 -676.812)" fill="#1a1311"/>
        <path id="パス_26983" data-name="パス 26983" d="M464.825,685.341H457.26v-8.22h7.33v1h-6.329v2.485h5.316v1.026h-5.316v2.719h6.564Z" transform="translate(-432.49 -676.812)" fill="#1a1311"/>
        <path id="パス_26984" data-name="パス 26984" d="M485.776,682.749l.878-.346c.371,1.434,1.9,1.743,3.288,1.743,1.212,0,3.1-.346,3.1-1.755,0-2.46-7.219.062-7.219-3.35,0-2.052,2.485-2.645,4.067-2.645,1.755,0,3.708.4,4.092,2.448l-.878.346c-.371-1.434-1.891-1.817-3.276-1.817-1.248,0-2.831.383-2.831,1.582,0,2.163,7.145-.074,7.145,3.362,0,2.213-2.3,2.88-4.1,2.88C488.285,685.2,486.159,684.8,485.776,682.749Z" transform="translate(-450.321 -676.358)" fill="#1a1311"/>
        <path id="パス_26985" data-name="パス 26985" d="M526.8,685.341h-1.014V681.62h-5.8v3.721h-1.014v-8.22h1.014v3.474h5.8v-3.474H526.8Z" transform="translate(-471.081 -676.812)" fill="#1a1311"/>
        <path id="パス_26986" data-name="パス 26986" d="M552.672,685.341v-8.22h1.014v8.22Z" transform="translate(-492.151 -676.812)" fill="#1a1311"/>
        <path id="パス_26987" data-name="パス 26987" d="M576.386,685.341h-1.063l-6.119-6.663v6.663H568.19v-8.22h1.026l6.156,6.737v-6.737h1.014Z" transform="translate(-501.854 -676.812)" fill="#1a1311"/>
        <path id="パス_26988" data-name="パス 26988" d="M601.127,680.746a4.376,4.376,0,1,1,4.388,4.363A4.128,4.128,0,0,1,601.127,680.746Zm4.351-3.474a3.12,3.12,0,0,0-3.3,3.387,3.2,3.2,0,0,0,3.337,3.474,3.123,3.123,0,0,0,3.313-3.387A3.213,3.213,0,0,0,605.478,677.273Z" transform="translate(-522.45 -676.296)" fill="#1a1311"/>
        <path id="パス_26989" data-name="パス 26989" d="M657.77,685.341h-1.014V681.62h-5.8v3.721h-1.014v-8.22h1.014v3.474h5.8v-3.474h1.014Z" transform="translate(-552.975 -676.812)" fill="#1a1311"/>
        <path id="パス_26990" data-name="パス 26990" d="M681.892,680.746a4.376,4.376,0,1,1,4.388,4.363A4.128,4.128,0,0,1,681.892,680.746Zm4.351-3.474a3.12,3.12,0,0,0-3.3,3.387,3.2,3.2,0,0,0,3.338,3.474,3.123,3.123,0,0,0,3.313-3.387A3.213,3.213,0,0,0,686.243,677.273Z" transform="translate(-572.951 -676.296)" fill="#1a1311"/>
        <path id="パス_26991" data-name="パス 26991" d="M724.51,685.341h-1.063l-6.119-6.663v6.663h-1.014v-8.22h1.026l6.156,6.737v-6.737h1.014Z" transform="translate(-594.475 -676.812)" fill="#1a1311"/>
        <path id="パス_26992" data-name="パス 26992" d="M749.251,680.746a4.376,4.376,0,1,1,4.388,4.363A4.128,4.128,0,0,1,749.251,680.746Zm4.351-3.474a3.12,3.12,0,0,0-3.3,3.387,3.2,3.2,0,0,0,3.338,3.474,3.123,3.123,0,0,0,3.313-3.387A3.213,3.213,0,0,0,753.6,677.273Z" transform="translate(-615.071 -676.296)" fill="#1a1311"/>
        <path id="パス_26993" data-name="パス 26993" d="M791.946,684.488a1.155,1.155,0,0,0,.42-.087l.037.989c-1.978.643-3.189-1.409-5.328-4.153l-2.423,1.817v2.287h-1.014v-8.22h1.014v4.734l6.292-4.734h1.582l-4.611,3.474C789.584,683.128,790.932,684.488,791.946,684.488Z" transform="translate(-636.573 -676.812)" fill="#1a1311"/>
        <path id="パス_26994" data-name="パス 26994" d="M820.813,682.609h-4.574l-1.347,2.732H813.8l4.042-8.22h1.36l4.042,8.22H822.16Zm-4.091-.989h3.6l-1.718-3.5h-.148Z" transform="translate(-655.435 -676.812)" fill="#1a1311"/>
      </g>
    </g>
  </g>
</svg>
