<svg xmlns="http://www.w3.org/2000/svg" width="289.052" height="288.931" viewBox="0 0 289.052 288.931">
  <g id="グループ_29" data-name="グループ 29" transform="translate(-202.312 -542.753)">
    <g id="グループ_28" data-name="グループ 28" transform="translate(202.312 542.753)">
      <g id="グループ_23" data-name="グループ 23" transform="translate(36.261 0)">
        <path id="合体_1" data-name="合体 1" d="M107.757,162.22c-.235-.448-.695-.569-.8-1.169l-.639.042,0-.071-.349-.087c-.035-.277-.081-.348-.409-.371l.007-.143-.071,0c0-.052.011-.044.027-.035s.035.016.047-.032c.055-.252.024-.514.086-.771a4.089,4.089,0,0,0,.087-.467c.013-.1.022-.2.026-.307.01-.206,0-.413,0-.62l-.04-1.086a1.628,1.628,0,0,1,.039-.768c-.025,0-.053-.013-.077-.015-.054-.8.057-1.614.046-2.414-.011-.776-.106-1.56-.163-2.334l-.064-.881c-.074-1.053-.117-2.08-.14-3.133l-.01-.444a9.162,9.162,0,0,1,.013-.939c.007-.084.007-.189-.069-.229a.193.193,0,0,0,.064-.166l.025-.768.017-.5c0-.11.007-.219.011-.33.019-.5.057-1,.11-1.5.013-.125.027-.25.039-.374.008-.086.015-.172.021-.256l.032-.4a4.777,4.777,0,0,1,.08-.919c.033.014.055.01.055-.032l-.07,0,.109-.845c.026-.569.055-1.139.122-1.707a4.812,4.812,0,0,0,.168-1.528c.048.024.078-.055.073-.109s.025-.133.074-.109l-.038-.626c.048.019.076-.053.077-.1l.01-.461c0-.065.018-.148.082-.158l.021-.33a.875.875,0,0,0,.084-.155,2.323,2.323,0,0,0,.039-.4l.077-.789.071,0,.013-.283.071,0,.023-.5c.168-.1.334-.183.161-.389a.33.33,0,0,0,.072-.157l.445-1.608.077-.276.2-.73a.523.523,0,0,1,.081-.189c.038-.047.092-.08.13-.125a.56.56,0,0,0,.088-.155,1.683,1.683,0,0,0,.209-.62l.144-.064.081-.209.564.026.151-.2.068.073c.434.138.282.423.971.468l-.008.141.072,0c-.006.118-.016.24-.011.356.174.106.076,1.006.078,1.226q.022,1.267.171,2.527c.007.049.013.1.023.144.052.212.054.555.225.65l-.01.212a.1.1,0,0,1,.065.008c-.018.144.133.315,0,.438a.6.6,0,0,0,.114.307c.046.063.1.117.152.177a1.5,1.5,0,0,1,.246.749l.092.663a.419.419,0,0,0,.053.182c.021.033.052.06.072.094.069.119,0,.3.089.4a.762.762,0,0,1,.071.065.221.221,0,0,1,.029.134c.006.413.106.816.089,1.223l.07,0-.041.9a3.588,3.588,0,0,1-.014.43c-.013.073-.092.183-.079.254a.29.29,0,0,0,.019.053.286.286,0,0,1,0,.125,1.857,1.857,0,0,0,.007.451,1.831,1.831,0,0,1,.045.614c-.013.058-.014.149.047.15a6.833,6.833,0,0,0-.03.685c0,.433-.023.857-.041,1.289a.187.187,0,0,0-.08.208l.07,0-.093.491a7.268,7.268,0,0,0-.03,2.192l-.022.494-.071,0a.187.187,0,0,0,.061.214l-.036.776s-.093,0-.076.138l.07,0a5.022,5.022,0,0,0,.044,1.808.072.072,0,0,1-.061.1.632.632,0,0,1,.031.34,4.932,4.932,0,0,0,.015.964,7.933,7.933,0,0,0-.007,1.044l.019.531c.029.766.059,1.529.062,2.295l-.07,0,.029.92-.071,0a6.914,6.914,0,0,1-.369,1.681c-.042.141-.086.282-.127.422l-.1.312a4.74,4.74,0,0,1-.189.543c-.053.119-.113.234-.176.349a4.058,4.058,0,0,0-.452,1.007l-.057.013-.017.133c-.044-.021-.1.023-.109.07s-.008.1-.024.143a.092.092,0,0,1-.145.045,2.013,2.013,0,0,0-.092.222c0-.008-.5.085-.557.1-.119.04-.427.082-.481.206-.013.03-.014.066-.029.1s-.052.056-.081.041l-.016.129-.065.013-.008.2a.116.116,0,0,1-.026.085.242.242,0,0,1-.058.026c-.113.052-.037.158-.073.235-.046.1-.071.062-.15.144a.872.872,0,0,0-.231.413Zm21.475-.283c-.118-.235-.25-.292-.255-.649l-.07,0,.013-.283-.212-.009a2.162,2.162,0,0,0-.11-.712,1.4,1.4,0,0,0-.346-.158l-.058-.286-.07,0,.108-.845-.07,0a9.665,9.665,0,0,0-.032-1c-.08-1.414-.413-2.8-.584-4.2-.064-.529-.105-1.06-.145-1.592a3.192,3.192,0,0,1-.015-.512,2.063,2.063,0,0,0,.021-.411.305.305,0,0,1,.015-.215,8.1,8.1,0,0,1-.057-.941c-.006,0-.07-.022-.073-.011l.084-.279-.071,0,.035-.777-.048-.5.071,0,0-.071-.07,0,.077-.14-.07,0,.027-.635.072,0a.185.185,0,0,0-.062-.215l-.025-.99.07,0c.029-.122-.058-.12-.063-.144l.015-.354-.07,0,.057-1.271-.07,0a7.4,7.4,0,0,1,.156-1.9l-.061-.214.071,0,.007-.141-.071,0c-.014-.121.071-.116.077-.138l.017-.353.061-1.341.07,0,.007-.141.071,0-.042-.638.07,0a5.461,5.461,0,0,1,.18-.986l.174-.749c.01-.041.032-.094.077-.093l-.025-.12.247-.611c.074-.184.149-.369.235-.547.045-.1.093-.19.141-.284l.184-.363.182-.357.154-.3.237-.467a3.68,3.68,0,0,1,.327-.48,3.782,3.782,0,0,0,.287-.69c.072-.088.263-.068.361-.126l0-.07a1.606,1.606,0,0,1,.3-.195,1.952,1.952,0,0,1,.528.016.171.171,0,0,1,.113.031c.037.033.039.09.068.131.048.073.14.07.233.068a.743.743,0,0,1,.125,0c.333.053.365.625.7.68a.274.274,0,0,1,.093.019.22.22,0,0,1,.062.064,1.619,1.619,0,0,1,.248.407c.017.057,0,.106.009.16.024.092.074.1.077.208l.064.017a8.754,8.754,0,0,1,0,1.081,2.089,2.089,0,0,0,0,.567,1.926,1.926,0,0,0,.234.326.862.862,0,0,1,.079.127.354.354,0,0,0,.048.1c.017.022.04.037.057.058a.387.387,0,0,1,.054.233.875.875,0,0,0,.147.435.452.452,0,0,1,.08.141.119.119,0,0,1-.054.14c.142.015.308.048.364.18.022.05.021.109.047.159s.1.082.135.041l0,.67a1.219,1.219,0,0,0,.092.561c.026.053.038.475-.031.473l.071,0-.022.5.07,0-.029.635a1.614,1.614,0,0,1,.1.854l-.07,0-.006.141-.072,0-.015.354-.071,0-.007.142-.071,0c0,.121.125.118.136.148l.04.639c0,.014-.105.02-.076.138l.137.077-.013.282-.07,0,.018,1.133-.071,0-.007.141-.07,0-.016.353-.07,0c-.027.114.116.338.045.568l-.072,0-.013.283.072,0-.007.141.07,0-.025.565-.07,0,.027.92c-.027.089-.256.462-.236.556l.137.076-.032.707-.071,0-.009.212-.071,0c-.006.128.016.228-.087.312a.522.522,0,0,1,.1.266,1.1,1.1,0,0,1-.006.2l-.039.38a4.214,4.214,0,0,1-.087.586c-.017.069-.039.137-.061.206l-.064.214-.041.13a1.487,1.487,0,0,0-.086.848l-.129.245a5.59,5.59,0,0,1-.024.807l-.026.322L133.3,155l-.03.362-.056.7a8.424,8.424,0,0,1-.008,1.03l-.072,0,.062.215-.07,0-.039.848-.071,0-.019.424-.071,0-.086.35-.07,0,.061.215a1.19,1.19,0,0,1-.168.56l-.022.493-.071,0-.006.141-.145.064-.007.141-.07,0-.016.353-.51.331c-.236.213-.354.467-.733.532-.062.225-.108.253-.366.267l0-.071-.85.032,0,.071Zm22.215-1.006-.356.054,0-.071-.071,0-.176-.788-.279-.082a.2.2,0,0,1-.215.061c-.014,0-.018-.109-.138-.077l-.077.138-.213-.01a2.443,2.443,0,0,0-.4-.584l.08-.208.071,0,.015-.353.071,0c.027-.118-.061-.125-.064-.143l.052-1.131-.071,0,.01-.213-.071,0-.057-.286-.071,0,.023-.5-.072,0q.221-4.093.443-8.187l.071,0L150,147.7l.071,0,.025-.565.07,0c.128-.38.019-1,.133-1.338l.048-1.059.07,0,.048-1.059a9.256,9.256,0,0,0,.308-1.567c.081-.531.236-1.045.271-1.583l.057-.013.016-.2.064-.011s.22-1.162.25-1.256c.144-.469.332-.924.507-1.382.016-.044.033-.086.05-.126a2.433,2.433,0,0,0,.252-.626.342.342,0,0,1,.034-.136.48.48,0,0,1,.086-.081.576.576,0,0,0,.12-.27,1.6,1.6,0,0,1,.268-.53c.03-.038.292-.456.216-.458l.07,0,.3-.339.284.013.15-.206.141.006a.67.67,0,0,0,.294-.131c.195-.119.407-.237.532.033a.136.136,0,0,0,.031.053.1.1,0,0,0,.062.017l.278.014.013.066.191.016c.057.175.391.287.418.44l.112.642.071,0-.007.141.137.078-.006.141.071,0c-.014.076-.038.52-.164.494l-.021.473c0,.046-.033.111-.074.089l-.019.339a.117.117,0,0,0,.013.077c.016.024.047.032.071.049a.131.131,0,0,1,.046.163c.053-.021.076.063.068.118s.016.137.068.117a.193.193,0,0,0,.047.221l.014.116c.078.034.07.145.053.229s-.022.2.058.228c-.006.16-.013.318-.019.478l-.071,0,.042.64.071,0-.007.142.07,0-.025.564.07,0a2.256,2.256,0,0,1-.108.845l.048.5-.071,0,.006,1.416-.071,0c-.038.164.077.327.034.5a1.9,1.9,0,0,0-.046.765l-.248,1.058a.56.56,0,0,0-.021.151c.007.184.189.339.156.521a.942.942,0,0,1-.043.125,1.047,1.047,0,0,0-.032.322,5.536,5.536,0,0,1-.2,1.436l.018.189c-.119.1-.1.5-.087.644-.122.017-.092.391-.134.52.043.033.041.1.034.151l-.049.441c-.021.18-.041.361-.076.539-.025.129-.058.256-.092.383l-.153.6a.369.369,0,0,0,.039.35,1.686,1.686,0,0,0-.122.509l-.07.536a5.317,5.317,0,0,0-.063.726c0,.138.013.277,0,.414a1.326,1.326,0,0,1-.132.486c.055.053.039.142.021.216l-.187.7a2.133,2.133,0,0,1-.211,1.194.839.839,0,0,0-.093.23c-.008.046-.09.648-.1.646l-.07,0-.1.632.071,0,.057.286-.07,0a.658.658,0,0,1-.511.331c-.084.27-.171.206-.37.338l-.52.541-.145.065-.01.211-.291.2-.01.211-.07,0c-.11.125-.094.155-.293.2l0,.071-.137-.077c-.174.074-.234.179-.5.189Zm-69.274.2,0-.07a.659.659,0,0,0-.081,0c-.092,0-.189.009-.207-.085a.139.139,0,0,1-.165-.076.151.151,0,0,0-.032-.065.1.1,0,0,0-.065-.016l-.252,0a.161.161,0,0,1-.077-.015c-.095-.05-.025-.22-.108-.288-.022-.017-.049-.024-.071-.04-.105-.079.015-.26-.045-.377-.016-.033-.047-.061-.054-.1s.063-.061.077-.1a1.094,1.094,0,0,0,.014-.307c.212-.093.114-.229.283-.358a.4.4,0,0,0,.078-.066.272.272,0,0,0,.015-.187c0-.064.015-.145.078-.158l.017-.117c.061-.009.079-.084.086-.143l.085-.83c.006-.044.024-.1.069-.1l.061-.474.011-.1c0-.039.009-.079.016-.118.027-.16.094-.3.11-.454a6.083,6.083,0,0,0-.025-.75c.03-.634.059-1.267.086-1.9l-.066-.014.014-.412-.059-.016a.138.138,0,0,1,.021-.134.352.352,0,0,0,.065-.125c.006-.047-.03-.1-.076-.1l.1-.618-.063-.014a1.416,1.416,0,0,1,.007-.422c0-.184,0-.369,0-.555,0-.359-.017-.718-.032-1.078l-.027-.62-.011-.267-.062-1.438c-.159-.128-.116-.7-.014-.849-.049-.018-.054-.082-.052-.135l.033-.561c0-.048-.024-.121-.069-.1l.027-.619c0-.046-.025-.112-.064-.09l.024-.626c0,.03-.055-.105-.058-.129a1.7,1.7,0,0,1,0-.172c0-.143-.009-.287-.015-.43-.008-.213-.018-.424-.03-.636l-.022-.39-.009-.176-.066-1.232-.01-.238a6.206,6.206,0,0,0-.008-1.068l.071,0c.009,0,.034-.9.032-.965-.007-.121-.019-.24-.029-.361a2.363,2.363,0,0,1,.064-.85.869.869,0,0,0,.038-.15,1.853,1.853,0,0,0-.059-.4.546.546,0,0,1,.078-.334c-.021-.21.139-2.024.106-2.025l.071,0,.023-.494.07,0c.006-.11-.041-.4.1-.44a.6.6,0,0,1,.07-.43.646.646,0,0,1,.079-.341l.039-.181a.153.153,0,0,0,.073-.078,1.651,1.651,0,0,0,.165-.373c.017-.066.024-.137.041-.206a1.7,1.7,0,0,1,.195-.428c.014-.025.039-.055.066-.044a.187.187,0,0,1,.069-.216.748.748,0,0,0,0-.189.338.338,0,0,1,.084,0l.01-.213.07,0,.01-.212.144-.064.006-.141.149-.135.142.007.227-.343.354.016.068.074,0-.072a.646.646,0,0,1,.361-.124.873.873,0,0,1,.184.644c.062.022.176.046.216.1.051.079-.024.2.062.268.039.029.1.034.112.079a.141.141,0,0,1,0,.054.18.18,0,0,0,.106.151c.061.032.161.018.211.062.066.057.038.191.1.238.1.087.325.19.268.36l.073.017c-.026.042-.05.087-.073.133a.152.152,0,0,0-.022.1c.007.032.047.06.076.042,0,.063,0,.125,0,.2a.03.03,0,0,0,.029.013c.073,0,.024.306.022.372-.008.157-.015.316-.022.475l.071.006c.022,0-.078.545.025.593.031.016.066.026.08.056s-.013.087.008.124.046.034.071.051a.137.137,0,0,1,.055.164c.017.016.053.008.066.049-.007.127-.01.254-.015.382l.063.016a2.774,2.774,0,0,1-.028.7,12.617,12.617,0,0,0,.01,1.345l-.086.349a4.678,4.678,0,0,1,0,1.487l-.07,0c-.026.118.06.125.063.144-.014.33-.029.656-.066.982-.018.161-.038.323-.042.485a6.149,6.149,0,0,0,.029.7l.017.213a3.89,3.89,0,0,0,.061.5c.01.048.023.1.032.145.032.164-.045.927.07.952,0,.027-.009.347-.011.347l.07,0-.086.35c.2.057.129.257.12.426a.11.11,0,0,0,.014.077.208.208,0,0,0,.063.039.135.135,0,0,1,.052.169c.05-.019.076.057.072.109l-.022.3c0,.051.017.125.068.111l-.009.341c.035-.018.06.039.058.08a8.281,8.281,0,0,0,.188,2.2l-.043.988.07,0-.068,1.482c.015.185.041.375.039.562l-.06.009.049.2-.063.008-.053,1.118-.07.009a10.141,10.141,0,0,0-.048,1.053l-.071,0,0,.071.071,0-.045.988.07,0c0,.049-.017.041-.032.034s-.032-.016-.042.033l-.04.918-.071,0-.017.351-.07,0s-.031.594-.033.631c-.034-.026-.069.034-.071.078l-.017.332c-.082.024-.089.136-.08.221s.01.2-.07.228l-.195.537a2.939,2.939,0,0,1-.133.33,2.854,2.854,0,0,0-.222.628c-.013.048-.046.109-.093.094l-.022.119a.178.178,0,0,0-.064.213c-.069-.013-.108.076-.118.144s-.042.156-.111.149a4.409,4.409,0,0,1-.256.9l-.214.062,0,.07-.141-.007,0,.071-.142-.006-.151.2-.494-.023,0-.07-.07,0,0,.071-.5-.023a2.653,2.653,0,0,1-.751.208A.734.734,0,0,1,82.173,161.129Zm108.745-.723a.528.528,0,0,0-.284.072v-.07c-.121-.135-.018-.375,0-.638l-.214-.069v-.07c-.114-.047-.134.07-.141.071l-.638-.065v-.07c0,.006-.1-.182-.105-.2-.03-.058-.124-.2-.117-.266s.026-.114,0-.163l-.064-.022c.036-.055-.008-.128-.061-.167s-.118-.065-.15-.122a.274.274,0,0,1-.025-.105l-.029-.255c-.007-.055-.032-.126-.087-.119-.033-.066.025-.166-.03-.215-.024-.022-.061-.023-.086-.041-.068-.048-.036-.23-.036-.3h-.071l.064-.849a5.649,5.649,0,0,1,.2-2.121l0-.636h.071l0-.636h.071l-.006-.848h.071c.047-1.1.07-2.189.217-3.279.024-.172.047-.343.061-.516.015-.19.019-.382.024-.572l.017-.736c.011-.561.024-1.123.053-1.683q.034-.639.1-1.275c.077-.8.174-1.6.264-2.4a.465.465,0,0,0,.087-.229,1.967,1.967,0,0,0-.025-.338.368.368,0,0,1,.1-.309l-.041-.092a.267.267,0,0,0,.059-.255c-.019-.09-.062-.174-.078-.264,0-.021.188-.5.135-.5h.071l.062-1.274h.071l.135-.849h.071v-.141h.07l.065-.778h.071l0-.283h.071l0-.141h.072v-.213h.071c.017-.152-.01-.5.129-.6a.208.208,0,0,0,.066-.055.145.145,0,0,0,.013-.073l0-.259a.125.125,0,0,0,.106-.1c.015-.05.013-.105.029-.156.032-.109.137-.185.168-.293a.922.922,0,0,0,.011-.211.2.2,0,0,1,.093-.18l.015-.124c.071.026.082-.117.153-.143a.115.115,0,0,1,.053-.006.123.123,0,0,0,.062-.009c.041-.026.026-.088.041-.134s.077-.084.122-.118.086-.1.049-.148c-.022-.024.174-.211.214-.231v-.141c.118-.225.213-.424.492-.5.078-.338.359-.3.776-.287.074-.324.306-.3.705-.287a1.883,1.883,0,0,0,.427.35h.213l.071.141a.625.625,0,0,0,.274.035c.122,0,.232-.006.293.1l0,.354h-.072a2.968,2.968,0,0,1,.078.918h-.071l.008.99.071,0v.143h.071v.212h.071a.633.633,0,0,1-.069.354l.214.14c.079.181-.125.421,0,.707h.071v.141l.142.071a1.808,1.808,0,0,1,.077.918h-.07l.072.211h.07l0,.424h.072c.035.187-.2.641-.064.919l.213.14a2.3,2.3,0,0,1,.078,1.131.092.092,0,0,0-.065.006,2.055,2.055,0,0,1-.052.5c-.007.045.007.113.053.1l-.058.051a.919.919,0,0,1,.026.633,2.38,2.38,0,0,1-.011.46l-.049.534-.022.23c-.029.3-.056.6-.085.9-.013.132.064.533-.054.545a8.769,8.769,0,0,0,0,1.124h-.072l0,.283h-.072c-.025.138.137.268.076.493h-.071l0,.283h-.071c-.022.12.068.12.071.14l0,.354-.141.073c-.063.077.013.014-.07.07v-.07c-.119-.069-.06.1-.07.141h.212a6,6,0,0,1-.2,1.91l0,.565H195.8v.142h-.071l0,.564h-.07a14.653,14.653,0,0,1-.3,1.571c-.033.14-.065.279-.1.418q-.1.446-.214.892c-.054.223-.109.448-.164.671l-.137.556-.074.307-.045.176-.155.626c-.064.262-.128.525-.2.787q-.033.124-.065.251c-.046.177-.1.358-.135.536a.106.106,0,0,1-.065.006v.141h-.071l0,.212h-.071l-.138.425h-.072l0,.142-.142.072-.139.425-.211.142,0,.284H193.1c-.114.152-.1.182-.353.215a2.2,2.2,0,0,1-.77.995l-.141.213a1.009,1.009,0,0,1-.564.145C191.148,160.753,190.986,160.7,190.918,160.405Zm20.408.434a.654.654,0,0,0-.284-.138l-.147-.777a.586.586,0,0,1-.142-.141l-.284,0-.071-.141h-.354v-.07H209.9v-.071l-.426-.068-.213-.351-.143-.071v-.211h-.071v-.213l-.072,0-.072-.283h-.07v-.141l-.213-.069-.357-.495v-.141h-.071l-.076-.707a7.284,7.284,0,0,1-.023-3.18c.021-.121-.066-.12-.071-.141l-.007-.848h.072s0-.513,0-.558c.025,0,.064-.017.088-.018-.074-.253.158-.656.164-.939,0-.213-.026-.425-.024-.639a2.147,2.147,0,0,1,.082-.572.283.283,0,0,1-.018-.237,3.345,3.345,0,0,0,.064-.925,1.193,1.193,0,0,1,0-.293,1.663,1.663,0,0,1,.045-.165,2.763,2.763,0,0,0,.064-.853l-.018-.7c0-.049.014-.116.062-.116l.041-.56a.9.9,0,0,0-.007-.271.561.561,0,0,1-.038-.209c.015-.088.093-.15.129-.232a.562.562,0,0,0,0-.329,3.328,3.328,0,0,1-.016-.942c.008-.055.106-.794.03-.751.053-.03.034-.11.017-.168-.079-.278.065-.576.024-.862-.025-.174-.112-.371,0-.509a2.283,2.283,0,0,1-.071-.734c0-.207.12-2.771.061-2.771h.07l.06-1.556h.071c0-.208-.013-.421,0-.628.132-.061.123-.893.15-1.08l.115-.8a1.332,1.332,0,0,1,.112-.429.894.894,0,0,0,.078-.16.737.737,0,0,0,.018-.174,1.574,1.574,0,0,1,.337-.918l-.046-.189a1.271,1.271,0,0,0,.228-.528,1.254,1.254,0,0,1,.045-.219,1.708,1.708,0,0,1,.2-.324,1.8,1.8,0,0,0,.193-.507.43.43,0,0,1,.167-.23c.113-.1.138-.077.2-.262h.071v-.211l.282-.215c.092-.159-.039-.195.14-.354v-.071l.99-.007c.082.08,0,.029.142.07l.073.353h.071c.037.433.074.854.14,1.26a.374.374,0,0,0,.064.141l.315.5a.705.705,0,0,1,.152.446c-.011.079-.05.161-.018.235s.122.1.187.152c.208.166.077.509.173.759.051.136.176.266.131.405-.018.06-.069.119-.044.176s.086.061.123.1c.127.13-.147.387-.013.509.025.023.058.033.08.058.036.044.022.108.016.164s.022.132.079.131a2.455,2.455,0,0,0-.07.754h.07c0,.153-.063.575.061.656a.6.6,0,0,0,.081.5c-.1.14-.03.329-.008.5.057.443-.224.92-.022,1.317a.515.515,0,0,1,.042.1.391.391,0,0,1-.027.187,1.88,1.88,0,0,0,0,.742c.071.576.118,1.155.142,1.734a.492.492,0,0,1-.047.293,1.739,1.739,0,0,0,.069.358,2.544,2.544,0,0,1,.006.457,4.351,4.351,0,0,1-.1.721,6.671,6.671,0,0,1,.047,1.2c-.047.371-.064.743-.077,1.121l-.045,1.237-.048,1.356-.017.44c-.014.412-.029.822-.05,1.233-.01.2-.156,2.536-.169,2.538h-.071l0,.425H213.6a10.182,10.182,0,0,1-.343,2.045c-.031.149-.06.3-.1.444-.025.1-.053.208-.081.311-.127.474-.294.957-.38,1.44-.093.037-.06.126-.058.22l-.141.071-.069.355-.142.071v.142l-.28.213-.068.567h-.07l.073.424h.07l0,.5.142.069v.213h.072l-.068.565H212.1l0,.141h-.071l0,.424-.707.006Zm-196.2.007c-.68-.231-1.609-.343-2.312-.529a2.178,2.178,0,0,1-.039-.71l-.42-.089,0-.071c-.077-.084-.029,0-.064-.145a.616.616,0,0,0,.584-.4c-.117-.086-.093-.05-.13-.219l.5-.19.084-.279.145-.064.009-.212.071,0,.105-.774.071,0,.082-.279.145-.064.09-.42.07,0,.084-.278.072,0,.013-.283.07,0,.006-.143.072,0,.213-1.537a7.135,7.135,0,0,1,.223-1.415,3.117,3.117,0,0,0,.13-.367.426.426,0,0,0-.07-.37c.112-.007.095-.173.1-.283.013-.169.159-.363.04-.485a1.736,1.736,0,0,0,.134-.841l.167-.829c0-.345.076-.7.092-1.044l.07,0c.026-.119-.06-.124-.063-.144l.05-1.13.071,0,.077-1.694.071,0,.057-1.27.071,0,0-.071-.071,0,.007-.141-.071,0c.052,0,.034-1.957.024-2.113.047.014.077-.05.081-.1a1.519,1.519,0,0,0-.041-.538c.063,0,.073-.089.066-.152s.013-.148.074-.142c-.015-.136-.03-.274-.044-.41.237.041,0-1.268-.01-1.423a9.73,9.73,0,0,1,.263-2.676l-.053-.427.072,0c.027-.146-.065-.145-.065-.145l.021-.424.07,0-.057-.285.07,0-.035-.78.071,0,.01-.212.07,0-.061-.215.071,0-.039-.71.071,0,.006-.142.072,0,.025-.565.07,0,.01-.213.07,0,.021-.424.143-.064.161-.418.07,0,.007-.143.071,0c.114-.267-.01-.581.177-.77l0-.07.354.015c.01,0,.119.145.149.164.079.048.213.021.278.065a.172.172,0,0,1,.03.029c.117.146.093.588.113.781a.2.2,0,0,0,.039.125c.024.026.06.039.082.066.081.088-.023.239.027.348.034.072.122.1.179.157.15.156.013.478.193.6,0,.181-.015.362-.014.541a9.032,9.032,0,0,1,.011,1.279.088.088,0,0,1,.062.009,2.182,2.182,0,0,1-.079.517.154.154,0,0,0,.009.111c.019.026.054.038.077.061.073.069.014.191.025.291s.089.173.116.267c.056.188-.086.443.07.562a.847.847,0,0,0-.105.4,2.224,2.224,0,0,0,.1.367,2.345,2.345,0,0,1-.009.651.321.321,0,0,0,.011.124.553.553,0,0,0,.057.1,1.308,1.308,0,0,1,.173.533c.052.3.129.575.19.868.041.193.068.39.094.586.009.073.019.146.03.221a27.107,27.107,0,0,1,.331,4.723l-.009,1.768-.071,0-.013.282-.071,0,0,.071.071,0-.019.424-.071,0c.025,0-.1,1.15-.106,1.242l-.04.39-.171,1.628c-.047.452-.1.905-.161,1.355-.037.242-.078.482-.119.725a13.766,13.766,0,0,0-.221,1.77l-.07,0-.023.494-.071,0-.016.353-.071,0-.015.353-.072,0-.086.35-.071,0-.007.142-.07,0-.174.7-.07,0c-.018,0-.141.372-.173.4-.064.062-.18.119-.141.2a.184.184,0,0,0-.074.216c-.088.018-.114.129-.12.217s-.024.2-.109.225l-.019.123c-.038-.012-.07.035-.072.076a.389.389,0,0,1,0,.121c-.034.085-.175.081-.209.166-.013.033,0,.072-.017.105-.029.077-.141.083-.2.143s-.04.19-.1.263a.871.871,0,0,1-.114.089.118.118,0,0,0-.038.126c-.085.024-.072.071-.076.152l-.07,0-.01.211-.072,0-.008.212-.219.132c-.185.329.2.468-.446.475a.758.758,0,0,1-.382.075A.836.836,0,0,1,15.127,160.846Zm45.332-.277-.058-.286-.283-.013a.9.9,0,0,1-.054-.356,1.236,1.236,0,0,0,.244-.7.923.923,0,0,1-.236-.031,2.3,2.3,0,0,0,.212-.889,1.9,1.9,0,0,1,.066-.656.309.309,0,0,0,.035-.13c0-.046-.044-.093-.088-.082a1.173,1.173,0,0,0,.077-.49.76.76,0,0,1,.013-.341c.024-.062.071-.127.045-.188s-.12-.137.006-.156a8.474,8.474,0,0,1,.1-1.084c.1-.371.166-.752.228-1.13.01-.065-.01-.161-.073-.146a.273.273,0,0,0,.039-.135l.1-.889.042-.358c.016-.146.033-.291.048-.436.039-.388.062-.776.066-1.165,0-.187,0-.373,0-.561a2.191,2.191,0,0,0,.022-.438c-.173-.736.06-1.4-.116-2.129l.16-3.531c.011-.753.021-1.507.032-2.262l-.071,0c-.035-.171.081-.182.085-.28l-.072,0,.072-1.554-.072,0c-.007,0-.117-1.76-.12-1.925a.362.362,0,0,0-.06-.236.264.264,0,0,0,.046-.207l-.031-.451a7.21,7.21,0,0,1-.025-.721c0-.133.214-1.907.155-1.909l.071,0,.1-.7.072,0,.016-.354.07,0,.01-.212.07,0,.094-.491.07,0,.12-1.055c0,.007.062,0,.063,0a2.613,2.613,0,0,0,.023-.272l.063-.011.015-.126.065-.014a.2.2,0,0,1,.022-.126c.027-.043.082-.057.126-.086a.219.219,0,0,0,.084-.252l.071-.016c0-.014.091-.271.088-.271l.215-.062,0-.07a.979.979,0,0,1,.482.3l.064.144a2.239,2.239,0,0,1,.712.182,2.463,2.463,0,0,1,.307.652.119.119,0,0,0,.034.05c.032.025.078.016.119.015a.275.275,0,0,1,.254.357l.072.023-.009.2a.136.136,0,0,0,.01.068.2.2,0,0,0,.058.052.194.194,0,0,1,.055.236l.072.025a.13.13,0,0,0,.037.151c.021.015.045.025.064.042.1.1.009.513,0,.644.034-.007.053.035.061.069l.126.57c.013.061.026.121.035.181.017.112.021.225.03.339.027.37.114.731.164,1.1a5.718,5.718,0,0,1,0,1.093s.086,0,.064.145a.122.122,0,0,0-.077.137l.07,0a1.4,1.4,0,0,0-.011.3c.021.1.1.165.108.271a1.017,1.017,0,0,1-.036.24.83.83,0,0,0,.06.482l-.127.743-.147.857a.219.219,0,0,1-.064.145c.1.071.055.22.026.335a12.688,12.688,0,0,0,.041,1.5l-.071,0-.015.354-.072,0a.115.115,0,0,0,.065.143c.009.089-.112.114-.084.28l.07,0-.013.281-.07,0a8.8,8.8,0,0,1-.078,1.028l-.077.742-.05.507-.011.116-.146,1.437-.022.208.092.344a2.651,2.651,0,0,0-.037.436c-.021.563-.056,1.113-.106,1.672a2.412,2.412,0,0,0,.076.967.555.555,0,0,0-.074.234l-.035.225c-.038.235-.076.47-.117.7s-.088.473-.135.709c-.079.395-.135.776-.181,1.173l-.07,0-.1.633-.071,0a3.66,3.66,0,0,1-.169.868l-.044.155c-.1.362-.207.726-.3,1.091q-.033.127-.062.254c-.046.2-.09.4-.136.593-.1.414-.208.825-.333,1.233-.018.055-.034.111-.051.168a.678.678,0,0,0,.023.6c-.039-.051-.492.521-.525.56l-.286.058-.076.137-.358.055c-.3.166-.5.425-.941.453C60.522,160.561,60.6,160.617,60.46,160.569Zm109.857-.605a2.427,2.427,0,0,1-.386-.868c-.372.082-.118.045-.347-.156l0-.071-.424-.02s.037-.849.038-.911l-.061-.017-.006-.126-.062-.019.013-.409-.063-.017.011-.409-.06-.018-.007-.126-.062-.02c-.019-.007.092-.625.1-.694a.251.251,0,0,0-.065,0l.093-.491-.071,0,.08-.208c.113-.593-.006-1.347.155-1.834.093-.278-.073-.6-.034-.781l.07,0a8.915,8.915,0,0,0-.019-1.378,1.8,1.8,0,0,1,.068-.544,4.156,4.156,0,0,0,.081-.891.671.671,0,0,0-.026-.2.365.365,0,0,1-.03-.1c0-.093.094-.163.1-.254a.472.472,0,0,0-.066-.2c-.024-.064-.009-.161.062-.173l-.04-.137a1.749,1.749,0,0,0,.076-.646l.068-1.483-.072,0,.019-.423a38.454,38.454,0,0,1,.3-4.023c.084-.562.278-1.094.379-1.646.126-.69.245-1.394.383-2.089a.3.3,0,0,1,.04-.111c.024-.032.06-.053.086-.084a.362.362,0,0,0,.061-.15l.138-.625c.064-.287.135-.837.4-.956l.11-.845.144-.063.013-.283.07,0c0-.045,0-.088.01-.134.1-.039.03-.088.1-.156.03-.03.077-.033.113-.055a.176.176,0,0,0,.072-.16.493.493,0,0,0-.054-.175c.08,0,.112-.1.12-.181s.031-.18.109-.191l.018-.12.062-.013.019-.261c.085-.024.106-.133.112-.22s.025-.195.109-.222l.022-.114c.173-.07.035-.359.151-.43l.219-.132c.092-.125.114-.4.236-.484l.141.006.077-.138.213.01,0-.071a.525.525,0,0,1,.359-.125l0,.071.283.013,0,.07.142.007,0,.071a.706.706,0,0,0,.349.054c.124-.007.206-.014.348.189l.072,0-.03.635.071,0,0,.071,0,.07-.072,0-.023.493-.07,0-.025.564-.071,0-.025.565-.072,0a3.932,3.932,0,0,0,.01,1.345l.017,1.2.272.226-.007.141.071,0-.016.353.138.077c.1.055.085.647.094.753l.007.077c.008.094.016.188.023.282a.868.868,0,0,0,.209.63.343.343,0,0,1,.072.069c.047.078-.014.173-.047.259s.008.222.1.2a2.075,2.075,0,0,0,.078,1.121,1.816,1.816,0,0,0-.073.527l-.07,0c-.033.72-.134,1.433-.216,2.151a.409.409,0,0,1-.106.278c.057.031.047.113.029.175a2.9,2.9,0,0,0-.094.842c0,.079.009.156.015.235.019.286.03.572.029.858,0,.073-.153.886-.114.888l-.071,0-.026.564-.071,0,.058.285.07,0-.045.988-.071,0-.025.564-.07,0-.035.777-.071,0-.029.635-.071,0-.007.141-.071,0,.048.5a2.9,2.9,0,0,1-.176.771l-.141,1.55a4.792,4.792,0,0,1-.195.682c-.068.262-.13.525-.212.782a9.335,9.335,0,0,0-.406,1.5c-.008.061-.016.124-.023.184a.294.294,0,0,1-.034.11.888.888,0,0,1-.073.074.4.4,0,0,0-.066.19,5.945,5.945,0,0,1-.213.881.939.939,0,0,0-.515.309c-.081.1-.15.216-.269.264s-.244.021-.331.1-.119.279-.246.262c.062.008-.154.366-.157.409l-.07,0c-.1.1-.039.095-.219.133l0,.07a.093.093,0,0,1-.041.008A2.67,2.67,0,0,1,170.316,159.964Zm-168.8.021c-.3-.1-.521.089-.688-.278a2.282,2.282,0,0,1-.135-.458l-.014-.067-.111-.514-.038-.172a.132.132,0,0,0-.058-.143c-.023-.013-.052-.019-.065-.042a.1.1,0,0,1,0-.073l.072-.343c-.038.009-.065-.037-.073-.076-.05-.236.057-.522-.243-.588.027-.109.089-.248.033-.359s-.254-.095-.18-.283a.44.44,0,0,1,.2-.184.631.631,0,0,0,.242-.227.272.272,0,0,0-.024-.311.671.671,0,0,0,.153-.584l-.12-.022a1.864,1.864,0,0,1,.017-.8.454.454,0,0,0,.021-.195c-.007-.038-.026-.073-.031-.11a.345.345,0,0,1,0-.1l.025-.176c.037-.252.073-.5.124-.751a6.214,6.214,0,0,0,.211-1.53l.071,0,.032-.706a11.27,11.27,0,0,0,.108-1.376c.009-.254.017-.508.044-.76a.543.543,0,0,0-.049-.38,1.09,1.09,0,0,0,.084-.634.823.823,0,0,1-.029-.263c.021-.14.134-.278.074-.4-.021-.042-.057-.077-.06-.122a.224.224,0,0,1,.045-.1,1.432,1.432,0,0,0,.066-.61l.034-.779c.038-.821.008-1.631.03-2.448l0-.109.014-.5.013-.475a.9.9,0,0,0,.011-.592.162.162,0,0,1-.011-.073c.014-.06.055-.109.07-.172a2.133,2.133,0,0,0,.017-.373l.034-.752.069-1.5.07,0,.029-.636.071,0,.032-.706.071,0c.008-.184.008-.372.029-.556.117-.041.079-.237.086-.35l.065-.011.017-.2.063-.011.017-.2.062-.013.016-.125.063-.013.015-.2c.057.008.1-.06.106-.117s.015-.125.064-.155a.221.221,0,0,0,.047-.03.091.091,0,0,0,.017-.049c.009-.079.078-.7.094-.7l.07,0,.013-.283c0,.015.064-.006.066-.006.022-.154.021-.32.029-.477l.069-.013a.188.188,0,0,1,.1-.2.448.448,0,0,0,.092-.042c.08-.067.013-.2.055-.3l.062-.015.021-.337.063-.011a1.214,1.214,0,0,0,.015-.2l.071,0,.013-.282.219-.132.007-.141.219-.133,0-.07.283.013a.45.45,0,0,0,.434.185.962.962,0,0,1,.405.065l0,.07.279.085c.032.246.1.37.334.438l0,.071.07,0,0-.07a2.679,2.679,0,0,0,.311-.623l.07,0-.009.212a1.9,1.9,0,0,0-.179.841.561.561,0,0,1,.076.01,1.92,1.92,0,0,0-.014.2c.049-.014.076.057.077.11l.014.608c0,.065.016.145.079.16l0,.195a.074.074,0,0,1,.08.045.2.2,0,0,1,.009.1c-.026.393-.358.92-.087,1.274a1.2,1.2,0,0,0,.482.306L6.3,137.489l-.07,0c-.015.092.106.122.057.286l-.07,0-.03.636-.071,0c-.105.3-.031.584-.1.7l.062.214-.072,0a5.7,5.7,0,0,0-.01,1.768c-.013.1-.047.806-.177.777a1.055,1.055,0,0,1,.07.3c0,.06-.033.145-.087.118l-.018.4c0,.052-.047.122-.085.087a3.262,3.262,0,0,1,.078.445.11.11,0,0,1-.023.1c-.021.015-.048.016-.069.032a.121.121,0,0,0-.034.082,8.192,8.192,0,0,1-.113,1.521,1.651,1.651,0,0,0,.035.933,4.4,4.4,0,0,1,0,.99.862.862,0,0,0,.133.529,2.038,2.038,0,0,0-.144.708c0,.141.01.284,0,.426a1.648,1.648,0,0,1-.127.557c.133.176-.053.46.071.645a6.493,6.493,0,0,0-.1,1.148l-.071,0-.007.142-.071,0c0,.446,0,.893.011,1.338-.125.052-.13.35-.153.481-.016.086-.03.172-.044.258l-.019.115c-.023.136-.045.27-.063.406-.032,0-.053.035-.063.066a1.588,1.588,0,0,0-.058.353l-.01.1a6.517,6.517,0,0,1-.155,1.314l.07,0-.093,2.048.071,0c.114.184.167.15.192.433l-.514.4-.013.283-.071,0-.007.142-.144.064-.006.142-.437.263-.009.211-.145.065c-.228.217-.192.2-.646.183l0,.07-.354-.015-.078.137a.262.262,0,0,1-.145.019.147.147,0,0,0-.14.039l-.081.208a.157.157,0,0,1-.062.01A2.185,2.185,0,0,1,1.52,159.984Zm35.324-.2c-.1-.072-.113-.143-.2-.221l.023-.494-.212-.01,0-.07-.071,0,.01-.211a1.429,1.429,0,0,0,.246-.767l-.212-.01.1-.7.071,0,.082-.28.071,0-.036-.78.072,0,.027-.636.071,0c-.039,0,.111-1.179.121-1.268q.072-.628.2-1.249c.024-.12.042-.263-.048-.343l.084-.054a.347.347,0,0,1,0-.429c.03-.143-.068-.285-.058-.43a1.209,1.209,0,0,1,.1-.293.251.251,0,0,0-.049-.284.236.236,0,0,0,.078-.237c-.014-.088-.05-.169-.058-.258a1.121,1.121,0,0,1,.081-.382.4.4,0,0,0-.043-.374c.03.033.084-.419.086-.461l-.071,0,.035-.789c.01-.222-.053-.418-.042-.627a9.354,9.354,0,0,0-.04-1.455.46.46,0,0,1,.007-.209q-.055-.543-.1-1.084c-.029-.362-.053-.724-.076-1.085a12.7,12.7,0,0,1-.049-1.414l-.072,0,.039-.848-.07,0c.018,0-.034-1.1-.039-1.186a.989.989,0,0,1,.024-.363c-.052,0-.071-.066-.073-.119l-.061-.929c-.032-.482-.01-.967-.027-1.445l-.065,0c-.037-.164.094-.394.089-.421a.2.2,0,0,1-.061-.215l.071,0-.054-.356.163-2.044.071,0L37,134.6l.071,0c.006-.142.077-.184.089-.343l.064-.011.014-.126.064-.011.016-.189a.2.2,0,0,0,.11-.181.443.443,0,0,1,.047-.216.643.643,0,0,1,.126-.11,1.811,1.811,0,0,0,.105-.34l.071,0,.123-1.126c.079-.2.266-.31.375-.478.155.033.126.072.138.078l.354.015,0,.071c.134.1.156.166.343.228.04.214.112.169.133.219l-.016.353.138.078.1.853.141.007c.013.121.064.145.064.145l-.045.988.071,0-.007.142.07,0-.013.283.072,0-.023.493.137.078.054.356.206.15-.006.142.071,0-.046.988.071,0-.023.493.071,0a2.9,2.9,0,0,0,.023.71c.009.086,0,.174,0,.262a.717.717,0,0,0,.077.29.214.214,0,0,1,.051.1,1.286,1.286,0,0,1,.047.255c.006.1,0,.193.011.29a1.7,1.7,0,0,0,.031.169q.038.186.072.371a1.851,1.851,0,0,1,.04.6,1.909,1.909,0,0,0,.061.3l.2.15.052.427.07,0-.006.141.071,0-.023.5a.072.072,0,0,1,.065.008,1.149,1.149,0,0,0,.069.523c.019.037.046.069.066.1a.854.854,0,0,1,.092.3c.03.176.06.354.088.53l.127.767.092.556.076.452.026.166a3.486,3.486,0,0,1,.069.722c-.019.459.023.892.043,1.351l-.07,0-.062,1.343-.093.491a.1.1,0,0,1,.065.007,3.543,3.543,0,0,1-.015.412l-.066.011a3.489,3.489,0,0,0-.017.409l.057.019a1.1,1.1,0,0,1-.081.546l.062.018-.018.475c0,.044-.029.1-.066.084a2.449,2.449,0,0,1,.029.7l-.07,0c-.019.087.105.124.057.285l-.07,0-.037.777-.071,0-.013.283-.07,0c.07,0,.032.528.022.571l-.137.6-.053.233c-.024.108-.049.216-.079.323-.038.142-.085.284-.135.423-.089.245-.189.486-.3.725-.076.165-.159.326-.242.488l-.2.391c-.049.1-.09.254-.195.293,0,.044,0,.088-.007.133l-.143.065-.013.283-.145.063-.016.354-.071,0-.087.349a1.082,1.082,0,0,0-.934.31l-.078.14-.212-.01,0,.071-.213-.01,0,.071-.354-.016,0,.071-.142-.007-.077.137-.212-.008,0,.07-.142-.007-.077.138-.142-.006,0,.07C36.843,159.81,36.921,159.863,36.844,159.78Zm25.468-29.057h0ZM6.556,128.6l.01-.212.07,0-.009.213Zm148.128-5.1a2.438,2.438,0,0,1-.69-.385c0-.033.019-.109,0-.137s-.066-.039-.082-.056a.556.556,0,0,1-.113-.213l-.04-.109c-.007-.019-.015-.044,0-.06a.491.491,0,0,0-.167.062l0-.071-.206-.151-.006.141-.072,0c.007.113.189.213.126.359l-.071,0,0,.071-.141-.007-.583-1.229-.142-.007a4.95,4.95,0,0,0-.179-.715l.015-.353-.07,0c-.011-.258-.021-.514-.047-.769a.281.281,0,0,1-.04-.29.055.055,0,0,1-.065-.033.163.163,0,0,1-.009-.078l.032-.673a.043.043,0,0,1-.057-.019.124.124,0,0,1-.01-.068l.022-.482a.042.042,0,0,1-.057-.021.122.122,0,0,1-.009-.067c.007-.16.015-.322.023-.482l-.07,0,.057-1.271-.072,0s.033-.782.037-.845l-.066-.009,0-.069a.043.043,0,0,0,.063-.014.124.124,0,0,0,.014-.071l0-.389a.177.177,0,0,1,.032-.276l-.077-.03c.007-.586.05-1.176.077-1.761l-.047-.5.077-1.694-.071,0,.032-.705-.016-1.205-.07,0c-.1-.41.193-.956.065-1.482l-.07,0,.055-1.2c-.166-.692.054-1.354-.119-2.058l.061-1.341a17.069,17.069,0,0,0,.013-3.4l.013-.283-.07,0,.009-.212-.07,0a.417.417,0,0,1,.093-.491l0-.07.353.015,0-.07s.523.026.562.029l.006.072a.468.468,0,0,1,.344.054.774.774,0,0,0,.1.084.554.554,0,0,0,.117.037c.127.043.164.179.258.26a1.279,1.279,0,0,0,.42.255c.009,0,.079.246.1.278a1.2,1.2,0,0,0,.164.223c.114.125.279.231.185.433l.074.013-.008.277a.041.041,0,0,1,.056.019.125.125,0,0,1,.01.065l-.023.484a.044.044,0,0,1,.057.017.106.106,0,0,1,.008.065l-.016.414.066.008v.136l.064.009c-.007.258-.018.516-.031.775-.006.125-.01.25-.018.374a.7.7,0,0,0,.076.284,1.047,1.047,0,0,1-.054.607l.077.014,0,.2c.057.007.066.087.06.144q-.063.565-.117,1.131l.065.008v.136l.064.009,0,.206.065.008c-.013.353-.03.705-.046,1.058l.071,0-.007.141.072,0-.01.211.071,0c.008.33.018.66.027.99a.042.042,0,0,1,.056.017.121.121,0,0,1,.009.064l-.017.415c.086-.013.065.08.069.137a.078.078,0,0,1,.061.056.222.222,0,0,1,0,.087l-.025.329a.165.165,0,0,0,.007.079c.016.035.048.035.063.069s-.014.119.009.164a.516.516,0,0,1,.043.348c-.006.022.064.13.068.172a1.39,1.39,0,0,1-.019.181c-.013.172-.015.344-.023.516l.07,0s-.026.651-.03.705l.066.007-.018.419-.066,0,0,.065.064.009v.135l.065.008c.023,0-.05,1.163-.055,1.269a4.221,4.221,0,0,1-.015,1.909l.04.639-.07,0c-.026.12.06.124.064.145l-.016.353a14.828,14.828,0,0,1-.09,1.978c-.041.181.062.214.062.214-.009.211-.018.421-.025.633.046-.009.063.055.062.1l-.021.667c0,.031.039.086.047.119a.556.556,0,0,1,.016.144c0,.09-.022.177-.026.271-.008.227-.019.453-.03.681l.07,0-.022.495.07,0-.009.211.07,0-.061,1.342-.07,0-.09.42a.549.549,0,0,1-.356.055.108.108,0,0,0-.138-.078l-.15.206-.216.062Zm-66.741-.374a.213.213,0,0,1-.2-.035l0-.071-.07,0,.013-.283-.071,0c-.108-.147-.119-.133-.145-.119s-.048.021-.13-.034l0-.07-.34-.3c-.018.326-.066.394-.372.409-.071-.151-.109-.13-.126-.359-.377-.129-.244-.24-.4-.514l-.139-.077.006-.141-.134-.149.006-.142a.144.144,0,0,1-.072-.011c-.01-.008-.009-.082-.016-.1a.51.51,0,0,0-.142-.175c-.08-.074-.158-.2-.094-.287l-.078-.014a.361.361,0,0,0-.116-.3l0-.2-.065-.009-.023-.127-.145-.386-.039-.189a1.428,1.428,0,0,1-.088-.579l-.071-.01v-.134l-.066-.01c0-.14.01-.28.017-.42l-.07,0,.015-.353-.07,0c.006,0,0-.318-.006-.343a.949.949,0,0,1-.023-.5l-.066-.008.015-.628c-.061-.027-.066-.11-.063-.177l.044-.818-.058-.006-.006-.627a1.541,1.541,0,0,1-.042-.355,1.755,1.755,0,0,0,.01-.19c-.007-.063-.017-.041-.033-.081a1.152,1.152,0,0,1-.052-.507c.01-.2.034-.4.049-.607.006-.1.011-.2.008-.3a1.618,1.618,0,0,1-.027-.243l.105-.774-.071,0,.042-.918.031-.706c-.009-.049-.025-.042-.04-.037s-.026.013-.026-.037l.081-.209-.072,0,0-.071.086-.35-.071,0,.093-2.049-.07,0,.08-.208-.071,0,.029-.634.072,0c.033-.113-.064-.133-.065-.143a.927.927,0,0,0,.09-.421l-.071,0,.1-.634a7.965,7.965,0,0,1,.156-1.833l.015-.352.145-.064c.014-.3.022-.6.05-.9,0-.023.006-.043.01-.065a.379.379,0,0,1,.09-.137c.126-.144.071-.367.04-.543-.01-.053-.14-.522-.092-.546l.144-.064c.08-.079.081-.066.1-.054s.04.018.114-.007l0-.072a1.117,1.117,0,0,1,.688.05,2.187,2.187,0,0,1,.555.336c.078.054.153.108.229.165s.2,0,.286.062a.559.559,0,0,0,.126.069.706.706,0,0,0,.109.022l.286.042a.218.218,0,0,1,.078.019c.054.03.085.147.12.2.018.027.132.216.16.217l.071,0-.007.141c.428.047.7.256.674.739l-.071,0a.513.513,0,0,0,.053.428l.212.009,0,.071a.742.742,0,0,0,.343.228c.016.1.117.613.254.58l-.014.418.066.009a1.583,1.583,0,0,0,.121.422l.1.307-.038.185.06.017.024.127a2.789,2.789,0,0,1,.014.649l.071,0-.01.212.071,0-.039.847.071,0c.033.169-.084.182-.084.279l.071,0-.014.306c-.006.1-.029.106-.074.189a.114.114,0,0,0,0,.11.668.668,0,0,0,.055.06c.048.064-.011.306-.017.387-.011.152-.024.3-.033.458a5.746,5.746,0,0,0,0,.931c0,.035.007.072.011.109a5.564,5.564,0,0,1-.013.916l.07,0a1.466,1.466,0,0,1-.069.274.288.288,0,0,0,0,.271.256.256,0,0,1,.038.066.079.079,0,0,1-.071.094l.028.919-.07,0-.019.424-.071,0c-.022.183.188.385.112.642l-.07,0-.023.494c.01.048.025.042.038.037s.024-.013.03.038a6.62,6.62,0,0,1-.017,1.147c-.016.339,0,.68-.033,1.019s-.076.673-.092,1.008l.065.009-.008.277.066.009-.007.276.064.01c-.015.4-.033.8-.052,1.2l.071,0a3.538,3.538,0,0,1-.026,1.024c-.018.2-.039.4-.066.6-.01.073-.021.15-.037.223-.022.1-.11.115-.135.209a.454.454,0,0,1-.046.156.554.554,0,0,1-.119.093c-.039.033-.064.1-.03.133a.087.087,0,0,0-.087.048.443.443,0,0,0-.032.1c-.046.169-.2.2-.282.33-.053.08-.051.137-.133.2s-.2.142-.292.212l-.078.139-.145.064c-.175.3.15.425-.375.478C88.059,123.09,88.008,123.107,87.943,123.124Zm-25.448-.686c-.151.07-.13.108-.359.125l.006-.142-.478-.374c-.159-.218-.069-.335-.405-.443a2.935,2.935,0,0,1-.109.766.236.236,0,0,1-.223-.149.869.869,0,0,0-.032-.1.084.084,0,0,0-.08-.05l.008-.276-.065-.009v-.135l-.064-.007a.549.549,0,0,0-.031-.25,1.273,1.273,0,0,0-.137-.31.436.436,0,0,1-.079-.364.066.066,0,0,1-.065-.034.2.2,0,0,1-.023-.073l-.016-.111c-.007-.038-.013-.077-.021-.113s-.026-.1-.042-.144l-.039-.124a1.059,1.059,0,0,1-.045-.328.39.39,0,0,1-.066-.277.881.881,0,0,1-.077-.374,2.844,2.844,0,0,0-.011-.356l-.072,0,.01-.213-.071,0,.01-1.77.08-.208-.071,0a6.462,6.462,0,0,1,.151-1.763l.051-1.13.057-1.272.071,0,.014-.282-.071,0,.105-.773c-.007-.05-.027-.043-.045-.038s-.031.013-.023-.037l.071,0,.048-1.06.2-2.82.071,0a.189.189,0,0,0-.061-.215l.05-1.129.11-.845c-.009-.1-.1-.117-.06-.286a.2.2,0,0,0,.082-.208,8.709,8.709,0,0,1-.133-1.774c.286-.1.636-.213.733-.533l.35.087s.061.213.073.238a1.414,1.414,0,0,0,.125.174,1.237,1.237,0,0,1,.127.579.98.98,0,0,1,.1.511l.071.009,0,.207.063.007,0,.206c.045-.006.081.039.092.084s0,.089.011.133.046.089.092.082l-.008.277c.045-.007.081.038.09.081s0,.09.011.134.046.089.09.084l.2.5.081.2c.045.11.056.3.184.345a.405.405,0,0,1,.136.059.257.257,0,0,1,.061.116,5.229,5.229,0,0,0,.227.71c.064.134.215.3.208.452l-.023.494.07,0,.058.286.206.15.112.642.138.078a.917.917,0,0,1,.023.207l.033.284.119.227a.376.376,0,0,1,.064.28l.065.009-.081.414.063.009.014.2a.773.773,0,0,1,.035.389c0,.038-.024.4-.021.4l.071,0-.033.705-.07,0,0,.07.072,0a6.831,6.831,0,0,1-.245,2.251c-.011.259-.022.515-.037.773-.05-.01-.079.057-.085.109l-.093.735-.073,0a.733.733,0,0,1,.055.422H64.1a10.326,10.326,0,0,0-.127,1.194l-.077,0c-.017.377-.039.753-.048,1.131.008-.026.049-.022.063,0a.1.1,0,0,1,0,.079,2.452,2.452,0,0,0-.1.423c-.009.111.006.229,0,.342l.07,0a2.056,2.056,0,0,1,.016.6,2.222,2.222,0,0,1-.212.652l-.017.041-.014.039a3.369,3.369,0,0,1-.132.37,2.953,2.953,0,0,1-.3.386l-.141-.007,0,.071c-.184.143-.326.342-.584.4Zm111.741-.024c-.208-.332-.644-.2-.747-.672l-.141-.007-.007.142c-.393-.11-.393-.345-.61-.594l-.274-.224.013-.282-.409-.373c-.087-.151.018-.3-.048-.5l-.07,0,.007-.141-.072,0-.121-.431-.07,0c-.007,0-.01-1.312-.011-1.408l-.061-.02.013-.549-.057-.017v-.268l-.058-.018c0-.164.009-.325.017-.486-.14-.565-.127-1.345-.268-1.923l.04-.847a5.535,5.535,0,0,1-.081-1.348l.035-.776a6.549,6.549,0,0,1,.094-2.438l.274-1.694a14.126,14.126,0,0,0,.245-1.573l.072,0,0-.072-.07,0,0-.071.071,0c-.041,0,.307-2.923.353-3.2a16.11,16.11,0,0,1,.351-1.591c.065-.235.164-.454.239-.679a1,1,0,0,0-.031-.577,1.29,1.29,0,0,1,.1-.632c.167-.031.4-.233.642-.113l.132.219.213.01.063.144.142.006,0,.071a.523.523,0,0,0,.348.157c.049.246.137.189.192.434.3.042.312.16.555.238a1.013,1.013,0,0,0,.189.492,5.487,5.487,0,0,1,.261.769,8.045,8.045,0,0,1,.323,1.889,9.559,9.559,0,0,1,.032.958c0,.118-.03.242-.025.358,0,.094.079.227.065.311l-.07,0-.013.283.07,0a.351.351,0,0,0,.035.239l-.275,2.289c-.037.5-.135,1.012-.145,1.505-.026,1.258.048,2.515.135,3.769.043.623.049,1.262.127,1.882.033.255.047.506.061.766.015.279.126.6.113.873l-.045.989-.071,0a9.438,9.438,0,0,1-.156,1.279l-.061.19-.5,1a.546.546,0,0,1-.105.268l-.023.121a.448.448,0,0,1-.216.209l-.007.141-.071,0-.019.424.138.078-.016.354.212.009a1.067,1.067,0,0,1,.112.642,1.538,1.538,0,0,1-.444.049C174.652,122.441,174.431,122.424,174.236,122.414ZM5.052,122.293c-.068,0-.15,0-.262,0-.026-.052-.231-.406-.263-.436l-.143-.006,0-.072-.206-.15-.063-.144-.213-.009c-.01.377.086.333.113.641l-.212-.009c-.1-.169-.307-.219-.409-.372l.007-.142-.2-.151.006-.141-.343-.329c-.076-.072-.217-.157-.2-.278a.113.113,0,0,0,0-.043c-.01-.03-.047-.035-.074-.048a.17.17,0,0,1-.085-.129,1.2,1.2,0,0,0-.023-.157.058.058,0,0,0-.027-.039.047.047,0,0,0-.022,0H2.422c-.045,0-.063-.058-.07-.1l-.033-.214a.182.182,0,0,0-.029-.082.388.388,0,0,0-.068-.054c-.062-.055-.046-.255-.053-.332-.006-.045-.038-.1-.077-.085l0-.133c-.068,0-.092-.087-.1-.153s-.027-.153-.1-.151v-.2l-.061-.015v-.2l-.062-.014v-.2c-.032.011-.063-.026-.065-.063s.014-.07.011-.1-.035-.073-.068-.058c0-.094,0-.185,0-.279a.043.043,0,0,1-.057-.014.133.133,0,0,1-.016-.064l-.039-.492c-.058.044-.07-.071-.069-.1l.013-.249-.063-.014-.006-.134a.041.041,0,0,1-.053-.021.135.135,0,0,1-.009-.064l.015-.342a.043.043,0,0,1-.057-.021.1.1,0,0,1-.008-.065l.015-.343a.042.042,0,0,1-.058-.015.122.122,0,0,1-.009-.067l.013-.271L1.2,115.55l.009-.279a.041.041,0,0,1-.057-.017.116.116,0,0,1-.01-.065l.014-.276A.038.038,0,0,1,1.1,114.9a.114.114,0,0,1-.01-.067l.017-.343-.069-.007,0-.207c-.088,0-.071-.039-.076-.12s-.009-.141-.015-.211c-.011-.153-.026-.3-.05-.454-.053,0-.027-.182-.027-.211,0,.013-.046-.011-.05-.016s-.015-.047-.014-.071c0-.09.009-.182.013-.272l-.061-.009a1.038,1.038,0,0,1-.062-.29c-.007-.126,0-.252-.009-.4a.112.112,0,0,0-.025-.022c-.026-.025-.021-.068-.015-.1s.006-.079-.025-.1a.067.067,0,0,1-.04-.048c0-.089,0-.18.007-.27a.051.051,0,0,0-.007-.032c0-.009-.015-.013-.024-.021-.08-.06.026-.216-.051-.279-.009-.008-.019-.013-.027-.021-.021-.026.011-.256,0-.26l-.063-.013.006-.27a.1.1,0,0,1-.084-.11,4.54,4.54,0,0,0-.076-.608c0-.029-.04-.361-.072-.362a1.3,1.3,0,0,0-.052-.427,1.7,1.7,0,0,0-.048-.5,1.7,1.7,0,0,0-.048-.5A2.21,2.21,0,0,0,0,107.714l.045-.988.057-1.27a2.662,2.662,0,0,0,.03-.635l.071,0,.018-.425.215-.062a3.682,3.682,0,0,1,.057-1.27,14.178,14.178,0,0,1,.1-2.189,2.5,2.5,0,0,1,.5-.048c.052-.19.128-.215.228-.343l.072,0c.062-.1-.032-.288.086-.349l.213.009a.555.555,0,0,0,.2.151,6.561,6.561,0,0,0,.222,1.354,2.013,2.013,0,0,0-.01.469.031.031,0,0,0,.014.025c.008,0,.018,0,.027.006s.015.024.015.038v.1c.032-.014.065.024.066.058s-.011.07-.009.1.035.071.068.057l0,.114c0,.01,0,.022.032.023s.035.025.034.048a.265.265,0,0,0-.007.068c.008.039.044.016.062.03a.329.329,0,0,1,.052.061c.025.033.054.064.076.1s.069.275.074.277l.411.161a.048.048,0,0,1,.011.03c.035.2.071.407.106.611,0-.006.133.009.152.046a.288.288,0,0,1,.018.121.2.2,0,0,0,.022.092.078.078,0,0,0,.079.04l-.01.158a.086.086,0,0,0,0,.038c.011.031.049.039.077.055a.129.129,0,0,1,.046.171l.074.011,0,.136c.048-.014.086.04.09.088.021.187.058.373.092.559l.209.08a.285.285,0,0,1,.134.221c0,.025-.011.053,0,.073s.054.019.08.033c.046.024.039.092.025.142l-.064.245.069.009-.006.161a.1.1,0,0,0,0,.04c.013.027.048.033.077.046a.179.179,0,0,1,.069.208,2.028,2.028,0,0,1-.1.217.115.115,0,0,0-.006.082.048.048,0,0,0,.069.025.44.44,0,0,0-.007.173.386.386,0,0,0,.153.2c.054.045.145.079.171.149a.335.335,0,0,1,.008.131l-.015.283.069.008,0,.137.066.007-.009.278.068.007,0,.137.068.008L4.9,109l.068.008v.136l.068.009-.018.379a.072.072,0,0,0,.007.038c.011.021.037.024.057.033a.139.139,0,0,1,.076.113.392.392,0,0,1-.016.141l.072.01,0,.135a.071.071,0,0,1,.069.042.267.267,0,0,1,.018.085l.022.323c.006.079.086.1.146.133l-.025.564.07,0,.122.431.071,0-.084.28.138.076-.007.142a.266.266,0,0,1,.062.007c.022.018.011.078.013.105l.01.246.018.492c.041-.008.078.031.089.07a.627.627,0,0,1,.013.122.117.117,0,0,0,.061.1.1.1,0,0,1,.029.014.067.067,0,0,1,.021.048l.022.2a.171.171,0,0,0,.022.077.058.058,0,0,0,.069.026l-.021.491.068.008-.009.279a.039.039,0,0,1,.056.015.107.107,0,0,1,.01.063L6.253,115c.066-.007.09.033.088.1a2.747,2.747,0,0,1-.122.68l.069.006,0,.137.068.006c-.008.424-.037.847-.056,1.269a.3.3,0,0,1,.068.008,1.862,1.862,0,0,1-.011.276l-.066,0a.112.112,0,0,0,0,.07.037.037,0,0,1,.053.014.1.1,0,0,1,.009.061l-.019.419a.044.044,0,0,1,.058.021.138.138,0,0,1,.01.069l-.018.339a.043.043,0,0,1,.061.02.117.117,0,0,1,.008.069l-.017.332c.047-.007.08.054.069.1a.45.45,0,0,1-.071.124.117.117,0,0,0,0,.134c.037-.02.061.038.06.078l-.015.28c.041-.019.088.04.062.077,0,0-.053,0-.068.018s0,.087,0,.108c0,.1-.008.195-.013.292l.07,0-.105.775-.07,0-.01.212-.071,0-.007.141-.07,0-.09.42-.219.132-.008.212-.072,0-.3.34A1.491,1.491,0,0,0,5.052,122.293Zm127.072-.157,0-.058-.045-.018-.172-.333-.044-.021v-.2c-.133.01-.109-.23-.127-.319a.463.463,0,0,0-.2-.266l0-.07-.212-.01-.388.761-.141-.007c-.086-.358-.187-.709-.275-1.062a2.436,2.436,0,0,1-.078-.393c-.006-.052-.018-.118-.069-.126l.009-.346-.064-.008c-.013-.354-.017-.706-.025-1.06l-.071,0,.025-.565-.07,0,.04-.918a15.472,15.472,0,0,1,.074-3.181,1.7,1.7,0,0,1,.087-.349l-.071,0,.09-1.976.042-.919-.071,0-.007-1.416.032-.706-.07,0,.034-.776-.07,0,.034-.777-.071,0-.013-1.273.1-2.261.07,0,.055-1.2-.071,0c.033-.211.068-.419.1-.63l-.063-.009.017-.557c-.062,0-.094-.077-.1-.14s-.007-.14-.061-.169l-.072-.158a.568.568,0,0,1-.086-.26l-.071,0c-.021-.142.041-.087.077-.138l.007-.141.712-.109c.032.052.081.185.133.215a.339.339,0,0,0,.148.016.51.51,0,0,1,.061,0l0,.064.134.013.008.068a.1.1,0,0,1,.117.021c.032.027.053.065.085.094a.216.216,0,0,0,.2.045l0,.069.135.013.006.068c0-.055.163.066.171.076.029.031.011.053.052.077a.323.323,0,0,0,.135.009.5.5,0,0,1,.056,0l.266.366.208.08c.011,0,0,.124,0,.134.046-.007.071.049.081.094l.032.138c.024.11.071.157.064.269a.465.465,0,0,0,.053.3c.022.032.049.06.069.093a.115.115,0,0,1,.009.11l.066.011v.135l.063.009c.017.283.025.565.035.847l.071,0-.006.141.137.078-.029.635.137.077-.006.141.071,0-.032.705.07,0,.06.286.07,0c0,.4,0,.8.018,1.2l.065,0,.007.271.1.237v.48l.056.015v.2l.064.01c-.008.211-.015.42-.025.632l.138.078-.007,1.7c.094.406-.087,1.061,0,1.557,0,0,.092,0,.064.143l-.07,0,.04.639-.07,0c-.021.446-.038.893-.065,1.338l-.061,0-.056.834a.425.425,0,0,0,0,.356l-.066.007a3.965,3.965,0,0,1-.092,1.044l-.087.634a1.42,1.42,0,0,0,0,.569l-.068,0-.023.347-.064,0c-.021.377-.038.752-.055,1.126l0,.07-.071,0a.186.186,0,0,0,.061.215c-.025.57-.043,1.125-.013,1.694l-.061,0-.015.129a.228.228,0,0,0-.144.185,1.325,1.325,0,0,1-.052.243.359.359,0,0,1-.071.1.947.947,0,0,1-.132.112l-.326.245a.785.785,0,0,1-.181.113.4.4,0,0,1-.262.016.152.152,0,0,1-.145.124Zm62.647-1.267,0-.072c-.195-.247.026-.488-.322-.721l0-.071-.354-.015-.064-.145-.141-.006c-.068-.047-.08-.227-.2-.222l0,.07-.071,0c-.051.085-.029.282.058.285l0,.071-.142-.006,0-.071c-.283-.2-.135-.266-.258-.578,0,0-.071-.008-.08-.011a.337.337,0,0,0-.109-.292l-.007-.193-.04-.027-.175-.325-.039-.029-.007-.126-.058-.017,0-.2-.058-.018c-.041-.264-.151-.58-.206-.879l-.2-1.114.073-1.624a7.89,7.89,0,0,1,.01-1.767c.013-.271.09-.544.029-.636a2.355,2.355,0,0,0,.109-.845l-.07,0,.034-.777.071,0c.135-.4.015-1.051.135-1.41.148-.437,0-1.191.145-1.621l.1-2.118a10.824,10.824,0,0,0,.183-2.469c.01-.231.01-.468.035-.7,0-.035.072-.157.084-.221.031-.163.054-.327.088-.49a8.913,8.913,0,0,1,.247-.924c.082-.256.177-.509.274-.762a5.818,5.818,0,0,0,.28-.751c.041-.184,0-.371.046-.557a.089.089,0,0,1,.066,0l.03-.635a.757.757,0,0,0,.148-.135l.492.094.928,1.386.282.013.062.215.34.3.122.43a2.935,2.935,0,0,1,.515.441,6.452,6.452,0,0,1,.316.565l.037.031.006.126.057.019v.266l.06.019,0,.2.058.018c-.03.182-.054.367-.093.546a.173.173,0,0,0,.072.01c0,.05-.008.042-.024.034s-.038-.015-.049.033l-.047,1.06-.072,0-.048,1.058-.07,0-.021.424c-.192.553-.243,1.322-.44,1.89l-.121,1.126c0-.013-.063,0-.064,0,0,.109-.089.168-.1.26,0,.053.063.072.063.1a2.129,2.129,0,0,1-.027.278c-.04.362-.081.726-.121,1.089a4.922,4.922,0,0,1-.192.539,5.043,5.043,0,0,0-.1.654c-.04.357-.1.715-.143,1.074-.064.516-.116,1.035-.183,1.551a7.094,7.094,0,0,1-.237,1.475l.071,0-.1.563.07,0a3.868,3.868,0,0,1-.166.559l.035.781s-.092-.006-.078.137l.071,0-.093.491.07,0-.009.213.07,0-.021.495.07,0-.013.284.071,0-.01.213.071,0,.109.712.071,0a3.6,3.6,0,0,1-.048,1.059l-.293.2,0,.071-.142-.007,0,.07a1.079,1.079,0,0,1-.307.034A.881.881,0,0,1,194.771,120.869Zm-172.96-.7a1.043,1.043,0,0,1-.213.061c-.014-.019.013-.054-.024-.072a.659.659,0,0,1-.187-.025v-.051a4.086,4.086,0,0,1-.424.048.334.334,0,0,1,0-.068.943.943,0,0,1-.338-.37l.013-.283c-.023-.055-.092,0-.132-.218l-.141-.007.05.427.071,0a.679.679,0,0,1,.055.356l-.283-.013c-.234-.481-.818-.785-.932-1.316-.07-.022-.16-.024-.177-.112-.006-.038-.009-.081-.041-.1l-.033-.016a.113.113,0,0,1-.037-.093l-.016-.211a.227.227,0,0,0-.017-.084.074.074,0,0,0-.07-.042l0-.2a.044.044,0,0,1-.056-.021.132.132,0,0,1-.009-.066l.009-.2-.065-.009a2.11,2.11,0,0,0-.013-.36c-.027-.105-.05-.211-.07-.318-.04-.227-.068-.455-.088-.684-.042-.478-.06-.959-.106-1.436a5.931,5.931,0,0,0-.128-.826l.048-1.059-.071,0,.052-1.13-.071,0,.03-.635-.071,0,.039-.849-.071,0c-.034-.171.079-.182.084-.279l-.071,0-.007-1.416.049-1.06c-.1-.414.1-1.092,0-1.557a17.431,17.431,0,0,1,.066-3.039l.042-.918s-.093,0-.065-.144l.072,0,.025-.564.07,0,.068-1.482a6.179,6.179,0,0,1,.1-.631l-.069-.007,0-.141c0,.039-.084-.051-.088-.061a1.234,1.234,0,0,1-.048-.175l-.116-.412a3.411,3.411,0,0,1,.448-.174c.08-.025.5-.167.549-.054a.082.082,0,0,1,0,.062l.14.006c.011.021-.009.047,0,.066a.046.046,0,0,0,.026.016l.153.057c.008,0,.017.007.026.031a.72.72,0,0,1-.007.085c0,.063.1.105.139.143s.09.089.136.132a.9.9,0,0,0,.413.218l-.007.142.425.018,0,.072a.2.2,0,0,0,.215-.062l.351.087c.082.5.49.563.589,1.018l.28.082c.007,0,.04.168.048.188.022.062.049.119.076.177a1.505,1.505,0,0,1,.122.395.04.04,0,0,0,.009.025.054.054,0,0,0,.026.007l.174.009,0,.068.068.008-.011.2a.116.116,0,0,0,.015.084c.029.038.1.035.118.08s-.023.1.009.135a.1.1,0,0,0,.046.023.143.143,0,0,1,.072.188l.072.01-.065.209a.114.114,0,0,0-.008.061c.01.036.13.058.128.084l-.018.424.07,0-.087.35s.1.048.062.215a.186.186,0,0,0-.08.208l.138.077-.021.424.071,0c.089.372-.068,1.052.007,1.416l-.119,1.055.071,0c.044.191-.087.357-.089.419l.07,0-.015.351.07,0-.035.777-.071,0-.041.919a.1.1,0,0,1,.06.141h-.062c.015.118.03.238.048.356-.011-.017-.042-.011-.055.007a.1.1,0,0,0-.009.062l.04.495a.045.045,0,0,0-.063.013.126.126,0,0,0-.014.069l0,.2a.035.035,0,0,1,.053.013.108.108,0,0,1,.006.063l-.1.769.069.007a.191.191,0,0,1-.006.068c-.022,0-.046,0-.066,0-.009.164-.016.329-.022.492l.07,0-.019.424.072,0,0,.071c-.221.444.025,1.219-.151,1.762l-.07,0-.019.424.07,0-.118,1.056.07,0-.022.5-.071,0,0,.071.07,0-.019.424-.07,0-.014.283.071,0-.006.142.071,0-.042.918a12.046,12.046,0,0,1,.045,2.126c-.071.033-.13.126-.148.135l-.356.053-.078.138-.292.2c-.15.188-.093.275-.37.336Zm19.406-.04c.042,0-.058-.111-.062-.113-.053-.043-.1-.086-.151-.134a1.748,1.748,0,0,1-.248-.343,2.8,2.8,0,0,1-.161-.32c-.034-.078-.064-.272-.179-.245-.147.033-.2.292-.222.412-.014.068-.033.38-.105.4a.1.1,0,0,1-.058-.007c-.072-.023-.184-.037-.221-.105a1.417,1.417,0,0,1-.072-.331l-.155-.7c-.006-.029-.094-.037-.114-.062a.188.188,0,0,1-.017-.153l-.068-.009.01-.348-.065-.008,0-.207-.065-.008.007-.277-.071-.014c.045.009,0-.269-.009-.294a.526.526,0,0,1-.053-.092.579.579,0,0,1,0-.141l-.023-.74-.066-.007.01-.35a.041.041,0,0,1-.055-.016.123.123,0,0,1-.01-.064l.016-.347a.036.036,0,0,1-.05-.013.092.092,0,0,1-.008-.057l.014-.559a.476.476,0,0,1-.042-.433c-.022.053-.073-.065-.072-.082l.035-.774a.04.04,0,0,1-.058-.015.118.118,0,0,1-.009-.066q.014-.311.03-.621a.065.065,0,0,1-.064-.043.188.188,0,0,1-.008-.08l.039-.66-.073-.007c.027,0,.049-1.1.054-1.2-.016.015-.046,0-.057-.015a.125.125,0,0,1-.01-.065l.037-.837a.045.045,0,0,1-.057-.022.121.121,0,0,1-.008-.066l.025-.541c-.05.007-.069-.063-.066-.113l.033-.745c-.057.017-.069-.046-.066-.086l.025-.556c-.118,0-.071-.18-.072-.268l0-.366c0-.237-.016-.477-.006-.715l.033-.706a6.007,6.007,0,0,1,.074-1.624l.031-.705c0-.011-.052-.045-.058-.06-.027-.053,0-.108.065-.082l.023-.492a.04.04,0,0,0,.06-.011.142.142,0,0,0,.016-.066l.019-.482a.088.088,0,0,0,.052-.014.035.035,0,0,0,.013-.046c-.036-.055-.111-.037-.03-.113.1-.094.063-.354.066-.48a.129.129,0,0,0-.022-.095c0-.006-.01,0-.017,0s-.024.008-.026-.032l.072,0c-.009-.328-.022-.659-.026-.989h.069l.015-.279h.069l-.039-.422a.119.119,0,0,0-.016-.062.042.042,0,0,0-.057-.011.877.877,0,0,0,0-.183l.01-.243a1.822,1.822,0,0,1,1.006-.308c.022,0,.082.148.1.166a.322.322,0,0,0,.181.11.074.074,0,0,1,.051.019c.022.025,0,.064,0,.1a.126.126,0,0,0,.069.1.419.419,0,0,1,.1.07.265.265,0,0,1,.024.231.362.362,0,0,1,.171.115.91.91,0,0,1,.287.419.107.107,0,0,0,.025.051.168.168,0,0,0,.031.018,2.2,2.2,0,0,1,.4.226c.074.053.11.066.112.157a1.714,1.714,0,0,0,.021.219,2.094,2.094,0,0,0,.1.355,1.107,1.107,0,0,1,.116.357c0,.169-.015.346-.023.517a.06.06,0,0,0,.007.04c.011.017.033.019.05.026.09.03.117.144.111.24a.544.544,0,0,0,.011.282.038.038,0,0,0,.022.024.042.042,0,0,0,.021,0,.068.068,0,0,1,.015,0c.024,0,.035.031.044.054a.7.7,0,0,1,.025.259.073.073,0,0,0,0,.035c.009.016.032.018.052.023.187.037.238.419.268.565a8.023,8.023,0,0,1,.1.876.09.09,0,0,0,.011.039c.016.019.041.018.069.018a.112.112,0,0,1,.062.008l-.01.294a.091.091,0,0,0,.014.061c.018.022.05.021.077.033a.119.119,0,0,1,.042.116.279.279,0,0,0,0,.131.044.044,0,0,1,.054.027.134.134,0,0,1,.006.068l-.017.192a.244.244,0,0,0,.011.125.42.42,0,0,0,.09.095c.084.079.052.256.05.357q0,.247,0,.491l.081.007-.011.35a.04.04,0,0,1,.056.013.116.116,0,0,1,.01.065l-.021.418.069.007-.009.28a.04.04,0,0,1,.057.016.119.119,0,0,1,.01.066l-.014.275a.041.041,0,0,1,.058.015.118.118,0,0,1,.01.066l-.025.485c-.039-.023-.092.034-.066.071a.036.036,0,0,1,.054.011.091.091,0,0,1,.008.061l-.017.349a.466.466,0,0,0,.071.006.19.19,0,0,1-.08.208l.038.71h.041c.035.011.014,0,.024.034s-.022.112-.027.146l-.057.31.065.008-.011.348c0-.033.077.054.082.068a.514.514,0,0,1,.006.094c0,.068,0,.135,0,.2,0,.168-.013.334-.026.5-.026.317-.061.638-.118.952a1.356,1.356,0,0,1-.038.164l-.016.354.071,0-.1.562s.089.008.063.145l-.07,0,.024.545a1.11,1.11,0,0,1,0,.246c-.016.089-.046.179-.069.267a.042.042,0,0,1,.054.021.119.119,0,0,1,.008.063l-.045.908h-.066l.055.209a.1.1,0,0,0-.1.076.323.323,0,0,0,0,.133,2.762,2.762,0,0,1,.051.685l-.09.731.061.215-.071,0a1.087,1.087,0,0,1-.086.328c-.06.087-.183.092-.214.208-.01.033-.009.07-.022.1a.263.263,0,0,1-.07.1l-.169.172-.166.165c-.055.054-.114.107-.172.16l-.055.05a.652.652,0,0,0-.185.257c-.006.02,0,.026-.008.048a.439.439,0,0,1-.093.07l-.171.13c-.068.05-.168.094-.169.191Zm69.631-.589-.66-1.02-.142-.006.007-.142a.658.658,0,0,1-.267-.366l-.071,0-.009.213-.144.063c-.044.116.062.134.064.145a.532.532,0,0,1-.087.349l-.138-.077-.061-.215c-.007-.024-.085-.037-.105-.058a.592.592,0,0,1-.071-.173c-.055-.137-.11-.274-.169-.41-.041-.1-.086-.192-.13-.286-.071-.148-.145-.294-.221-.44-.053-.1-.193-.269-.2-.383l-.008-.269-.064-.009-.015-.2a1.119,1.119,0,0,1-.116-.477c0-.124,0-.276-.11-.331a2.576,2.576,0,0,1-.046-.628l-.063-.01.011-.417-.063-.009.011-.418-.063-.01.021-.63-.063-.008c0-.085.044-.278-.061-.283l.048-1.06-.071,0,.071-1.553-.071,0v-1.556l.035-.777-.072,0,.04-.847-.071,0,.023-.494.07,0,0-.07c.111-.523,0-1.2.144-1.622.03-.393.057-.789.086-1.182a5.847,5.847,0,0,1,.13-1.133l.082-.631a.864.864,0,0,0,.084-.347.776.776,0,0,0,.072-.428l.062-.011-.034-.413.055-.01c.038-.467.049-.937.071-1.406l.07,0,.01-.211.07,0,.226-1.829a1.6,1.6,0,0,1,.25-.182,1.9,1.9,0,0,1,.523.085.263.263,0,0,1,.1.027c.057.033.1.147.134.2a.727.727,0,0,1,.164.292c.025.153.062.3.1.454l.082.317.078.006.011.268.221.46c0,.137.008.274,0,.412l.071,0,.057.286.071,0c.007,0,.045.524.049.565l.063.009.019.2.143.386.024.126.064.009c.013.2.019.4.039.593a.186.186,0,0,0,.055.144c.018.016.064.019.076.039.024.037.006.105,0,.149l.07,0-.018.424.206.15-.023.5c0,.022.088.024.064.144l-.071,0-.013.283.071,0-.013.283.137.076-.042.919-.086,1.906-.07,0-.023.493.073,3.046-.07,0c-.029.119.06.122.064.143l-.052,1.13-.071,0-.05,1.13-.072,0-.022.35-.061,0-.016.2-.066,0,0,.064.065.01-.038.839-.062.006a2.081,2.081,0,0,0,.037.766l-.07.014.017.2a4.623,4.623,0,0,0-.076.924h-.057a9.033,9.033,0,0,1,.081.992l-.07,0c-.087.287.126.42.185.575l-.009.212.07,0a1.145,1.145,0,0,1-.032.706l-.071,0-.013.283-.07,0c-.084.077,0,.027-.145.064l-.018.425ZM214.1,114.6a1.041,1.041,0,0,1-.42-.09l-.106-.783-.138-.077.01-.213-.071,0c-.077-.085,0-.029-.137-.078l-.026.565a.78.78,0,0,1-.285.058l0-.071-.07,0-.074-1.489-.071,0c-.027-.182-.119-.342-.125-.493l-.058-.018-.026-.26c-.057-.251-.122-.5-.193-.747a3.635,3.635,0,0,1,.007-.473.206.206,0,0,0-.079-.011l-.068-1.63a11.684,11.684,0,0,1-.206-2.244c-.041-.982-.1-1.957-.055-2.934l.071,0,0-.071-.07,0,.16-3.53-.071,0,.046-.989-.071,0,.038-.847-.07,0,0-.07c0-.166.144-.258.095-.492l-.072,0,.055-1.2c.008-.216-.111-.831-.1-.853l.219-.133.007-.141.494.023.537.662a1.061,1.061,0,0,1,.134.008c.041.23.341.5.484.695a2.366,2.366,0,0,1,.2.3,2.338,2.338,0,0,1,.191.7,1.484,1.484,0,0,0,.055.321c.023.051.088.048.113.108s.016.679.037.679l.07,0,.053.427.07,0,.058.285.07,0-.013.282c0-.01.063.007.065.008a4.628,4.628,0,0,0,.2.88c.073.362.131.728.188,1.093.137.889.238,1.757.334,2.651l.221,1.157a7.771,7.771,0,0,1,.276,1.77l.14.077-.017.353c0-.008.07.009.078.011-.014.111-.014.226-.017.338l.055.018-.009.826c.223.57-.071,1.139-.1,1.709-.008.165.039,1.035-.113,1.063l-.027.336-.061.013-.026.338-.06.013-.063,1.114-.06.013-.024.266-.058.015c0,.077,0,.122-.079.137a.733.733,0,0,0-.01.133l-.515.4,0,.071-.427.051,0,.071a.582.582,0,0,1-.43.122ZM94.324,87.523c-.016-.016-.021-.081-.033-.105a1.331,1.331,0,0,0-.1-.161c-.04-.054-.1-.07-.146-.113a.6.6,0,0,1-.133-.252.324.324,0,0,0-.07-.124c-.039-.035-.09-.024-.14-.039-.159-.049-.153-.217-.208-.34a.159.159,0,0,0-.227-.046c-.047.031-.063.064-.042.106s.073.086.08.158a.679.679,0,0,1-.019.209l-.029.14a.1.1,0,0,1-.01.031.1.1,0,0,1-.034.027l-.153.09a.15.15,0,0,1-.048.021.14.14,0,0,1-.088-.039c-.032-.023-.064-.047-.1-.034,0-.06.006-.119.006-.2a.04.04,0,0,0-.026-.017,1.133,1.133,0,0,1-.278-.128.142.142,0,0,1-.037-.032.107.107,0,0,1-.014-.046l-.058-.359c-.014-.088-.009-.215-.094-.269a.568.568,0,0,1-.09-.052.316.316,0,0,1-.074-.1,1.625,1.625,0,0,1-.142-.422c-.009-.047-.028-.1-.074-.11-.008,0-.018,0-.034-.026a2.391,2.391,0,0,0-.1-.395.85.85,0,0,0-.046-.105.223.223,0,0,1-.026-.058.194.194,0,0,1,0-.052c0-.084,0-.165,0-.247s0-.184,0-.276a1.615,1.615,0,0,1-.006-.223,2.789,2.789,0,0,0,.063-.531l.07,0,.029-.634.072,0,.015-.353.071,0a.118.118,0,0,0-.064-.143,3.7,3.7,0,0,1,.124-.8c.094-.243.129-.5.221-.745.024-.064.053-.124.073-.189a1.816,1.816,0,0,0,.045-.26c.013-.093.049-.184.07-.272.014-.059.1-.607.094-.607l.07,0,.335-2.674.7-3.01.125-1.2.071,0a.194.194,0,0,0-.061-.215.192.192,0,0,1,.08-.208c.014-.3.024-.61.045-.916.038.025.071-.039.073-.085l.014-.333.068-.006.016-.206c.035.027.071-.037.072-.081l.015-.34c.036.03.073-.034.074-.078l.018-.41.068,0c.023-.351.034-.7.051-1.055l.07,0,.023-.493.071,0,.022-.494.071,0,.019-.424.071,0,.007-.141.217-.132.09-.421.288-.128.09-.42.219-.132.164-.488.07,0,.078-.137.141.006,0-.071a1.871,1.871,0,0,0,.292-.2,3.218,3.218,0,0,0,.625-.047,2.03,2.03,0,0,1,.584-.04c.038.2.118.183.13.218-.01.233-.029.469-.027.7l.064.01,0,.2.065.01v.141c.029-.024.072.01.086.045s.023.079.057.1a.119.119,0,0,0,.057.006.107.107,0,0,1,.063.01c.045.03.022.1.041.147s.1.071.138.114a.406.406,0,0,1,.069.169c.031.093.1.082.16.129.032.023.112.165.133.167l.071,0c.064.113-.029.206.057.286l.142.006.064.144.208.08c.1.2-.078.483.042.64.077.084,0,.027.138.076a3.231,3.231,0,0,0,.093,1.067l0,.07-.07,0c-.127.556.048,1.252-.074,1.624l-.023.5-.071,0-.013.283-.07,0-.014,1.129-.007.553c0,.092,0,.184,0,.276s.019.119-.057.166a.057.057,0,0,0-.018.045l-.019.442c-.039-.027-.073.038-.076.084l-.027.617-.067,0s-.017.187-.02.2c-.041-.015-.066.045-.069.089l-.014.259-.063.01-.019.2c-.05-.006-.073.058-.079.108l-.1.808-.068,0-.022.345c0-.01-.041.015-.043.017a.13.13,0,0,0-.026.057c-.015.046-.024.1-.036.142a1.564,1.564,0,0,0-.021.373c0,.076,0,.151,0,.227-.006.124,0,.248-.014.372s-.033.257-.04.388a1.725,1.725,0,0,1-.019.254,2.24,2.24,0,0,1-.068.22,2.717,2.717,0,0,0-.064.586,4.019,4.019,0,0,1-.128.591c-.032.127-.055.254-.094.38a3.375,3.375,0,0,1-.142.321,5.525,5.525,0,0,0-.144.589,1.564,1.564,0,0,1-.144.283,2.4,2.4,0,0,0-.118.317,1.915,1.915,0,0,1-.135.408,1.863,1.863,0,0,0-.157.483l-.172.588-.341,1.177-.22.132-.317.763a.957.957,0,0,0-.175.179c-.039.046-.076.091-.117.135s-.081.058-.11.095a.162.162,0,0,0-.034.069c-.009.039-.009.079-.023.121-.023.066-.1.072-.143.124a1.565,1.565,0,0,0-.191.243c-.073.129-.105.284-.238.372a1.167,1.167,0,0,1-.267.14.206.206,0,0,0-.133.1c-.031.055-.032.111-.09.147a.232.232,0,0,1-.1.032A.059.059,0,0,1,94.324,87.523Zm32.13-1.62,0-.071c-.167-.171-.046-.159-.126-.359l-.07,0,.007-.141-.072,0,.007-.141-.07,0,.009-.213-.07,0,.008-.213-.07,0-.058-.286-.2-.15-.055-.357-.071,0-.185-.576c-.145.034-.061-.011-.145.065l-.071,0c.045.3.2,1.756-.019,1.98a1.389,1.389,0,0,0-.183-.646l.01-.212-.139-.077.01-.212-.071,0,.016-.353s-.076.014-.064-.144l.071,0,0-.07-.07,0-.11-.712-.071,0-.04-.639-.072,0,.007-.141-.071,0,.09-.421-.07,0,.063-1.412.071,0,.013-.282.071,0,.031-.706a7.359,7.359,0,0,0,.229-1.9,4.558,4.558,0,0,0-.086-1.206l.034-.776-.07,0,.027-.636-.07,0,.05-1.13a7.49,7.49,0,0,1,.017-1.91l.07,0,.033-.707.07,0,.02-.424.071,0,.029-.635.071,0,.013-.282.071,0,.015-.354.071,0,.007-.142.071,0,.016-.354.071,0,.006-.142.144-.064.3-1.827.141.007a15.393,15.393,0,0,0,.324-2.461c.176-.1.119-.2.226-.274l.141.006,0-.07.292-.2.01-.212.07,0,.01-.212.07,0,.081-.208c.141.047.062,0,.137.078l.209.08.036.78c-.009.048-.026.04-.042.033s-.029-.016-.032.034l.071,0-.029.635.07,0-.009.212.07,0-.018.424.071,0,.105.783-.073.066.139.078a.924.924,0,0,1,.189.5l.142.007a1.292,1.292,0,0,0,.251.719l-.007.141.07,0-.006.142.071,0-.03.634.351.087.061.215c.143.18-.035.514.034.781l.071,0,.055.356c.171.048.153.081.276.155a1.147,1.147,0,0,0-.1.562l.071,0-.019.424-.071,0-.009.212-.071,0,.093,1.066.072,0-.01.212.071,0-.032.706.07,0,.035.781.072,0-.09.42.07,0-.025.564.071,0-.019.424.07,0-.1.7.071,0-.023.493c0,.05.023.043.039.038s.031-.013.029.038l-.07,0-.016.353-.07,0-.122,1.127-.071,0-.16.418-.071,0-.007.142-.07,0-.007.142-.071,0-.173.7-.071,0-.16.418-.071,0-.007.141-.07,0-.007.141-.071,0-.006.141-.071,0-.014.282-.07,0-.084.28-.07,0-.01.213-.07,0-.085.28-.071,0-.082.279-.145.064-.01.212-.07,0-.006.142-.072,0-.093.491-.071,0-.009.211-.219.133-.006.141-.07,0-.108.773.139.078c.112.315-.132.675-.18.84l.058.286-.219.132-.009.212-.071,0c-.1.16.024.1-.152.206l0,.07ZM108.925,85a3.984,3.984,0,0,1-.314-.864c-.082.056-.01-.009-.073.068l-.072,0-.013.282-.07,0-.006.141-.072,0-.08.208-.212-.009.006-.142-.42-.089a6.979,6.979,0,0,0,.084-1.836l.045-.988-.07,0,.068-1.482q.117-1.834.236-3.668l.171-3.743c.112-.338.006-.955.133-1.338l.07,0,.036-.776s.1-.022.08-.208l-.07,0c0-.049.016-.042.03-.034s.032.016.043-.033l.019-.424-.071,0a.193.193,0,0,1,.08-.209l-.052-.426.071,0,0-.07-.072,0,.059-1.271-.072,0,.013-.283a.2.2,0,0,0,.082-.208l-.072,0,.123-1.126.141-3.108a4.5,4.5,0,0,0-.038-.71l.05-1.13.072,0,0-.071-.07,0a.2.2,0,0,1,.08-.209l-.058-.285a.191.191,0,0,0,.08-.208l-.07,0,.038-.847a11.971,11.971,0,0,0,0-1.486q.091-1.2.18-2.4l.07,0,.007-.142.071,0c.147-.37-.082-.646-.1-.923a.861.861,0,0,1,.715-.181c.118.138.179.133.26.126a.422.422,0,0,1,.229.038l0,.072.142.006,0,.07.141.007.132.219.42.089.133.219.7.1.4.655.427-.053,0,.072.071,0-.01.212.139.077.2.293.072,0-.007.142.07,0a.547.547,0,0,1,.128.288l.211.08.166,1,.274.225.356,1.5c.038.168-.09.187-.084.278l.071,0-.025.564-.071,0,0,.07.07,0-.007.141.071,0-.016.354s.082-.014.065.143a2.16,2.16,0,0,0-.108.774l.071,0-.035.777c.007.048.029.041.046.035s.03-.011.022.038l-.07,0-.021.423.065.145-.071,0c-.031.183.061.215.061.215l-.105.775-.07,0,.022,1.062-.07,0-.017.354-.07,0-.021.424-.07,0-.035.776-.07,0-.023.493-.071,0,.041.639-.07,0,.062.215-.072,0-.023.495s-.088-.011-.076.137l.07,0-.013.283-.07,0,.048.5-.071,0-.019.424-.071,0-.013.282-.071,0-.039.847-.07,0,0,.07a.192.192,0,0,1,.061.216l-.07,0-.017.354-.07,0-.007.141-.071,0-.093.491-.071,0,.053.427-.072,0-.018.424-.071,0,.061.215-.07,0-.007.141-.071,0-.164,2.045-.07,0-.02.424-.071,0-.023.493-.07,0c-.051.163.073.2.057.285l-.071,0-.018.423-.071,0,.058.286-.072,0-.016.353-.07,0-.013.282-.071,0-.11.845-.07,0-.007.142-.071,0-.042.918c.008.048.029.041.045.035s.03-.011.023.038l-.07,0-.029.635-.145.064-.1.633-.07,0-.033.706.072,0-.1.7-.071,0-.009.212-.145.064-.007.142-.07,0-.084.28-.293.2-.076.138-.142-.006-.151.2a.36.36,0,0,1-.219.041c-.086-.008-.133-.016-.219.222l-.141-.006-.077.138ZM46.761,67.475a.434.434,0,0,1-.027-.117c-.011-.04-.054-.078-.088-.056a.143.143,0,0,0-.064-.184.147.147,0,0,1-.055-.033.09.09,0,0,1-.01-.055l.013-.294-.065-.01v-.134l-.063-.01c.026-.116.055-.231.084-.346a12.394,12.394,0,0,1,.022-2.052,1.831,1.831,0,0,0-.057-.286l.07,0c.01,0,.167-2.207.181-2.393l.07-.006s.03-.639.032-.7c.04-.375.08-.751.124-1.126.037.029.073-.034.077-.078l.134-1.467c.039.026.073-.04.077-.087l.019-.474.068,0c.009,0,.031-.589.032-.632.048,0,.088-.447.092-.492a5.658,5.658,0,0,1,.219-.894l.032-.119c.055-.206.11-.413.165-.618.011-.041.129-.395.174-.394l.016-.353a.473.473,0,0,0,.077-.138c.032-.069.065-.138.077-.137l.108-.773a.611.611,0,0,0,.082-.28c.024,0,.078-.137.08-.208a.9.9,0,0,0,.088-.35l.07,0,.006-.143.072,0c.029-.192.058-.383.092-.575a.092.092,0,0,1,.021-.055.035.035,0,0,1,.053,0l.018-.209A.412.412,0,0,0,48.947,51l.066,0a.425.425,0,0,1,.08-.208l.011-.134c.023,0,.076-.14.08-.208l.066,0c0-.063-.014-.157.077-.133.175-.395.278-.844.414-1.257,0,.011.072-.018.08-.025.039-.034.033-.112.042-.159s.05-.105.1-.094l.013-.239c0-.01,0-.023.037-.032s.048-.064.041-.105,0-.1.064-.113a.041.041,0,0,0,.013-.024.589.589,0,0,0,0-.142.137.137,0,0,1,.057-.122c.027-.016.065-.016.087-.04.043-.05-.032-.18.084-.148a1.794,1.794,0,0,0,.021-.361c.026-.1.073-.111.082-.23a.044.044,0,0,1,.011-.032c.013-.011.033-.008.048-.017.038-.023-.009-.1.032-.122a.16.16,0,0,1,.032-.008c.025-.008.034-.04.033-.065a.369.369,0,0,1-.007-.079c.007-.056.061-.09.1-.125a.131.131,0,0,0,.06-.14l.068-.011a.182.182,0,0,1,.042-.167c.033-.037.08-.061.1-.1a.442.442,0,0,0,.018-.1c.021-.09.108-.146.179-.2.032-.024.258-.136.26-.172l.006-.141.219-.133.082-.278.145-.065.08-.208.293-.2.086-.35.071,0,.151-.2.272.223,0-.07c.394-.081.449-.415.87-.456a.475.475,0,0,0,.2.222c.021-.353.092-.416.444-.405l0,.07a.1.1,0,0,0,.145-.063l.42.089.132.219.071,0c0,.068-.007.135-.009.2a.1.1,0,0,1,.086.077.386.386,0,0,1,.01.12.233.233,0,0,0,.1.216c.022.01.048.015.063.035s-.008.077,0,.114.05.057.086.072c.088.04.056.121.116.173l.341.3-.013.283c0,.021-.132.113-.15.151-.057.115-.052.269-.1.39a1.188,1.188,0,0,0-.144.417.255.255,0,0,1-.019.128.569.569,0,0,0-.062.195,1.308,1.308,0,0,0-.089.287.376.376,0,0,1-.018.144c-.014.025-.034.047-.049.071a.357.357,0,0,0-.035.131l-.082.67c-.035-.031-.072.033-.076.079l-.019.409-.086.009.066.34a.176.176,0,0,1,0,.1A.191.191,0,0,1,55,49.3a.579.579,0,0,0-.119.285c-.006.042-.006.085-.014.126a.938.938,0,0,1-.041.133,3.675,3.675,0,0,0-.128.806.037.037,0,0,1-.013.03.051.051,0,0,1-.026,0,.035.035,0,0,0-.024,0,.045.045,0,0,0-.013.032l-.011.2c0,.015,0,.034-.016.04a.042.042,0,0,1-.021,0,.033.033,0,0,0-.023.006,1.162,1.162,0,0,0-.025.2c-.052,0-.071.064-.074.116l-.009.237c-.038-.015-.065.036-.071.074-.009.078-.039.846-.04.846-.024,0-.076.09-.078.137-.023,0-.077.139-.08.209a4.764,4.764,0,0,0-.109.844c-.023,0-.077.139-.08.209-.069,0-.1.559-.1.631-.076-.015-.077.1-.074.156.007.1.051.388-.073.433a.175.175,0,0,0-.078.04.106.106,0,0,0-.018.073,2.221,2.221,0,0,0,0,.276.533.533,0,0,0,.059.011c.041.068-.034.141-.062.214a.336.336,0,0,0-.018.113l-.038.706a.269.269,0,0,0-.072.29c-.049-.026-.085.05-.087.105l-.009.377c0,.05-.023.093-.074.086-.009.051-.032.633-.033.633l-.07,0a5.448,5.448,0,0,1,.034.708c-.049-.014-.07.007-.072.055a.626.626,0,0,1-.006.191c-.017.036-.066.026-.077.073a.568.568,0,0,0,0,.1.077.077,0,0,1-.071.079.026.026,0,0,0-.009.024c-.015.454-.015.924-.064,1.377-.034-.027-.073.031-.079.073-.011.1-.063.8-.163.769.015.089.029.18.041.269l-.056.02a1.08,1.08,0,0,1,.061.335.088.088,0,0,1-.015.057c-.013.017-.037.022-.053.035-.032.029-.023.078-.023.12s-.031.095-.07.081l.031.7c-.038-.024-.071.039-.073.085-.008.207-.017.414-.026.62l.071,0c.014.119-.073.118-.078.137L52.5,64.6l-.07,0c-.015.326-.009.662-.048.984-.1-.012-.061.216-.172.276-.046.026-.105.04-.124.089a.185.185,0,0,1-.011.041c-.023.04-.082.024-.127.035a.132.132,0,0,0-.089.1.408.408,0,0,0,0,.14l-.077.009a.138.138,0,0,1-.084.174.15.15,0,0,0-.05.021.092.092,0,0,0-.019.063l0,.151c0-.035-.088.038-.09.041a.665.665,0,0,0-.06.166l-.286.057c-.011,0-.021-.1-.139-.076l0,.07a1.955,1.955,0,0,0-.593.232.18.18,0,0,1-.2-.124l-.2-.016,0-.067a.48.48,0,0,0-.361.03c-.1.049-.2.134-.3.095-.06-.023-.095-.084-.138-.131s-.121-.082-.172-.042c-.029.023-.039.063-.062.092-.053.068-.156.056-.24.039l-.011.069-.343-.079-.009.061c0-.032-.182.053-.2.069-.038.037-.05.116-.1.14-.069.036-.212-.014-.286-.017l-.411-.017-.01.066-.2,0-.01.065h-.136c.018.052-.047.09-.1.105a.391.391,0,0,1-.107.018A.114.114,0,0,1,46.761,67.475ZM171.15,64.07l.006-.141c-.3-.221-.025-.284-.623-.31-.058.09-.158.278-.363.2l-.065-.145-.211-.009,0-.071-.632-.1,0-.071a1.728,1.728,0,0,1-.356.054c-.1.152-.211.24-.3.411l-.209-.08,0-.071a.808.808,0,0,0-.343-.228L168,63.291l-.071,0,.007-.141-.071,0,.009-.211-.071,0,.01-.212-.071,0-.047-.5-.071,0-.1-.925c-.2-.734-.271-1.677-.457-2.425l.032-.706a10.421,10.421,0,0,1-.139-1.813c-.018-.27-.087-.538-.086-.8,0-.359.009-.714,0-1.076-.019-.423-.037-.848-.056-1.272-.041-.907-.046-1.783,0-2.689l-.072,0,.08-1.766-.07,0,.007-1.7-.071,0,.1-.7a1.581,1.581,0,0,1-.04-.709l.071,0,.013-.282c-.05-.57.023-1.216.491-1.464.245-.228.395-.024.707.032l.379-.548.5-.048,0-.072a1.07,1.07,0,0,1,.64-.04l0,.07a1.082,1.082,0,0,0,.562.1s0-.087.144-.064a.19.19,0,0,0,.209.08c.025-.046.05-.092.077-.137.2.008.576,0,.706.2.016.024.025.054.042.077a.135.135,0,0,0,.149.05l.014.06c.192,0,.244.2.348.324.07.08.262.163.26.283a.151.151,0,0,0,0,.064c.018.045.09.037.116.078s0,.06.006.09c0,.062.05.11.09.158s.072.12.037.171l.068.024,0,.126.064.021a.154.154,0,0,0,.016.132.3.3,0,0,0,.047.035.2.2,0,0,1,.056.24l.07.024,0,.125a2.256,2.256,0,0,0,.253.465v.24a.693.693,0,0,1,.147.223,1.946,1.946,0,0,1,.085.278l.015.062.184.75c.024.095.054.255.127.306-.016.064-.025.193.06.217l-.008.247a.114.114,0,0,0,.013.076c.011.015.03.025.041.042.032.047-.016.12.017.167.011.016.029.024.04.04.033.045-.006.11.016.161a.329.329,0,0,0,.031.047.221.221,0,0,1,.027.069l.018.073a5,5,0,0,1,.1.846,3.109,3.109,0,0,1,.1.627c.051.01.065.077.057.128s-.022.11.009.152c.011.014.026.025.037.04a.128.128,0,0,1,.013.08L174,51.1a.087.087,0,0,0,.014.064c.011.013.031.018.042.031a.085.085,0,0,1,.011.056c0,.069-.048.989-.047.989l.071,0,.007,1.416-.072,0,.027.99-.072,0c-.007.049.006.044.023.037s.037-.013.045.038c-.011.241-.167,2.892-.2,2.891l-.072,0,.06.286-.072,0-.244,2.254-.07,0-.007.142-.071,0c-.01.234-.021.466-.033.7l-.068.013-.016.267-.066.013-.017.267-.068.013-.022.408c-.068-.009-.1.079-.111.144s-.045.155-.112.145a.838.838,0,0,1-.035.286c-.04.092-.139.151-.166.271-.015.063-.047.15-.11.133l-.014.128-.064.013-.014.126-.072.015a.505.505,0,0,1,0,.207c-.032.1-.232.22-.316.292a.971.971,0,0,1-.489.231l-.006.141c-.119.014-.165.022-.2.022A1.365,1.365,0,0,1,171.15,64.07ZM71.892,47.788l-.064-.144a.369.369,0,0,0-.291.013.443.443,0,0,1-.136.039l0-.07-.632-.1.022-.493-.137-.078,0-.07.145-.065.109-2.4.071,0,.08-.208-.071,0L71,44.068l-.071,0,.006-.142-.07,0c-.023-.121.073-.121.077-.137l.048-1.06.141-3.107.072,0,.041-.918.07,0,.023-.493.072,0,.047-1.058.071,0,.036-.777.07,0,.116-.985.142.006.09-.42.071,0,.022-.5.071,0,.045-.989.071,0,.015-.353.072,0,.021-.495.072,0,.128-1.268.071,0,.009-.213.071,0,.009-.213.071,0,.023-.494.07,0,.007-.141.071,0,.171-.629.07,0,.01-.213.07,0a.6.6,0,0,0,.16-.417c-.213-.1-.316-.145-.333-.44.079-.033.129-.126.148-.135l.212.01,0-.072a.787.787,0,0,1,.285-.035c.148,0,.2.007.228-.365l.215-.061a.106.106,0,0,0,.138.077l.152-.2c.192-.067.4.195.484.234l.845.11c-.035-.2-.086-.166-.125-.361.082-.055.01.009.073-.066l.28.084-.085.278.428-.05,0-.071a.55.55,0,0,1,.209.053.6.6,0,0,0,.353.044l0-.071.569-.045.128.288c.07.053.1.042.12.032s.053-.029.156.123l.072,0c.061.135-.065.211-.085.278l.48.377-.01.212.206.151,0,.07,0,.071.07,0-.24.626-.142-.007a2.594,2.594,0,0,1-.241.627l.03.921-.145.063.062.215-.071,0-.009.211-.071,0-.019.424-.07,0-.026.564-.071,0-.009.212-.071,0-.016.354-.217.131.121.43-.071,0-.006.141-.072,0-.057,1.272-.07,0,.051.428-.072,0-.013.283-.07,0-.013.283-.071,0-.045.989-.071,0a.188.188,0,0,0,.061.215c0,.043-.1.185-.086.35,0,.049.022.042.038.037s.031-.014.029.037l-.071,0-.009.212.071,0-.039.847-.07,0-.023.494-.071,0c-.015.077.118.192.055.356l-.07,0-.007.143-.071,0L76.56,41.7a9.144,9.144,0,0,1-.151,1.763l.052.426-.071,0-.017.354-.04.917-.071,0c-.076.222.082.362.048.5l-.071,0-.013.284-.071,0c-.085.076,0,.027-.144.063a1.124,1.124,0,0,1-.171.63l-.144.065-.016.353-.071,0,0,.07c-.13.062-.116.094-.288.129-.093.351-.15.331-.316.31a.914.914,0,0,0-.337.014l0,.071-.283-.013,0-.071-.072,0,0,.071-.283-.013,0-.072-.142-.006,0-.07-.5-.023,0-.07-.072,0-.151.206-.141-.006,0,.07a1.249,1.249,0,0,1-.636-.03l0-.07-.286.057-.08.208Zm80.121-2.3a.687.687,0,0,0-.259-.114.728.728,0,0,0-.274.048.725.725,0,0,1-.291.049,3.037,3.037,0,0,1-.636-.188,3.1,3.1,0,0,0-1.755-.216c-.152.041-.311.261-.466.225-.259-.061-.2-.286-.255-.48-.026-.1-.136-.233-.14-.327-.017-.349.016-.7.033-1.05-.224-.944.15-2.4-.053-3.539a.189.189,0,0,1,.08-.209c0-.271,0-.544,0-.816a1.1,1.1,0,0,0-.07-.619,1.927,1.927,0,0,0,.006-.7l.013-.216-.076-.421.019-.191-.121-.666-.035-.753-.03-.025a.194.194,0,0,0-.038-.215l-.035-.5-.038-.263c-.119-.207-.029-.561-.018-.791a3.848,3.848,0,0,0-.094-.539c-.026-.193-.043-.388-.057-.583a7.78,7.78,0,0,1-.048-1.375l0-.4a2.981,2.981,0,0,0,.114-.8l.1-.493.086-.42a.448.448,0,0,1,.106-.212.315.315,0,0,1,.085-.274l.043-.332a1.616,1.616,0,0,1,.339-.575,1.1,1.1,0,0,0,.188-.545,6.808,6.808,0,0,0,.325-.905l.214-.061,0,.071.071,0c.058.121-.057.228-.084.28l.07,0,0,.071.349.087,0-.07c.2-.044.159-.013.221-.2.12.006.538.092.576-.039l.12-.026c.315-.1.627-.21.949-.286l0,.072.07,0,.054.357.072,0-.017.354.071,0-.006.142.272.224.537.662.141.007.132.217.142.006c.052,0,.239.319.269.37a1.548,1.548,0,0,1,.152.409,3.814,3.814,0,0,1,.215,1.171l.089.358,0,.481.087.024-.119.753a.241.241,0,0,1,.1.138l.117.679c.015.087-.057.238-.058.336a2.37,2.37,0,0,0,.062.364,10.239,10.239,0,0,1,.018,1.477l.058.266a.507.507,0,0,1-.05.477l.117.181v1.4a1.3,1.3,0,0,1,.04.663,6.966,6.966,0,0,1-.074.762c-.1.027.022.037-.074.067L153.3,38.3l0,.071.071,0c.078.1.124.115.276.153l.023,1.063-.071,0-.082.279.137.077a2.186,2.186,0,0,1-.192,1.124l.062.215.07,0c-.047.238-.084.48-.133.714-.044.2-.189.307-.12.541.034.117.1.188.1.317s-.051.235-.069.349c-.077.494-.053.99-.166,1.478-.065.29-.1.5-.34.668a1.071,1.071,0,0,1-.575.2A.569.569,0,0,1,152.013,45.491ZM129.076,32.907l-.077.137c-.2.009-.585.106-.757,0-.195-.117-.239-.5-.271-.7-.2-1.244-.336-2.5-.43-3.752q-.07-.953-.109-1.908c-.013-.311-.024-.622-.031-.932a1.876,1.876,0,0,0-.073-.8l-.006-.334-.049-.018a5.187,5.187,0,0,0-.069-.855c-.072-.331-.128-.665-.187-1q-.172-.979-.294-1.965c-.05-.411-.556-6.117-.288-6.117l.07,0-.063-.145.112-.913.071,0,.022-.493a4.307,4.307,0,0,0,.414-1.327l.569-.045c.052-.094.211-.183.221-.2.033-.058-.149-.154-.057-.286.063-.092.271-.057.427-.05l0,.071.354.015.1-.7.973.126c.169.022.339.042.508.066a2.469,2.469,0,0,1,.333.113.116.116,0,0,0,.168.053,5.37,5.37,0,0,0,1.166,1.309.485.485,0,0,0,.159.048l.277.359c-.108.252-.224.5-.316.762a5.563,5.563,0,0,1-.023.664,5.055,5.055,0,0,1-.227.678q-.239.716-.452,1.441-.29.992-.536,2c-.126.522-.161,1.062-.27,1.586a11.785,11.785,0,0,0-.23,2.794c.023.745.05,1.483.017,2.225l.07,0,0,.071-.071,0c-.021.443-.1,5.3-.029,5.305l.07,0-.038.848a7.847,7.847,0,0,1,.122,1.987l-.07,0,0,.071A4.828,4.828,0,0,0,129.076,32.907ZM98.611,31.651a2.661,2.661,0,0,1-.853-.217L96.7,31l-.125.208a.832.832,0,0,1-.572-.29.51.51,0,0,1-.644-.042.249.249,0,0,1-.366-.047.718.718,0,0,1-.108-.4q-.122-1.926-.108-3.859a25.458,25.458,0,0,1-.079-2.8c.029-.959.06-1.918.08-2.878l-.061-.018c.042-1.151.1-2.3.152-3.453.023-.495.039-.981.033-1.479l.031-.011a4.377,4.377,0,0,0,.011-.881l.009-1.02.071,0c.03-.656.049-1.314.1-1.969l.058-.013.027-.118a.271.271,0,0,0,.038-.132l.054-.434c.149-.057.053-.316.148-.358l.144-.063-.064-.145.071,0,.08-.208.141.007a.594.594,0,0,0,.62.381l.245-.7c.33.054.332.237.549.379.053-.283.057-.388.372-.409a4.134,4.134,0,0,0,.31.635c.163.275.312.555.453.841q.254.52.459,1.059c.024.065.346,1.006.246,1a.3.3,0,0,1,.064.006,4.859,4.859,0,0,1,.088,1.114c.031.536.009,1.044.008,1.577,0,.316.271,1.3-.061,1.495a4.075,4.075,0,0,1-.133,1.473,9.9,9.9,0,0,1-.064,1.15,2.053,2.053,0,0,0-.126.952l-.054.011-.041.33c-.014.111-.1.219-.113.341a2.275,2.275,0,0,0,.011.341c.013.225.026.452.06.674l-.019.424-.07,0c-.052.169.042.173.062.215a1.653,1.653,0,0,0-.1.632l.071,0a5.789,5.789,0,0,1-.031.676c-.017.1-.142.32-.026.394.025.016.052.8.061.874l.134,1.034c.139,1.063.327,2.127.362,3.2l.054.356-.071,0a1.256,1.256,0,0,0-.093.491c-.007.1-.139.118-.259.118C98.711,31.661,98.643,31.654,98.611,31.651ZM112.8,21.837l-.331-.511c-.029-.043-.223.043-.258.052a.273.273,0,0,1-.267-.04l-.308-.266a.984.984,0,0,0-.523-.29,1.13,1.13,0,0,0-.125,0,1,1,0,0,1-.117,0,.267.267,0,0,1-.207-.1l-.015.065-.2.03h-.233a.791.791,0,0,1-.557-.147.712.712,0,0,1-.163-.474,4.644,4.644,0,0,0,.013-.589,1.466,1.466,0,0,1-.047-.974.245.245,0,0,0,.035-.105c0-.037-.041-.076-.076-.059.045-.023.073-.351.087-.418a5.407,5.407,0,0,0,.038-.852c.008-.171.015-.342.024-.513.007-.118-.032-.27.088-.345,0,0-.109-.294-.117-.333a1.211,1.211,0,0,1-.015-.421,2.364,2.364,0,0,1-.009-.788l-.071-.011c-.011-.4-.015-.794,0-1.193a.9.9,0,0,1,.015-.175c.015-.064.041-.125.054-.189a1.057,1.057,0,0,0-.047-.324c-.018-.137-.031-.276-.043-.413-.024-.286-.039-.572-.056-.857a9.385,9.385,0,0,0-.2-1.669,1.145,1.145,0,0,1,.011-.264c0-.121,0-.242,0-.363a1.2,1.2,0,0,1-.025-.572l-.068-.01.039-.2a1.3,1.3,0,0,0-.037-.322c-.011-.114-.019-.231-.024-.347a2.4,2.4,0,0,0-.006-.329c-.016-.093-.06-.182-.074-.278l-.018-.109a4.507,4.507,0,0,1,.016-.9l-.07,0c-.01-.306-.022-.612-.027-.917l.034-.007-.052-.488a8.464,8.464,0,0,1-.008-.917,1.035,1.035,0,0,1-.019-.572l.057,0,.038-.128a1.776,1.776,0,0,0,.029-.23l.08-.972L109.092,2l.03-.2c0-.041.048-.09.06-.133a.689.689,0,0,0,.013-.188c0-.129.009-.262.014-.393.072.017.263.1.33.069a.2.2,0,0,0,.071-.078L109.72.9h.2l.025-.076a.194.194,0,0,0,.212.061c.034-.011.065-.033.1-.045a.1.1,0,0,1,.1.018c.031.035.016.1.058.128A.067.067,0,0,0,110.5.954a.286.286,0,0,0,.025-.1,4.761,4.761,0,0,1,.13-.478h.137a.131.131,0,0,1,.076-.163c.034-.011.071-.007.1-.021s.063-.048.048-.08l.13,0a.581.581,0,0,1,.11-.1A.6.6,0,0,1,111.442,0c.089,0,.339,0,.415.086a.075.075,0,0,1,.019.033,1.356,1.356,0,0,1,.017.153c.01.049.055.1.105.089l-.008.342A.211.211,0,0,1,112.1.84c.017.056.023.116.039.173.032.11.111.166.168.258.043.07.032.2.086.245s.222.07.3.123a.922.922,0,0,1,.245.245.337.337,0,0,1,.047.285c.045-.006.07.049.081.092l.026.1.024.1.033.13a2.546,2.546,0,0,1-.006.691,3.129,3.129,0,0,0,.053,1.054c.007.026.015.053.019.08a.927.927,0,0,1,.01.2.758.758,0,0,0,0,.183c.009.032.039.05.047.078a1.165,1.165,0,0,1,0,.351c-.007.256-.015.515-.015.771a6.949,6.949,0,0,1,.015,1.059,2.746,2.746,0,0,1,.055.642l.014.343a18.877,18.877,0,0,0,.191,1.9,4.433,4.433,0,0,1,0,.592.306.306,0,0,1,.041.29.057.057,0,0,1,.062.082.039.039,0,1,0-.015.065,5.562,5.562,0,0,1-.08.7l.064.01,0,.276.062.009.014.2a.793.793,0,0,1,.038.426.271.271,0,0,1,.037.135l.051.5a1.008,1.008,0,0,0-.063.569c.1.1.043.274.038.4a2.142,2.142,0,0,0-.024.532,10.083,10.083,0,0,1,.035,2.337,8.448,8.448,0,0,1-.063,2.123l-.1.974a.33.33,0,0,0-.065.284l-.069,0-.013.135-.064,0,.038.344c0,.042-.076.157-.078.221-.006.092,0,.185,0,.278l-.071,0-.089.419Z" fill="#fff"/>
      </g>
      <g id="グループ_25" data-name="グループ 25" transform="translate(0 217.044)">
        <g id="グループ_24" data-name="グループ 24">
          <path id="パス_26841" data-name="パス 26841" d="M222.3,731.574c0,5.914-4.426,10.53-9.232,13.392a9.946,9.946,0,0,1-3.052,1.374c-.878,0-2.06-1.908-2.06-2.518,0-.383.458-.534.763-.65,4.654-1.525,10.224-5.989,10.224-11.292,0-3.625-2.175-5.876-5.8-5.876-3.321,0-5.914,1.6-8.318,3.663a1.269,1.269,0,0,1-.8.42c-.725,0-1.717-2.175-1.717-2.9,0-.572.725-.916,1.183-1.183a19.917,19.917,0,0,1,9.767-3.09C218.6,722.914,222.3,726.157,222.3,731.574Zm-14.116-16.33a40.362,40.362,0,0,0,9.308,1.871c.535.037.8.113.8.609,0,.229-.154,2.709-1.184,2.709-.991,0-7.362-1.412-8.621-1.755-1.412-.342-2.137-.5-2.137-1.106,0-.343.458-2.48,1.221-2.48A1.8,1.8,0,0,1,208.188,715.245Z" transform="translate(-202.312 -712.957)" fill="#fff"/>
          <path id="パス_26842" data-name="パス 26842" d="M244.358,714.936c.191.076.458.192.458.459a.864.864,0,0,1-.305.534c-.42.42-.5.495-.687,2.021-.114.725-.381,2.671-.381,3.319,0,.42.343.5.725.5.61.038,1.335,1.373,1.335,1.641,0,.229-.267.458-.5.763l-1.3,2.327a2.092,2.092,0,0,0-.153.954c0,.229.038.458.343.458a.389.389,0,0,0,.305-.191c.839-.878,2.633-2.556,3.586-3.358,1.679-1.488,3.815-3.243,6.181-3.243a3.685,3.685,0,0,1,2.975,1.488,6.685,6.685,0,0,1,.611,3.358c0,3.777-.42,7.555-.42,11.332,0,1.145-.076,2.632.954,2.632,1.221,0,2.976-1.641,3.777-2.518a.937.937,0,0,1,.649-.42c.572,0,1.373,2.289,1.373,2.823s-1.259,1.412-1.717,1.679a9.245,9.245,0,0,1-5.036,2.1c-2.9,0-3.2-3.091-3.2-5.3,0-3.663.459-7.326.459-10.988,0-.992.037-2.633-1.3-2.633-1.488,0-3.4,1.717-4.5,2.633a48.435,48.435,0,0,0-4.922,4.769,1.829,1.829,0,0,0-.763,1.526v.649c0,1.946.038,3.854.114,5.8.038,1.03.229,4.121.229,4.806,0,.306-.038.65-2.137.65-.687,0-1.374,0-1.374-.764,0-.076.076-1.908.076-2.288.076-1.679.153-3.4.153-5.113,0-.191-.076-.458-.305-.458-.191,0-.382.267-.458.42-1.145,1.715-2.175,3.472-3.167,5.3a.462.462,0,0,1-.42.305c-.572,0-2.289-1.451-2.289-2.062a1.486,1.486,0,0,1,.382-.724,94.852,94.852,0,0,0,6.066-10.225,2.305,2.305,0,0,0,.382-1.221c0-.61.115-1.984.115-2.175,0-.305-.153-.534-.458-.534a2.661,2.661,0,0,0-.725.229,32.466,32.466,0,0,1-5.036,1.679c-1.03,0-1.564-2.785-1.564-2.938,0-.534.687-.534,1.145-.572,1.145-.152,5.952-1.068,6.562-1.869.305-.344.229-.916.267-1.374.114-1.526.229-3.472.229-5,0-.533-.038-.991-.038-1.183,0-.344.114-.534.5-.534A31.178,31.178,0,0,1,244.358,714.936Z" transform="translate(-194.109 -713.144)" fill="#fff"/>
          <path id="パス_26843" data-name="パス 26843" d="M275.585,716.795c.305.076.725.228.725.571,0,.267-.229.42-.42.572a3.755,3.755,0,0,0-.763,2.289,92.75,92.75,0,0,0-.839,13.01c0,3.281.076,8.012,4.54,8.012a10.264,10.264,0,0,0,7.631-3.93,11.539,11.539,0,0,0,2.327-5.685c.075-.534.151-1.183.647-1.183.725,0,2.556,1.526,2.556,2.594a13.775,13.775,0,0,1-1.488,4.31,13.322,13.322,0,0,1-11.445,7.25,7.887,7.887,0,0,1-6.372-2.9c-1.641-2.212-1.793-5.684-1.793-8.355,0-4.731.343-9.462.725-14.193a22.184,22.184,0,0,0,.076-2.251c0-.534.038-.916.534-.916A23.522,23.522,0,0,1,275.585,716.795Z" transform="translate(-183.672 -712.712)" fill="#fff"/>
          <path id="パス_26844" data-name="パス 26844" d="M325.2,720.833a12.668,12.668,0,0,1,3.739,9.233,13.4,13.4,0,0,1-7.364,12.133,14.358,14.358,0,0,1-3.93,1.412c-.8,0-2.137-1.794-2.137-2.481,0-.42.61-.456.954-.533,5.189-1.108,9.081-4.884,9.081-10.378a9.749,9.749,0,0,0-6.791-9.691,8.013,8.013,0,0,0-1.6-.343c-.992,0-.992.839-1.03,1.564-.342,5.647-1.717,12.705-5.418,17.169-1.182,1.411-2.785,2.785-4.768,2.785a5.813,5.813,0,0,1-4.884-3.435,12.181,12.181,0,0,1-1.145-5.3,15.506,15.506,0,0,1,15.6-15.834A13.435,13.435,0,0,1,325.2,720.833Zm-14.268.229a12.338,12.338,0,0,0-7.822,11.752c0,1.679.611,5.532,2.823,5.532,2.059,0,4.044-4.006,4.692-5.685a32.558,32.558,0,0,0,2.291-11.255c0-.42-.192-.763-.61-.763A5.71,5.71,0,0,0,310.928,721.062Z" transform="translate(-175.788 -712.402)" fill="#fff"/>
          <path id="パス_26845" data-name="パス 26845" d="M343.174,731.611c-.191,0-.229.153-.267.305V741c0,1.717.114,3.472.114,5.226,0,1.145-.267,1.3-1.564,1.3-1.183,0-1.526-.113-1.526-1.221,0-1.793.076-3.548.076-5.3V733.29a.172.172,0,0,0-.153-.191c-.076,0-.114.038-.191.114a39.274,39.274,0,0,1-2.9,7.058c-.229.381-.458.838-.839.838a2.808,2.808,0,0,1-1.793-1.677,1.7,1.7,0,0,1,.382-.839,54.806,54.806,0,0,0,4.884-11.026,1.128,1.128,0,0,0,.076-.381c0-.5-.381-.649-.8-.649-1.03,0-2.06.038-2.862.038-.687,0-.725-.42-.725-1.45,0-.954,0-1.45.725-1.45.8,0,1.831.076,2.9.076h.229c.763,0,1.068-.305,1.068-1.068v-3.091c0-.458-.191-.839-.687-.839a.935.935,0,0,0-.343.076,12.6,12.6,0,0,1-2.251.5c-1.068,0-1.374-1.83-1.374-2.173,0-.574.572-.65,1.374-.8a38.432,38.432,0,0,0,8.05-2.671,1.428,1.428,0,0,1,.61-.267c.343,0,.878.915,1.412,1.754a2.872,2.872,0,0,1,.5,1.031.392.392,0,0,1-.42.38,1.728,1.728,0,0,1-.42-.114,1.109,1.109,0,0,0-.345-.076c-.113,0-.876.305-1.487.534-.343.153-.649.267-.763.307-.725.3-.878.61-.954,1.41v4.044c0,.763.342,1.068,1.068,1.068h.114c1.03,0,2.1-.076,2.862-.076.724,0,.724.5.724,1.45,0,1.03,0,1.45-.724,1.45-.763,0-1.831-.038-2.862-.038h-.114c-.343,0-.649.153-.649.572a.87.87,0,0,0,.115.42,27.417,27.417,0,0,0,3.89,5.227c.154.191.343.382.343.611,0,.534-.838,2.022-1.449,2.022-.763,0-2.4-2.9-2.823-3.625A.257.257,0,0,0,343.174,731.611Zm6.982,7.822c-.267.076-.306.382-.383.61a49.261,49.261,0,0,1-1.983,5.609c-.153.418-.382.838-.879.838-.457,0-2.021-.38-2.021-1.107a2.484,2.484,0,0,1,.305-.838,25.974,25.974,0,0,0,2.059-5.761c.076-.344.076-.687.5-.687s1.793.382,2.251.458c.267.038.687.113.687.456C350.691,739.279,350.384,739.356,350.157,739.433Zm13.124-5.341H352.408c-.383.038-.5.229-.612.534-.151.344-.495.382-1.412.382-1.105,0-1.525,0-1.525-.763s.037-1.488.037-2.213v-6.753c0-.687-.037-1.335-.037-2.022,0-1.259.61-1.45,1.908-1.45.571,0,1.258.038,2.1.038h2.746c.572,0,.8-.229.8-.8v-.649c0-.534-.229-.763-.8-.763H352.9c-1.412,0-2.785.076-4.2.076-.841,0-.841-.42-.841-1.335s.039-1.374.8-1.374c1.412,0,2.822.076,4.234.076h2.442c.726,0,1.03-.266,1.068-.992-.038-.572-.075-.992-.153-1.564,0-.075-.038-.267-.038-.342,0-.383.305-.459.61-.459.5,0,1.6.116,2.175.153s1.106.114,1.106.458c0,.267-.191.343-.458.534-.381.268-.42.535-.42,1.183,0,.725.305,1.03,1.03,1.03h3.472c1.412,0,2.823-.076,4.235-.076.8,0,.8.458.8,1.374,0,.839,0,1.335-.8,1.335-1.412,0-2.823-.076-4.235-.076H360c-.572,0-.8.229-.8.763v.649c0,.572.229.8.8.8h2.823c.8,0,1.488-.038,2.06-.038,1.259,0,1.946.191,1.946,1.373,0,.687-.038,1.412-.038,2.1v6.753c0,.725.038,1.45.038,2.213s-.382.763-1.526.763c-.954,0-1.259-.038-1.412-.382C363.776,734.32,363.662,734.129,363.28,734.091Zm-4.273,10.224c1.3,0,1.679-.037,2.175-3.089.076-.534.153-.8.725-.8.5,0,2.175.191,2.175.992a13.108,13.108,0,0,1-1.221,4.31c-.8,1.3-2.022,1.337-3.4,1.337H355.04c-1.985,0-3.55-.343-3.55-2.672,0-.5.078-.954.078-1.411v-2.825c0-.647-.078-1.488-.114-2.135,0-.153-.039-.343-.039-.5,0-.343.267-.42.574-.42.343,0,2.212.153,2.631.191.267,0,.764,0,.764.382,0,.229-.154.305-.344.42-.459.305-.574.648-.574,2.059v3.054c0,1.145.8,1.105,1.717,1.105ZM356.413,725.2a.882.882,0,0,0-.916-.916h-2.785a.882.882,0,0,0-.916.916v.763a.882.882,0,0,0,.916.916H355.5a.881.881,0,0,0,.916-.916Zm-3.7,3.777a.882.882,0,0,0-.916.916v.916a.882.882,0,0,0,.916.916H355.5a.881.881,0,0,0,.916-.916v-.916a.882.882,0,0,0-.916-.916Zm5.8,11.9c-.42,0-.649-.42-.954-1.068a30,30,0,0,0-2.06-3.587,1.466,1.466,0,0,1-.305-.649c0-.534,1.3-1.259,1.793-1.259.382,0,.916.611,2.175,2.862a10.679,10.679,0,0,1,1.145,2.365C360.3,740.156,359.083,740.883,358.511,740.883Zm4.464-14a.882.882,0,0,0,.916-.916V725.2a.882.882,0,0,0-.916-.916h-2.862a.882.882,0,0,0-.916.916v.763a.881.881,0,0,0,.916.916Zm-3.777,3.93a.881.881,0,0,0,.916.916h2.862a.882.882,0,0,0,.916-.916v-.916a.882.882,0,0,0-.916-.916h-2.862a.882.882,0,0,0-.916.916Zm8.089,14.079c-.534,0-.687-.458-.839-.878a33.492,33.492,0,0,0-3.09-5.761,1.294,1.294,0,0,1-.343-.725c0-.61,1.412-1.3,1.87-1.3a1,1,0,0,1,.763.534c.572.839,1.335,2.174,1.831,3.091a19.806,19.806,0,0,1,1.679,3.739C369.156,744.354,367.744,744.889,367.286,744.889Z" transform="translate(-166.484 -713.413)" fill="#fff"/>
          <path id="パス_26846" data-name="パス 26846" d="M396,720.833a12.672,12.672,0,0,1,3.738,9.233,13.4,13.4,0,0,1-7.364,12.133,14.335,14.335,0,0,1-3.929,1.412c-.8,0-2.138-1.794-2.138-2.481,0-.42.61-.456.954-.533,5.189-1.108,9.081-4.884,9.081-10.378a9.749,9.749,0,0,0-6.79-9.691,8.023,8.023,0,0,0-1.6-.343c-.991,0-.991.839-1.03,1.564-.343,5.647-1.716,12.705-5.417,17.169-1.183,1.411-2.785,2.785-4.769,2.785a5.813,5.813,0,0,1-4.884-3.435,12.18,12.18,0,0,1-1.145-5.3,15.507,15.507,0,0,1,15.6-15.834A13.44,13.44,0,0,1,396,720.833Zm-14.269.229a12.338,12.338,0,0,0-7.822,11.752c0,1.679.611,5.532,2.823,5.532,2.06,0,4.044-4.006,4.693-5.685a32.557,32.557,0,0,0,2.289-11.255c0-.42-.191-.763-.61-.763A5.727,5.727,0,0,0,381.729,721.062Z" transform="translate(-156.545 -712.402)" fill="#fff"/>
          <path id="パス_26847" data-name="パス 26847" d="M421.921,725.534c-.305,0-.381.267-.381.5v.191c0,1.3.076,2.594.076,3.853,0,1.221-.3,1.335-1.6,1.335-1.145,0-1.6-.038-1.6-1.183,0-1.335.116-2.671.116-4.006v-.191c-.039-.229-.116-.5-.42-.5a.561.561,0,0,0-.343.153,47.77,47.77,0,0,1-11.751,7.9,4.669,4.669,0,0,1-1.488.534c-.725,0-1.6-1.412-1.6-2.06,0-.5.42-.649,1.183-.954a40.065,40.065,0,0,0,10.874-6.6.567.567,0,0,0,.153-.343c0-.267-.229-.343-.459-.343h-6.218c-1.488,0-2.976.076-4.464.076-.8,0-.839-.382-.839-1.374,0-1.03.038-1.374.839-1.374,1.488,0,2.976.076,4.464.076h9.119c.647,0,.954-.305.954-.916V718.9c0-.572-.268-.916-.878-.878-3.321.153-6.677.383-10.035.383-.572,0-1.106.037-1.335-.383a3.9,3.9,0,0,1-.382-1.525c0-.687.305-.8.992-.8h1.717c5.3,0,16.29-.534,21.136-2.059a.92.92,0,0,1,.305-.039c.305,0,.839.687,1.3,1.3.076.116.191.229.267.343a1.806,1.806,0,0,1,.534,1.03.342.342,0,0,1-.343.343,1.244,1.244,0,0,1-.5-.153,1.413,1.413,0,0,0-.534-.151c-.153,0-.725.151-.916.191-2.442.419-4.884.8-7.324,1.105-.764.116-.993.42-.993,1.146v1.41c0,.763.305,1.068,1.068,1.068h8.852c1.488,0,2.976-.076,4.464-.076.839,0,.839.343.839,1.374s0,1.374-.839,1.374c-1.488,0-2.976-.076-4.464-.076H425.2c-.229,0-.458.076-.458.343a.568.568,0,0,0,.153.343,40.9,40.9,0,0,0,10.645,6.639c.382.153,1.3.5,1.3,1.03,0,.61-.954,2.022-1.717,2.022-.687,0-4.311-2.06-5.113-2.556a39.346,39.346,0,0,1-7.783-5.952A.471.471,0,0,0,421.921,725.534Zm-8.965,20.183c-.5,0-.726.189-.763.724a1.924,1.924,0,0,1,.037.458c0,.8-.457.8-1.6.8-1.184,0-1.6,0-1.6-.841,0-.8.076-1.6.076-2.4v-8.2c0-.763-.076-1.488-.076-2.251,0-1.106.5-1.526,1.564-1.526.992,0,1.983.038,2.976.038H426.08c.992,0,1.793-.038,2.442-.038,1.45,0,2.1.191,2.1,1.488,0,.763-.076,1.526-.076,2.289v8.2c0,.8.076,1.6.076,2.4,0,.841-.42.841-1.564.841-1.183,0-1.641,0-1.641-.8a1.715,1.715,0,0,1,.038-.458c-.038-.534-.267-.724-.763-.724Zm14.535-9.767a.882.882,0,0,0-.916-.916H413.071a.883.883,0,0,0-.917.916v1.03a.883.883,0,0,0,.917.916h13.505a.882.882,0,0,0,.916-.916Zm-.916,7.249a.882.882,0,0,0,.916-.917V741.1a.891.891,0,0,0-.916-.954H413.071a.892.892,0,0,0-.917.954v1.181a.883.883,0,0,0,.917.917Z" transform="translate(-147.787 -713.364)" fill="#fff"/>
        </g>
      </g>
      <g id="グループ_27" data-name="グループ 27" transform="translate(1.278 273.933)">
        <g id="グループ_26" data-name="グループ 26">
          <path id="パス_26848" data-name="パス 26848" d="M203.317,767.345v-8.789h1.721v8.433c0,2.664,1.741,4.28,5.055,4.28,3.294,0,5.055-1.615,5.055-4.28v-8.433h1.721v8.789c0,3.378-2.539,5.665-6.776,5.665S203.317,770.723,203.317,767.345Z" transform="translate(-203.317 -758.032)" fill="#fff"/>
          <path id="パス_26849" data-name="パス 26849" d="M221.771,772.506H220.05v-13.95h8.328c3.566,0,5.433,1.511,5.433,3.986a4.422,4.422,0,0,1-4.194,4.154c1.048,3.9,1.8,4.489,2.831,4.489a3.932,3.932,0,0,0,1.385-.336v1.677a6.681,6.681,0,0,1-2.014.378c-1.8,0-2.643-1.112-3.964-6.083h-6.083Zm6.754-7.216a2.888,2.888,0,0,0,3.188-2.664c0-1.553-1.2-2.455-3.734-2.455-1.615,0-3.21.02-6.209.042v5.077Z" transform="translate(-198.769 -758.032)" fill="#fff"/>
          <path id="パス_26850" data-name="パス 26850" d="M249.208,772.506H236.369v-13.95H248.81v1.7h-10.74v4.217h9.02v1.741h-9.02v4.614h11.138Z" transform="translate(-194.334 -758.032)" fill="#fff"/>
          <path id="パス_26851" data-name="パス 26851" d="M250.627,768.975l1.489-.588c.63,2.434,3.232,2.958,5.581,2.958,2.055,0,5.265-.587,5.265-2.978,0-4.174-12.251.1-12.251-5.685,0-3.482,4.217-4.49,6.9-4.49,2.979,0,6.293.672,6.944,4.154l-1.491.588c-.628-2.434-3.209-3.084-5.559-3.084-2.119,0-4.8.65-4.8,2.685,0,3.672,12.125-.126,12.125,5.707,0,3.754-3.9,4.888-6.964,4.888C254.886,773.129,251.277,772.459,250.627,768.975Z" transform="translate(-190.458 -758.131)" fill="#fff"/>
          <path id="パス_26852" data-name="パス 26852" d="M280.507,772.506h-1.72v-6.315h-9.84v6.315h-1.719v-13.95h1.719v5.895h9.84v-5.895h1.72Z" transform="translate(-185.946 -758.032)" fill="#fff"/>
          <path id="パス_26853" data-name="パス 26853" d="M284.075,772.506v-13.95H285.8v13.95Z" transform="translate(-181.367 -758.032)" fill="#fff"/>
          <path id="パス_26854" data-name="パス 26854" d="M305.742,772.506h-1.8L293.555,761.2v11.308h-1.721v-13.95h1.741l10.448,11.432V758.556h1.719Z" transform="translate(-179.259 -758.032)" fill="#fff"/>
          <path id="パス_26855" data-name="パス 26855" d="M308.3,765.7c0-4.615,2.937-7.552,7.384-7.552a7.041,7.041,0,0,1,7.468,7.4c0,4.615-2.958,7.552-7.406,7.552A7.024,7.024,0,0,1,308.3,765.7Zm7.384-5.895c-3.4,0-5.6,2.2-5.6,5.747s2.223,5.895,5.663,5.895c3.4,0,5.623-2.181,5.623-5.747C321.372,762.15,319.127,759.8,315.687,759.8Z" transform="translate(-174.782 -758.144)" fill="#fff"/>
          <path id="パス_26856" data-name="パス 26856" d="M345.991,772.506h-1.719v-6.315h-9.84v6.315h-1.719v-13.95h1.719v5.895h9.84v-5.895h1.719Z" transform="translate(-168.148 -758.032)" fill="#fff"/>
          <path id="パス_26857" data-name="パス 26857" d="M348.686,765.7c0-4.615,2.937-7.552,7.384-7.552a7.041,7.041,0,0,1,7.468,7.4c0,4.615-2.958,7.552-7.406,7.552A7.024,7.024,0,0,1,348.686,765.7Zm7.384-5.895c-3.4,0-5.6,2.2-5.6,5.747s2.223,5.895,5.663,5.895c3.4,0,5.623-2.181,5.623-5.747C361.755,762.15,359.51,759.8,356.07,759.8Z" transform="translate(-163.807 -758.144)" fill="#fff"/>
          <path id="パス_26858" data-name="パス 26858" d="M379.8,772.506H378L367.617,761.2v11.308H365.9v-13.95h1.741l10.448,11.432V758.556H379.8Z" transform="translate(-159.129 -758.032)" fill="#fff"/>
          <path id="パス_26859" data-name="パス 26859" d="M382.365,765.7c0-4.615,2.937-7.552,7.384-7.552a7.041,7.041,0,0,1,7.468,7.4c0,4.615-2.957,7.552-7.406,7.552A7.024,7.024,0,0,1,382.365,765.7Zm7.384-5.895c-3.4,0-5.6,2.2-5.6,5.747s2.223,5.895,5.663,5.895c3.4,0,5.623-2.181,5.623-5.747C395.434,762.15,393.189,759.8,389.749,759.8Z" transform="translate(-154.653 -758.144)" fill="#fff"/>
          <path id="パス_26860" data-name="パス 26860" d="M413.656,771.059a1.962,1.962,0,0,0,.713-.148l.064,1.679c-3.358,1.091-5.413-2.392-9.041-7.048l-4.112,3.083v3.882h-1.721v-13.95h1.721v8.035l10.677-8.035h2.686l-7.825,5.895C409.649,768.751,411.936,771.059,413.656,771.059Z" transform="translate(-149.98 -758.032)" fill="#fff"/>
          <path id="パス_26861" data-name="パス 26861" d="M426.536,767.869h-7.762l-2.287,4.637h-1.845l6.86-13.95h2.307l6.86,13.95h-1.847Zm-6.943-1.677h6.1l-2.916-5.937h-.252Z" transform="translate(-145.88 -758.032)" fill="#fff"/>
        </g>
      </g>
    </g>
  </g>
</svg>
