<svg xmlns="http://www.w3.org/2000/svg" width="183.677" height="183.601" viewBox="0 0 183.677 183.601">
  <g id="グループ_31" data-name="グループ 31" transform="translate(-202.312 -542.753)">
    <g id="グループ_28" data-name="グループ 28" transform="translate(202.312 542.753)">
      <g id="グループ_23" data-name="グループ 23" transform="translate(23.042 0)">
        <path id="合体_1" data-name="合体 1" d="M68.474,103.082c-.149-.284-.441-.361-.506-.743l-.406.027v-.045l-.222-.055c-.023-.176-.052-.221-.26-.236l0-.091h-.045c0-.033.007-.028.017-.023s.023.01.03-.02c.035-.16.015-.327.055-.49a2.6,2.6,0,0,0,.055-.3c.008-.065.014-.129.017-.195.007-.131,0-.263,0-.394l-.025-.69a1.035,1.035,0,0,1,.025-.488c-.016,0-.033-.008-.049-.009-.034-.505.036-1.026.029-1.534-.007-.493-.068-.991-.1-1.483l-.041-.56c-.047-.669-.074-1.322-.089-1.991l-.007-.282a5.82,5.82,0,0,1,.008-.6c0-.053,0-.12-.044-.145a.123.123,0,0,0,.041-.105l.016-.488.011-.319c0-.07,0-.139.007-.209.012-.319.036-.638.07-.955.008-.079.017-.159.025-.238.005-.055.009-.109.013-.163l.02-.257a3.034,3.034,0,0,1,.051-.584c.021.009.035.006.035-.02h-.044l.069-.537c.017-.362.035-.724.078-1.084a3.058,3.058,0,0,0,.107-.971c.031.015.049-.035.047-.069s.016-.084.047-.069l-.024-.4c.031.012.048-.033.049-.065l.007-.293c0-.042.012-.094.052-.1l.013-.209a.555.555,0,0,0,.053-.1,1.477,1.477,0,0,0,.025-.255l.049-.5h.045l.008-.18.045,0,.015-.315c.107-.064.212-.116.1-.247a.209.209,0,0,0,.046-.1l.283-1.022.049-.175.129-.464a.333.333,0,0,1,.052-.12c.024-.03.058-.051.083-.079a.355.355,0,0,0,.056-.1,1.069,1.069,0,0,0,.133-.394l.092-.041.052-.133.359.017.1-.13.043.047c.276.088.179.269.617.3l-.005.089.046,0c0,.075-.01.153-.007.226.111.068.048.639.049.779q.014.805.108,1.606c0,.031.008.062.015.092.033.135.034.353.143.413l-.007.135a.062.062,0,0,1,.041.005c-.012.092.084.2,0,.279a.38.38,0,0,0,.073.195c.029.04.066.074.1.113a.956.956,0,0,1,.156.476l.058.421a.266.266,0,0,0,.033.116c.013.021.033.038.046.06.044.076,0,.188.057.252a.485.485,0,0,1,.045.041A.14.14,0,0,1,71,87c0,.263.068.519.057.777l.044,0-.026.572a2.279,2.279,0,0,1-.009.273c-.008.047-.058.116-.05.161a.184.184,0,0,0,.012.033.182.182,0,0,1,0,.079,1.18,1.18,0,0,0,0,.287,1.163,1.163,0,0,1,.028.39c-.008.037-.009.095.03.1a4.341,4.341,0,0,0-.019.435c0,.275-.015.545-.026.819a.119.119,0,0,0-.051.132l.044,0-.059.312a4.618,4.618,0,0,0-.019,1.393l-.014.314h-.045a.119.119,0,0,0,.039.136l-.023.493s-.059,0-.048.088l.044,0a3.191,3.191,0,0,0,.028,1.149.045.045,0,0,1-.039.063.4.4,0,0,1,.02.216,3.134,3.134,0,0,0,.009.612,5.04,5.04,0,0,0,0,.663l.012.337c.018.487.038.972.039,1.458l-.044,0,.018.585h-.045a4.393,4.393,0,0,1-.234,1.069c-.027.089-.055.179-.081.268l-.061.2a3.013,3.013,0,0,1-.12.345c-.033.076-.072.148-.112.222a2.579,2.579,0,0,0-.287.64l-.036.008-.011.084c-.028-.013-.06.015-.069.044s-.005.062-.015.091a.058.058,0,0,1-.092.028,1.279,1.279,0,0,0-.058.141c0-.005-.319.054-.354.066-.076.025-.271.052-.305.131-.008.019-.009.042-.018.06s-.033.036-.052.026l-.01.082-.041.008-.005.124a.074.074,0,0,1-.017.054.154.154,0,0,1-.037.017c-.072.033-.023.1-.047.149-.029.064-.045.039-.1.092a.554.554,0,0,0-.147.263Zm13.646-.18c-.075-.149-.159-.185-.162-.412l-.044,0,.008-.18-.135-.006a1.374,1.374,0,0,0-.07-.452.891.891,0,0,0-.22-.1l-.037-.182h-.044l.068-.537H81.44a6.138,6.138,0,0,0-.02-.635c-.051-.9-.263-1.778-.371-2.671-.041-.336-.067-.673-.092-1.012a2.028,2.028,0,0,1-.009-.325,1.311,1.311,0,0,0,.013-.261.194.194,0,0,1,.009-.137,5.145,5.145,0,0,1-.036-.6s-.044-.014-.047-.007l.053-.177-.045,0,.023-.494-.031-.316.045,0V94.35l-.044,0,.049-.089h-.044l.017-.4h.046a.117.117,0,0,0-.039-.137L80.9,93.09h.044c.018-.078-.037-.076-.04-.092l.009-.225-.044,0,.036-.807h-.044a4.705,4.705,0,0,1,.1-1.21l-.039-.136h.045l0-.089-.045,0c-.009-.077.045-.073.049-.088l.011-.224.039-.852h.044l0-.089.045,0-.027-.405h.044a3.471,3.471,0,0,1,.114-.626l.111-.476c.007-.026.02-.06.049-.059l-.016-.076.157-.388c.047-.117.095-.234.149-.348.028-.061.059-.121.089-.18l.117-.231.116-.227.1-.191.151-.3a2.339,2.339,0,0,1,.208-.3,2.4,2.4,0,0,0,.183-.439c.046-.056.167-.043.229-.08v-.044a1.02,1.02,0,0,1,.19-.124,1.24,1.24,0,0,1,.335.01.109.109,0,0,1,.072.02c.023.021.025.057.043.083.031.047.089.044.148.043a.471.471,0,0,1,.079,0c.212.033.232.4.444.432a.174.174,0,0,1,.059.012.14.14,0,0,1,.039.041,1.029,1.029,0,0,1,.158.259c.011.036,0,.068.006.1.015.058.047.061.049.132l.041.011a5.561,5.561,0,0,1,0,.687,1.328,1.328,0,0,0,0,.36,1.223,1.223,0,0,0,.148.207.548.548,0,0,1,.05.081.225.225,0,0,0,.031.06c.011.014.025.023.036.037a.246.246,0,0,1,.034.148.556.556,0,0,0,.093.276.287.287,0,0,1,.051.089.076.076,0,0,1-.034.089c.09.009.2.031.231.114.014.032.013.069.03.1s.062.052.086.026v.425a.774.774,0,0,0,.058.356c.017.033.024.3-.02.3h.045l-.014.315h.044l-.018.4a1.025,1.025,0,0,1,.065.543h-.044l0,.089-.046,0-.009.225-.045,0,0,.09-.045,0c0,.077.079.075.087.094l.025.406c0,.009-.067.012-.048.088l.087.049-.008.179h-.044l.012.72-.045,0,0,.09-.044,0-.01.224h-.044c-.017.073.073.215.028.361l-.046,0-.008.18.046,0,0,.089H85.3l-.016.359h-.044l.017.585c-.017.057-.163.294-.15.353l.087.048-.02.449-.045,0-.006.135-.045,0c0,.081.01.145-.055.2a.332.332,0,0,1,.066.169.7.7,0,0,1,0,.129l-.025.242a2.677,2.677,0,0,1-.055.372c-.011.044-.025.087-.039.131l-.041.136-.026.083a.945.945,0,0,0-.055.539l-.082.156a3.553,3.553,0,0,1-.015.513l-.017.2L84.7,98.5l-.019.23-.036.444a5.355,5.355,0,0,1-.005.655H84.6l.039.137-.044,0-.025.539-.045,0-.012.269h-.045l-.055.223-.044,0,.039.137a.756.756,0,0,1-.107.356l-.014.313h-.045l0,.089-.092.041,0,.089H84.1l-.01.224-.324.21c-.15.135-.225.3-.465.338-.039.143-.068.161-.233.17V102.9l-.54.02v.045Zm14.116-.639-.226.034,0-.045h-.045l-.112-.5-.177-.052a.127.127,0,0,1-.137.039c-.009,0-.012-.069-.088-.049l-.049.088-.135-.006a1.552,1.552,0,0,0-.252-.371l.051-.132h.045l.009-.224h.045c.017-.075-.039-.079-.041-.091l.033-.719h-.045l.007-.135h-.045l-.036-.182h-.045l.015-.315h-.046l.281-5.2h.045l.025-.538.045,0,.016-.359.044,0c.081-.242.012-.635.084-.85l.031-.673h.044l.031-.673a5.882,5.882,0,0,0,.2-1c.052-.337.15-.664.172-1.006l.036-.008.01-.125.041-.007s.14-.738.159-.8c.092-.3.211-.587.322-.878.01-.028.021-.055.032-.08a1.546,1.546,0,0,0,.16-.4.217.217,0,0,1,.022-.087.306.306,0,0,1,.055-.052.366.366,0,0,0,.076-.172,1.014,1.014,0,0,1,.17-.337c.019-.024.185-.289.137-.291h.044l.19-.215.18.008.1-.131.089,0a.426.426,0,0,0,.187-.083c.124-.076.259-.151.338.021a.086.086,0,0,0,.02.033.06.06,0,0,0,.039.011l.177.009.008.042.121.01c.036.111.249.183.266.279l.071.408h.045l0,.089.087.049,0,.089.045,0c-.009.048-.024.33-.1.314l-.013.3c0,.029-.021.071-.047.057l-.012.215a.074.074,0,0,0,.008.049c.01.015.03.02.045.031a.083.083,0,0,1,.029.1c.033-.013.048.04.043.075s.01.087.043.074a.123.123,0,0,0,.03.14l.009.073c.049.022.044.092.033.145s-.014.124.037.145c0,.1-.008.2-.012.3l-.045,0,.027.407h.045l0,.09.044,0-.016.359h.044a1.434,1.434,0,0,1-.068.537l.031.316-.045,0,0,.9-.045,0c-.024.1.049.208.022.317a1.208,1.208,0,0,0-.029.486l-.158.672a.356.356,0,0,0-.013.1c0,.117.12.215.1.331a.6.6,0,0,1-.028.079.665.665,0,0,0-.02.2,3.518,3.518,0,0,1-.128.913l.012.12c-.076.063-.063.319-.055.409-.078.011-.058.249-.085.33.028.021.026.061.022.1l-.031.28c-.013.114-.026.229-.048.343-.016.082-.037.163-.058.244l-.1.382a.235.235,0,0,0,.025.223,1.071,1.071,0,0,0-.078.324l-.044.34a3.379,3.379,0,0,0-.04.461c0,.088.008.176,0,.263a.843.843,0,0,1-.084.309c.035.033.025.09.013.137l-.119.443a1.355,1.355,0,0,1-.134.759.533.533,0,0,0-.059.146c-.005.029-.057.412-.065.41H98.03l-.064.4.045,0,.036.182-.044,0a.418.418,0,0,1-.324.21c-.053.172-.108.131-.235.215l-.33.344-.092.042-.007.134-.185.127-.007.134h-.044c-.07.079-.06.1-.186.126l0,.045-.087-.049c-.111.047-.148.113-.321.12Zm-44.02.126v-.044a.419.419,0,0,0-.052,0c-.058,0-.12.006-.132-.054a.088.088,0,0,1-.1-.048.1.1,0,0,0-.02-.041.062.062,0,0,0-.041-.01l-.16,0a.1.1,0,0,1-.049-.009c-.06-.032-.016-.14-.068-.183-.014-.011-.031-.015-.045-.025-.067-.05.009-.165-.028-.239-.01-.021-.03-.039-.034-.061s.04-.039.049-.062a.7.7,0,0,0,.009-.195c.135-.059.073-.145.18-.228a.253.253,0,0,0,.049-.042.173.173,0,0,0,.009-.119c0-.041.009-.092.049-.1l.011-.074c.039-.006.05-.053.055-.091l.054-.527c0-.028.015-.064.044-.062l.039-.3.007-.063c0-.025.006-.05.01-.075.017-.1.06-.188.07-.289a3.866,3.866,0,0,0-.016-.476c.019-.4.038-.805.055-1.209l-.042-.009.009-.262-.038-.01a.087.087,0,0,1,.013-.085.224.224,0,0,0,.041-.079c0-.03-.019-.065-.048-.06l.06-.393-.04-.009a.9.9,0,0,1,0-.268c0-.117,0-.234,0-.353,0-.228-.011-.456-.02-.685l-.017-.394-.007-.169-.039-.914c-.1-.081-.073-.446-.009-.54-.031-.012-.034-.052-.033-.086l.021-.356c0-.031-.015-.077-.044-.063l.017-.394c0-.029-.016-.071-.041-.057l.015-.4c0,.019-.035-.067-.037-.082a1.084,1.084,0,0,1,0-.109c0-.091-.006-.183-.009-.274-.005-.135-.012-.269-.019-.4l-.014-.248-.006-.112-.042-.783-.007-.151a3.943,3.943,0,0,0-.005-.679l.045,0c.006,0,.022-.573.02-.613,0-.077-.012-.153-.018-.229a1.5,1.5,0,0,1,.041-.54.552.552,0,0,0,.024-.1,1.177,1.177,0,0,0-.038-.254.347.347,0,0,1,.049-.212c-.013-.133.088-1.286.068-1.287l.045,0,.015-.314.044,0c0-.07-.026-.252.063-.279a.379.379,0,0,1,.044-.273.411.411,0,0,1,.05-.217l.025-.115a.1.1,0,0,0,.047-.049,1.049,1.049,0,0,0,.1-.237c.011-.042.015-.087.026-.131a1.077,1.077,0,0,1,.124-.272c.009-.016.025-.035.042-.028a.119.119,0,0,1,.044-.137.476.476,0,0,0,0-.12.215.215,0,0,1,.053,0l.007-.135.044,0,.007-.135.092-.041,0-.089.095-.086.09,0,.144-.218.225.01.043.047v-.046a.41.41,0,0,1,.229-.079.555.555,0,0,1,.117.409c.039.014.112.029.137.066s-.015.128.039.17c.025.018.063.022.071.05a.09.09,0,0,1,0,.034.115.115,0,0,0,.068.1c.039.02.1.012.134.039s.024.122.06.151c.066.055.207.121.17.229l.047.011c-.017.027-.032.055-.047.084a.1.1,0,0,0-.014.063c0,.02.03.038.048.027,0,.04,0,.079,0,.129a.019.019,0,0,0,.018.008c.047,0,.015.194.014.236-.005.1-.009.2-.014.3l.045,0c.014,0-.049.346.016.377.02.01.042.017.051.036s-.008.055.005.079.029.022.045.033a.087.087,0,0,1,.035.1c.011.01.033.005.042.031,0,.081-.007.161-.009.243l.04.01a1.763,1.763,0,0,1-.017.445,8.017,8.017,0,0,0,.007.855l-.055.222a2.973,2.973,0,0,1,0,.945l-.044,0c-.017.075.038.079.04.092-.009.209-.018.417-.042.624-.012.1-.024.205-.027.308a3.909,3.909,0,0,0,.018.442l.011.135a2.473,2.473,0,0,0,.039.318c.007.031.015.062.02.092.02.1-.028.589.044.605,0,.017-.006.22-.007.22h.044l-.055.223c.13.036.082.164.076.271a.07.07,0,0,0,.009.049.133.133,0,0,0,.04.025.086.086,0,0,1,.033.108c.032-.012.048.036.046.069l-.014.188c0,.033.011.079.043.071l-.006.217c.023-.012.038.025.037.051a5.262,5.262,0,0,0,.119,1.4l-.028.628.044,0-.043.942c.009.118.026.239.025.357l-.038.006.031.129-.04.005-.033.711-.044.006a6.444,6.444,0,0,0-.031.669l-.045,0,0,.045.045,0-.028.628.044,0c0,.031-.011.026-.02.022s-.02-.01-.027.021l-.025.583H54.94l-.011.223h-.044s-.02.378-.021.4c-.022-.017-.044.022-.045.049l-.011.211c-.052.015-.057.087-.051.14s.007.126-.044.145l-.124.341a1.867,1.867,0,0,1-.084.209,1.814,1.814,0,0,0-.141.4c-.008.031-.029.069-.059.06l-.014.076a.113.113,0,0,0-.041.135c-.044-.008-.068.048-.075.092s-.027.1-.071.095a2.8,2.8,0,0,1-.163.572l-.136.039,0,.044-.089,0v.045l-.09,0-.1.13-.314-.015v-.044l-.044,0,0,.045-.315-.015a1.686,1.686,0,0,1-.477.132A.467.467,0,0,1,52.217,102.389Zm69.1-.46a.335.335,0,0,0-.18.046v-.044c-.077-.086-.012-.239,0-.405l-.136-.044v-.044c-.073-.03-.085.044-.089.045l-.405-.042V101.4s-.061-.116-.067-.127c-.019-.037-.079-.129-.074-.169s.017-.073,0-.1l-.041-.014c.023-.035-.005-.081-.039-.106s-.075-.041-.1-.078a.174.174,0,0,1-.016-.067l-.018-.162c0-.035-.02-.08-.055-.076-.021-.042.016-.105-.019-.137-.015-.014-.039-.015-.055-.026-.043-.031-.023-.146-.023-.191h-.045L120,99.6a3.59,3.59,0,0,1,.125-1.348l0-.4h.045l0-.4h.045l0-.539h.045c.03-.7.044-1.391.138-2.084.015-.109.03-.218.039-.328s.012-.243.015-.364l.011-.468c.007-.356.015-.714.033-1.069q.022-.406.061-.81c.049-.508.111-1.015.168-1.522a.3.3,0,0,0,.055-.145,1.249,1.249,0,0,0-.016-.215.234.234,0,0,1,.065-.2l-.026-.058a.17.17,0,0,0,.038-.162c-.012-.057-.039-.111-.049-.168,0-.013.119-.32.086-.32h.045l.039-.81H121l.086-.54h.045v-.089h.044l.041-.495h.045v-.18h.045v-.089h.046v-.135h.045c.011-.1-.007-.316.082-.379a.132.132,0,0,0,.042-.035.092.092,0,0,0,.008-.047v-.164a.079.079,0,0,0,.068-.065c.009-.032.008-.067.018-.1.02-.069.087-.118.107-.186a.587.587,0,0,0,.007-.134.129.129,0,0,1,.059-.114l.009-.079c.045.017.052-.074.1-.091a.073.073,0,0,1,.033,0,.078.078,0,0,0,.039-.006c.026-.017.017-.056.026-.085s.049-.053.078-.075.055-.065.031-.094.111-.134.136-.147v-.089c.075-.143.135-.269.313-.317.049-.215.228-.192.493-.183.047-.206.194-.192.448-.183a1.2,1.2,0,0,0,.271.223h.135l.045.089a.4.4,0,0,0,.174.023c.078,0,.148,0,.186.065l0,.225h-.046a1.886,1.886,0,0,1,.049.583h-.045l.005.629h.045v.091h.045v.135h.045a.4.4,0,0,1-.044.225l.136.089c.05.115-.079.268,0,.45h.045v.09l.09.045a1.149,1.149,0,0,1,.049.583h-.044l.046.134h.044v.269h.046c.023.119-.126.407-.041.584l.135.089a1.463,1.463,0,0,1,.049.719.058.058,0,0,0-.041,0,1.306,1.306,0,0,1-.033.321c0,.028,0,.072.033.065l-.037.033a.584.584,0,0,1,.017.4,1.513,1.513,0,0,1-.007.292l-.031.34-.014.146c-.018.191-.036.381-.054.572-.008.084.041.339-.034.346a5.567,5.567,0,0,0,0,.714h-.046l0,.18h-.046c-.016.088.087.17.048.313h-.045v.18h-.045c-.014.076.043.076.045.089v.225l-.089.047c-.04.049.008.009-.044.044v-.044c-.076-.044-.038.065-.044.09h.135a3.811,3.811,0,0,1-.126,1.214l0,.359h-.045v.09h-.045l0,.359h-.044a9.314,9.314,0,0,1-.192,1c-.021.089-.041.177-.063.266q-.067.284-.136.567c-.034.142-.069.284-.1.426l-.087.353-.047.195-.028.112-.1.4c-.041.167-.081.334-.124.5l-.041.159c-.029.113-.064.228-.086.34a.067.067,0,0,1-.041,0v.089h-.045v.135h-.045l-.088.27h-.046v.09l-.09.046-.088.27-.134.09v.18h-.045c-.073.1-.062.116-.224.137a1.4,1.4,0,0,1-.49.632l-.089.135a.642.642,0,0,1-.359.092C121.465,102.15,121.361,102.117,121.318,101.929Zm12.969.276a.416.416,0,0,0-.18-.088l-.093-.494a.373.373,0,0,1-.09-.089h-.18l-.045-.089h-.225V101.4h-.09v-.045l-.271-.043-.135-.223-.091-.045v-.134h-.045v-.135h-.046l-.046-.18H132.7v-.089l-.135-.044-.227-.314v-.089h-.045l-.048-.449a4.629,4.629,0,0,1-.015-2.021c.013-.077-.042-.076-.045-.089l0-.539h.046s0-.326,0-.355c.016,0,.041-.011.056-.012-.047-.161.1-.417.1-.6,0-.135-.017-.27-.015-.406a1.365,1.365,0,0,1,.052-.364.18.18,0,0,1-.012-.151,2.125,2.125,0,0,0,.041-.588.757.757,0,0,1,0-.186,1.054,1.054,0,0,1,.028-.1,1.756,1.756,0,0,0,.041-.542l-.012-.445c0-.031.009-.073.039-.073l.026-.356a.571.571,0,0,0,0-.172.356.356,0,0,1-.024-.133c.009-.056.059-.1.082-.148a.358.358,0,0,0,0-.209,2.115,2.115,0,0,1-.01-.6c.005-.035.068-.5.019-.477.033-.019.022-.07.011-.107-.05-.177.041-.366.015-.548-.016-.111-.071-.236,0-.324a1.45,1.45,0,0,1-.045-.466c0-.132.076-1.761.039-1.761h.044l.038-.988h.045c0-.132-.008-.268,0-.4.084-.039.078-.567.1-.687l.073-.506a.848.848,0,0,1,.071-.273.568.568,0,0,0,.049-.1.467.467,0,0,0,.012-.111,1,1,0,0,1,.214-.583l-.029-.12a.808.808,0,0,0,.145-.335.8.8,0,0,1,.028-.139,1.085,1.085,0,0,1,.127-.206,1.145,1.145,0,0,0,.123-.322.273.273,0,0,1,.106-.146c.072-.066.088-.049.126-.167h.045v-.134l.179-.137c.058-.1-.025-.124.089-.225v-.045l.629,0c.052.051,0,.018.09.044l.047.224h.045c.023.275.047.543.089.8a.238.238,0,0,0,.041.089l.2.316a.448.448,0,0,1,.1.284c-.007.05-.032.1-.012.149s.078.064.119.1c.132.105.049.324.11.482.033.087.112.169.083.257-.012.038-.044.076-.028.112s.055.039.078.063c.081.083-.093.246-.008.324.016.015.037.021.051.037s.014.068.01.1.014.084.05.083a1.561,1.561,0,0,0-.044.479h.044c0,.1-.04.365.039.417a.38.38,0,0,0,.052.319c-.063.089-.019.209-.005.316.036.281-.143.585-.014.837a.328.328,0,0,1,.027.061.249.249,0,0,1-.017.119,1.2,1.2,0,0,0,0,.471c.045.366.075.734.09,1.1a.313.313,0,0,1-.03.186,1.1,1.1,0,0,0,.044.228,1.613,1.613,0,0,1,0,.29,2.764,2.764,0,0,1-.062.458,4.234,4.234,0,0,1,.03.761c-.03.236-.041.472-.049.712l-.028.786-.031.862-.011.279c-.009.262-.018.522-.032.783-.007.13-.1,1.612-.108,1.613h-.045l0,.27h-.045a6.469,6.469,0,0,1-.218,1.3c-.02.095-.038.188-.061.282-.016.066-.033.132-.052.2-.081.3-.187.608-.241.915-.059.023-.038.08-.037.14l-.089.045-.044.226-.09.045v.09l-.178.135-.043.36h-.044l.047.269h.044l0,.315.09.044v.135h.046l-.043.359h-.046v.089h-.045l0,.269-.449,0Zm-124.674,0c-.432-.147-1.023-.218-1.469-.336a1.384,1.384,0,0,1-.025-.451l-.267-.057v-.045c-.049-.053-.018,0-.041-.092a.391.391,0,0,0,.371-.252c-.074-.055-.059-.032-.083-.139l.32-.121.053-.177.092-.041.006-.135.045,0,.067-.492.045,0,.052-.177.092-.041.057-.267h.044l.053-.177h.046l.008-.18.044,0,0-.091.046,0,.135-.977a4.534,4.534,0,0,1,.142-.9,1.981,1.981,0,0,0,.083-.233.27.27,0,0,0-.044-.235c.071,0,.06-.11.066-.18.008-.108.1-.231.025-.308a1.1,1.1,0,0,0,.085-.535l.106-.527c0-.219.048-.444.058-.663l.044,0c.017-.076-.038-.079-.04-.092l.032-.718h.045l.049-1.076.045,0,.036-.807.045,0,0-.045-.045,0,0-.09h-.045c.033,0,.022-1.244.015-1.343.03.009.049-.032.052-.063a.965.965,0,0,0-.026-.342c.04,0,.047-.057.042-.1s.008-.094.047-.09c-.009-.087-.019-.174-.028-.26.151.026,0-.806-.007-.9a6.183,6.183,0,0,1,.167-1.7l-.033-.271.046,0c.017-.093-.041-.092-.041-.092l.013-.269.044,0-.036-.181h.044l-.023-.5.045,0,.007-.135.044,0-.039-.137.045,0-.025-.451.045,0,0-.09.046,0,.016-.359.044,0,.007-.135.044,0,.013-.269.091-.041.1-.265.044,0,0-.091.045,0c.073-.169-.007-.37.113-.49v-.044l.225.009c.007,0,.076.092.095.1.05.031.135.013.177.041a.109.109,0,0,1,.019.018c.074.093.059.374.072.5a.13.13,0,0,0,.025.079c.015.017.038.025.052.042.052.056-.015.152.017.221.022.046.078.063.113.1.1.1.008.3.123.38,0,.115-.009.23-.009.344a5.74,5.74,0,0,1,.007.813.056.056,0,0,1,.04.006,1.387,1.387,0,0,1-.05.329.1.1,0,0,0,.006.071c.012.017.034.024.049.039.047.044.009.121.016.185s.057.11.073.169c.036.119-.055.281.044.357a.538.538,0,0,0-.067.252,1.413,1.413,0,0,0,.065.233,1.49,1.49,0,0,1-.006.414.2.2,0,0,0,.007.079.351.351,0,0,0,.036.061.831.831,0,0,1,.11.339c.033.188.082.365.121.551.026.123.043.248.06.372.006.047.012.093.019.14a17.225,17.225,0,0,1,.21,3l-.006,1.124H12.58l-.008.179-.045,0,0,.045.045,0-.012.269-.045,0c.016,0-.062.731-.068.789l-.025.248-.108,1.034c-.03.287-.06.575-.1.861-.023.153-.049.306-.076.46a8.748,8.748,0,0,0-.14,1.124l-.044,0-.015.314h-.045l-.01.224-.045,0-.009.224h-.046l-.055.223-.045,0,0,.09-.044,0-.111.444-.044,0c-.012,0-.089.236-.11.255-.041.039-.114.076-.089.125a.117.117,0,0,0-.047.137c-.056.012-.073.082-.076.138s-.015.127-.069.143l-.012.078c-.024-.007-.044.023-.046.048a.247.247,0,0,1,0,.077c-.022.054-.111.052-.133.105-.008.021,0,.046-.011.067-.018.049-.089.053-.126.091s-.025.121-.063.167a.552.552,0,0,1-.073.057.075.075,0,0,0-.024.08c-.054.015-.046.045-.048.1H10.5l-.007.134h-.046l-.005.135-.139.084c-.118.209.128.3-.284.3a.482.482,0,0,1-.243.048A.531.531,0,0,1,9.613,102.209Zm28.806-.176-.037-.182-.18-.008a.571.571,0,0,1-.034-.226.785.785,0,0,0,.155-.443.587.587,0,0,1-.15-.02,1.461,1.461,0,0,0,.135-.565,1.21,1.21,0,0,1,.042-.417.2.2,0,0,0,.023-.083c0-.029-.028-.059-.056-.052a.746.746,0,0,0,.049-.311.483.483,0,0,1,.008-.217c.015-.039.045-.081.028-.119s-.076-.087,0-.1a5.385,5.385,0,0,1,.066-.689c.063-.236.105-.478.145-.718.007-.041-.007-.1-.047-.093a.173.173,0,0,0,.025-.086l.065-.565.027-.228c.01-.093.021-.185.031-.277.025-.247.039-.493.042-.74,0-.119,0-.237,0-.356a1.392,1.392,0,0,0,.014-.279c-.11-.468.038-.892-.073-1.353l.1-2.244c.007-.479.013-.958.02-1.437h-.045c-.023-.108.052-.116.054-.178h-.046l.046-.988-.046,0s-.074-1.119-.076-1.223a.23.23,0,0,0-.038-.15.168.168,0,0,0,.029-.132l-.02-.287a4.582,4.582,0,0,1-.016-.458c0-.084.136-1.212.1-1.213h.045l.065-.447.046,0,.01-.225.044,0,.007-.135.044,0,.06-.312h.044l.076-.671s.039,0,.04,0a1.66,1.66,0,0,0,.015-.173l.04-.007.009-.08.041-.009a.125.125,0,0,1,.014-.08c.017-.028.052-.036.08-.055a.139.139,0,0,0,.053-.16l.045-.01c0-.009.058-.172.056-.172l.137-.039,0-.044a.622.622,0,0,1,.306.193l.041.092a1.422,1.422,0,0,1,.452.116,1.565,1.565,0,0,1,.195.415.076.076,0,0,0,.022.032c.02.016.049.01.076.009a.175.175,0,0,1,.161.227l.046.015-.006.124a.086.086,0,0,0,.007.043.124.124,0,0,0,.037.033.123.123,0,0,1,.035.15l.046.016a.083.083,0,0,0,.023.1c.013.009.028.016.041.027.063.061.006.326,0,.41.022,0,.033.023.039.044l.08.362c.008.039.017.077.023.115.011.071.013.143.019.215.017.235.073.465.1.7a3.634,3.634,0,0,1,0,.695s.055,0,.041.092a.078.078,0,0,0-.049.087l.044,0a.889.889,0,0,0-.007.191c.013.061.064.1.068.172a.646.646,0,0,1-.023.153.527.527,0,0,0,.038.306l-.081.472-.093.545a.139.139,0,0,1-.041.092c.063.045.035.14.017.213a8.061,8.061,0,0,0,.026.953l-.045,0-.009.225h-.046a.073.073,0,0,0,.041.091c.006.057-.071.073-.053.178h.044l-.008.179H41.3a5.589,5.589,0,0,1-.049.653l-.049.471-.032.322-.007.073-.093.913-.014.132.058.219a1.685,1.685,0,0,0-.023.277c-.013.358-.036.707-.068,1.063a1.533,1.533,0,0,0,.048.615.353.353,0,0,0-.047.148L41,96.089c-.024.149-.048.3-.074.447s-.056.3-.086.45c-.05.251-.086.493-.115.745l-.044,0-.063.4-.045,0a2.326,2.326,0,0,1-.108.551l-.028.1c-.065.23-.132.461-.19.693q-.021.081-.039.161c-.029.125-.057.252-.087.377-.063.263-.132.524-.212.783-.012.035-.022.071-.033.107a.431.431,0,0,0,.015.379c-.025-.033-.313.331-.334.356l-.182.037-.048.087-.228.035c-.19.105-.317.27-.6.288C38.458,102.028,38.507,102.064,38.419,102.033Zm69.808-.385a1.542,1.542,0,0,1-.245-.551c-.236.052-.075.028-.22-.1v-.045l-.269-.012s.023-.54.024-.579l-.039-.011,0-.08-.039-.012.008-.26-.04-.011.007-.26-.038-.012,0-.08-.039-.012c-.012,0,.058-.4.06-.441a.159.159,0,0,0-.041,0l.059-.312h-.045l.051-.132c.072-.377,0-.856.1-1.165.059-.177-.047-.38-.022-.5l.044,0a5.666,5.666,0,0,0-.012-.876,1.142,1.142,0,0,1,.043-.345,2.64,2.64,0,0,0,.052-.566.426.426,0,0,0-.017-.129.232.232,0,0,1-.019-.06c0-.059.06-.1.065-.161a.3.3,0,0,0-.042-.127c-.015-.041-.006-.1.039-.11l-.025-.087a1.111,1.111,0,0,0,.048-.41l.043-.943-.046,0,.012-.269a24.433,24.433,0,0,1,.188-2.557c.053-.357.177-.7.241-1.046.08-.439.156-.886.244-1.327a.188.188,0,0,1,.025-.071c.015-.02.038-.033.055-.053a.23.23,0,0,0,.039-.1l.088-.4c.041-.183.086-.532.256-.607l.07-.537.092-.04.008-.18h.044c0-.028,0-.056.007-.085.061-.025.019-.056.061-.1.019-.019.049-.021.072-.035a.112.112,0,0,0,.046-.1.313.313,0,0,0-.034-.111c.051,0,.071-.065.076-.115s.02-.114.069-.121l.012-.076.039-.008.012-.166c.054-.015.068-.084.071-.14s.016-.124.069-.141l.014-.073c.11-.044.023-.228.1-.273l.139-.084c.058-.079.073-.253.15-.308l.089,0,.049-.088.135.007v-.045a.334.334,0,0,1,.228-.079v.045l.18.008,0,.044.09,0,0,.045a.449.449,0,0,0,.222.034c.079,0,.131-.009.221.12l.046,0-.019.4.045,0,0,.045v.044l-.046,0-.015.314H111.1l-.016.359-.045,0-.016.359-.046,0a2.5,2.5,0,0,0,.007.855l.011.764.173.143,0,.089.045,0-.01.224.088.049c.061.035.054.411.06.479l0,.049c.005.06.01.119.015.179a.552.552,0,0,0,.133.4.218.218,0,0,1,.046.044c.03.049-.009.11-.03.164s.005.141.061.126a1.319,1.319,0,0,0,.049.712,1.155,1.155,0,0,0-.047.335l-.044,0c-.021.458-.085.911-.137,1.367a.26.26,0,0,1-.068.177c.036.02.03.072.018.111a1.843,1.843,0,0,0-.06.535c0,.05.006.1.009.149.012.182.019.364.018.546,0,.047-.1.563-.073.564l-.045,0-.017.359h-.045l.037.181.044,0-.028.628h-.045l-.016.359-.044,0-.023.494-.045,0-.018.4h-.045l0,.089-.045,0,.031.316a1.846,1.846,0,0,1-.112.49l-.089.985a3.045,3.045,0,0,1-.124.433c-.043.167-.083.334-.135.5a5.932,5.932,0,0,0-.258.954c-.005.039-.01.079-.015.117a.187.187,0,0,1-.022.07.566.566,0,0,1-.047.047.251.251,0,0,0-.042.121,3.778,3.778,0,0,1-.135.56.6.6,0,0,0-.327.2c-.052.061-.1.137-.171.168s-.155.013-.21.063-.076.177-.156.167c.039.005-.1.233-.1.26l-.044,0c-.064.064-.025.06-.139.084l0,.044a.059.059,0,0,1-.026,0A1.7,1.7,0,0,1,108.227,101.648ZM.966,101.661c-.188-.064-.331.057-.437-.177a1.45,1.45,0,0,1-.086-.291l-.009-.043-.071-.327-.024-.109a.084.084,0,0,0-.037-.091c-.015-.008-.033-.012-.041-.027a.06.06,0,0,1,0-.047l.046-.218c-.024.006-.041-.023-.047-.048-.032-.15.036-.332-.154-.374.017-.069.057-.158.021-.228s-.161-.06-.114-.18a.279.279,0,0,1,.128-.117.4.4,0,0,0,.153-.144.173.173,0,0,0-.015-.2.426.426,0,0,0,.1-.371L.3,98.659a1.185,1.185,0,0,1,.011-.505.289.289,0,0,0,.013-.124c0-.024-.017-.047-.02-.07a.219.219,0,0,1,0-.062l.016-.112c.023-.16.047-.32.079-.477a3.948,3.948,0,0,0,.134-.972H.578l.02-.449a7.161,7.161,0,0,0,.068-.874c.006-.161.011-.323.028-.483a.345.345,0,0,0-.031-.242.692.692,0,0,0,.053-.4A.523.523,0,0,1,.7,93.72c.013-.089.085-.177.047-.257-.013-.027-.036-.049-.038-.078a.142.142,0,0,1,.028-.065.91.91,0,0,0,.042-.388l.022-.5c.024-.522.005-1.036.019-1.556v-.069L.829,90.5l.008-.3a.574.574,0,0,0,.007-.376.1.1,0,0,1-.007-.047c.009-.038.035-.069.044-.109a1.356,1.356,0,0,0,.011-.237l.022-.478.044-.954H1l.018-.4.045,0,.02-.449h.045c.005-.117.005-.236.018-.353.074-.026.05-.151.055-.223l.041-.007.011-.125.04-.007.011-.125.039-.008.01-.079.04-.008.009-.126c.036.005.061-.038.068-.074s.009-.079.041-.1a.139.139,0,0,0,.03-.019.058.058,0,0,0,.011-.031c.006-.05.049-.447.06-.447l.044,0,.008-.18c0,.009.041,0,.042,0,.014-.1.013-.2.018-.3l.044-.008a.12.12,0,0,1,.063-.126.285.285,0,0,0,.058-.027c.051-.043.008-.129.035-.189l.039-.009.013-.214.04-.007a.771.771,0,0,0,.009-.13h.045l.008-.179.139-.084,0-.089.139-.084V83.74l.18.008a.286.286,0,0,0,.276.118.612.612,0,0,1,.257.042l0,.044.177.054c.02.156.063.235.212.279l0,.045.044,0,0-.044a1.7,1.7,0,0,0,.2-.4l.044,0-.006.135a1.207,1.207,0,0,0-.113.535.354.354,0,0,1,.048.007,1.22,1.22,0,0,0-.009.126c.031-.009.048.036.049.07l.009.386c0,.041.01.092.05.1l0,.124a.047.047,0,0,1,.051.028.124.124,0,0,1,.006.063c-.017.249-.228.585-.055.81a.761.761,0,0,0,.306.194l-.086.9-.044,0c-.009.058.068.078.036.182l-.044,0-.019.4-.045,0c-.067.193-.02.371-.065.447l.039.136H3.813a3.622,3.622,0,0,0-.007,1.124c-.008.063-.03.512-.113.494a.67.67,0,0,1,.044.193c0,.038-.021.092-.055.075l-.012.256c0,.033-.03.078-.054.055a2.073,2.073,0,0,1,.049.283.07.07,0,0,1-.015.065c-.013.009-.031.01-.044.02a.077.077,0,0,0-.022.052,5.206,5.206,0,0,1-.072.967,1.049,1.049,0,0,0,.023.593,2.8,2.8,0,0,1,0,.629.548.548,0,0,0,.084.336,1.3,1.3,0,0,0-.092.45c0,.09.007.18,0,.271a1.047,1.047,0,0,1-.081.354c.084.112-.033.292.045.41a4.126,4.126,0,0,0-.063.73l-.045,0,0,.09-.045,0c0,.284,0,.567.007.85-.079.033-.083.223-.1.305-.01.055-.019.109-.028.164l-.012.073c-.015.087-.028.172-.04.258-.02,0-.033.023-.04.042a1.009,1.009,0,0,0-.037.224l-.007.066a4.141,4.141,0,0,1-.1.835h.044l-.059,1.3.045,0c.073.117.106.1.122.275l-.327.255-.008.18-.045,0,0,.09-.092.041,0,.09-.278.167-.006.134-.092.041c-.145.138-.122.13-.41.116v.044l-.225-.009L1.6,101.6a.166.166,0,0,1-.092.012.093.093,0,0,0-.089.025l-.052.132a.1.1,0,0,1-.039.007A1.388,1.388,0,0,1,.966,101.661Zm22.446-.129c-.066-.046-.072-.091-.129-.14l.015-.314-.135-.007,0-.044-.045,0,.007-.134a.908.908,0,0,0,.156-.487l-.135-.007.065-.447.045,0,.052-.178.045,0-.023-.5h.046l.017-.4.045,0c-.025,0,.071-.749.077-.806q.046-.4.124-.794c.015-.076.027-.167-.031-.218l.053-.034a.221.221,0,0,1,0-.273c.019-.091-.043-.181-.037-.273a.768.768,0,0,1,.062-.186.159.159,0,0,0-.031-.18.15.15,0,0,0,.049-.151c-.009-.056-.032-.108-.037-.164a.713.713,0,0,1,.052-.243.256.256,0,0,0-.028-.238c.019.021.053-.266.055-.293l-.045,0,.023-.5c.007-.141-.033-.265-.027-.4a5.944,5.944,0,0,0-.025-.924.292.292,0,0,1,0-.133q-.035-.345-.063-.689c-.018-.23-.033-.46-.048-.69a8.071,8.071,0,0,1-.031-.9l-.046,0,.025-.539h-.044c.012,0-.022-.7-.025-.754a.629.629,0,0,1,.015-.231c-.033,0-.045-.042-.047-.076l-.039-.591c-.02-.306-.007-.615-.017-.918h-.041c-.023-.1.06-.25.057-.268a.129.129,0,0,1-.039-.137l.045,0-.034-.226.1-1.3.045,0,.01-.225.045,0c0-.09.049-.117.057-.218l.041-.007.009-.08.041-.007.01-.12a.127.127,0,0,0,.07-.115.282.282,0,0,1,.03-.137.409.409,0,0,1,.08-.07,1.151,1.151,0,0,0,.067-.216l.045,0,.078-.716c.05-.127.169-.2.239-.3.1.021.08.046.088.049l.225.009,0,.045c.085.065.1.105.218.145.025.136.071.108.084.139l-.01.224.088.049.065.542.089,0c.008.077.041.092.041.092l-.028.628h.045l0,.09.044,0-.008.18.046,0-.015.313.087.049.034.226.131.1,0,.09.045,0-.029.628.045,0-.015.313.045,0a1.842,1.842,0,0,0,.015.451c.006.055,0,.111,0,.167a.456.456,0,0,0,.049.184.136.136,0,0,1,.033.063.817.817,0,0,1,.03.162c0,.061,0,.123.007.184a1.077,1.077,0,0,0,.02.108q.024.118.046.236a1.176,1.176,0,0,1,.025.383,1.213,1.213,0,0,0,.039.188l.13.1.033.271.044,0,0,.089.045,0-.015.315a.046.046,0,0,1,.041.005.73.73,0,0,0,.044.332c.012.023.029.044.042.066a.543.543,0,0,1,.058.194c.019.112.038.225.056.337l.081.487.058.353.048.287.017.106a2.215,2.215,0,0,1,.044.459c-.012.292.015.567.028.858l-.044,0-.039.853-.059.312a.063.063,0,0,1,.041,0,2.251,2.251,0,0,1-.009.262l-.042.007a2.217,2.217,0,0,0-.011.26l.036.012a.7.7,0,0,1-.052.347l.039.012-.012.3c0,.028-.018.065-.042.053a1.556,1.556,0,0,1,.018.447h-.044c-.012.055.067.079.036.181h-.044l-.023.494-.045,0-.008.18h-.044c.044,0,.02.335.014.363l-.087.383-.033.148c-.015.068-.031.137-.05.205-.024.09-.054.18-.086.269-.057.156-.12.309-.191.46-.048.1-.1.207-.153.31l-.126.249c-.031.063-.057.161-.124.186,0,.028,0,.056,0,.084l-.091.041-.008.18-.092.04-.01.225H25.2l-.055.222a.688.688,0,0,0-.594.2l-.049.089-.135-.007v.045l-.135-.006v.045l-.225-.01,0,.045-.09,0-.049.087-.135-.005,0,.044-.09,0-.049.088-.09,0v.044C23.412,101.551,23.461,101.584,23.412,101.532ZM39.6,83.068h0ZM4.166,81.72l.007-.135.044,0-.006.135Zm94.127-3.243a1.549,1.549,0,0,1-.439-.244c0-.021.012-.069,0-.087s-.042-.025-.052-.036a.354.354,0,0,1-.072-.135l-.025-.069c0-.012-.009-.028,0-.038a.312.312,0,0,0-.106.039l0-.045-.131-.1,0,.089h-.046c0,.072.12.135.08.228l-.045,0v.045l-.089,0L97,77.339l-.09,0a3.146,3.146,0,0,0-.113-.455l.009-.224-.044,0c-.007-.164-.013-.327-.03-.489a.178.178,0,0,1-.025-.184.035.035,0,0,1-.041-.021.1.1,0,0,1-.006-.049l.02-.428a.027.027,0,0,1-.036-.012.079.079,0,0,1-.007-.043l.014-.306a.027.027,0,0,1-.036-.013.078.078,0,0,1-.006-.043c0-.1.009-.2.015-.306l-.044,0,.036-.807-.046,0s.021-.5.023-.537l-.042-.006,0-.044a.028.028,0,0,0,.04-.009.079.079,0,0,0,.009-.045l0-.247a.112.112,0,0,1,.02-.175l-.049-.019c0-.372.032-.747.049-1.119l-.03-.316.049-1.076-.045,0,.02-.448-.01-.766h-.044c-.063-.26.123-.607.041-.942l-.044,0,.035-.762c-.105-.44.034-.86-.076-1.308l.039-.852a10.846,10.846,0,0,0,.008-2.158l.008-.18-.044,0,.006-.135-.044,0a.265.265,0,0,1,.059-.312l0-.044.224.009,0-.044s.332.017.357.018l0,.046a.3.3,0,0,1,.219.034.493.493,0,0,0,.063.053.352.352,0,0,0,.074.023c.081.028.1.113.164.165a.813.813,0,0,0,.267.162c.006,0,.05.156.063.177a.765.765,0,0,0,.1.142c.073.079.177.147.118.275l.047.008-.005.176a.026.026,0,0,1,.036.012.079.079,0,0,1,.007.041l-.015.308a.028.028,0,0,1,.036.011.067.067,0,0,1,.005.041l-.01.263.042.005v.087l.041.006c0,.164-.012.328-.02.492,0,.079-.007.159-.012.238a.447.447,0,0,0,.048.18.666.666,0,0,1-.034.385l.049.009,0,.129c.036,0,.042.055.038.092q-.04.359-.074.719l.041.005v.087l.041.006,0,.131.041.005c-.008.224-.019.448-.029.672h.045l0,.089.046,0-.007.134.045,0c.005.209.012.42.017.629a.027.027,0,0,1,.036.011.077.077,0,0,1,.006.041l-.011.264c.055-.008.041.051.044.087a.049.049,0,0,1,.039.036.141.141,0,0,1,0,.055l-.016.209a.105.105,0,0,0,0,.05c.01.023.031.023.04.044s-.009.076.006.1a.328.328,0,0,1,.028.221c0,.014.041.083.043.109a.88.88,0,0,1-.012.115c-.008.109-.009.219-.015.328h.044s-.017.414-.019.448l.042,0-.012.266h-.042V70.9l.041.006v.086L98.9,71c.015,0-.032.739-.035.807a2.683,2.683,0,0,1-.009,1.213l.025.406-.044,0c-.017.076.038.079.041.092l-.01.224a9.418,9.418,0,0,1-.057,1.257c-.026.115.039.136.039.136-.006.134-.012.268-.016.4.029-.006.04.035.039.065l-.013.424c0,.02.025.055.03.076a.353.353,0,0,1,.01.092c0,.057-.014.113-.017.172-.005.144-.012.288-.019.433l.044,0-.014.314.044,0-.006.134.044,0-.039.852-.044,0-.057.267a.349.349,0,0,1-.226.035.068.068,0,0,0-.088-.049l-.1.131-.137.039Zm-42.411-.238a.136.136,0,0,1-.126-.023v-.045l-.044,0,.008-.18-.045,0c-.068-.093-.076-.084-.092-.076s-.031.013-.083-.022v-.044l-.216-.191c-.012.207-.042.25-.236.26-.045-.1-.069-.083-.08-.228-.239-.082-.155-.153-.255-.327l-.088-.049,0-.089-.085-.095,0-.09a.091.091,0,0,1-.046-.007c-.007-.005-.006-.052-.01-.063a.324.324,0,0,0-.09-.111c-.051-.047-.1-.125-.06-.183l-.049-.009a.229.229,0,0,0-.073-.188V76.35l-.041-.006-.015-.081-.092-.245-.025-.12a.907.907,0,0,1-.056-.368l-.045-.007v-.085l-.042-.007c0-.089.007-.178.011-.267l-.044,0,.009-.224-.044,0s0-.2,0-.218a.6.6,0,0,1-.015-.319l-.042-.005.009-.4c-.039-.017-.042-.07-.04-.113l.028-.52-.037,0,0-.4a.979.979,0,0,1-.027-.225,1.115,1.115,0,0,0,.007-.121c0-.04-.011-.026-.021-.052a.732.732,0,0,1-.033-.322c.007-.129.022-.257.031-.385,0-.063.007-.124.005-.188a1.029,1.029,0,0,1-.017-.154l.067-.492-.045,0,.027-.583.02-.449c-.006-.031-.016-.027-.025-.023s-.017.008-.017-.023l.052-.133h-.046l0-.045.055-.223h-.045l.059-1.3h-.044l.051-.132-.045,0,.018-.4h.046c.021-.072-.041-.084-.041-.091a.589.589,0,0,0,.057-.268h-.045l.063-.4a5.062,5.062,0,0,1,.1-1.164l.009-.224.092-.041c.009-.191.014-.381.032-.57,0-.014,0-.028.007-.041a.24.24,0,0,1,.057-.087c.08-.092.045-.233.025-.345-.007-.033-.089-.332-.058-.347l.092-.041c.051-.05.052-.042.064-.034s.025.012.073,0l0-.046a.71.71,0,0,1,.437.032,1.39,1.39,0,0,1,.353.214c.049.034.1.068.145.1s.125,0,.182.039a.355.355,0,0,0,.08.044.45.45,0,0,0,.069.014l.182.027a.139.139,0,0,1,.049.012c.034.019.054.093.076.127.012.017.084.137.1.138l.045,0,0,.089c.272.03.446.163.428.47l-.045,0a.326.326,0,0,0,.033.272l.135.006,0,.045a.471.471,0,0,0,.218.145c.01.062.074.39.161.369l-.009.265.042.006a1.006,1.006,0,0,0,.077.268l.062.195-.024.118.038.011.015.081a1.772,1.772,0,0,1,.009.412l.045,0-.007.135.045,0-.025.538.045,0c.021.108-.053.116-.053.177l.045,0-.009.194c0,.063-.018.068-.047.12a.072.072,0,0,0,0,.07.424.424,0,0,0,.035.038c.031.041-.007.194-.011.246-.007.1-.015.194-.021.291a3.652,3.652,0,0,0,0,.591c0,.023,0,.046.007.069a3.536,3.536,0,0,1-.008.582h.044a.932.932,0,0,1-.044.174.183.183,0,0,0,0,.172.163.163,0,0,1,.024.042.05.05,0,0,1-.045.06l.017.584-.044,0-.012.269-.045,0c-.014.116.119.244.071.408l-.044,0-.015.314c.007.031.016.027.024.023s.015-.008.019.024a4.206,4.206,0,0,1-.011.729c-.01.215,0,.432-.021.647s-.048.428-.058.641l.041.006-.005.176.042.006,0,.175.041.007c-.009.254-.021.506-.033.76l.045,0a2.249,2.249,0,0,1-.017.651c-.012.129-.025.256-.042.384-.007.047-.013.1-.023.142-.014.064-.07.073-.086.133a.288.288,0,0,1-.029.1.352.352,0,0,1-.076.059c-.025.021-.041.061-.019.084a.056.056,0,0,0-.055.031.281.281,0,0,0-.02.065c-.029.108-.126.127-.179.209-.033.051-.033.087-.084.129s-.124.09-.185.135l-.049.088-.092.041c-.111.188.1.27-.239.3C55.957,78.217,55.925,78.228,55.883,78.239ZM39.712,77.8c-.1.044-.083.068-.228.079l0-.09-.3-.238c-.1-.138-.044-.213-.257-.281a1.865,1.865,0,0,1-.069.487.15.15,0,0,1-.142-.095.552.552,0,0,0-.02-.061.054.054,0,0,0-.051-.032l.005-.175-.041-.006V77.3l-.041,0a.349.349,0,0,0-.02-.159.809.809,0,0,0-.087-.2.277.277,0,0,1-.05-.231.042.042,0,0,1-.041-.022.129.129,0,0,1-.015-.047l-.01-.071c0-.024-.008-.049-.013-.072s-.017-.061-.027-.092l-.025-.079a.673.673,0,0,1-.028-.209.248.248,0,0,1-.042-.176.56.56,0,0,1-.049-.238,1.807,1.807,0,0,0-.007-.226h-.046l.007-.135h-.045l.007-1.124.051-.132h-.045a4.106,4.106,0,0,1,.1-1.12l.033-.718.036-.808.045,0,.009-.179-.045,0,.067-.491c0-.032-.017-.028-.028-.024s-.02.008-.015-.023l.045,0,.031-.674.127-1.792h.045a.12.12,0,0,0-.039-.137l.032-.717.07-.537c-.006-.065-.063-.074-.038-.182a.127.127,0,0,0,.052-.132,5.534,5.534,0,0,1-.084-1.127c.182-.065.4-.135.466-.339l.223.055s.039.135.047.151a.9.9,0,0,0,.079.111.786.786,0,0,1,.081.368.623.623,0,0,1,.063.324l.045.006v.132l.04,0,0,.131c.028,0,.052.025.058.053s0,.057.007.084.029.057.058.052l-.005.176c.028,0,.052.024.057.052s0,.057.007.085.029.057.057.053l.129.316.052.128c.028.07.036.189.117.219a.257.257,0,0,1,.087.038.163.163,0,0,1,.039.073,3.322,3.322,0,0,0,.144.451c.041.085.137.188.132.287l-.015.314h.044l.037.182.131.1.071.408.088.049a.583.583,0,0,1,.015.132l.021.18.076.144a.239.239,0,0,1,.041.178l.041.006L41,70.4l.04.006.009.127a.492.492,0,0,1,.023.247c0,.024-.015.253-.013.255H41.1l-.021.448h-.044l0,.044.046,0a4.341,4.341,0,0,1-.156,1.431c-.007.164-.014.327-.023.491-.032-.007-.05.036-.054.069l-.059.467h-.047a.466.466,0,0,1,.035.268H40.73a6.563,6.563,0,0,0-.081.759H40.6c-.011.239-.025.479-.031.719.005-.017.031-.014.04,0a.067.067,0,0,1,0,.05,1.558,1.558,0,0,0-.065.269c-.006.071,0,.146,0,.217l.044,0a1.306,1.306,0,0,1,.01.384,1.412,1.412,0,0,1-.135.415l-.011.026-.009.025a2.142,2.142,0,0,1-.084.235,1.876,1.876,0,0,1-.193.245l-.089,0,0,.045c-.117.091-.207.217-.371.253Zm71.005-.015c-.132-.211-.409-.126-.475-.427l-.089,0,0,.09c-.249-.07-.249-.219-.388-.377l-.174-.143.008-.179-.26-.237c-.055-.1.012-.192-.031-.316l-.044,0,0-.089h-.046l-.077-.274H109.1s-.007-.834-.007-.895l-.039-.012.008-.349-.036-.011v-.17l-.037-.012c0-.1.006-.207.011-.309-.089-.359-.081-.855-.17-1.222l.025-.538a3.517,3.517,0,0,1-.052-.857l.023-.493a4.162,4.162,0,0,1,.06-1.549l.174-1.076a8.976,8.976,0,0,0,.156-1l.046,0v-.046h-.044v-.045l.045,0c-.026,0,.195-1.858.224-2.031a10.237,10.237,0,0,1,.223-1.011c.041-.149.1-.289.152-.431a.633.633,0,0,0-.02-.367.82.82,0,0,1,.063-.4c.106-.02.256-.148.408-.072l.084.139.135.007.04.092.09,0,0,.045a.332.332,0,0,0,.221.1c.031.156.087.12.122.276.191.027.2.1.353.151a.644.644,0,0,0,.12.313,3.486,3.486,0,0,1,.166.489,5.112,5.112,0,0,1,.205,1.2,6.072,6.072,0,0,1,.02.609c0,.075-.019.153-.016.228s.05.144.041.2h-.044l-.008.18h.044a.223.223,0,0,0,.023.152l-.175,1.455c-.023.317-.086.643-.092.956-.017.8.031,1.6.086,2.4.028.4.031.8.081,1.2.021.162.03.321.039.487s.08.382.072.555l-.028.628-.045,0a6,6,0,0,1-.1.812l-.039.121-.316.634a.347.347,0,0,1-.067.17l-.015.077a.285.285,0,0,1-.137.133l0,.089-.045,0-.012.269.088.049-.01.225.135.006a.678.678,0,0,1,.071.408.977.977,0,0,1-.282.031C110.982,77.8,110.842,77.794,110.717,77.788ZM3.211,77.711c-.043,0-.1,0-.167,0-.017-.033-.147-.258-.167-.277l-.091,0,0-.046-.131-.1-.04-.092-.135-.006c-.007.239.055.212.072.407l-.135-.006c-.06-.108-.195-.139-.26-.236l0-.09-.13-.1,0-.09-.218-.209c-.048-.046-.138-.1-.126-.177a.072.072,0,0,0,0-.028c-.007-.019-.03-.023-.047-.031a.108.108,0,0,1-.054-.082.764.764,0,0,0-.015-.1.037.037,0,0,0-.017-.025.03.03,0,0,0-.014,0H1.539c-.028,0-.04-.037-.044-.065l-.021-.136a.116.116,0,0,0-.018-.052.247.247,0,0,0-.043-.034c-.039-.035-.029-.162-.033-.211,0-.028-.024-.066-.049-.054l0-.084c-.043,0-.058-.055-.061-.1s-.017-.1-.06-.1v-.127l-.039-.009v-.127l-.039-.009V75.2c-.02.007-.04-.017-.041-.04s.009-.044.007-.066-.023-.047-.043-.037c0-.06,0-.118,0-.177a.027.027,0,0,1-.036-.009.085.085,0,0,1-.01-.041l-.025-.313c-.037.028-.044-.045-.044-.065l.008-.159-.04-.009,0-.085a.026.026,0,0,1-.033-.013.086.086,0,0,1-.006-.041l.009-.217a.027.027,0,0,1-.036-.013.066.066,0,0,1-.005-.042l.009-.218a.026.026,0,0,1-.037-.009A.078.078,0,0,1,.8,73.6l.008-.172-.043-.005.006-.177a.026.026,0,0,1-.036-.011A.074.074,0,0,1,.727,73.2l.009-.175A.024.024,0,0,1,.7,73.013a.073.073,0,0,1-.007-.043L.7,72.752l-.044,0,0-.132c-.056,0-.045-.025-.048-.076S.61,72.45.606,72.406c-.007-.1-.017-.193-.032-.289-.033,0-.017-.116-.017-.134,0,.008-.029-.007-.032-.01s-.009-.03-.009-.045c0-.057.006-.116.008-.173l-.039-.006a.659.659,0,0,1-.039-.184c0-.08,0-.16-.006-.255A.071.071,0,0,0,.424,71.3c-.017-.016-.013-.043-.009-.065s0-.05-.016-.062a.043.043,0,0,1-.025-.031c0-.057,0-.114,0-.172a.032.032,0,0,0,0-.02c0-.006-.009-.008-.015-.013-.051-.038.017-.137-.033-.177-.006-.005-.012-.008-.017-.013s.007-.163,0-.165l-.04-.008,0-.172a.065.065,0,0,1-.053-.07,2.885,2.885,0,0,0-.048-.386c0-.018-.025-.229-.046-.23a.826.826,0,0,0-.033-.271,1.078,1.078,0,0,0-.031-.316,1.082,1.082,0,0,0-.031-.316A1.4,1.4,0,0,0,0,68.447l.028-.628.036-.807a1.692,1.692,0,0,0,.019-.4l.045,0,.012-.27L.277,66.3a2.339,2.339,0,0,1,.036-.807A9.01,9.01,0,0,1,.378,64.1a1.586,1.586,0,0,1,.316-.031c.033-.121.081-.137.145-.218l.046,0c.039-.063-.02-.183.055-.222l.135.006a.352.352,0,0,0,.13.1,4.169,4.169,0,0,0,.141.86,1.279,1.279,0,0,0-.007.3.02.02,0,0,0,.009.016c.005,0,.012,0,.017,0s.009.015.009.024V65c.02-.009.041.015.042.037s-.007.044-.006.066.023.045.043.036v.073c0,.007,0,.014.02.015s.023.016.022.031a.168.168,0,0,0,0,.043c.005.025.028.01.039.019a.209.209,0,0,1,.033.039c.016.021.034.041.048.063s.044.175.047.176l.261.1a.03.03,0,0,1,.007.019L2,66.11s.084.006.1.029a.183.183,0,0,1,.012.077.125.125,0,0,0,.014.058.05.05,0,0,0,.05.025l-.007.1a.055.055,0,0,0,0,.024c.007.02.031.025.049.035a.082.082,0,0,1,.029.108l.047.007,0,.087c.031-.009.055.025.057.056.013.119.037.237.058.355l.133.051a.181.181,0,0,1,.085.14c0,.016-.007.033,0,.047s.034.012.051.021.025.058.016.09l-.041.156.044.006,0,.1a.06.06,0,0,0,0,.025c.008.017.031.021.049.029a.113.113,0,0,1,.044.132,1.288,1.288,0,0,1-.061.138.073.073,0,0,0,0,.052.03.03,0,0,0,.044.016.279.279,0,0,0,0,.11.245.245,0,0,0,.1.124c.034.028.092.05.108.094a.213.213,0,0,1,.005.083l-.009.18L3,68.675v.087l.042,0-.006.177.043,0,0,.087.043.005-.009.221.043.005v.087l.043.006-.012.241a.045.045,0,0,0,0,.024c.007.013.023.015.036.021a.088.088,0,0,1,.048.072.249.249,0,0,1-.01.089l.046.007V69.9a.045.045,0,0,1,.044.027.17.17,0,0,1,.012.054l.014.205c0,.05.055.063.093.084l-.016.359.044,0,.078.274h.045l-.053.178.088.048,0,.09a.169.169,0,0,1,.039,0c.014.012.007.049.008.067l.007.156.012.313c.026-.005.049.02.057.044a.4.4,0,0,1,.008.078.074.074,0,0,0,.039.065.061.061,0,0,1,.018.009.042.042,0,0,1,.013.031l.014.125a.109.109,0,0,0,.014.049.037.037,0,0,0,.044.017l-.013.312.043.005-.006.177a.025.025,0,0,1,.036.009.068.068,0,0,1,.007.04l-.017.356c.042,0,.057.021.056.062a1.745,1.745,0,0,1-.078.432l.044,0,0,.087.043,0c-.005.269-.023.538-.036.807a.187.187,0,0,1,.043.005,1.183,1.183,0,0,1-.007.175H3.994a.071.071,0,0,0,0,.044.024.024,0,0,1,.033.009.063.063,0,0,1,.006.039l-.012.266a.028.028,0,0,1,.037.013.088.088,0,0,1,.007.044l-.012.215a.027.027,0,0,1,.039.012.074.074,0,0,1,.005.044l-.011.211c.03,0,.051.034.044.064a.286.286,0,0,1-.045.079.075.075,0,0,0,0,.085c.023-.012.039.024.038.049l-.009.178c.026-.012.056.025.039.049,0,0-.033,0-.043.012s0,.055,0,.068c0,.062-.005.124-.008.185h.044l-.067.492-.044,0-.007.135-.045,0,0,.089H3.929l-.057.267-.139.084-.005.135-.046,0-.19.216A.947.947,0,0,0,3.211,77.711Zm80.747-.1v-.037l-.028-.012-.109-.212-.028-.013v-.13c-.084.007-.069-.146-.081-.2a.294.294,0,0,0-.124-.169v-.044l-.135-.007-.247.484-.089,0c-.055-.228-.119-.45-.175-.675a1.548,1.548,0,0,1-.049-.249c0-.033-.012-.075-.044-.08l.006-.22-.041-.005c-.008-.225-.011-.449-.016-.674l-.045,0L82.77,75l-.044,0,.025-.583a9.832,9.832,0,0,1,.047-2.021,1.08,1.08,0,0,1,.055-.222l-.045,0,.057-1.255.027-.584h-.045l0-.9.02-.449-.044,0,.022-.493-.044,0,.022-.494-.045,0-.008-.809.065-1.437.044,0,.035-.762-.045,0c.021-.134.043-.266.061-.4l-.04-.006.011-.354c-.039,0-.06-.049-.062-.089s0-.089-.039-.108l-.046-.1a.361.361,0,0,1-.055-.165l-.045,0c-.013-.09.026-.055.049-.088l0-.09.452-.069c.02.033.052.118.084.137a.215.215,0,0,0,.094.01h.039l0,.041.085.008.005.043a.064.064,0,0,1,.074.013c.02.017.033.041.054.06a.137.137,0,0,0,.129.028l0,.044.086.008,0,.043c0-.035.1.042.108.048s.007.033.033.049a.205.205,0,0,0,.086.006h.036l.169.233.132.051c.007,0,0,.079,0,.085.029,0,.045.031.052.06l.02.088c.015.07.045.1.041.171a.3.3,0,0,0,.033.193c.014.02.031.038.044.059a.073.073,0,0,1,.006.07l.042.007v.086l.04.006c.011.18.016.359.023.538l.045,0,0,.089.087.049-.018.4.087.049,0,.09.045,0-.02.448.044,0,.038.182.044,0c0,.255,0,.51.012.765l.041,0,0,.172.064.151v.3l.036.009v.129l.041.007c-.005.134-.009.267-.016.4l.088.049,0,1.079c.06.258-.055.674,0,.989,0,0,.058,0,.041.091h-.044l.025.406-.044,0c-.013.284-.024.567-.041.85l-.039,0-.036.53a.27.27,0,0,0,0,.226l-.042,0a2.52,2.52,0,0,1-.058.663l-.055.4a.9.9,0,0,0,0,.361l-.043,0-.015.22-.041,0c-.013.239-.024.478-.035.716l0,.044h-.045a.118.118,0,0,0,.039.137c-.016.362-.028.715-.008,1.076l-.039,0-.009.082A.145.145,0,0,0,84.7,77a.841.841,0,0,1-.033.154.228.228,0,0,1-.045.066.6.6,0,0,1-.084.071l-.207.156a.5.5,0,0,1-.115.072.257.257,0,0,1-.167.01.1.1,0,0,1-.092.079Zm39.809-.805,0-.046c-.124-.157.017-.31-.2-.458l0-.045-.225-.009-.041-.092-.089,0c-.043-.03-.051-.144-.129-.141v.044h-.045c-.033.054-.018.179.037.181l0,.045-.09,0,0-.045c-.18-.125-.086-.169-.164-.367,0,0-.045-.005-.051-.007a.214.214,0,0,0-.069-.185l0-.123-.025-.017-.111-.207-.025-.018,0-.08-.037-.011v-.125l-.037-.012c-.026-.168-.1-.369-.131-.559l-.13-.708.047-1.032a5.013,5.013,0,0,1,.007-1.123c.008-.172.057-.345.018-.4a1.5,1.5,0,0,0,.069-.537h-.044l.022-.494.045,0c.086-.255.009-.668.086-.9.094-.278,0-.757.092-1.03l.06-1.346a6.877,6.877,0,0,0,.116-1.569c.007-.147.007-.3.023-.444,0-.023.046-.1.053-.14.02-.1.034-.208.056-.311A5.661,5.661,0,0,1,123,63.9c.052-.163.113-.324.174-.484a3.7,3.7,0,0,0,.178-.477c.026-.117,0-.236.029-.354a.057.057,0,0,1,.042,0l.019-.4a.481.481,0,0,0,.094-.086l.313.06.59.881.179.008.039.137.216.19.078.274a1.866,1.866,0,0,1,.327.28,4.107,4.107,0,0,1,.2.359l.023.02,0,.08.036.012v.169l.038.012V64.7l.037.012c-.019.116-.034.233-.059.347a.11.11,0,0,0,.046.007c0,.032-.005.027-.015.022s-.024-.009-.031.021l-.03.674h-.046l-.031.672h-.044l-.013.269c-.122.351-.154.84-.279,1.2l-.077.716c0-.008-.04,0-.041,0,0,.069-.057.107-.062.165,0,.033.04.046.04.065a1.35,1.35,0,0,1-.017.177c-.025.23-.052.461-.077.692a3.128,3.128,0,0,1-.122.343,3.2,3.2,0,0,0-.061.415c-.025.227-.063.455-.091.682-.041.328-.073.657-.116.986a4.509,4.509,0,0,1-.151.938l.045,0-.061.358.044,0a2.456,2.456,0,0,1-.105.355l.023.5s-.058,0-.049.087l.045,0-.059.312h.044l-.006.135h.044l-.013.314h.044l-.008.18h.045l-.007.135h.045l.069.452.045,0a2.289,2.289,0,0,1-.031.673l-.186.127v.045l-.09,0,0,.044a.686.686,0,0,1-.195.022A.56.56,0,0,1,123.767,76.806ZM13.86,76.359a.662.662,0,0,1-.135.039c-.009-.012.008-.034-.015-.046a.419.419,0,0,1-.119-.016V76.3a2.6,2.6,0,0,1-.269.031.212.212,0,0,1,0-.043.6.6,0,0,1-.215-.235l.008-.18c-.015-.035-.058,0-.084-.138l-.089,0,.032.271.045,0a.431.431,0,0,1,.035.226l-.18-.008c-.148-.305-.52-.5-.592-.836-.044-.014-.1-.015-.113-.071,0-.024-.006-.052-.026-.065l-.021-.01a.072.072,0,0,1-.023-.059l-.01-.134A.144.144,0,0,0,12.079,75a.047.047,0,0,0-.044-.027V74.84A.028.028,0,0,1,12,74.827a.084.084,0,0,1-.006-.042L12,74.66l-.041-.006a1.341,1.341,0,0,0-.008-.229c-.017-.067-.032-.134-.044-.2-.025-.144-.043-.289-.056-.435-.027-.3-.038-.609-.068-.913a3.769,3.769,0,0,0-.081-.525l.031-.673-.045,0,.033-.718-.045,0,.019-.4h-.045l.025-.54h-.045c-.022-.108.05-.116.053-.177h-.045l0-.9.031-.674c-.062-.263.064-.694,0-.989a11.076,11.076,0,0,1,.042-1.931l.027-.583s-.059,0-.041-.092h.046l.016-.359.044,0,.043-.942a3.927,3.927,0,0,1,.063-.4l-.044,0,0-.089c0,.025-.053-.033-.056-.039a.785.785,0,0,1-.031-.111l-.073-.262a2.166,2.166,0,0,1,.284-.111c.051-.016.315-.106.349-.034a.052.052,0,0,1,0,.039l.089,0c.007.013-.006.03,0,.042a.029.029,0,0,0,.017.01l.1.036c.005,0,.011,0,.017.02a.458.458,0,0,1,0,.054c0,.04.061.067.088.091s.057.057.087.084a.574.574,0,0,0,.263.138l0,.09.27.012,0,.046a.13.13,0,0,0,.137-.039l.223.055c.052.318.311.358.375.647l.178.052s.025.107.031.119c.014.039.031.076.048.113a.957.957,0,0,1,.078.251.025.025,0,0,0,.006.016.034.034,0,0,0,.017,0l.111.006,0,.043.043.005-.007.129a.074.074,0,0,0,.009.053c.018.024.062.023.075.051s-.015.064.006.086a.061.061,0,0,0,.029.015.091.091,0,0,1,.046.119l.046.007-.041.133a.072.072,0,0,0-.005.039c.007.023.083.037.081.053l-.012.269h.044l-.055.223s.063.031.039.137a.118.118,0,0,0-.051.132l.088.049-.013.269.045,0c.057.236-.043.668,0,.9l-.076.671.045,0c.028.121-.055.227-.057.266l.044,0-.009.223.044,0-.023.494-.045,0-.026.584a.065.065,0,0,1,.038.09h-.039c.009.075.019.151.031.226-.007-.011-.027-.007-.035,0a.064.064,0,0,0-.006.039l.025.314a.029.029,0,0,0-.04.008.08.08,0,0,0-.009.044v.127a.022.022,0,0,1,.033.008.068.068,0,0,1,0,.04l-.064.489.044,0a.122.122,0,0,1,0,.043h-.042c-.006.1-.01.209-.014.313l.044,0-.012.269.046,0,0,.045c-.14.282.016.775-.1,1.119h-.044l-.012.269h.044l-.075.671h.044l-.014.315-.045,0v.045l.044,0-.012.269-.044,0-.009.18.045,0,0,.09h.045l-.027.583a7.655,7.655,0,0,1,.028,1.351c-.045.021-.083.08-.094.086l-.226.033-.049.088-.185.127c-.1.119-.059.175-.235.214Zm12.331-.025c.027,0-.037-.071-.039-.072-.033-.028-.065-.055-.1-.085a1.111,1.111,0,0,1-.158-.218,1.781,1.781,0,0,1-.1-.2c-.022-.049-.041-.173-.113-.156-.093.021-.125.185-.141.262-.009.043-.021.242-.067.255a.061.061,0,0,1-.037,0c-.046-.015-.117-.023-.14-.067a.9.9,0,0,1-.046-.21l-.1-.447c0-.018-.06-.023-.073-.039a.12.12,0,0,1-.011-.1l-.043-.006.007-.221-.041-.005,0-.132-.041-.005,0-.176-.045-.009c.028.006,0-.171-.006-.187a.334.334,0,0,1-.033-.058.368.368,0,0,1,0-.09l-.015-.471-.042,0,.007-.223a.026.026,0,0,1-.035-.01.078.078,0,0,1-.007-.041l.01-.22a.023.023,0,0,1-.032-.008.058.058,0,0,1-.005-.036L24.764,73a.3.3,0,0,1-.027-.275c-.014.033-.047-.042-.046-.052l.023-.492a.026.026,0,0,1-.037-.009.075.075,0,0,1-.006-.042q.009-.2.019-.395a.041.041,0,0,1-.041-.028.119.119,0,0,1-.005-.051l.025-.42-.047,0c.017,0,.031-.7.034-.762-.01.009-.029,0-.036-.009a.079.079,0,0,1-.007-.041l.023-.532a.028.028,0,0,1-.036-.014.077.077,0,0,1-.005-.042l.016-.344c-.032,0-.044-.04-.042-.072l.021-.474c-.036.011-.044-.029-.042-.055l.016-.353c-.075,0-.045-.114-.046-.17v-.233c0-.151-.01-.3,0-.455l.021-.449a3.817,3.817,0,0,1,.047-1.032l.02-.448c0-.007-.033-.028-.037-.038-.017-.033,0-.068.041-.052l.015-.313a.026.026,0,0,0,.038-.007.091.091,0,0,0,.01-.042l.012-.306a.056.056,0,0,0,.033-.009.022.022,0,0,0,.008-.029c-.023-.035-.071-.023-.019-.072s.04-.225.042-.3a.082.082,0,0,0-.014-.06s-.007,0-.011,0-.015.005-.017-.02h.046c-.006-.209-.014-.419-.017-.628h.044l.009-.177h.044l-.025-.268a.076.076,0,0,0-.01-.039.027.027,0,0,0-.036-.007.558.558,0,0,0,0-.116l.007-.154a1.158,1.158,0,0,1,.639-.2c.014,0,.052.094.063.105a.2.2,0,0,0,.115.07.047.047,0,0,1,.033.012c.014.016,0,.041,0,.062a.08.08,0,0,0,.044.063.266.266,0,0,1,.065.044.168.168,0,0,1,.015.147.23.23,0,0,1,.108.073.578.578,0,0,1,.183.266.068.068,0,0,0,.016.033.107.107,0,0,0,.02.012,1.4,1.4,0,0,1,.252.143c.047.033.07.042.071.1a1.089,1.089,0,0,0,.013.139,1.331,1.331,0,0,0,.065.225.7.7,0,0,1,.073.227c0,.108-.009.22-.015.329a.038.038,0,0,0,0,.025c.007.011.021.012.032.017.057.019.074.092.071.153a.345.345,0,0,0,.007.179.024.024,0,0,0,.014.015.027.027,0,0,0,.013,0h.009c.015,0,.023.02.028.034a.448.448,0,0,1,.016.164.046.046,0,0,0,0,.023c.006.01.02.012.033.015.119.023.151.266.17.359a5.1,5.1,0,0,1,.066.556.057.057,0,0,0,.007.025c.01.012.026.012.044.012a.071.071,0,0,1,.039.005l-.007.187a.058.058,0,0,0,.009.039c.012.014.032.013.049.021a.075.075,0,0,1,.027.073.177.177,0,0,0,0,.083.028.028,0,0,1,.034.017.085.085,0,0,1,0,.043l-.011.122a.155.155,0,0,0,.007.079.266.266,0,0,0,.057.06c.053.05.033.163.032.227q0,.157,0,.312l.052,0-.007.223a.025.025,0,0,1,.036.008.074.074,0,0,1,.007.041l-.013.266.044,0-.006.178a.026.026,0,0,1,.036.01.075.075,0,0,1,.007.042l-.009.175a.026.026,0,0,1,.037.009.075.075,0,0,1,.007.042l-.016.308c-.025-.015-.058.022-.042.045a.023.023,0,0,1,.034.007.058.058,0,0,1,.005.039l-.011.222a.3.3,0,0,0,.045,0,.121.121,0,0,1-.051.132l.024.451h.026c.023.007.009,0,.015.022s-.014.071-.017.093l-.036.2.041.005-.007.221c0-.021.049.034.052.043a.327.327,0,0,1,0,.06c0,.043,0,.086,0,.128,0,.107-.008.212-.017.318-.017.2-.039.405-.075.605a.862.862,0,0,1-.024.1l-.01.225h.045l-.061.357s.057.005.04.092l-.044,0,.015.346a.705.705,0,0,1,0,.156c-.01.057-.029.113-.044.17a.026.026,0,0,1,.034.013.075.075,0,0,1,.005.04l-.028.577h-.042l.035.133a.066.066,0,0,0-.063.048.205.205,0,0,0,0,.084,1.755,1.755,0,0,1,.033.435l-.057.465.039.137-.045,0a.691.691,0,0,1-.055.209c-.038.055-.116.058-.136.132-.007.021-.006.044-.014.065a.167.167,0,0,1-.044.061l-.108.109-.105.1c-.035.034-.073.068-.109.1l-.035.032a.414.414,0,0,0-.118.164c0,.012,0,.017-.005.031a.279.279,0,0,1-.059.044l-.108.083c-.043.032-.107.06-.108.122Zm44.247-.375-.42-.648-.09,0,0-.09a.418.418,0,0,1-.169-.233l-.045,0-.006.135-.092.04c-.028.074.039.085.041.092a.338.338,0,0,1-.055.222l-.088-.049-.039-.137c0-.015-.054-.023-.067-.037a.376.376,0,0,1-.045-.11c-.035-.087-.07-.174-.108-.26-.026-.062-.055-.122-.083-.182-.045-.094-.092-.187-.14-.279-.033-.063-.123-.171-.126-.244L68.905,74,68.865,74l-.009-.125a.711.711,0,0,1-.073-.3c0-.079,0-.175-.07-.21a1.637,1.637,0,0,1-.029-.4l-.04-.007.007-.265-.04-.006.007-.265-.04-.007.013-.4-.04-.005c0-.054.028-.177-.039-.18l.031-.674-.045,0,.045-.987-.045,0v-.988l.023-.494-.046,0,.025-.538h-.045l.015-.314h.044l0-.044c.071-.332,0-.762.092-1.031.019-.249.036-.5.055-.751a3.715,3.715,0,0,1,.083-.72l.052-.4a.549.549,0,0,0,.053-.22.493.493,0,0,0,.046-.272l.039-.007-.022-.263.035-.007c.024-.3.031-.6.045-.893h.044l.007-.134h.044l.143-1.162a1.019,1.019,0,0,1,.159-.116,1.209,1.209,0,0,1,.332.054.167.167,0,0,1,.063.017c.036.021.063.093.085.128a.462.462,0,0,1,.1.185c.016.1.039.193.063.289l.052.2.049,0,.007.17.14.292c0,.087.005.174,0,.262h.045l.036.182h.045s.028.333.031.359l.04.006.012.126.091.245.015.08.041.006c.008.125.012.252.025.377a.118.118,0,0,0,.035.092c.012.01.041.012.048.025s0,.067,0,.095l.044,0-.012.269.131.1-.015.315c0,.014.056.015.041.092l-.045,0-.008.18.045,0-.008.18.087.048-.027.584-.055,1.211h-.044l-.015.313.047,1.935h-.044c-.018.076.038.078.041.091l-.033.718h-.045l-.032.718-.046,0-.014.223-.039,0-.01.13-.042,0v.041l.041.007-.024.533-.039,0a1.322,1.322,0,0,0,.023.487l-.044.009.011.124a2.938,2.938,0,0,0-.048.587h-.036a5.741,5.741,0,0,1,.052.631h-.044c-.055.183.08.267.118.365l-.006.135.044,0a.728.728,0,0,1-.02.449l-.045,0-.008.18-.044,0c-.053.049,0,.017-.092.041l-.012.27Zm65.614-3.137a.662.662,0,0,1-.267-.057l-.068-.5-.088-.049.007-.135h-.045c-.049-.054,0-.018-.087-.049l-.017.359a.5.5,0,0,1-.181.037v-.045l-.044,0-.047-.946-.045,0c-.017-.116-.076-.217-.079-.313l-.037-.012-.017-.165c-.036-.159-.078-.318-.123-.475a2.3,2.3,0,0,1,0-.3.131.131,0,0,0-.05-.007l-.043-1.036a7.425,7.425,0,0,1-.131-1.426c-.026-.624-.063-1.244-.035-1.864l.045,0v-.045l-.044,0,.1-2.243-.045,0,.029-.628H134.7l.024-.538-.044,0v-.044c0-.105.092-.164.06-.313H134.7l.035-.763c.005-.137-.071-.528-.065-.542l.139-.084,0-.089.314.015.341.42a.673.673,0,0,1,.085.005c.026.146.217.321.308.441a1.5,1.5,0,0,1,.129.192,1.486,1.486,0,0,1,.121.446.946.946,0,0,0,.035.2c.015.033.056.031.072.068s.01.431.023.431l.044,0,.033.271.044,0,.037.181.044,0-.008.179c0-.007.04,0,.041.005a2.942,2.942,0,0,0,.128.559c.047.23.083.463.119.695.087.565.151,1.116.212,1.685l.14.735a4.937,4.937,0,0,1,.175,1.124l.089.049-.011.224c0-.005.044.006.049.007-.009.071-.009.143-.011.215l.035.012-.006.525c.142.362-.045.724-.061,1.086-.005.1.025.658-.072.676l-.017.214-.039.008-.017.215-.038.008-.04.708-.038.008-.015.169-.037.009c0,.049,0,.078-.05.087a.465.465,0,0,0-.007.084l-.327.255V72.8l-.271.033,0,.045a.37.37,0,0,1-.273.078ZM59.938,55.616c-.01-.01-.013-.052-.021-.067a.846.846,0,0,0-.066-.1c-.025-.034-.062-.044-.093-.072a.382.382,0,0,1-.084-.16.206.206,0,0,0-.044-.079c-.025-.023-.057-.015-.089-.025-.1-.031-.1-.138-.132-.216a.1.1,0,0,0-.144-.029c-.03.02-.04.041-.027.068s.047.055.051.1a.432.432,0,0,1-.012.133l-.018.089a.062.062,0,0,1-.007.02.064.064,0,0,1-.022.017l-.1.057a.1.1,0,0,1-.031.013.089.089,0,0,1-.056-.025c-.02-.015-.041-.03-.063-.022,0-.038,0-.076,0-.128a.026.026,0,0,0-.017-.011.72.72,0,0,1-.177-.081.09.09,0,0,1-.023-.02.068.068,0,0,1-.009-.029l-.037-.228c-.009-.056-.006-.137-.06-.171a.36.36,0,0,1-.057-.033.2.2,0,0,1-.047-.066,1.033,1.033,0,0,1-.09-.268c-.006-.03-.017-.066-.047-.07-.005,0-.012,0-.022-.017a1.52,1.52,0,0,0-.066-.251.54.54,0,0,0-.029-.067.142.142,0,0,1-.017-.037.123.123,0,0,1,0-.033c0-.053,0-.1,0-.157s0-.117,0-.175a1.027,1.027,0,0,1,0-.142,1.772,1.772,0,0,0,.04-.337h.044l.018-.4h.046l.009-.224h.045a.075.075,0,0,0-.041-.091,2.353,2.353,0,0,1,.079-.508c.06-.154.082-.319.14-.474.015-.041.033-.079.047-.12a1.153,1.153,0,0,0,.028-.165c.008-.059.031-.117.044-.173.009-.038.062-.385.06-.385l.044,0,.213-1.7.447-1.913.079-.761h.045a.123.123,0,0,0-.039-.137.122.122,0,0,1,.051-.132c.009-.194.015-.388.028-.582.024.016.045-.025.047-.054l.009-.212.043,0,.01-.131c.023.017.045-.023.046-.052l.009-.216c.023.019.047-.022.047-.049l.012-.26.043,0c.015-.223.022-.447.033-.671h.044l.015-.313.045,0,.014-.314.045,0,.012-.269h.045l0-.089.138-.084.057-.268.183-.081.057-.267.139-.084.1-.31.044,0,.049-.087.089,0,0-.045a1.189,1.189,0,0,0,.185-.126,2.045,2.045,0,0,0,.4-.03,1.29,1.29,0,0,1,.371-.025c.024.13.075.116.083.138-.007.148-.018.3-.017.447l.041.007,0,.13.041.006v.089c.018-.015.046.007.055.028s.015.05.036.061a.076.076,0,0,0,.036,0,.068.068,0,0,1,.04.007c.028.019.014.063.026.093s.061.045.088.073a.258.258,0,0,1,.044.108c.02.059.06.052.1.082.02.015.071.1.084.106h.045c.041.072-.018.131.036.182l.09,0,.041.092.132.051c.063.129-.049.307.027.407.049.053,0,.017.088.048a2.053,2.053,0,0,0,.059.678l0,.044-.044,0c-.081.353.031.8-.047,1.032l-.015.315-.045,0-.008.18h-.044l-.009.717,0,.351c0,.058,0,.117,0,.175s.012.076-.036.105a.036.036,0,0,0-.012.028l-.012.281c-.025-.017-.047.024-.048.053l-.017.392-.043,0s-.011.119-.012.129c-.026-.009-.042.028-.044.057l-.009.164-.04.007-.012.127c-.032,0-.047.037-.05.068l-.063.513-.043,0L62.552,49c0-.007-.026.009-.028.011a.083.083,0,0,0-.017.036c-.009.029-.015.06-.023.09a.994.994,0,0,0-.013.237c0,.048,0,.1,0,.144,0,.079,0,.158-.009.236s-.021.164-.025.247a1.1,1.1,0,0,1-.012.161,1.422,1.422,0,0,1-.043.14,1.727,1.727,0,0,0-.041.372,2.553,2.553,0,0,1-.081.375c-.02.081-.035.161-.06.242a2.145,2.145,0,0,1-.09.2,3.514,3.514,0,0,0-.092.375.994.994,0,0,1-.092.18,1.526,1.526,0,0,0-.075.2,1.216,1.216,0,0,1-.086.259,1.184,1.184,0,0,0-.1.307l-.109.374-.217.748-.14.084-.2.485a.608.608,0,0,0-.111.113c-.025.029-.048.058-.074.086s-.052.037-.07.06a.1.1,0,0,0-.022.044c-.006.025-.006.05-.015.077-.015.042-.062.046-.091.079a.994.994,0,0,0-.121.154c-.047.082-.067.18-.151.236a.741.741,0,0,1-.169.089.131.131,0,0,0-.084.065c-.02.035-.02.071-.057.093a.148.148,0,0,1-.066.02A.038.038,0,0,1,59.938,55.616Zm20.417-1.029,0-.045c-.106-.108-.029-.1-.08-.228l-.044,0,0-.09-.046,0,0-.089h-.044l.006-.135h-.044l.005-.135h-.044l-.037-.182-.13-.1-.035-.227h-.045l-.118-.366c-.092.022-.039-.007-.092.042l-.045,0c.028.192.127,1.116-.012,1.258a.883.883,0,0,0-.116-.41l.007-.135-.088-.049.007-.135-.045,0,.01-.224s-.048.009-.041-.092h.045v-.044l-.044,0-.07-.452-.045,0-.025-.406h-.046l0-.089-.045,0,.057-.268H79.08l.04-.9h.045l.008-.179h.045l.02-.449a4.676,4.676,0,0,0,.145-1.207,2.9,2.9,0,0,0-.055-.767l.022-.493-.044,0,.017-.4H79.28l.032-.718a4.76,4.76,0,0,1,.011-1.214l.044,0,.021-.449.044,0,.012-.269.045,0,.018-.4h.045l.008-.179.045,0,.009-.225.045,0,0-.09.045,0,.01-.225.045,0,0-.09.092-.041.188-1.161.089,0a9.782,9.782,0,0,0,.206-1.564c.112-.065.076-.124.143-.174l.089,0,0-.044.185-.127.007-.135.044,0,.007-.135h.044l.052-.132c.089.03.039,0,.087.049l.133.051.023.5c-.006.031-.017.025-.027.021s-.018-.01-.02.022l.045,0-.018.4.044,0-.006.135.044,0-.012.269.045,0,.067.5-.047.042.088.049a.587.587,0,0,1,.12.32l.09,0a.821.821,0,0,0,.159.457l0,.09.044,0,0,.09.045,0-.019.4.223.055.039.137c.091.114-.023.327.022.5h.045l.035.226c.108.031.1.052.175.1a.729.729,0,0,0-.061.357l.045,0-.012.269-.045,0-.006.135-.045,0,.059.677.046,0-.007.135.045,0-.02.449h.044l.023.5.046,0-.057.267.044,0-.016.359.045,0-.012.269.044,0-.065.446.045,0-.015.314c0,.032.015.028.025.024s.02-.008.018.024l-.044,0-.01.224-.044,0-.078.716-.045,0-.1.266-.045,0,0,.09-.044,0,0,.09h-.045l-.11.444-.045,0-.1.265-.045,0,0,.089h-.044l0,.089-.045,0,0,.089h-.045l-.009.179-.044,0-.053.178-.044,0-.007.135-.044,0-.054.178-.045,0-.052.177-.092.041-.007.135-.044,0,0,.09-.046,0-.059.312h-.045l-.006.134-.139.084,0,.089-.044,0-.068.491.088.049c.071.2-.084.429-.114.534l.037.182-.139.084-.006.135-.045,0c-.063.1.015.065-.1.131v.044ZM69.216,54.01a2.532,2.532,0,0,1-.2-.549c-.052.036-.007-.006-.047.043h-.046l-.008.179-.044,0,0,.089h-.046l-.051.132-.135-.006,0-.09-.267-.057a4.434,4.434,0,0,0,.053-1.167l.028-.628-.044,0,.043-.942q.074-1.165.15-2.331l.108-2.378c.071-.215,0-.607.084-.85l.044,0,.023-.493s.064-.014.051-.132l-.044,0c0-.031.01-.027.019-.022s.02.01.028-.021l.012-.269h-.045a.123.123,0,0,1,.051-.133L68.9,44.1h.045l0-.044-.046,0,.038-.807-.046,0,.008-.18a.124.124,0,0,0,.052-.132H68.91l.078-.716.089-1.975a2.858,2.858,0,0,0-.024-.451l.032-.718.046,0v-.045l-.044,0a.128.128,0,0,1,.051-.133l-.037-.181a.121.121,0,0,0,.051-.132l-.044,0,.024-.538a7.609,7.609,0,0,0,0-.944q.058-.763.114-1.524l.044,0,0-.09h.045c.093-.235-.052-.41-.063-.586a.547.547,0,0,1,.455-.115c.075.088.113.084.165.08a.268.268,0,0,1,.145.024l0,.046.09,0v.044l.089,0,.084.139.267.057.084.139.447.065.252.416.271-.033,0,.046h.045l-.007.135.088.049.126.186h.046l0,.09.044,0a.348.348,0,0,1,.081.183l.134.051.105.634.174.143.226.954c.024.107-.057.119-.053.177l.045,0-.016.359h-.045v.044l.044,0,0,.089.045,0-.01.225s.052-.009.041.091a1.372,1.372,0,0,0-.068.492l.045,0-.023.494c0,.031.018.026.029.023s.019-.007.014.024l-.044,0-.013.269.041.092-.045,0c-.02.116.039.137.039.137l-.067.492-.044,0,.014.675h-.044l-.011.225-.044,0-.013.269-.044,0-.023.493h-.044l-.015.314h-.045l.026.406-.044,0,.039.137-.046,0-.015.314s-.056-.007-.048.087l.044,0-.008.18-.044,0,.031.316-.045,0-.012.269h-.045l-.008.179-.045,0-.025.538h-.044l0,.044a.122.122,0,0,1,.039.137l-.044,0-.011.225-.044,0,0,.089h-.045l-.059.312-.045,0,.033.271-.046,0-.012.269-.045,0,.039.137h-.044l0,.089-.045,0-.1,1.3-.044,0-.012.269H71.48l-.015.313h-.044c-.033.1.047.124.036.181h-.045l-.012.269-.045,0,.037.182h-.046l-.01.224h-.044l-.008.179-.045,0-.07.537-.044,0,0,.09h-.045l-.027.583c.005.031.018.026.028.023s.019-.007.015.024l-.044,0-.018.4-.092.041-.063.4-.044,0-.021.449.046,0-.065.446h-.045l-.006.135-.092.041,0,.09-.044,0-.053.178-.186.126-.048.088-.09,0-.1.129a.229.229,0,0,1-.139.026c-.055-.005-.084-.01-.139.141l-.089,0-.049.088Zm-39.5-11.133A.276.276,0,0,1,29.7,42.8c-.007-.025-.034-.049-.056-.036a.091.091,0,0,0-.041-.117.094.094,0,0,1-.035-.021.057.057,0,0,1-.007-.035l.008-.187-.041-.006v-.085l-.04-.007c.017-.073.035-.147.053-.22a7.876,7.876,0,0,1,.014-1.3,1.163,1.163,0,0,0-.036-.182l.044,0c.007,0,.106-1.4.115-1.521l.044,0s.019-.406.02-.446c.025-.239.051-.477.079-.716.023.018.047-.022.049-.049l.085-.932c.025.017.047-.025.049-.055l.012-.3.043,0c.006,0,.02-.375.02-.4.031,0,.056-.284.058-.313a3.6,3.6,0,0,1,.139-.568l.02-.076.1-.393c.007-.026.082-.251.111-.25l.01-.224a.3.3,0,0,0,.049-.088c.02-.044.041-.088.049-.087l.068-.491a.388.388,0,0,0,.052-.178c.015,0,.049-.087.051-.132a.574.574,0,0,0,.056-.223l.044,0,0-.091.046,0c.018-.122.037-.244.058-.365a.059.059,0,0,1,.013-.035.022.022,0,0,1,.033,0l.012-.133a.262.262,0,0,0,.049-.132l.042,0a.27.27,0,0,1,.051-.132l.007-.085c.015,0,.048-.089.051-.132l.042,0c0-.04-.009-.1.049-.084.111-.251.177-.536.263-.8,0,.007.046-.012.051-.016.025-.022.021-.071.027-.1s.032-.067.063-.06l.008-.152c0-.007,0-.015.023-.02s.031-.041.026-.067,0-.064.041-.072a.026.026,0,0,0,.008-.015.374.374,0,0,0,0-.09.087.087,0,0,1,.036-.078c.017-.01.041-.01.055-.025.028-.032-.02-.114.053-.094a1.14,1.14,0,0,0,.013-.229c.017-.062.047-.071.052-.146a.028.028,0,0,1,.007-.02c.008-.007.021-.005.031-.011s-.006-.065.02-.078a.1.1,0,0,1,.02-.005c.016-.005.022-.025.021-.042a.234.234,0,0,1,0-.05c0-.036.039-.057.066-.079a.083.083,0,0,0,.038-.089l.043-.007a.116.116,0,0,1,.027-.106c.021-.023.051-.039.064-.065a.281.281,0,0,0,.012-.065c.013-.057.068-.093.113-.126.02-.015.164-.087.165-.109l0-.089.139-.084.052-.177.092-.041.051-.132.186-.126.055-.223.045,0,.1-.13.173.142,0-.044c.25-.052.285-.264.553-.29a.3.3,0,0,0,.128.141c.013-.224.058-.264.282-.257l0,.044a.065.065,0,0,0,.092-.04l.267.057.084.139h.045c0,.043,0,.086-.006.129a.066.066,0,0,1,.055.049.245.245,0,0,1,.007.076.148.148,0,0,0,.062.137c.014.006.031.009.04.023s-.005.049,0,.073.032.036.055.046c.056.025.036.077.073.11l.217.19-.008.18c0,.013-.084.072-.1.1-.036.073-.033.171-.066.248a.755.755,0,0,0-.092.265.162.162,0,0,1-.012.081.361.361,0,0,0-.039.124.831.831,0,0,0-.057.183.239.239,0,0,1-.012.092c-.009.016-.022.03-.031.045a.226.226,0,0,0-.023.083l-.052.426c-.023-.02-.046.021-.048.05L34.99,31l-.055.006.042.216a.112.112,0,0,1,0,.062.121.121,0,0,1-.028.043.368.368,0,0,0-.076.181c0,.027,0,.054-.009.08a.6.6,0,0,1-.026.084,2.335,2.335,0,0,0-.081.512.024.024,0,0,1-.008.019.032.032,0,0,1-.017,0,.022.022,0,0,0-.015,0,.028.028,0,0,0-.008.02l-.007.128c0,.009,0,.022-.01.025a.027.027,0,0,1-.013,0,.021.021,0,0,0-.015,0,.738.738,0,0,0-.016.125c-.033,0-.045.041-.047.073l-.006.151c-.024-.009-.041.023-.045.047-.006.049-.025.537-.025.537s-.048.057-.049.087c-.015,0-.049.088-.051.133a3.027,3.027,0,0,0-.069.536c-.015,0-.049.088-.051.133-.044,0-.063.355-.065.4-.048-.009-.049.063-.047.1,0,.062.033.247-.047.275a.111.111,0,0,0-.049.025.067.067,0,0,0-.012.047,1.411,1.411,0,0,0,0,.175.339.339,0,0,0,.038.007c.026.043-.022.09-.039.136a.214.214,0,0,0-.012.072l-.024.449a.171.171,0,0,0-.046.184c-.031-.017-.054.032-.055.067l-.006.239c0,.032-.015.059-.047.055-.006.033-.02.4-.021.4l-.044,0a3.462,3.462,0,0,1,.022.45c-.031-.009-.044,0-.046.035a.4.4,0,0,1,0,.121c-.011.023-.042.017-.049.047a.361.361,0,0,0,0,.063.049.049,0,0,1-.045.05.016.016,0,0,0-.006.015c-.009.289-.009.587-.041.875-.022-.017-.047.02-.05.047-.007.063-.04.511-.1.489.009.057.018.114.026.171l-.036.012a.686.686,0,0,1,.039.213.056.056,0,0,1-.009.036c-.008.011-.023.014-.033.023s-.015.049-.015.076-.02.06-.044.052l.02.444c-.024-.015-.045.025-.047.054-.005.132-.011.263-.017.394l.045,0c.009.076-.047.075-.049.087l-.02.448H33.32c-.009.207-.006.42-.031.626-.063-.007-.039.137-.109.175-.029.017-.067.025-.079.057a.118.118,0,0,1-.007.026c-.015.025-.052.015-.081.023a.084.084,0,0,0-.057.064.259.259,0,0,0,0,.089l-.049.006a.088.088,0,0,1-.053.111.1.1,0,0,0-.032.013.058.058,0,0,0-.012.04l0,.1c0-.023-.056.024-.057.026a.423.423,0,0,0-.038.105l-.182.036c-.007,0-.013-.066-.088-.048l0,.044a1.242,1.242,0,0,0-.377.148.115.115,0,0,1-.128-.079l-.125-.01v-.043a.305.305,0,0,0-.229.019c-.061.031-.126.085-.191.06-.038-.015-.06-.053-.088-.083s-.077-.052-.109-.027-.025.04-.039.058c-.033.043-.1.036-.153.025l-.007.044-.218-.05-.006.039c0-.02-.116.033-.125.044s-.032.074-.063.089-.135-.009-.182-.011l-.261-.011-.007.042-.13,0L30,42.827H29.91c.012.033-.03.057-.063.067a.249.249,0,0,1-.068.012A.073.073,0,0,1,29.714,42.877Zm79.042-2.164,0-.089c-.191-.14-.016-.18-.4-.2-.037.057-.1.177-.231.124l-.041-.092-.134-.006v-.045l-.4-.063V40.3a1.1,1.1,0,0,1-.226.034c-.06.1-.134.153-.192.261l-.133-.051,0-.045a.513.513,0,0,0-.218-.145l-.039-.137h-.045l0-.089-.045,0,.006-.134-.045,0,.007-.135-.045,0-.03-.316-.045,0-.063-.588c-.129-.466-.172-1.066-.29-1.541l.02-.449a6.623,6.623,0,0,1-.088-1.152c-.012-.172-.055-.342-.055-.511,0-.228.006-.454,0-.684-.012-.269-.023-.539-.036-.808-.026-.576-.029-1.133,0-1.709l-.046,0L106,30.967h-.044l0-1.079-.045,0,.065-.447a1,1,0,0,1-.025-.45H106l.008-.179c-.032-.362.015-.772.312-.93.156-.145.251-.015.45.02l.241-.348.317-.031v-.046a.68.68,0,0,1,.407-.025l0,.044a.687.687,0,0,0,.357.061s0-.055.092-.041a.121.121,0,0,0,.133.051l.049-.087c.129.005.366,0,.449.126.01.015.016.034.027.049a.086.086,0,0,0,.095.032l.009.038c.122,0,.155.13.221.206.044.051.167.1.165.18,0,.014-.005.028,0,.041.012.028.057.023.073.049s0,.038,0,.057c0,.039.032.07.057.1s.046.076.023.108l.043.015,0,.08.041.013a.1.1,0,0,0,.01.084.189.189,0,0,0,.03.023.124.124,0,0,1,.036.153l.044.015v.079a1.433,1.433,0,0,0,.161.3v.153a.44.44,0,0,1,.093.142,1.237,1.237,0,0,1,.054.177l.009.039.117.476c.015.06.034.162.081.194-.01.041-.016.123.038.138l-.005.157a.072.072,0,0,0,.008.048c.007.009.019.016.026.027.02.03-.01.076.011.106.007.01.018.015.025.025.021.028,0,.07.01.1a.21.21,0,0,0,.02.03.141.141,0,0,1,.017.044l.012.047a3.18,3.18,0,0,1,.063.538,1.975,1.975,0,0,1,.066.4c.033.006.041.049.036.081s-.014.07.006.1c.007.009.017.016.023.025a.081.081,0,0,1,.008.051l-.009.156a.055.055,0,0,0,.009.041c.007.008.02.012.027.02a.054.054,0,0,1,.007.036c0,.044-.031.628-.03.628h.045l0,.9h-.046l.017.629h-.046c0,.031,0,.028.015.023s.023-.008.028.024c-.007.153-.106,1.838-.128,1.837l-.046,0,.038.182-.046,0-.155,1.432-.044,0,0,.09-.045,0c-.007.148-.013.3-.021.444l-.043.008-.01.169-.042.008-.011.169-.043.008-.014.259c-.043-.006-.065.05-.071.092s-.028.1-.071.092a.532.532,0,0,1-.023.182c-.025.058-.088.1-.105.172-.009.04-.03.1-.07.084l-.009.081-.041.008-.009.08-.046.009a.321.321,0,0,1,0,.132c-.02.064-.148.14-.2.185a.617.617,0,0,1-.311.147l0,.089c-.076.009-.1.014-.129.014A.867.867,0,0,1,108.757,40.713ZM45.684,30.367l-.041-.092a.235.235,0,0,0-.185.008.281.281,0,0,1-.087.025v-.044l-.4-.064.014-.313-.087-.049v-.044l.092-.042.069-1.524h.045l.051-.132-.045,0,0-.09h-.045l0-.09-.044,0c-.015-.077.047-.077.049-.087l.031-.673.089-1.974.046,0,.026-.583h.044l.015-.314h.046l.03-.672h.045l.023-.494.044,0,.073-.626.09,0,.057-.267.045,0,.014-.315.045,0,.028-.628.045,0,.009-.224h.046l.013-.314.046,0,.081-.806.045,0,.006-.135.045,0,.006-.135.045,0,.015-.314h.044l0-.089.045,0,.108-.4.044,0,.007-.135.044,0a.38.38,0,0,0,.1-.265c-.135-.065-.2-.092-.212-.279.05-.021.082-.08.094-.086l.135.007,0-.046a.5.5,0,0,1,.181-.023c.094,0,.124,0,.145-.232l.137-.039a.067.067,0,0,0,.088.049l.1-.13c.122-.043.252.124.308.148l.537.07c-.023-.124-.055-.106-.079-.229.052-.035.007.006.047-.042l.178.053-.054.177.272-.032v-.045a.349.349,0,0,1,.133.033.381.381,0,0,0,.224.028l0-.045.361-.028.081.183c.044.033.062.027.076.02s.033-.018.1.078l.046,0c.039.086-.041.134-.054.177l.3.239-.007.135.131.1,0,.044v.045h.044l-.153.4-.09,0a1.649,1.649,0,0,1-.153.4l.019.585-.092.04.039.137h-.045l-.006.134h-.045l-.012.269H49.4l-.017.359-.045,0-.006.135-.045,0-.01.225-.138.083.077.273h-.045l0,.089-.046,0-.036.808-.044,0,.033.272-.046,0-.008.18H48.98l-.008.18-.045,0-.028.628-.045,0a.119.119,0,0,0,.039.137c0,.028-.066.118-.055.223,0,.031.014.027.024.023s.02-.009.018.023h-.045l-.006.135.045,0-.025.538-.044,0-.015.314-.045,0c-.009.049.075.122.035.226l-.044,0,0,.091-.045,0-.036.807a5.81,5.81,0,0,1-.1,1.12l.033.271h-.045l-.011.225L48.5,28.7H48.46c-.048.141.052.23.031.316l-.045,0-.008.18-.045,0c-.054.048,0,.017-.092.04a.714.714,0,0,1-.108.4l-.092.041-.01.224-.045,0,0,.044c-.083.039-.073.06-.183.082-.059.223-.1.21-.2.2a.581.581,0,0,0-.214.009l0,.045-.18-.008,0-.045-.046,0,0,.045-.18-.008,0-.046-.09,0,0-.044-.315-.015,0-.044-.046,0-.1.131-.089,0v.044a.794.794,0,0,1-.4-.019V30.2l-.182.036-.051.132ZM96.6,28.907a.437.437,0,0,0-.164-.073.462.462,0,0,0-.174.031.461.461,0,0,1-.185.031,1.93,1.93,0,0,1-.4-.119,1.97,1.97,0,0,0-1.115-.137c-.1.026-.2.166-.3.143-.164-.039-.129-.182-.162-.3-.017-.063-.087-.148-.089-.208-.011-.222.01-.446.021-.667-.143-.6.1-1.522-.033-2.249a.12.12,0,0,1,.051-.133c0-.172,0-.345,0-.519A.7.7,0,0,0,94,24.309a1.225,1.225,0,0,0,0-.446l.008-.137-.048-.268.012-.121-.077-.423-.023-.479-.019-.016a.123.123,0,0,0-.024-.137l-.023-.315-.024-.167c-.076-.132-.018-.356-.012-.5a2.446,2.446,0,0,0-.06-.343c-.017-.123-.028-.247-.036-.37a4.944,4.944,0,0,1-.031-.874v-.254a1.894,1.894,0,0,0,.073-.505l.065-.314.055-.267a.285.285,0,0,1,.068-.135.2.2,0,0,1,.054-.174l.028-.211a1.027,1.027,0,0,1,.215-.365.7.7,0,0,0,.119-.346,4.326,4.326,0,0,0,.207-.575l.136-.039v.045h.045c.037.077-.036.145-.053.178H94.7V16.8l.222.055,0-.044c.125-.028.1-.008.14-.129.076,0,.342.058.366-.025l.076-.017c.2-.063.4-.133.6-.182V16.5h.044l.034.227h.046l-.011.225h.045l0,.09.173.143.341.42.089,0,.084.138.09,0c.033,0,.152.2.171.235a.984.984,0,0,1,.1.26,2.423,2.423,0,0,1,.137.744l.057.228v.305l.055.015-.076.479a.153.153,0,0,1,.06.088l.074.431c.009.055-.036.151-.037.214a1.506,1.506,0,0,0,.039.231,6.507,6.507,0,0,1,.012.938l.037.169a.322.322,0,0,1-.032.3l.074.115V23.4a.827.827,0,0,1,.025.421,4.427,4.427,0,0,1-.047.484c-.062.017.014.023-.047.043l-.225-.011,0,.045.045,0c.049.063.079.073.175.1l.015.676-.045,0-.052.177.087.049a1.389,1.389,0,0,1-.122.714l.039.137H97.6c-.03.151-.053.3-.084.454-.028.13-.12.195-.076.344.022.074.064.119.06.2s-.033.149-.044.222c-.049.314-.033.629-.105.939-.041.184-.06.319-.216.425a.681.681,0,0,1-.365.127A.362.362,0,0,1,96.6,28.907Zm-14.575-8L81.972,21c-.127.006-.372.068-.481,0s-.152-.318-.172-.444c-.127-.791-.214-1.586-.273-2.384q-.045-.606-.069-1.212c-.008-.2-.015-.395-.02-.592a1.192,1.192,0,0,0-.047-.506l0-.212-.031-.012a3.3,3.3,0,0,0-.044-.543c-.046-.21-.081-.423-.119-.634q-.109-.622-.187-1.249a26.575,26.575,0,0,1-.183-3.887l.044,0-.04-.092.071-.58h.045l.014-.313a2.736,2.736,0,0,0,.263-.843L81.1,7.47c.033-.06.134-.116.14-.129.021-.037-.095-.1-.036-.182.04-.058.172-.036.271-.032l0,.045.225.009.065-.447.618.08c.108.014.215.027.323.042a1.569,1.569,0,0,1,.212.072.074.074,0,0,0,.107.034,3.413,3.413,0,0,0,.741.832.308.308,0,0,0,.1.031l.176.228c-.068.16-.143.319-.2.484a3.537,3.537,0,0,1-.015.422,3.213,3.213,0,0,1-.144.431q-.152.455-.287.916-.184.631-.34,1.268c-.08.332-.1.675-.172,1.008a7.489,7.489,0,0,0-.146,1.775c.015.473.032.943.011,1.414l.044,0v.045l-.045,0c-.013.281-.066,3.369-.018,3.371h.044l-.024.539a4.987,4.987,0,0,1,.078,1.263l-.044,0,0,.045A3.068,3.068,0,0,0,82.021,20.91Zm-19.359-.8a1.691,1.691,0,0,1-.542-.138l-.673-.276-.079.132A.529.529,0,0,1,61,19.646a.324.324,0,0,1-.409-.027.158.158,0,0,1-.233-.03.456.456,0,0,1-.068-.256q-.077-1.224-.068-2.452a16.176,16.176,0,0,1-.05-1.781c.018-.609.038-1.219.051-1.829l-.039-.012c.027-.732.064-1.463.1-2.194.015-.314.025-.623.021-.94l.02-.007a2.782,2.782,0,0,0,.007-.56l.006-.648h.045c.019-.417.031-.835.06-1.251l.037-.008.017-.075a.172.172,0,0,0,.024-.084l.034-.276c.095-.036.033-.2.094-.228l.092-.04L60.7,6.859l.045,0,.051-.132.089,0a.377.377,0,0,0,.394.242l.156-.443c.209.034.211.151.349.241.033-.18.036-.247.236-.26a2.626,2.626,0,0,0,.2.4c.1.175.2.353.288.535q.161.331.292.673c.015.042.22.639.156.635a.192.192,0,0,1,.041,0,3.087,3.087,0,0,1,.056.708c.02.34.006.663.005,1,0,.2.172.828-.039.95a2.589,2.589,0,0,1-.084.936,6.29,6.29,0,0,1-.041.731,1.3,1.3,0,0,0-.08.605l-.034.007-.026.209c-.009.071-.065.139-.072.217a1.445,1.445,0,0,0,.007.217c.008.143.017.287.038.428l-.012.269h-.044c-.033.108.027.11.039.137a1.05,1.05,0,0,0-.064.4l.045,0a3.68,3.68,0,0,1-.02.43c-.011.066-.09.2-.017.25.016.01.033.508.039.556l.085.657c.088.676.208,1.351.23,2.034l.034.226-.045,0a.8.8,0,0,0-.059.312c0,.062-.089.075-.165.075C62.726,20.119,62.682,20.114,62.662,20.113Zm9.015-6.236-.21-.324c-.018-.028-.142.028-.164.033a.173.173,0,0,1-.169-.025l-.2-.169a.625.625,0,0,0-.332-.184.718.718,0,0,0-.079,0,.638.638,0,0,1-.074,0,.17.17,0,0,1-.132-.065l-.009.041-.13.019h-.148a.5.5,0,0,1-.354-.093.453.453,0,0,1-.1-.3,2.95,2.95,0,0,0,.008-.375.932.932,0,0,1-.03-.619.156.156,0,0,0,.023-.067c0-.023-.026-.048-.048-.038.028-.015.047-.223.055-.265a3.435,3.435,0,0,0,.024-.541c.005-.108.009-.217.015-.326,0-.075-.02-.172.056-.219,0,0-.069-.187-.074-.212a.77.77,0,0,1-.009-.268,1.5,1.5,0,0,1-.006-.5l-.045-.007c-.007-.252-.009-.5,0-.758A.57.57,0,0,1,69.55,8.5c.009-.041.026-.079.034-.12a.672.672,0,0,0-.03-.206c-.012-.087-.02-.175-.028-.263-.015-.182-.025-.364-.036-.545a5.964,5.964,0,0,0-.125-1.06.728.728,0,0,1,.007-.168c0-.077,0-.154,0-.231a.76.76,0,0,1-.016-.364l-.043-.007.025-.126a.829.829,0,0,0-.023-.2c-.007-.073-.012-.147-.015-.22a1.527,1.527,0,0,0,0-.209c-.01-.059-.038-.116-.047-.177l-.012-.069a2.864,2.864,0,0,1,.01-.569l-.044,0c-.007-.194-.014-.389-.017-.583l.022,0-.033-.31a5.379,5.379,0,0,1-.005-.583.658.658,0,0,1-.012-.364l.036,0,.024-.081a1.128,1.128,0,0,0,.018-.146l.051-.618.036,0,.019-.125c0-.026.031-.057.038-.084a.438.438,0,0,0,.008-.119c0-.082.006-.167.009-.249.046.011.167.066.21.044A.129.129,0,0,0,69.65.684l.071-.111h.127l.016-.048A.123.123,0,0,0,70,.563c.022-.007.041-.021.063-.028a.063.063,0,0,1,.064.012c.02.023.01.065.037.081A.043.043,0,0,0,70.22.606.181.181,0,0,0,70.236.54a3.025,3.025,0,0,1,.083-.3h.087a.083.083,0,0,1,.048-.1c.022-.007.045,0,.066-.013s.04-.031.031-.051l.083,0A.369.369,0,0,1,70.7.006a.384.384,0,0,1,.112,0c.057,0,.215,0,.264.055a.048.048,0,0,1,.012.021.861.861,0,0,1,.011.1c.007.031.035.065.067.057L71.165.45a.134.134,0,0,1,.069.084c.011.036.015.073.025.11.02.07.071.105.107.164s.02.124.055.156.141.044.191.078a.586.586,0,0,1,.156.156.214.214,0,0,1,.03.181c.028,0,.044.031.052.058l.017.065.015.062.021.083a1.618,1.618,0,0,1,0,.439,1.988,1.988,0,0,0,.033.67c0,.017.009.033.012.051a.59.59,0,0,1,.007.129.482.482,0,0,0,0,.116c.006.02.025.032.03.049a.74.74,0,0,1,0,.223c0,.163-.009.327-.009.49a4.414,4.414,0,0,1,.009.673,1.745,1.745,0,0,1,.035.408l.009.218a12,12,0,0,0,.121,1.209,2.817,2.817,0,0,1,0,.376.194.194,0,0,1,.026.184.036.036,0,0,1,.039.052.025.025,0,1,0-.009.041,3.533,3.533,0,0,1-.051.445l.041.007,0,.175.039.006.009.127a.5.5,0,0,1,.024.271.172.172,0,0,1,.023.086l.033.319a.64.64,0,0,0-.04.362c.062.063.028.174.024.252a1.361,1.361,0,0,0-.015.338,6.407,6.407,0,0,1,.023,1.485,5.368,5.368,0,0,1-.04,1.349l-.061.619a.21.21,0,0,0-.041.18l-.044,0-.008.086-.041,0,.024.219c0,.027-.048.1-.049.14,0,.058,0,.118,0,.177H72l-.057.266Z" fill="#1a1311"/>
      </g>
      <g id="グループ_25" data-name="グループ 25" transform="translate(0 137.92)">
        <g id="グループ_24" data-name="グループ 24">
          <path id="パス_26841" data-name="パス 26841" d="M215.015,725.566c0,3.758-2.812,6.692-5.866,8.51a6.32,6.32,0,0,1-1.94.873c-.558,0-1.309-1.212-1.309-1.6,0-.243.291-.339.485-.413,2.957-.969,6.5-3.806,6.5-7.176a3.427,3.427,0,0,0-3.684-3.734,8.027,8.027,0,0,0-5.285,2.327.806.806,0,0,1-.509.267c-.461,0-1.091-1.382-1.091-1.843,0-.364.461-.582.752-.752a12.656,12.656,0,0,1,6.207-1.964C212.664,720.062,215.015,722.123,215.015,725.566Zm-8.97-10.377a25.651,25.651,0,0,0,5.915,1.189c.34.023.51.072.51.387,0,.145-.1,1.721-.752,1.721-.63,0-4.678-.9-5.479-1.115-.9-.217-1.358-.315-1.358-.7,0-.218.291-1.576.776-1.576A1.142,1.142,0,0,1,206.046,715.189Z" transform="translate(-202.312 -713.735)" fill="#1a1311"/>
          <path id="パス_26842" data-name="パス 26842" d="M240.032,714.741c.121.049.291.122.291.292a.548.548,0,0,1-.194.339c-.267.267-.315.314-.436,1.284-.073.461-.242,1.7-.242,2.109,0,.267.218.315.461.315.388.024.849.873.849,1.042,0,.146-.17.291-.315.485l-.824,1.479a1.33,1.33,0,0,0-.1.606c0,.145.024.291.218.291a.247.247,0,0,0,.194-.121c.533-.558,1.673-1.624,2.279-2.133,1.067-.946,2.424-2.061,3.928-2.061a2.342,2.342,0,0,1,1.89.946,4.248,4.248,0,0,1,.388,2.134c0,2.4-.267,4.8-.267,7.2,0,.727-.048,1.673.606,1.673.776,0,1.891-1.042,2.4-1.6a.6.6,0,0,1,.412-.267c.364,0,.873,1.455.873,1.794s-.8.9-1.091,1.067a5.875,5.875,0,0,1-3.2,1.333c-1.842,0-2.037-1.964-2.037-3.37,0-2.328.292-4.655.292-6.982,0-.63.023-1.673-.824-1.673-.946,0-2.158,1.091-2.861,1.673a30.768,30.768,0,0,0-3.128,3.031,1.162,1.162,0,0,0-.485.97v.412c0,1.237.024,2.449.073,3.685.024.655.145,2.618.145,3.054,0,.195-.024.413-1.358.413-.436,0-.873,0-.873-.486,0-.049.048-1.212.048-1.454.048-1.067.1-2.158.1-3.249,0-.121-.049-.291-.194-.291-.121,0-.242.17-.291.267-.727,1.09-1.382,2.206-2.012,3.37a.294.294,0,0,1-.267.194c-.364,0-1.455-.922-1.455-1.31a.945.945,0,0,1,.242-.46,60.273,60.273,0,0,0,3.855-6.5,1.465,1.465,0,0,0,.242-.776c0-.388.073-1.261.073-1.382,0-.194-.1-.339-.291-.339a1.691,1.691,0,0,0-.461.146,20.631,20.631,0,0,1-3.2,1.067c-.655,0-.994-1.77-.994-1.867,0-.339.436-.339.727-.364.727-.1,3.782-.679,4.17-1.188.194-.218.145-.582.17-.873.073-.97.145-2.206.145-3.176,0-.339-.024-.63-.024-.752,0-.218.073-.339.315-.339A19.829,19.829,0,0,1,240.032,714.741Z" transform="translate(-208.102 -713.603)" fill="#1a1311"/>
          <path id="パス_26843" data-name="パス 26843" d="M273.874,716.5c.194.048.461.145.461.363,0,.17-.145.267-.267.364a2.387,2.387,0,0,0-.485,1.455,58.937,58.937,0,0,0-.533,8.267c0,2.085.048,5.091,2.885,5.091a6.522,6.522,0,0,0,4.849-2.5,7.332,7.332,0,0,0,1.479-3.612c.048-.339.1-.752.411-.752.461,0,1.624.97,1.624,1.649a8.754,8.754,0,0,1-.946,2.739,8.466,8.466,0,0,1-7.273,4.607,5.012,5.012,0,0,1-4.049-1.843c-1.043-1.406-1.14-3.612-1.14-5.309,0-3.006.218-6.013.461-9.019a14.089,14.089,0,0,0,.049-1.43c0-.339.024-.582.339-.582A14.946,14.946,0,0,1,273.874,716.5Z" transform="translate(-215.469 -713.908)" fill="#1a1311"/>
          <path id="パス_26844" data-name="パス 26844" d="M315.975,719.484a8.05,8.05,0,0,1,2.376,5.867,8.512,8.512,0,0,1-4.679,7.71,9.123,9.123,0,0,1-2.5.9c-.509,0-1.358-1.14-1.358-1.577,0-.267.388-.29.606-.339,3.3-.7,5.77-3.1,5.77-6.594a6.2,6.2,0,0,0-4.316-6.158,5.094,5.094,0,0,0-1.018-.218c-.63,0-.63.533-.655.994-.217,3.588-1.091,8.073-3.443,10.91a4.173,4.173,0,0,1-3.03,1.77,3.694,3.694,0,0,1-3.1-2.183,7.741,7.741,0,0,1-.727-3.369,9.853,9.853,0,0,1,9.915-10.062A8.537,8.537,0,0,1,315.975,719.484Zm-9.067.145a7.84,7.84,0,0,0-4.97,7.467c0,1.067.388,3.516,1.794,3.516,1.308,0,2.57-2.546,2.981-3.612a20.689,20.689,0,0,0,1.455-7.152c0-.267-.122-.485-.388-.485A3.628,3.628,0,0,0,306.909,719.629Z" transform="translate(-221.034 -714.126)" fill="#1a1311"/>
          <path id="パス_26845" data-name="パス 26845" d="M339.878,724.977c-.121,0-.145.1-.17.194v5.77c0,1.091.073,2.206.073,3.321,0,.727-.17.824-.994.824-.752,0-.97-.072-.97-.776,0-1.14.049-2.255.049-3.369v-4.9a.11.11,0,0,0-.1-.121c-.049,0-.073.024-.121.073a24.956,24.956,0,0,1-1.843,4.485c-.146.242-.291.533-.533.533a1.784,1.784,0,0,1-1.139-1.066,1.077,1.077,0,0,1,.242-.533,34.83,34.83,0,0,0,3.1-7.007.716.716,0,0,0,.048-.242c0-.315-.242-.412-.509-.412-.655,0-1.309.024-1.818.024-.436,0-.461-.267-.461-.921,0-.606,0-.921.461-.921.509,0,1.164.048,1.843.048h.145c.485,0,.679-.194.679-.679V717.34c0-.291-.121-.533-.436-.533a.6.6,0,0,0-.218.049,8.009,8.009,0,0,1-1.43.315c-.679,0-.873-1.163-.873-1.381,0-.365.364-.413.873-.509a24.424,24.424,0,0,0,5.116-1.7.907.907,0,0,1,.388-.17c.218,0,.558.581.9,1.115a1.824,1.824,0,0,1,.315.656.249.249,0,0,1-.267.242,1.1,1.1,0,0,1-.267-.073.707.707,0,0,0-.219-.048c-.072,0-.557.194-.945.339-.218.1-.412.17-.485.195-.461.193-.558.388-.606.9v2.57c0,.485.217.679.679.679h.073c.655,0,1.333-.048,1.818-.048.46,0,.46.315.46.921,0,.655,0,.921-.46.921-.485,0-1.164-.024-1.818-.024h-.073c-.218,0-.412.1-.412.364a.553.553,0,0,0,.073.267,17.42,17.42,0,0,0,2.472,3.321c.1.121.218.242.218.388,0,.339-.533,1.285-.921,1.285-.485,0-1.527-1.843-1.794-2.3A.164.164,0,0,0,339.878,724.977Zm4.437,4.97c-.17.048-.195.242-.243.388a31.315,31.315,0,0,1-1.26,3.564c-.1.266-.242.533-.558.533-.29,0-1.284-.242-1.284-.7a1.579,1.579,0,0,1,.194-.532,16.507,16.507,0,0,0,1.308-3.661c.049-.218.049-.436.316-.436s1.14.242,1.43.291c.17.024.436.072.436.29C344.654,729.849,344.459,729.9,344.315,729.947Zm8.339-3.394h-6.909c-.243.024-.315.145-.389.339-.1.218-.314.243-.9.243-.7,0-.969,0-.969-.485s.023-.946.023-1.406v-4.291c0-.436-.023-.849-.023-1.285,0-.8.388-.921,1.212-.921.363,0,.8.024,1.333.024h1.745c.364,0,.509-.145.509-.509v-.412c0-.339-.146-.485-.509-.485H346.06c-.9,0-1.77.049-2.666.049-.534,0-.534-.267-.534-.849s.025-.873.51-.873c.9,0,1.793.049,2.69.049h1.552c.461,0,.655-.169.679-.63-.024-.364-.048-.63-.1-.994,0-.048-.024-.17-.024-.217,0-.243.194-.292.388-.292.315,0,1.018.074,1.382.1s.7.073.7.291c0,.17-.121.218-.291.339-.242.171-.267.34-.267.752,0,.461.194.655.655.655h2.206c.9,0,1.794-.049,2.691-.049.509,0,.509.291.509.873,0,.533,0,.849-.509.849-.9,0-1.794-.049-2.691-.049h-2.376c-.364,0-.509.146-.509.485v.412c0,.364.145.509.509.509h1.794c.509,0,.945-.024,1.309-.024.8,0,1.236.121,1.236.873,0,.437-.024.9-.024,1.334v4.291c0,.461.024.921.024,1.406s-.242.485-.97.485c-.606,0-.8-.024-.9-.243C352.969,726.7,352.9,726.577,352.654,726.553Zm-2.715,6.5c.824,0,1.067-.023,1.382-1.963.048-.339.1-.509.461-.509.315,0,1.382.121,1.382.63a8.328,8.328,0,0,1-.776,2.739c-.509.824-1.285.849-2.158.849h-2.812c-1.262,0-2.255-.218-2.255-1.7,0-.315.049-.606.049-.9v-1.795c0-.411-.049-.945-.073-1.357,0-.1-.025-.218-.025-.315,0-.218.17-.267.365-.267.218,0,1.405.1,1.672.121.17,0,.486,0,.486.243,0,.145-.1.194-.218.267-.292.194-.364.412-.364,1.308v1.94c0,.727.509.7,1.091.7ZM348.29,720.9a.56.56,0,0,0-.582-.582h-1.77a.561.561,0,0,0-.582.582v.485a.561.561,0,0,0,.582.582h1.77a.56.56,0,0,0,.582-.582Zm-2.352,2.4a.561.561,0,0,0-.582.582v.582a.561.561,0,0,0,.582.582h1.77a.56.56,0,0,0,.582-.582v-.582a.56.56,0,0,0-.582-.582Zm3.685,7.564c-.267,0-.412-.267-.606-.679a19.067,19.067,0,0,0-1.309-2.279.931.931,0,0,1-.194-.412c0-.339.824-.8,1.14-.8.242,0,.582.388,1.382,1.818a6.784,6.784,0,0,1,.727,1.5C350.763,730.407,349.987,730.868,349.624,730.868Zm2.837-8.9a.56.56,0,0,0,.582-.582V720.9a.56.56,0,0,0-.582-.582h-1.818a.56.56,0,0,0-.582.582v.485a.56.56,0,0,0,.582.582Zm-2.4,2.5a.56.56,0,0,0,.582.582h1.818a.56.56,0,0,0,.582-.582v-.582a.56.56,0,0,0-.582-.582h-1.818a.56.56,0,0,0-.582.582Zm5.14,8.946c-.339,0-.436-.291-.533-.558A21.284,21.284,0,0,0,352.7,729.2a.822.822,0,0,1-.218-.461c0-.388.9-.824,1.188-.824a.636.636,0,0,1,.485.339c.364.533.849,1.381,1.164,1.964a12.587,12.587,0,0,1,1.067,2.376C356.388,733.075,355.491,733.414,355.2,733.414Z" transform="translate(-227.601 -713.413)" fill="#1a1311"/>
          <path id="パス_26846" data-name="パス 26846" d="M386.776,719.484a8.052,8.052,0,0,1,2.375,5.867,8.512,8.512,0,0,1-4.679,7.71,9.109,9.109,0,0,1-2.5.9c-.509,0-1.359-1.14-1.359-1.577,0-.267.388-.29.606-.339,3.3-.7,5.77-3.1,5.77-6.594a6.2,6.2,0,0,0-4.315-6.158,5.1,5.1,0,0,0-1.019-.218c-.63,0-.63.533-.655.994-.218,3.588-1.09,8.073-3.442,10.91a4.174,4.174,0,0,1-3.031,1.77,3.694,3.694,0,0,1-3.1-2.183,7.74,7.74,0,0,1-.727-3.369,9.854,9.854,0,0,1,9.915-10.062A8.54,8.54,0,0,1,386.776,719.484Zm-9.068.145a7.84,7.84,0,0,0-4.97,7.467c0,1.067.388,3.516,1.794,3.516,1.309,0,2.57-2.546,2.982-3.612a20.688,20.688,0,0,0,1.455-7.152c0-.267-.121-.485-.388-.485A3.639,3.639,0,0,0,377.709,719.629Z" transform="translate(-234.616 -714.126)" fill="#1a1311"/>
          <path id="パス_26847" data-name="パス 26847" d="M415,721.181c-.194,0-.242.17-.242.315v.121c0,.824.048,1.649.048,2.449,0,.776-.193.849-1.017.849-.727,0-1.019-.024-1.019-.752,0-.849.074-1.7.074-2.546V721.5c-.025-.146-.074-.315-.267-.315a.357.357,0,0,0-.218.1,30.356,30.356,0,0,1-7.467,5.019,2.967,2.967,0,0,1-.946.339c-.461,0-1.018-.9-1.018-1.309,0-.315.267-.412.752-.606a25.461,25.461,0,0,0,6.91-4.194.361.361,0,0,0,.1-.218c0-.17-.145-.218-.292-.218h-3.951c-.946,0-1.891.049-2.837.049-.509,0-.533-.242-.533-.873,0-.655.024-.873.533-.873.946,0,1.891.048,2.837.048h5.794c.411,0,.606-.194.606-.582v-.9c0-.364-.171-.582-.558-.558-2.11.1-4.243.243-6.376.243-.364,0-.7.023-.849-.243a2.481,2.481,0,0,1-.242-.969c0-.436.194-.51.63-.51h1.091c3.37,0,10.352-.339,13.431-1.309a.585.585,0,0,1,.194-.025c.194,0,.533.437.824.824.048.074.121.146.17.218a1.148,1.148,0,0,1,.339.655.217.217,0,0,1-.218.218.791.791,0,0,1-.315-.1.9.9,0,0,0-.339-.1c-.1,0-.461.1-.582.121-1.552.266-3.1.508-4.654.7-.486.074-.631.267-.631.728v.9c0,.485.194.679.679.679h5.625c.946,0,1.891-.048,2.837-.048.533,0,.533.218.533.873s0,.873-.533.873c-.946,0-1.891-.049-2.837-.049H417.08c-.145,0-.291.049-.291.218a.361.361,0,0,0,.1.218,25.992,25.992,0,0,0,6.764,4.219c.242.1.824.315.824.655,0,.388-.606,1.285-1.091,1.285a17.651,17.651,0,0,1-3.249-1.625,25,25,0,0,1-4.946-3.782A.3.3,0,0,0,415,721.181Zm-5.7,12.825c-.315,0-.461.12-.485.46a1.223,1.223,0,0,1,.023.291c0,.51-.29.51-1.017.51-.752,0-1.018,0-1.018-.534,0-.508.049-1.017.049-1.527v-5.212c0-.485-.049-.946-.049-1.43,0-.7.315-.97.994-.97.63,0,1.26.024,1.891.024h7.951c.63,0,1.139-.024,1.552-.024.921,0,1.333.121,1.333.946,0,.485-.048.97-.048,1.455v5.212c0,.51.048,1.019.048,1.527,0,.534-.267.534-.994.534-.752,0-1.043,0-1.043-.51a1.089,1.089,0,0,1,.024-.291c-.024-.34-.17-.46-.485-.46Zm9.236-6.207a.56.56,0,0,0-.582-.582h-8.582a.561.561,0,0,0-.583.582v.655a.561.561,0,0,0,.583.582h8.582a.56.56,0,0,0,.582-.582Zm-.582,4.607a.56.56,0,0,0,.582-.583v-.751a.566.566,0,0,0-.582-.606h-8.582a.567.567,0,0,0-.583.606v.751a.561.561,0,0,0,.583.583Z" transform="translate(-240.798 -713.447)" fill="#1a1311"/>
        </g>
      </g>
      <g id="グループ_27" data-name="グループ 27" transform="translate(0.812 174.07)">
        <g id="グループ_26" data-name="グループ 26">
          <path id="パス_26848" data-name="パス 26848" d="M203.317,764.141v-5.585h1.093v5.359c0,1.693,1.106,2.719,3.212,2.719s3.212-1.026,3.212-2.719v-5.359h1.093v5.585c0,2.146-1.613,3.6-4.306,3.6S203.317,766.288,203.317,764.141Z" transform="translate(-203.317 -758.223)" fill="#1a1311"/>
          <path id="パス_26849" data-name="パス 26849" d="M221.143,767.421H220.05v-8.865h5.292c2.266,0,3.452.96,3.452,2.533a2.81,2.81,0,0,1-2.665,2.64c.666,2.479,1.146,2.853,1.8,2.853a2.5,2.5,0,0,0,.88-.213v1.066a4.242,4.242,0,0,1-1.28.24c-1.146,0-1.679-.706-2.519-3.865h-3.865Zm4.292-4.586a1.835,1.835,0,0,0,2.026-1.693c0-.987-.76-1.56-2.373-1.56-1.026,0-2.04.013-3.945.027v3.226Z" transform="translate(-206.527 -758.223)" fill="#1a1311"/>
          <path id="パス_26850" data-name="パス 26850" d="M244.527,767.421h-8.158v-8.865h7.905v1.08H237.45v2.68h5.731v1.106H237.45v2.932h7.078Z" transform="translate(-209.658 -758.223)" fill="#1a1311"/>
          <path id="パス_26851" data-name="パス 26851" d="M250.627,765.045l.946-.373c.4,1.547,2.054,1.88,3.546,1.88,1.306,0,3.346-.373,3.346-1.893,0-2.652-7.785.066-7.785-3.612,0-2.213,2.68-2.853,4.386-2.853,1.893,0,4,.427,4.413,2.64l-.947.373c-.4-1.547-2.039-1.96-3.533-1.96-1.346,0-3.052.413-3.052,1.706,0,2.333,7.7-.08,7.7,3.626,0,2.386-2.479,3.106-4.425,3.106C253.334,767.684,251.04,767.258,250.627,765.045Z" transform="translate(-212.393 -758.153)" fill="#1a1311"/>
          <path id="パス_26852" data-name="パス 26852" d="M275.666,767.421h-1.093v-4.013h-6.253v4.013h-1.093v-8.865h1.093V762.3h6.253v-3.746h1.093Z" transform="translate(-215.578 -758.223)" fill="#1a1311"/>
          <path id="パス_26853" data-name="パス 26853" d="M284.075,767.421v-8.865h1.093v8.865Z" transform="translate(-218.81 -758.223)" fill="#1a1311"/>
          <path id="パス_26854" data-name="パス 26854" d="M300.672,767.421h-1.146l-6.6-7.185v7.185h-1.093v-8.865h1.106l6.639,7.264v-7.264h1.093Z" transform="translate(-220.298 -758.223)" fill="#1a1311"/>
          <path id="パス_26855" data-name="パス 26855" d="M308.3,762.943a4.719,4.719,0,1,1,4.732,4.705A4.451,4.451,0,0,1,308.3,762.943ZM313,759.2a3.364,3.364,0,0,0-3.559,3.652,3.454,3.454,0,0,0,3.6,3.746,3.367,3.367,0,0,0,3.573-3.652A3.465,3.465,0,0,0,313,759.2Z" transform="translate(-223.458 -758.144)" fill="#1a1311"/>
          <path id="パス_26856" data-name="パス 26856" d="M341.15,767.421h-1.093v-4.013H333.8v4.013h-1.093v-8.865H333.8V762.3h6.253v-3.746h1.093Z" transform="translate(-228.14 -758.223)" fill="#1a1311"/>
          <path id="パス_26857" data-name="パス 26857" d="M348.686,762.943a4.719,4.719,0,1,1,4.732,4.705A4.451,4.451,0,0,1,348.686,762.943Zm4.692-3.746a3.364,3.364,0,0,0-3.559,3.652,3.454,3.454,0,0,0,3.6,3.746,3.367,3.367,0,0,0,3.573-3.652A3.465,3.465,0,0,0,353.378,759.2Z" transform="translate(-231.205 -758.144)" fill="#1a1311"/>
          <path id="パス_26858" data-name="パス 26858" d="M374.734,767.421h-1.146l-6.6-7.185v7.185H365.9v-8.865H367l6.639,7.264v-7.264h1.093Z" transform="translate(-234.507 -758.223)" fill="#1a1311"/>
          <path id="パス_26859" data-name="パス 26859" d="M382.365,762.943a4.719,4.719,0,1,1,4.732,4.705A4.451,4.451,0,0,1,382.365,762.943Zm4.692-3.746a3.364,3.364,0,0,0-3.559,3.652,3.454,3.454,0,0,0,3.6,3.746,3.367,3.367,0,0,0,3.573-3.652A3.465,3.465,0,0,0,387.057,759.2Z" transform="translate(-237.666 -758.144)" fill="#1a1311"/>
          <path id="パス_26860" data-name="パス 26860" d="M408.517,766.5a1.248,1.248,0,0,0,.453-.094l.04,1.067c-2.134.693-3.44-1.52-5.745-4.479l-2.613,1.959v2.467h-1.093v-8.865h1.093v5.106l6.785-5.106h1.707l-4.973,3.746C405.971,765.034,407.424,766.5,408.517,766.5Z" transform="translate(-240.965 -758.223)" fill="#1a1311"/>
          <path id="パス_26861" data-name="パス 26861" d="M422.2,764.474h-4.932l-1.453,2.947h-1.173L419,758.556h1.466l4.359,8.865h-1.174Zm-4.412-1.066h3.879l-1.853-3.772h-.16Z" transform="translate(-243.858 -758.223)" fill="#1a1311"/>
        </g>
      </g>
    </g>
  </g>
</svg>
