<svg xmlns="http://www.w3.org/2000/svg" width="8.838" height="167.813" viewBox="0 0 8.838 167.813">
  <g id="グループ_46" data-name="グループ 46" transform="translate(8.838) rotate(90)">
    <g id="グループ_36" data-name="グループ 36">
      <path id="パス_26981" data-name="パス 26981" d="M391.156,682.3v-5.179h1.014v4.969c0,1.57,1.026,2.522,2.979,2.522s2.979-.952,2.979-2.522v-4.969h1.014V682.3c0,1.99-1.5,3.337-3.993,3.337S391.156,684.29,391.156,682.3Z" transform="translate(-391.156 -676.812)" fill="#1a1311"/>
      <path id="パス_26982" data-name="パス 26982" d="M425.634,685.341H424.62v-8.22h4.908c2.1,0,3.2.89,3.2,2.349a2.606,2.606,0,0,1-2.472,2.447c.618,2.3,1.063,2.645,1.669,2.645a2.311,2.311,0,0,0,.816-.2v.989a3.953,3.953,0,0,1-1.187.223c-1.063,0-1.558-.655-2.337-3.585h-3.585Zm3.98-4.253a1.7,1.7,0,0,0,1.879-1.57c0-.915-.7-1.446-2.2-1.446-.952,0-1.891.012-3.659.025v2.991Z" transform="translate(-412.081 -676.812)" fill="#1a1311"/>
      <path id="パス_26983" data-name="パス 26983" d="M464.825,685.341H457.26v-8.22h7.33v1h-6.329v2.485h5.316v1.026h-5.316v2.719h6.564Z" transform="translate(-432.49 -676.812)" fill="#1a1311"/>
      <path id="パス_26984" data-name="パス 26984" d="M485.776,682.749l.878-.346c.371,1.434,1.9,1.743,3.288,1.743,1.212,0,3.1-.346,3.1-1.755,0-2.46-7.219.062-7.219-3.35,0-2.052,2.485-2.645,4.067-2.645,1.755,0,3.708.4,4.092,2.448l-.878.346c-.371-1.434-1.891-1.817-3.276-1.817-1.248,0-2.831.383-2.831,1.582,0,2.163,7.145-.074,7.145,3.362,0,2.213-2.3,2.88-4.1,2.88C488.285,685.2,486.159,684.8,485.776,682.749Z" transform="translate(-450.321 -676.358)" fill="#1a1311"/>
      <path id="パス_26985" data-name="パス 26985" d="M526.8,685.341h-1.014V681.62h-5.8v3.721h-1.014v-8.22h1.014v3.474h5.8v-3.474H526.8Z" transform="translate(-471.081 -676.812)" fill="#1a1311"/>
      <path id="パス_26986" data-name="パス 26986" d="M552.672,685.341v-8.22h1.014v8.22Z" transform="translate(-492.151 -676.812)" fill="#1a1311"/>
      <path id="パス_26987" data-name="パス 26987" d="M576.386,685.341h-1.063l-6.119-6.663v6.663H568.19v-8.22h1.026l6.156,6.737v-6.737h1.014Z" transform="translate(-501.854 -676.812)" fill="#1a1311"/>
      <path id="パス_26988" data-name="パス 26988" d="M601.127,680.746a4.376,4.376,0,1,1,4.388,4.363A4.128,4.128,0,0,1,601.127,680.746Zm4.351-3.474a3.12,3.12,0,0,0-3.3,3.387,3.2,3.2,0,0,0,3.337,3.474,3.123,3.123,0,0,0,3.313-3.387A3.213,3.213,0,0,0,605.478,677.273Z" transform="translate(-522.45 -676.296)" fill="#1a1311"/>
      <path id="パス_26989" data-name="パス 26989" d="M657.77,685.341h-1.014V681.62h-5.8v3.721h-1.014v-8.22h1.014v3.474h5.8v-3.474h1.014Z" transform="translate(-552.975 -676.812)" fill="#1a1311"/>
      <path id="パス_26990" data-name="パス 26990" d="M681.892,680.746a4.376,4.376,0,1,1,4.388,4.363A4.128,4.128,0,0,1,681.892,680.746Zm4.351-3.474a3.12,3.12,0,0,0-3.3,3.387,3.2,3.2,0,0,0,3.338,3.474,3.123,3.123,0,0,0,3.313-3.387A3.213,3.213,0,0,0,686.243,677.273Z" transform="translate(-572.951 -676.296)" fill="#1a1311"/>
      <path id="パス_26991" data-name="パス 26991" d="M724.51,685.341h-1.063l-6.119-6.663v6.663h-1.014v-8.22h1.026l6.156,6.737v-6.737h1.014Z" transform="translate(-594.475 -676.812)" fill="#1a1311"/>
      <path id="パス_26992" data-name="パス 26992" d="M749.251,680.746a4.376,4.376,0,1,1,4.388,4.363A4.128,4.128,0,0,1,749.251,680.746Zm4.351-3.474a3.12,3.12,0,0,0-3.3,3.387,3.2,3.2,0,0,0,3.338,3.474,3.123,3.123,0,0,0,3.313-3.387A3.213,3.213,0,0,0,753.6,677.273Z" transform="translate(-615.071 -676.296)" fill="#1a1311"/>
      <path id="パス_26993" data-name="パス 26993" d="M791.946,684.488a1.155,1.155,0,0,0,.42-.087l.037.989c-1.978.643-3.189-1.409-5.328-4.153l-2.423,1.817v2.287h-1.014v-8.22h1.014v4.734l6.292-4.734h1.582l-4.611,3.474C789.584,683.128,790.932,684.488,791.946,684.488Z" transform="translate(-636.573 -676.812)" fill="#1a1311"/>
      <path id="パス_26994" data-name="パス 26994" d="M820.813,682.609h-4.574l-1.347,2.732H813.8l4.042-8.22h1.36l4.042,8.22H822.16Zm-4.091-.989h3.6l-1.718-3.5h-.148Z" transform="translate(-655.435 -676.812)" fill="#1a1311"/>
    </g>
  </g>
</svg>
