<svg xmlns="http://www.w3.org/2000/svg" xmlns:xlink="http://www.w3.org/1999/xlink" width="20.84" height="20.84" viewBox="0 0 20.84 20.84">
  <defs>
    <clipPath id="clip-path">
      <rect width="20.84" height="20.84" fill="none"/>
    </clipPath>
  </defs>
  <g id="Flat_copy_5" clip-path="url(#clip-path)">
    <g id="Flat_copy_5-2" data-name="Flat_copy_5">
      <path id="パス_27183" data-name="パス 27183" d="M10.42,0A10.42,10.42,0,1,0,20.84,10.42,10.42,10.42,0,0,0,10.42,0Z"/>
      <path id="パス_27184" data-name="パス 27184" d="M14.379,8.826a2.4,2.4,0,0,0-1.616,2.412l.025.41-.414-.05A6.737,6.737,0,0,1,8.43,9.655l-.547-.544-.14.4a2.421,2.421,0,0,0,.514,2.48c.331.352.257.4-.315.193a.966.966,0,0,0-.389-.092,3.006,3.006,0,0,0,.3,1.123,2.679,2.679,0,0,0,1.135,1.073l.406.193-.481.007c-.464,0-.481.008-.43.185a2.505,2.505,0,0,0,1.549,1.374l.514.176-.447.268a4.638,4.638,0,0,1-2.221.619,2.444,2.444,0,0,0-.68.067,6.35,6.35,0,0,0,1.6.737,6.992,6.992,0,0,0,5.435-.62,7.281,7.281,0,0,0,2.759-3.251,8.635,8.635,0,0,0,.563-2.513c0-.386.025-.436.488-.9a5.572,5.572,0,0,0,.58-.645c.083-.16.074-.16-.348-.017-.7.251-.8.218-.455-.159a2.446,2.446,0,0,0,.563-.9c0-.025-.124.017-.265.092a4.545,4.545,0,0,1-.729.285l-.447.143-.406-.277a3.38,3.38,0,0,0-.7-.369,2.83,2.83,0,0,0-1.451.034Z" transform="translate(-2.51 -3.039)" fill="#fff"/>
    </g>
  </g>
</svg>
